<svg width="638" height="610" xmlns="http://www.w3.org/2000/svg" xmlns:xlink="http://www.w3.org/1999/xlink" overflow="hidden"><defs><filter id="fx0" x="-10%" y="-10%" width="120%" height="120%" filterUnits="userSpaceOnUse" primitiveUnits="userSpaceOnUse"><feComponentTransfer color-interpolation-filters="sRGB"><feFuncR type="discrete" tableValues="0.282353 0.282353"/><feFuncG type="discrete" tableValues="0.454902 0.454902"/><feFuncB type="discrete" tableValues="0.796078 0.796078"/><feFuncA type="linear" slope="0.6" intercept="0"/></feComponentTransfer><feGaussianBlur stdDeviation="3.55556 3.55556"/></filter><filter id="fx1" x="-10%" y="-10%" width="120%" height="120%" filterUnits="userSpaceOnUse" primitiveUnits="userSpaceOnUse"><feComponentTransfer color-interpolation-filters="sRGB"><feFuncR type="discrete" tableValues="0.282353 0.282353"/><feFuncG type="discrete" tableValues="0.454902 0.454902"/><feFuncB type="discrete" tableValues="0.796078 0.796078"/><feFuncA type="linear" slope="0.6" intercept="0"/></feComponentTransfer><feGaussianBlur stdDeviation="3.55556 3.55556"/></filter><filter id="fx2" x="-10%" y="-10%" width="120%" height="120%" filterUnits="userSpaceOnUse" primitiveUnits="userSpaceOnUse"><feComponentTransfer color-interpolation-filters="sRGB"><feFuncR type="discrete" tableValues="0.282353 0.282353"/><feFuncG type="discrete" tableValues="0.454902 0.454902"/><feFuncB type="discrete" tableValues="0.796078 0.796078"/><feFuncA type="linear" slope="0.6" intercept="0"/></feComponentTransfer><feGaussianBlur stdDeviation="3.55556 3.55556"/></filter><filter id="fx3" x="-10%" y="-10%" width="120%" height="120%" filterUnits="userSpaceOnUse" primitiveUnits="userSpaceOnUse"><feComponentTransfer color-interpolation-filters="sRGB"><feFuncR type="discrete" tableValues="0.282353 0.282353"/><feFuncG type="discrete" tableValues="0.454902 0.454902"/><feFuncB type="discrete" tableValues="0.796078 0.796078"/><feFuncA type="linear" slope="0.6" intercept="0"/></feComponentTransfer><feGaussianBlur stdDeviation="3.55556 3.55556"/></filter><clipPath id="clip4"><rect x="322" y="41" width="638" height="610"/></clipPath><clipPath id="clip5"><path d="M361.167 242.5C346.439 242.5 334.5 254.439 334.5 269.167L334.5 485.833C334.5 500.561 346.439 512.5 361.167 512.5L467.833 512.5C482.561 512.5 494.5 500.561 494.5 485.833L494.5 269.167C494.5 254.439 482.561 242.5 467.833 242.5ZM322 41 960 41 960 651 322 651Z" fill-rule="evenodd" clip-rule="evenodd"/></clipPath><clipPath id="clip6"><rect x="14" y="11" width="108" height="45"/></clipPath><clipPath id="clip7"><path d="M791.5 131C776.865 131 765 142.865 765 157.5L765 485.5C765 500.135 776.865 512 791.5 512L897.5 512C912.135 512 924 500.135 924 485.5L924 157.5C924 142.865 912.135 131 897.5 131ZM322 41 960 41 960 651 322 651Z" fill-rule="evenodd" clip-rule="evenodd"/></clipPath><clipPath id="clip8"><rect x="14" y="11" width="110" height="45"/></clipPath></defs><g clip-path="url(#clip4)" transform="translate(-322 -41)"><text fill="#767171" font-family="Calibri,Calibri_MSFontService,sans-serif" font-weight="400" font-size="27" transform="translate(800.49 595)">Outputs</text><text fill="#767171" font-family="Microsoft YaHei,Microsoft YaHei_MSFontService,sans-serif" font-weight="400" font-size="27" transform="translate(756.656 627)">（</text><text fill="#767171" font-family="Calibri,Calibri_MSFontService,sans-serif" font-weight="400" font-size="27" transform="translate(783.323 627)">Shifted right</text><text fill="#767171" font-family="Microsoft YaHei,Microsoft YaHei_MSFontService,sans-serif" font-weight="400" font-size="27" transform="translate(916.79 627)">）</text><text fill="#767171" font-family="Calibri,Calibri_MSFontService,sans-serif" font-weight="400" font-size="27" transform="translate(377.059 590)">Inputs</text><path d="M1.33333-2.31786e-06 1.33343 53.7263-1.33324 53.7263-1.33333 2.31786e-06ZM4.00009 52.393 0.000104987 60.393-3.99991 52.393Z" fill="#4874CB" transform="matrix(1 0 0 -1 414.5 572.893)"/><path d="M1.33333-2.31786e-06 1.33343 53.7263-1.33324 53.7263-1.33333 2.31786e-06ZM4.00009 52.393 0.000104987 60.393-3.99991 52.393Z" fill="#4874CB" transform="matrix(1 0 0 -1 845.5 572.893)"/><g clip-path="url(#clip5)"><g filter="url(#fx0)" transform="translate(321 235)"><g><path d="M13.5001 39.5006C13.5001 24.7727 25.4394 12.8334 40.1673 12.8334L146.833 12.8334C161.561 12.8334 173.5 24.7727 173.5 39.5006L173.5 256.166C173.5 270.894 161.561 282.833 146.833 282.833L40.1673 282.833C25.4394 282.833 13.5001 270.894 13.5001 256.166Z" stroke="#2E54A1" stroke-width="3" stroke-miterlimit="8" fill="#4874CB" fill-rule="evenodd"/></g></g><g clip-path="url(#clip6)" filter="url(#fx1)" transform="translate(347 348)"><g><path d="M10.4531-0.832031C10.4531-0.691406 10.4453-0.568359 10.4297-0.462891 10.4141-0.357422 10.3867-0.269531 10.3477-0.199219 10.3086-0.128906 10.2637-0.078125 10.2129-0.046875 10.1621-0.015625 10.1055 0 10.043 0L2.76562 0C2.58594 0 2.41602-0.0605469 2.25586-0.181641 2.0957-0.302734 2.01562-0.515625 2.01562-0.820312L2.01562-14.3438C2.01562-14.6484 2.0957-14.8613 2.25586-14.9824 2.41602-15.1035 2.58594-15.1641 2.76562-15.1641L9.96094-15.1641C10.0234-15.1641 10.0801-15.1484 10.1309-15.1172 10.1816-15.0859 10.2227-15.0352 10.2539-14.9648 10.2852-14.8945 10.3105-14.8066 10.3301-14.7012 10.3496-14.5957 10.3594-14.4648 10.3594-14.3086 10.3594-14.168 10.3496-14.0449 10.3301-13.9395 10.3105-13.834 10.2852-13.748 10.2539-13.6816 10.2227-13.6152 10.1816-13.5664 10.1309-13.5352 10.0801-13.5039 10.0234-13.4883 9.96094-13.4883L4.03125-13.4883 4.03125-8.73047 9.11719-8.73047C9.17969-8.73047 9.23633-8.71289 9.28711-8.67773 9.33789-8.64258 9.38086-8.59375 9.41602-8.53125 9.45117-8.46875 9.47656-8.38281 9.49219-8.27344 9.50781-8.16406 9.51562-8.03516 9.51562-7.88672 9.51562-7.74609 9.50781-7.625 9.49219-7.52344 9.47656-7.42187 9.45117-7.33984 9.41602-7.27734 9.38086-7.21484 9.33789-7.16992 9.28711-7.14258 9.23633-7.11523 9.17969-7.10156 9.11719-7.10156L4.03125-7.10156 4.03125-1.67578 10.043-1.67578C10.1055-1.67578 10.1621-1.66016 10.2129-1.62891 10.2637-1.59766 10.3086-1.54883 10.3477-1.48242 10.3867-1.41602 10.4141-1.33008 10.4297-1.22461 10.4453-1.11914 10.4531-0.988281 10.4531-0.832031ZM22.5417-0.292969C22.5417-0.230469 22.526-0.177734 22.4948-0.134766 22.4635-0.0917969 22.4128-0.0546875 22.3424-0.0234375 22.2721 0.0078125 22.1745 0.03125 22.0495 0.046875 21.9245 0.0625 21.7682 0.0703125 21.5807 0.0703125 21.3854 0.0703125 21.2253 0.0625 21.1003 0.046875 20.9753 0.03125 20.8776 0.0078125 20.8073-0.0234375 20.737-0.0546875 20.6862-0.0917969 20.6549-0.134766 20.6237-0.177734 20.6081-0.230469 20.6081-0.292969L20.6081-6.46875C20.6081-7.07031 20.5612-7.55469 20.4674-7.92188 20.3737-8.28906 20.237-8.60547 20.0573-8.87109 19.8776-9.13672 19.6452-9.33984 19.36-9.48047 19.0749-9.62109 18.7448-9.69141 18.3698-9.69141 17.8854-9.69141 17.401-9.51953 16.9167-9.17578 16.4323-8.83203 15.9245-8.32812 15.3932-7.66406L15.3932-0.292969C15.3932-0.230469 15.3776-0.177734 15.3464-0.134766 15.3151-0.0917969 15.2643-0.0546875 15.194-0.0234375 15.1237 0.0078125 15.026 0.03125 14.901 0.046875 14.776 0.0625 14.6159 0.0703125 14.4206 0.0703125 14.2331 0.0703125 14.0768 0.0625 13.9518 0.046875 13.8268 0.03125 13.7272 0.0078125 13.653-0.0234375 13.5788-0.0546875 13.528-0.0917969 13.5007-0.134766 13.4733-0.177734 13.4596-0.230469 13.4596-0.292969L13.4596-10.8398C13.4596-10.9023 13.4714-10.9551 13.4948-10.998 13.5182-11.041 13.5651-11.0801 13.6354-11.1152 13.7057-11.1504 13.7956-11.1738 13.9049-11.1855 14.0143-11.1973 14.1589-11.2031 14.3385-11.2031 14.5104-11.2031 14.653-11.1973 14.7663-11.1855 14.8796-11.1738 14.9674-11.1504 15.0299-11.1152 15.0924-11.0801 15.1374-11.041 15.1647-10.998 15.1921-10.9551 15.2057-10.9023 15.2057-10.8398L15.2057-9.44531C15.7995-10.1094 16.3913-10.5957 16.9811-10.9043 17.571-11.2129 18.1667-11.3672 18.7682-11.3672 19.4714-11.3672 20.0632-11.248 20.5436-11.0098 21.0241-10.7715 21.4128-10.4531 21.7096-10.0547 22.0065-9.65625 22.2194-9.18945 22.3483-8.6543 22.4772-8.11914 22.5417-7.47656 22.5417-6.72656ZM33.7083-1.89844C33.7083-1.76562 33.7044-1.65039 33.6966-1.55273 33.6888-1.45508 33.6751-1.37305 33.6556-1.30664 33.6361-1.24023 33.6126-1.18164 33.5853-1.13086 33.5579-1.08008 33.4954-1.00586 33.3978-0.908203 33.3001-0.810547 33.1341-0.689453 32.8997-0.544922 32.6654-0.400391 32.4017-0.271484 32.1087-0.158203 31.8158-0.0449219 31.4974 0.046875 31.1536 0.117188 30.8099 0.1875 30.4544 0.222656 30.0872 0.222656 29.3294 0.222656 28.6576 0.0976562 28.0716-0.152344 27.4857-0.402344 26.9954-0.767578 26.6009-1.24805 26.2064-1.72852 25.9056-2.31836 25.6986-3.01758 25.4915-3.7168 25.388-4.52344 25.388-5.4375 25.388-6.47656 25.515-7.36914 25.7689-8.11523 26.0228-8.86133 26.3704-9.47266 26.8118-9.94922 27.2533-10.4258 27.7728-10.7793 28.3704-11.0098 28.9681-11.2402 29.6146-11.3555 30.3099-11.3555 30.6458-11.3555 30.972-11.3242 31.2884-11.2617 31.6048-11.1992 31.8958-11.1172 32.1615-11.0156 32.4271-10.9141 32.6634-10.7969 32.8704-10.6641 33.0775-10.5312 33.2279-10.418 33.3216-10.3242 33.4154-10.2305 33.4798-10.1562 33.515-10.1016 33.5501-10.0469 33.5794-9.98242 33.6029-9.9082 33.6263-9.83398 33.6419-9.75 33.6497-9.65625 33.6576-9.5625 33.6615-9.44531 33.6615-9.30469 33.6615-9 33.6263-8.78711 33.556-8.66602 33.4857-8.54492 33.3997-8.48438 33.2982-8.48438 33.181-8.48438 33.0462-8.54883 32.8939-8.67773 32.7415-8.80664 32.5482-8.94922 32.3138-9.10547 32.0794-9.26172 31.7962-9.4043 31.4642-9.5332 31.1322-9.66211 30.7396-9.72656 30.2865-9.72656 29.3568-9.72656 28.6439-9.36914 28.1478-8.6543 27.6517-7.93945 27.4036-6.90234 27.4036-5.54297 27.4036-4.86328 27.4681-4.26758 27.597-3.75586 27.7259-3.24414 27.9154-2.81641 28.1654-2.47266 28.4154-2.12891 28.722-1.87305 29.0853-1.70508 29.4486-1.53711 29.8646-1.45312 30.3333-1.45312 30.7786-1.45312 31.1693-1.52344 31.5052-1.66406 31.8411-1.80469 32.1322-1.95898 32.3783-2.12695 32.6244-2.29492 32.8314-2.44727 32.9994-2.58398 33.1673-2.7207 33.2982-2.78906 33.3919-2.78906 33.4466-2.78906 33.4935-2.77344 33.5326-2.74219 33.5716-2.71094 33.6048-2.6582 33.6322-2.58398 33.6595-2.50977 33.679-2.41602 33.6908-2.30273 33.7025-2.18945 33.7083-2.05469 33.7083-1.89844ZM45.9016-5.68359C45.9016-4.82422 45.7883-4.0332 45.5617-3.31055 45.3352-2.58789 44.9973-1.96484 44.548-1.44141 44.0988-0.917969 43.5363-0.509766 42.8605-0.216797 42.1848 0.0761719 41.4016 0.222656 40.5109 0.222656 39.6438 0.222656 38.8879 0.09375 38.2434-0.164062 37.5988-0.421875 37.0617-0.796875 36.632-1.28906 36.2023-1.78125 35.882-2.37891 35.6711-3.08203 35.4602-3.78516 35.3547-4.58203 35.3547-5.47266 35.3547-6.33203 35.466-7.12305 35.6887-7.8457 35.9113-8.56836 36.2473-9.19141 36.6965-9.71484 37.1457-10.2383 37.7063-10.6445 38.3781-10.9336 39.05-11.2227 39.8352-11.3672 40.7336-11.3672 41.6008-11.3672 42.3566-11.2383 43.0012-10.9805 43.6457-10.7227 44.1828-10.3477 44.6125-9.85547 45.0422-9.36328 45.3645-8.76562 45.5793-8.0625 45.7941-7.35937 45.9016-6.56641 45.9016-5.68359ZM43.8977-5.55469C43.8977-6.125 43.8444-6.66406 43.738-7.17188 43.6315-7.67969 43.4561-8.125 43.2117-8.50781 42.9674-8.89062 42.6363-9.19336 42.2185-9.41602 41.8007-9.63867 41.2804-9.75 40.6576-9.75 40.0822-9.75 39.5875-9.64844 39.1736-9.44531 38.7598-9.24219 38.4188-8.95508 38.1508-8.58398 37.8828-8.21289 37.6838-7.77344 37.5537-7.26562 37.4236-6.75781 37.3586-6.20312 37.3586-5.60156 37.3586-5.02344 37.4118-4.48047 37.5183-3.97266 37.6247-3.46484 37.8021-3.02148 38.0504-2.64258 38.2987-2.26367 38.6317-1.96289 39.0495-1.74023 39.4673-1.51758 39.9876-1.40625 40.6104-1.40625 41.178-1.40625 41.6707-1.50781 42.0885-1.71094 42.5063-1.91406 42.8492-2.19922 43.1172-2.56641 43.3852-2.93359 43.5823-3.37109 43.7084-3.87891 43.8346-4.38672 43.8977-4.94531 43.8977-5.55469ZM57.7948-0.292969C57.7948-0.230469 57.7811-0.175781 57.7538-0.128906 57.7264-0.0820312 57.6796-0.0449219 57.6132-0.0175781 57.5467 0.00976562 57.4589 0.03125 57.3495 0.046875 57.2401 0.0625 57.1073 0.0703125 56.951 0.0703125 56.787 0.0703125 56.6503 0.0625 56.5409 0.046875 56.4315 0.03125 56.3417 0.00976562 56.2714-0.0175781 56.201-0.0449219 56.1503-0.0820312 56.119-0.128906 56.0878-0.175781 56.0721-0.230469 56.0721-0.292969L56.0721-1.6875C55.5174-1.08594 54.9413-0.617187 54.3436-0.28125 53.746 0.0546875 53.0917 0.222656 52.3807 0.222656 51.6073 0.222656 50.9471 0.0722656 50.4003-0.228516 49.8534-0.529297 49.41-0.935547 49.0702-1.44727 48.7303-1.95898 48.4823-2.56055 48.326-3.25195 48.1698-3.94336 48.0917-4.67188 48.0917-5.4375 48.0917-6.34375 48.1893-7.16211 48.3846-7.89258 48.5799-8.62305 48.869-9.24609 49.2518-9.76172 49.6346-10.2773 50.1092-10.6738 50.6757-10.9512 51.2421-11.2285 51.8964-11.3672 52.6385-11.3672 53.2557-11.3672 53.8202-11.2324 54.3319-10.9629 54.8436-10.6934 55.3495-10.2969 55.8495-9.77344L55.8495-15.9023C55.8495-15.957 55.8632-16.0098 55.8905-16.0605 55.9178-16.1113 55.9706-16.1504 56.0487-16.1777 56.1268-16.2051 56.2264-16.2285 56.3475-16.248 56.4686-16.2676 56.6229-16.2773 56.8104-16.2773 57.0057-16.2773 57.1659-16.2676 57.2909-16.248 57.4159-16.2285 57.5135-16.2051 57.5839-16.1777 57.6542-16.1504 57.7069-16.1113 57.7421-16.0605 57.7772-16.0098 57.7948-15.957 57.7948-15.9023ZM55.8495-7.71094C55.326-8.35938 54.8202-8.85352 54.3319-9.19336 53.8436-9.5332 53.3339-9.70312 52.8026-9.70312 52.3104-9.70312 51.8924-9.58594 51.5487-9.35156 51.2049-9.11719 50.9257-8.80859 50.7108-8.42578 50.496-8.04297 50.3397-7.60937 50.2421-7.125 50.1444-6.64062 50.0956-6.14844 50.0956-5.64844 50.0956-5.11719 50.1366-4.59766 50.2186-4.08984 50.3007-3.58203 50.4432-3.13086 50.6464-2.73633 50.8495-2.3418 51.119-2.02539 51.455-1.78711 51.7909-1.54883 52.2128-1.42969 52.7206-1.42969 52.9784-1.42969 53.2264-1.46484 53.4647-1.53516 53.703-1.60547 53.9471-1.72266 54.1971-1.88672 54.4471-2.05078 54.7089-2.26367 54.9823-2.52539 55.2557-2.78711 55.5448-3.10938 55.8495-3.49219ZM70.4263-6.02344C70.4263-5.71875 70.3498-5.50195 70.1968-5.37305 70.0438-5.24414 69.8691-5.17969 69.6728-5.17969L62.7271-5.17969C62.7271-4.59375 62.786-4.06641 62.9037-3.59766 63.0214-3.12891 63.2177-2.72656 63.4925-2.39062 63.7673-2.05469 64.1245-1.79687 64.5641-1.61719 65.0037-1.4375 65.5415-1.34766 66.1773-1.34766 66.6798-1.34766 67.1273-1.38867 67.5198-1.4707 67.9123-1.55273 68.2518-1.64453 68.5384-1.74609 68.825-1.84766 69.0605-1.93945 69.245-2.02148 69.4295-2.10352 69.5689-2.14453 69.6631-2.14453 69.7181-2.14453 69.7671-2.13086 69.8102-2.10352 69.8534-2.07617 69.8868-2.03516 69.9103-1.98047 69.9339-1.92578 69.9515-1.84961 69.9633-1.75195 69.9751-1.6543 69.981-1.53516 69.981-1.39453 69.981-1.29297 69.9771-1.20508 69.9693-1.13086 69.9615-1.05664 69.9517-0.990234 69.94-0.931641 69.9283-0.873047 69.9087-0.820312 69.8814-0.773438 69.854-0.726562 69.8189-0.681641 69.7759-0.638672 69.7329-0.595703 69.606-0.525391 69.3951-0.427734 69.1841-0.330078 68.9107-0.234375 68.5747-0.140625 68.2388-0.046875 67.8501 0.0371094 67.4087 0.111328 66.9673 0.185547 66.4966 0.222656 65.9966 0.222656 65.1294 0.222656 64.3697 0.101562 63.7173-0.140625 63.065-0.382812 62.5162-0.742188 62.0708-1.21875 61.6255-1.69531 61.2896-2.29297 61.063-3.01172 60.8365-3.73047 60.7232-4.56641 60.7232-5.51953 60.7232-6.42578 60.8404-7.24023 61.0747-7.96289 61.3091-8.68555 61.647-9.29883 62.0884-9.80273 62.5298-10.3066 63.063-10.6934 63.688-10.9629 64.313-11.2324 65.0122-11.3672 65.7857-11.3672 66.6138-11.3672 67.3189-11.2344 67.9009-10.9688 68.4829-10.7031 68.9615-10.3457 69.3365-9.89648 69.7115-9.44727 69.9869-8.91992 70.1626-8.31445 70.3384-7.70898 70.4263-7.0625 70.4263-6.375ZM68.481-6.59766C68.5044-7.61328 68.2784-8.41016 67.803-8.98828 67.3275-9.56641 66.622-9.85547 65.6866-9.85547 65.2071-9.85547 64.7866-9.76562 64.425-9.58594 64.0635-9.40625 63.7608-9.16797 63.5171-8.87109 63.2734-8.57422 63.0847-8.22852 62.9511-7.83398 62.8175-7.43945 62.7428-7.02734 62.7271-6.59766ZM79.5904-10.1484C79.5904-9.97656 79.5865-9.83203 79.5787-9.71484 79.5708-9.59766 79.5552-9.50586 79.5318-9.43945 79.5083-9.37305 79.479-9.32227 79.4439-9.28711 79.4087-9.25195 79.3599-9.23438 79.2974-9.23438 79.2349-9.23438 79.1587-9.25195 79.0689-9.28711 78.979-9.32227 78.8775-9.35742 78.7642-9.39258 78.6509-9.42773 78.524-9.46094 78.3833-9.49219 78.2427-9.52344 78.0904-9.53906 77.9263-9.53906 77.731-9.53906 77.5396-9.5 77.3521-9.42188 77.1646-9.34375 76.9673-9.21484 76.7603-9.03516 76.5533-8.85547 76.3365-8.61719 76.1099-8.32031 75.8833-8.02344 75.6333-7.66016 75.3599-7.23047L75.3599-0.292969C75.3599-0.230469 75.3443-0.177734 75.313-0.134766 75.2818-0.0917969 75.231-0.0546875 75.1607-0.0234375 75.0904 0.0078125 74.9927 0.03125 74.8677 0.046875 74.7427 0.0625 74.5826 0.0703125 74.3872 0.0703125 74.1997 0.0703125 74.0435 0.0625 73.9185 0.046875 73.7935 0.03125 73.6939 0.0078125 73.6197-0.0234375 73.5454-0.0546875 73.4947-0.0917969 73.4673-0.134766 73.44-0.177734 73.4263-0.230469 73.4263-0.292969L73.4263-10.8398C73.4263-10.9023 73.438-10.9551 73.4615-10.998 73.4849-11.041 73.5318-11.0801 73.6021-11.1152 73.6724-11.1504 73.7622-11.1738 73.8716-11.1855 73.981-11.1973 74.1255-11.2031 74.3052-11.2031 74.4771-11.2031 74.6197-11.1973 74.7329-11.1855 74.8462-11.1738 74.9341-11.1504 74.9966-11.1152 75.0591-11.0801 75.104-11.041 75.1314-10.998 75.1587-10.9551 75.1724-10.9023 75.1724-10.8398L75.1724-9.30469C75.4615-9.72656 75.7329-10.0703 75.9869-10.3359 76.2408-10.6016 76.481-10.8105 76.7076-10.9629 76.9341-11.1152 77.1587-11.2207 77.3814-11.2793 77.604-11.3379 77.8287-11.3672 78.0552-11.3672 78.1568-11.3672 78.272-11.3613 78.4009-11.3496 78.5298-11.3379 78.6646-11.3164 78.8052-11.2852 78.9458-11.2539 79.0728-11.2188 79.1861-11.1797 79.2994-11.1406 79.3794-11.1016 79.4263-11.0625 79.4732-11.0234 79.5044-10.9863 79.5201-10.9512 79.5357-10.916 79.5494-10.8711 79.5611-10.8164 79.5728-10.7617 79.5806-10.6816 79.5845-10.5762 79.5884-10.4707 79.5904-10.3281 79.5904-10.1484Z" fill="#FFFFFF" transform="translate(26.8833 42)"/></g></g></g><path d="M334.5 269.167C334.5 254.439 346.439 242.5 361.167 242.5L467.833 242.5C482.561 242.5 494.5 254.439 494.5 269.167L494.5 485.833C494.5 500.561 482.561 512.5 467.833 512.5L361.167 512.5C346.439 512.5 334.5 500.561 334.5 485.833Z" stroke="#2E54A1" stroke-width="2.66667" stroke-miterlimit="8" fill="#4874CB" fill-rule="evenodd"/><text fill="#FFFFFF" font-family="Calibri,Calibri_MSFontService,sans-serif" font-weight="400" font-size="24" transform="translate(373.883 384)">Encoder</text><g clip-path="url(#clip7)"><g filter="url(#fx2)" transform="translate(752 123)"><g><path d="M13 39.8337C13 25.198 24.8646 13.3333 39.5004 13.3333L145.5 13.3333C160.135 13.3333 172 25.198 172 39.8337L172 367.833C172 382.469 160.135 394.333 145.5 394.333L39.5004 394.333C24.8646 394.333 13 382.469 13 367.833Z" stroke="#2E54A1" stroke-width="2" stroke-miterlimit="8" fill="#91ACE0" fill-rule="evenodd"/></g></g><g clip-path="url(#clip8)" filter="url(#fx3)" transform="translate(777 278)"><g><path d="M13.6758-7.80469C13.6758-6.49219 13.5078-5.3457 13.1719-4.36523 12.8359-3.38477 12.3457-2.57227 11.7012-1.92773 11.0566-1.2832 10.2656-0.800781 9.32812-0.480469 8.39062-0.160156 7.27344 0 5.97656 0L2.76562 0C2.58594 0 2.41602-0.0605469 2.25586-0.181641 2.0957-0.302734 2.01562-0.515625 2.01562-0.820312L2.01562-14.3438C2.01562-14.6484 2.0957-14.8613 2.25586-14.9824 2.41602-15.1035 2.58594-15.1641 2.76562-15.1641L6.19922-15.1641C7.51172-15.1641 8.62109-14.9941 9.52734-14.6543 10.4336-14.3145 11.1934-13.8262 11.8066-13.1895 12.4199-12.5527 12.8848-11.7812 13.2012-10.875 13.5176-9.96875 13.6758-8.94531 13.6758-7.80469ZM11.5547-7.72266C11.5547-8.54297 11.4531-9.30664 11.25-10.0137 11.0469-10.7207 10.7285-11.332 10.2949-11.8477 9.86133-12.3633 9.3125-12.7656 8.64844-13.0547 7.98437-13.3437 7.12891-13.4883 6.08203-13.4883L4.03125-13.4883 4.03125-1.6875 6.10547-1.6875C7.07422-1.6875 7.89062-1.80859 8.55469-2.05078 9.21875-2.29297 9.77344-2.66406 10.2188-3.16406 10.6641-3.66406 10.998-4.29102 11.2207-5.04492 11.4434-5.79883 11.5547-6.69141 11.5547-7.72266Z" fill="#FFFFFF" transform="translate(26.3551 42)"/><path d="M10.793-6.02344C10.793-5.71875 10.7165-5.50195 10.5634-5.37305 10.4104-5.24414 10.2358-5.17969 10.0395-5.17969L3.09375-5.17969C3.09375-4.59375 3.15262-4.06641 3.27036-3.59766 3.38809-3.12891 3.58435-2.72656 3.85913-2.39062 4.13391-2.05469 4.49112-1.79687 4.93076-1.61719 5.37039-1.4375 5.90814-1.34766 6.54401-1.34766 7.04645-1.34766 7.49393-1.38867 7.88644-1.4707 8.27896-1.55273 8.6185-1.64453 8.90506-1.74609 9.19162-1.84766 9.42715-1.93945 9.61166-2.02148 9.79617-2.10352 9.93555-2.14453 10.0298-2.14453 10.0847-2.14453 10.1338-2.13086 10.1769-2.10352 10.2201-2.07617 10.2534-2.03516 10.277-1.98047 10.3005-1.92578 10.3182-1.84961 10.33-1.75195 10.3418-1.6543 10.3477-1.53516 10.3477-1.39453 10.3477-1.29297 10.3438-1.20508 10.3359-1.13086 10.3281-1.05664 10.3184-0.990234 10.3066-0.931641 10.2949-0.873047 10.2754-0.820312 10.248-0.773438 10.2207-0.726562 10.1855-0.681641 10.1426-0.638672 10.0996-0.595703 9.97266-0.525391 9.76172-0.427734 9.55078-0.330078 9.27734-0.234375 8.94141-0.140625 8.60547-0.046875 8.2168 0.0371094 7.77539 0.111328 7.33398 0.185547 6.86328 0.222656 6.36328 0.222656 5.49609 0.222656 4.73633 0.101562 4.08398-0.140625 3.43164-0.382812 2.88281-0.742188 2.4375-1.21875 1.99219-1.69531 1.65625-2.29297 1.42969-3.01172 1.20312-3.73047 1.08984-4.56641 1.08984-5.51953 1.08984-6.42578 1.20703-7.24023 1.44141-7.96289 1.67578-8.68555 2.01367-9.29883 2.45508-9.80273 2.89648-10.3066 3.42969-10.6934 4.05469-10.9629 4.67969-11.2324 5.37891-11.3672 6.15234-11.3672 6.98047-11.3672 7.68555-11.2344 8.26758-10.9688 8.84961-10.7031 9.32812-10.3457 9.70312-9.89648 10.0781-9.44727 10.3535-8.91992 10.5293-8.31445 10.7051-7.70898 10.793-7.0625 10.793-6.375ZM8.84766-6.59766C8.87109-7.61328 8.64508-8.41016 8.16962-8.98828 7.69415-9.56641 6.98871-9.85547 6.05328-9.85547 5.57379-9.85547 5.15326-9.76562 4.79169-9.58594 4.43011-9.40625 4.12747-9.16797 3.88376-8.87109 3.64004-8.57422 3.45139-8.22852 3.31778-7.83398 3.18417-7.43945 3.1095-7.02734 3.09375-6.59766Z" fill="#FFFFFF" transform="translate(41.1885 42)"/><path d="M9.375-1.89844C9.375-1.76562 9.37109-1.65039 9.36328-1.55273 9.35547-1.45508 9.3418-1.37305 9.32227-1.30664 9.30273-1.24023 9.2793-1.18164 9.25195-1.13086 9.22461-1.08008 9.16211-1.00586 9.06445-0.908203 8.9668-0.810547 8.80078-0.689453 8.56641-0.544922 8.33203-0.400391 8.06836-0.271484 7.77539-0.158203 7.48242-0.0449219 7.16406 0.046875 6.82031 0.117188 6.47656 0.1875 6.12109 0.222656 5.75391 0.222656 4.99609 0.222656 4.32422 0.0976562 3.73828-0.152344 3.15234-0.402344 2.66211-0.767578 2.26758-1.24805 1.87305-1.72852 1.57227-2.31836 1.36523-3.01758 1.1582-3.7168 1.05469-4.52344 1.05469-5.4375 1.05469-6.47656 1.18164-7.36914 1.43555-8.11523 1.68945-8.86133 2.03711-9.47266 2.47852-9.94922 2.91992-10.4258 3.43945-10.7793 4.03711-11.0098 4.63477-11.2402 5.28125-11.3555 5.97656-11.3555 6.3125-11.3555 6.63867-11.3242 6.95508-11.2617 7.27148-11.1992 7.5625-11.1172 7.82812-11.0156 8.09375-10.9141 8.33008-10.7969 8.53711-10.6641 8.74414-10.5312 8.89453-10.418 8.98828-10.3242 9.08203-10.2305 9.14648-10.1562 9.18164-10.1016 9.2168-10.0469 9.24609-9.98242 9.26953-9.9082 9.29297-9.83398 9.30859-9.75 9.31641-9.65625 9.32422-9.5625 9.32812-9.44531 9.32812-9.30469 9.32812-9 9.29297-8.78711 9.22266-8.66602 9.15234-8.54492 9.06641-8.48438 8.96484-8.48438 8.84766-8.48438 8.71289-8.54883 8.56055-8.67773 8.4082-8.80664 8.21484-8.94922 7.98047-9.10547 7.74609-9.26172 7.46289-9.4043 7.13086-9.5332 6.79883-9.66211 6.40625-9.72656 5.95312-9.72656 5.02344-9.72656 4.31055-9.36914 3.81445-8.6543 3.31836-7.93945 3.07031-6.90234 3.07031-5.54297 3.07031-4.86328 3.13477-4.26758 3.26367-3.75586 3.39258-3.24414 3.58203-2.81641 3.83203-2.47266 4.08203-2.12891 4.38867-1.87305 4.75195-1.70508 5.11523-1.53711 5.53125-1.45312 6-1.45312 6.44531-1.45312 6.83594-1.52344 7.17188-1.66406 7.50781-1.80469 7.79883-1.95898 8.04492-2.12695 8.29102-2.29492 8.49805-2.44727 8.66602-2.58398 8.83398-2.7207 8.96484-2.78906 9.05859-2.78906 9.11328-2.78906 9.16016-2.77344 9.19922-2.74219 9.23828-2.71094 9.27148-2.6582 9.29883-2.58398 9.32617-2.50977 9.3457-2.41602 9.35742-2.30273 9.36914-2.18945 9.375-2.05469 9.375-1.89844ZM21.5682-5.68359C21.5682-4.82422 21.4549-4.0332 21.2284-3.31055 21.0018-2.58789 20.6639-1.96484 20.2147-1.44141 19.7655-0.917969 19.203-0.509766 18.5272-0.216797 17.8514 0.0761719 17.0682 0.222656 16.1776 0.222656 15.3104 0.222656 14.5546 0.09375 13.91-0.164062 13.2655-0.421875 12.7284-0.796875 12.2987-1.28906 11.869-1.78125 11.5487-2.37891 11.3378-3.08203 11.1268-3.78516 11.0214-4.58203 11.0214-5.47266 11.0214-6.33203 11.1327-7.12305 11.3553-7.8457 11.578-8.56836 11.9139-9.19141 12.3632-9.71484 12.8124-10.2383 13.3729-10.6445 14.0448-10.9336 14.7167-11.2227 15.5018-11.3672 16.4003-11.3672 17.2674-11.3672 18.0233-11.2383 18.6678-10.9805 19.3124-10.7227 19.8495-10.3477 20.2792-9.85547 20.7089-9.36328 21.0311-8.76562 21.246-8.0625 21.4608-7.35937 21.5682-6.56641 21.5682-5.68359ZM19.5643-5.55469C19.5643-6.125 19.5111-6.66406 19.4047-7.17188 19.2982-7.67969 19.1228-8.125 18.8784-8.50781 18.634-8.89062 18.3029-9.19336 17.8852-9.41602 17.4674-9.63867 16.9471-9.75 16.3243-9.75 15.7488-9.75 15.2542-9.64844 14.8403-9.44531 14.4264-9.24219 14.0855-8.95508 13.8175-8.58398 13.5495-8.21289 13.3504-7.77344 13.2204-7.26562 13.0903-6.75781 13.0253-6.20312 13.0253-5.60156 13.0253-5.02344 13.0785-4.48047 13.1849-3.97266 13.2914-3.46484 13.4687-3.02148 13.717-2.64258 13.9653-2.26367 14.2984-1.96289 14.7161-1.74023 15.1339-1.51758 15.6542-1.40625 16.277-1.40625 16.8447-1.40625 17.3374-1.50781 17.7551-1.71094 18.1729-1.91406 18.5158-2.19922 18.7838-2.56641 19.0518-2.93359 19.2489-3.37109 19.3751-3.87891 19.5012-4.38672 19.5643-4.94531 19.5643-5.55469ZM33.4615-0.292969C33.4615-0.230469 33.4478-0.175781 33.4204-0.128906 33.3931-0.0820312 33.3462-0.0449219 33.2798-0.0175781 33.2134 0.00976562 33.1255 0.03125 33.0161 0.046875 32.9068 0.0625 32.774 0.0703125 32.6177 0.0703125 32.4536 0.0703125 32.3169 0.0625 32.2076 0.046875 32.0982 0.03125 32.0083 0.00976562 31.938-0.0175781 31.8677-0.0449219 31.8169-0.0820312 31.7857-0.128906 31.7544-0.175781 31.7388-0.230469 31.7388-0.292969L31.7388-1.6875C31.1841-1.08594 30.6079-0.617187 30.0103-0.28125 29.4126 0.0546875 28.7583 0.222656 28.0474 0.222656 27.274 0.222656 26.6138 0.0722656 26.0669-0.228516 25.5201-0.529297 25.0767-0.935547 24.7369-1.44727 24.397-1.95898 24.149-2.56055 23.9927-3.25195 23.8365-3.94336 23.7583-4.67188 23.7583-5.4375 23.7583-6.34375 23.856-7.16211 24.0513-7.89258 24.2466-8.62305 24.5357-9.24609 24.9185-9.76172 25.3013-10.2773 25.7759-10.6738 26.3423-10.9512 26.9087-11.2285 27.563-11.3672 28.3052-11.3672 28.9224-11.3672 29.4868-11.2324 29.9986-10.9629 30.5103-10.6934 31.0161-10.2969 31.5161-9.77344L31.5161-15.9023C31.5161-15.957 31.5298-16.0098 31.5572-16.0605 31.5845-16.1113 31.6372-16.1504 31.7154-16.1777 31.7935-16.2051 31.8931-16.2285 32.0142-16.248 32.1353-16.2676 32.2896-16.2773 32.4771-16.2773 32.6724-16.2773 32.8326-16.2676 32.9576-16.248 33.0826-16.2285 33.1802-16.2051 33.2505-16.1777 33.3208-16.1504 33.3736-16.1113 33.4087-16.0605 33.4439-16.0098 33.4615-15.957 33.4615-15.9023ZM31.5161-7.71094C30.9927-8.35938 30.4868-8.85352 29.9986-9.19336 29.5103-9.5332 29.0005-9.70312 28.4693-9.70312 27.9771-9.70312 27.5591-9.58594 27.2154-9.35156 26.8716-9.11719 26.5923-8.80859 26.3775-8.42578 26.1626-8.04297 26.0064-7.60937 25.9087-7.125 25.8111-6.64062 25.7622-6.14844 25.7622-5.64844 25.7622-5.11719 25.8033-4.59766 25.8853-4.08984 25.9673-3.58203 26.1099-3.13086 26.313-2.73633 26.5161-2.3418 26.7857-2.02539 27.1216-1.78711 27.4576-1.54883 27.8794-1.42969 28.3872-1.42969 28.6451-1.42969 28.8931-1.46484 29.1314-1.53516 29.3697-1.60547 29.6138-1.72266 29.8638-1.88672 30.1138-2.05078 30.3755-2.26367 30.649-2.52539 30.9224-2.78711 31.2115-3.10938 31.5161-3.49219ZM46.093-6.02344C46.093-5.71875 46.0165-5.50195 45.8634-5.37305 45.7104-5.24414 45.5358-5.17969 45.3395-5.17969L38.3938-5.17969C38.3938-4.59375 38.4526-4.06641 38.5704-3.59766 38.6881-3.12891 38.8844-2.72656 39.1591-2.39062 39.4339-2.05469 39.7911-1.79687 40.2308-1.61719 40.6704-1.4375 41.2081-1.34766 41.844-1.34766 42.3465-1.34766 42.7939-1.38867 43.1864-1.4707 43.579-1.55273 43.9185-1.64453 44.2051-1.74609 44.4916-1.84766 44.7272-1.93945 44.9117-2.02148 45.0962-2.10352 45.2355-2.14453 45.3298-2.14453 45.3847-2.14453 45.4338-2.13086 45.4769-2.10352 45.5201-2.07617 45.5534-2.03516 45.577-1.98047 45.6005-1.92578 45.6182-1.84961 45.63-1.75195 45.6418-1.6543 45.6477-1.53516 45.6477-1.39453 45.6477-1.29297 45.6438-1.20508 45.6359-1.13086 45.6281-1.05664 45.6184-0.990234 45.6066-0.931641 45.5949-0.873047 45.5754-0.820312 45.548-0.773438 45.5207-0.726562 45.4855-0.681641 45.4426-0.638672 45.3996-0.595703 45.2727-0.525391 45.0617-0.427734 44.8508-0.330078 44.5773-0.234375 44.2414-0.140625 43.9055-0.046875 43.5168 0.0371094 43.0754 0.111328 42.634 0.185547 42.1633 0.222656 41.6633 0.222656 40.7961 0.222656 40.0363 0.101562 39.384-0.140625 38.7316-0.382812 38.1828-0.742188 37.7375-1.21875 37.2922-1.69531 36.9563-2.29297 36.7297-3.01172 36.5031-3.73047 36.3898-4.56641 36.3898-5.51953 36.3898-6.42578 36.507-7.24023 36.7414-7.96289 36.9758-8.68555 37.3137-9.29883 37.7551-9.80273 38.1965-10.3066 38.7297-10.6934 39.3547-10.9629 39.9797-11.2324 40.6789-11.3672 41.4523-11.3672 42.2805-11.3672 42.9855-11.2344 43.5676-10.9688 44.1496-10.7031 44.6281-10.3457 45.0031-9.89648 45.3781-9.44727 45.6535-8.91992 45.8293-8.31445 46.0051-7.70898 46.093-7.0625 46.093-6.375ZM44.1477-6.59766C44.1711-7.61328 43.9451-8.41016 43.4696-8.98828 42.9942-9.56641 42.2887-9.85547 41.3533-9.85547 40.8738-9.85547 40.4533-9.76562 40.0917-9.58594 39.7301-9.40625 39.4275-9.16797 39.1838-8.87109 38.94-8.57422 38.7514-8.22852 38.6178-7.83398 38.4842-7.43945 38.4095-7.02734 38.3938-6.59766ZM55.257-10.1484C55.257-9.97656 55.2531-9.83203 55.2453-9.71484 55.2375-9.59766 55.2219-9.50586 55.1984-9.43945 55.175-9.37305 55.1457-9.32227 55.1105-9.28711 55.0754-9.25195 55.0266-9.23438 54.9641-9.23438 54.9016-9.23438 54.8254-9.25195 54.7355-9.28711 54.6457-9.32227 54.5441-9.35742 54.4309-9.39258 54.3176-9.42773 54.1906-9.46094 54.05-9.49219 53.9094-9.52344 53.757-9.53906 53.593-9.53906 53.3977-9.53906 53.2063-9.5 53.0188-9.42188 52.8313-9.34375 52.634-9.21484 52.427-9.03516 52.2199-8.85547 52.0031-8.61719 51.7766-8.32031 51.55-8.02344 51.3-7.66016 51.0266-7.23047L51.0266-0.292969C51.0266-0.230469 51.0109-0.177734 50.9797-0.134766 50.9484-0.0917969 50.8977-0.0546875 50.8273-0.0234375 50.757 0.0078125 50.6594 0.03125 50.5344 0.046875 50.4094 0.0625 50.2492 0.0703125 50.0539 0.0703125 49.8664 0.0703125 49.7102 0.0625 49.5852 0.046875 49.4602 0.03125 49.3605 0.0078125 49.2863-0.0234375 49.2121-0.0546875 49.1613-0.0917969 49.134-0.134766 49.1066-0.177734 49.093-0.230469 49.093-0.292969L49.093-10.8398C49.093-10.9023 49.1047-10.9551 49.1281-10.998 49.1516-11.041 49.1984-11.0801 49.2688-11.1152 49.3391-11.1504 49.4289-11.1738 49.5383-11.1855 49.6477-11.1973 49.7922-11.2031 49.9719-11.2031 50.1438-11.2031 50.2863-11.1973 50.3996-11.1855 50.5129-11.1738 50.6008-11.1504 50.6633-11.1152 50.7258-11.0801 50.7707-11.041 50.798-10.998 50.8254-10.9551 50.8391-10.9023 50.8391-10.8398L50.8391-9.30469C51.1281-9.72656 51.3996-10.0703 51.6535-10.3359 51.9074-10.6016 52.1477-10.8105 52.3742-10.9629 52.6008-11.1152 52.8254-11.2207 53.048-11.2793 53.2707-11.3379 53.4953-11.3672 53.7219-11.3672 53.8234-11.3672 53.9387-11.3613 54.0676-11.3496 54.1965-11.3379 54.3313-11.3164 54.4719-11.2852 54.6125-11.2539 54.7395-11.2188 54.8527-11.1797 54.966-11.1406 55.0461-11.1016 55.093-11.0625 55.1398-11.0234 55.1711-10.9863 55.1867-10.9512 55.2023-10.916 55.216-10.8711 55.2277-10.8164 55.2395-10.7617 55.2473-10.6816 55.2512-10.5762 55.2551-10.4707 55.257-10.3281 55.257-10.1484Z" fill="#FFFFFF" transform="translate(53.1885 42)"/></g></g></g><path d="M765 157.5C765 142.865 776.865 131 791.5 131L897.5 131C912.135 131 924 142.865 924 157.5L924 485.5C924 500.135 912.135 512 897.5 512L791.5 512C776.865 512 765 500.135 765 485.5Z" stroke="#2E54A1" stroke-width="2.33333" stroke-miterlimit="8" fill="#91ACE0" fill-rule="evenodd"/><text fill="#FFFFFF" font-family="Calibri,Calibri_MSFontService,sans-serif" font-weight="400" font-size="24" transform="translate(803.355 314)">D</text><text fill="#FFFFFF" font-family="Calibri,Calibri_MSFontService,sans-serif" font-weight="400" font-size="24" transform="translate(818.188 314)">e</text><text fill="#FFFFFF" font-family="Calibri,Calibri_MSFontService,sans-serif" font-weight="400" font-size="24" transform="translate(830.188 314)">coder</text><path d="M0 0C-44.1701 0-88.3398 53.8399-88.3398 107.679-88.3398 161.519-40.4679 215.359 7.40443 215.359 55.2768 215.359 103.149 283.211 103.149 351.062" stroke="#8497B0" stroke-width="2.66667" stroke-miterlimit="8" fill="none" fill-rule="evenodd" transform="matrix(1.83697e-16 1 1 -1.83697e-16 414.5 242.5)"/><path d="M1.33333-2.80354e-06 1.33342 43.264-1.33324 43.264-1.33333 2.80354e-06ZM4.00009 41.9307 0.000104987 49.9307-3.99991 41.9307Z" fill="#4874CB" transform="matrix(1 0 0 -1 845.5 131.431)"/><text fill="#767171" font-family="Calibri,Calibri_MSFontService,sans-serif" font-weight="400" font-size="24" transform="translate(746.198 71)">Output probabilities</text></g></svg>