<svg width="1070" height="475" xmlns="http://www.w3.org/2000/svg" xmlns:xlink="http://www.w3.org/1999/xlink" overflow="hidden"><g transform="translate(-21 -64)"><path d="M116 163.5C116 144.998 130.327 130 148 130 165.673 130 180 144.998 180 163.5 180 182.002 165.673 197 148 197 130.327 197 116 182.002 116 163.5Z" stroke="#192D54" stroke-width="2" stroke-miterlimit="8" fill="#4874CB" fill-rule="evenodd"/><path d="M116 252.5C116 233.998 130.327 219 148 219 165.673 219 180 233.998 180 252.5 180 271.002 165.673 286 148 286 130.327 286 116 271.002 116 252.5Z" stroke="#192D54" stroke-width="2" stroke-miterlimit="8" fill="#4874CB" fill-rule="evenodd"/><path d="M116 415.5C116 396.998 130.327 382 148 382 165.673 382 180 396.998 180 415.5 180 434.002 165.673 449 148 449 130.327 449 116 434.002 116 415.5Z" stroke="#192D54" stroke-width="2" stroke-miterlimit="8" fill="#4874CB" fill-rule="evenodd"/><path d="M116 503.5C116 484.998 130.327 470 148 470 165.673 470 180 484.998 180 503.5 180 522.002 165.673 537 148 537 130.327 537 116 522.002 116 503.5Z" stroke="#192D54" stroke-width="2" stroke-miterlimit="8" fill="#4874CB" fill-rule="evenodd"/><text fill="#7030A0" font-family="Calibri,Calibri_MSFontService,sans-serif" font-weight="400" font-size="43" transform="translate(130.803 338)">...</text><text fill="#7030A0" font-family="Calibri,Calibri_MSFontService,sans-serif" font-weight="400" font-size="27" transform="translate(37.1745 338)">28*28</text><path d="M372 231.5C372 212.998 386.327 198 404 198 421.673 198 436 212.998 436 231.5 436 250.002 421.673 265 404 265 386.327 265 372 250.002 372 231.5Z" stroke="#192D54" stroke-width="2" stroke-miterlimit="8" fill="#4874CB" fill-rule="evenodd"/><path d="M661 231C661 212.222 675.327 197 693 197 710.673 197 725 212.222 725 231 725 249.778 710.673 265 693 265 675.327 265 661 249.778 661 231Z" stroke="#192D54" stroke-width="2" stroke-miterlimit="8" fill="#4874CB" fill-rule="evenodd"/><path d="M372 338.5C372 319.998 386.327 305 404 305 421.673 305 436 319.998 436 338.5 436 357.002 421.673 372 404 372 386.327 372 372 357.002 372 338.5Z" stroke="#192D54" stroke-width="2" stroke-miterlimit="8" fill="#4874CB" fill-rule="evenodd"/><path d="M661 334C661 315.222 675.327 300 693 300 710.673 300 725 315.222 725 334 725 352.778 710.673 368 693 368 675.327 368 661 352.778 661 334Z" stroke="#192D54" stroke-width="2" stroke-miterlimit="8" fill="#4874CB" fill-rule="evenodd"/><path d="M372 436.5C372 417.998 386.327 403 404 403 421.673 403 436 417.998 436 436.5 436 455.002 421.673 470 404 470 386.327 470 372 455.002 372 436.5Z" stroke="#192D54" stroke-width="2" stroke-miterlimit="8" fill="#4874CB" fill-rule="evenodd"/><path d="M661 435.5C661 416.998 675.327 402 693 402 710.673 402 725 416.998 725 435.5 725 454.002 710.673 469 693 469 675.327 469 661 454.002 661 435.5Z" stroke="#192D54" stroke-width="2" stroke-miterlimit="8" fill="#4874CB" fill-rule="evenodd"/><path d="M918 333.5C918 314.998 932.327 300 950 300 967.673 300 982 314.998 982 333.5 982 352.002 967.673 367 950 367 932.327 367 918 352.002 918 333.5Z" stroke="#192D54" stroke-width="2" stroke-miterlimit="8" fill="#4874CB" fill-rule="evenodd"/><text fill="#7030A0" font-family="Calibri,Calibri_MSFontService,sans-serif" font-weight="400" font-size="27" transform="translate(519.898 173)">10*10</text><text fill="#7030A0" font-family="Calibri,Calibri_MSFontService,sans-serif" font-weight="400" font-size="27" transform="translate(1006.71 338)">1*784</text><path d="M180.722 163.871 366.435 229.42 365.992 230.677 180.278 165.129ZM366.287 225.833 372.5 232.267 363.625 233.377Z" fill="#4874CB"/><path d="M0.461226-0.481368 187.648 178.873 186.725 179.835-0.461226 0.481368ZM188.991 175.543 192 183.966 183.456 181.319Z" fill="#4874CB" transform="matrix(1 0 0 -1 180.5 416.466)"/><path d="M0.544623-0.384487 188.7 266.136 187.611 266.905-0.544623 0.384487ZM190.654 263.124 192 271.966 184.118 267.738Z" fill="#4874CB" transform="matrix(1 0 0 -1 180.5 504.466)"/><path d="M0.21975-0.629408 185.926 64.2074 185.486 65.4662-0.21975 0.629408ZM185.766 60.6209 192 67.0343 183.129 68.1738Z" fill="#4874CB" transform="matrix(1 0 0 -1 180.5 503.534)"/><path d="M0.0716861-0.662801 185.443 19.3863 185.3 20.7119-0.0716861 0.662801ZM184.476 15.9289 192 20.766 183.616 23.8826Z" fill="#4874CB" transform="matrix(1 0 0 -1 180.5 253.266)"/><path d="M180.773 251.892 366.693 335.506 366.147 336.722 180.227 253.108ZM366.845 331.919 372.5 338.848 363.563 339.215Z" fill="#4874CB"/><path d="M180.949 164.007 368.021 334.4 367.123 335.385 180.051 164.993ZM369.279 331.037 372.5 339.381 363.892 336.951Z" fill="#4874CB"/><path d="M181.045 164.116 369.207 431.365 368.117 432.132 179.955 164.884ZM371.165 428.355 372.5 437.199 364.624 432.961Z" fill="#4874CB"/><path d="M180.962 252.019 368.151 431.57 367.228 432.532 180.039 252.981ZM369.496 428.241 372.5 436.666 363.958 434.015Z" fill="#4874CB"/><path d="M0.247738-0.618927 186.058 73.7557 185.563 74.9936-0.247738 0.618927ZM186.059 70.1656 192 76.8521 183.086 77.5928Z" fill="#4874CB" transform="matrix(1 0 0 -1 180.5 416.352)"/><path d="M180.572 414.837 365.945 435.079 365.8 436.405 180.428 416.163ZM364.982 431.621 372.5 436.466 364.113 439.574Z" fill="#4874CB"/><path d="M0.434287-0.505805 187.376 160.003 186.508 161.015-0.434287 0.505805ZM188.536 156.606 192 164.852 183.325 162.676Z" fill="#4874CB" transform="matrix(1 0 0 -1 180.5 504.352)"/><text fill="#7030A0" font-family="Calibri,Calibri_MSFontService,sans-serif" font-weight="400" font-size="43" transform="translate(387.824 288)">...</text><text fill="#7030A0" font-family="Calibri,Calibri_MSFontService,sans-serif" font-weight="400" font-size="43" transform="translate(676.845 287)">...</text><path d="M0.00168087-0.666665 218.356-0.116125 218.353 1.2172-0.00168087 0.666665ZM217.031-3.45281 225.021 0.567349 217.011 4.54717Z" fill="#4874CB" transform="matrix(1 0 0 -1 436.5 232.067)"/><path d="M436.776 231.893 655.731 331.646 655.178 332.86 436.224 233.107ZM655.9 328.06 661.521 335.017 652.583 335.34Z" fill="#4874CB"/><path d="M0.287773-0.601358 219.295 104.202 218.72 105.405-0.287773 0.601358ZM219.532 100.62 225.021 107.681 216.078 107.836Z" fill="#4874CB" transform="matrix(1 0 0 -1 436.5 339.181)"/><path d="M0.0136168-0.666528 218.37 3.79438 218.343 5.12743-0.0136168 0.666528ZM217.105 0.434493 225.021 4.59706 216.941 8.43282Z" fill="#4874CB" transform="matrix(1 0 0 -1 436.5 339.097)"/><path d="M436.765 338.888 655.667 433.494 655.138 434.718 436.236 340.112ZM655.765 429.905 661.521 436.751 652.591 437.249Z" fill="#4874CB"/><path d="M436.948 232.007 657.034 431.889 656.138 432.876 436.052 232.994ZM658.288 428.525 661.521 436.864 652.91 434.447Z" fill="#4874CB"/><path d="M0.276165-0.606776 219.23 99.0466 218.678 100.26-0.276165 0.606776ZM219.397 95.4603 225.021 102.415 216.083 102.742Z" fill="#4874CB" transform="matrix(1 0 0 -1 436.5 436.915)"/><path d="M0.00168087-0.666665 218.356-0.116125 218.353 1.2172-0.00168087 0.666665ZM217.031-3.45281 225.021 0.567349 217.011 4.54717Z" fill="#4874CB" transform="matrix(1 0 0 -1 436.5 437.067)"/><path d="M0.449566-0.492275 220.548 200.511 219.649 201.495-0.449566 0.492275ZM221.811 197.151 225.021 205.499 216.417 203.058Z" fill="#4874CB" transform="matrix(1 0 0 -1 436.5 436.999)"/><path d="M725.812 230.911 912.944 330.153 912.319 331.331 725.188 232.089ZM913.328 326.583 918.521 333.865 909.58 333.651Z" fill="#4874CB"/><path d="M0.00248422-0.666662 186.357 0.0277619 186.352 1.36109-0.00248422 0.666662ZM185.036-3.31052 193.021 0.719265 185.006 4.68943Z" fill="#4874CB" transform="matrix(1 0 0 -1 725.5 334.219)"/><path d="M0.312828-0.588713 187.447 98.8497 186.821 100.027-0.312828 0.588713ZM187.834 95.2806 193.021 102.567 184.08 102.345Z" fill="#4874CB" transform="matrix(1 0 0 -1 725.5 436.067)"/><text fill="#7030A0" font-family="Calibri,Calibri_MSFontService,sans-serif" font-weight="400" font-size="27" transform="translate(125.708 98)">Input</text><text fill="#7030A0" font-family="Calibri,Calibri_MSFontService,sans-serif" font-weight="400" font-size="27" transform="translate(917.345 98)">Output</text></g></svg>