<svg width="787" height="740" xmlns="http://www.w3.org/2000/svg" xmlns:xlink="http://www.w3.org/1999/xlink" overflow="hidden"><defs><filter id="fx0" x="-10%" y="-10%" width="120%" height="120%" filterUnits="userSpaceOnUse" primitiveUnits="userSpaceOnUse"><feComponentTransfer color-interpolation-filters="sRGB"><feFuncR type="discrete" tableValues="0.282353 0.282353"/><feFuncG type="discrete" tableValues="0.454902 0.454902"/><feFuncB type="discrete" tableValues="0.796078 0.796078"/><feFuncA type="linear" slope="0.6" intercept="0"/></feComponentTransfer><feGaussianBlur stdDeviation="3.55556 3.55556"/></filter><filter id="fx1" x="-10%" y="-10%" width="120%" height="120%" filterUnits="userSpaceOnUse" primitiveUnits="userSpaceOnUse"><feComponentTransfer color-interpolation-filters="sRGB"><feFuncR type="discrete" tableValues="0.282353 0.282353"/><feFuncG type="discrete" tableValues="0.454902 0.454902"/><feFuncB type="discrete" tableValues="0.796078 0.796078"/><feFuncA type="linear" slope="0.6" intercept="0"/></feComponentTransfer><feGaussianBlur stdDeviation="3.55556 3.55556"/></filter><filter id="fx2" x="-10%" y="-10%" width="120%" height="120%" filterUnits="userSpaceOnUse" primitiveUnits="userSpaceOnUse"><feComponentTransfer color-interpolation-filters="sRGB"><feFuncR type="discrete" tableValues="0.933333 0.933333"/><feFuncG type="discrete" tableValues="0.509804 0.509804"/><feFuncB type="discrete" tableValues="0.184314 0.184314"/><feFuncA type="linear" slope="0.6" intercept="0"/></feComponentTransfer><feGaussianBlur stdDeviation="3.55556 3.55556"/></filter><filter id="fx3" x="-10%" y="-10%" width="120%" height="120%" filterUnits="userSpaceOnUse" primitiveUnits="userSpaceOnUse"><feComponentTransfer color-interpolation-filters="sRGB"><feFuncR type="discrete" tableValues="0.94902 0.94902"/><feFuncG type="discrete" tableValues="0.729412 0.729412"/><feFuncB type="discrete" tableValues="0.00784314 0.00784314"/><feFuncA type="linear" slope="0.6" intercept="0"/></feComponentTransfer><feGaussianBlur stdDeviation="3.55556 3.55556"/></filter><filter id="fx4" x="-10%" y="-10%" width="120%" height="120%" filterUnits="userSpaceOnUse" primitiveUnits="userSpaceOnUse"><feComponentTransfer color-interpolation-filters="sRGB"><feFuncR type="discrete" tableValues="0.933333 0.933333"/><feFuncG type="discrete" tableValues="0.509804 0.509804"/><feFuncB type="discrete" tableValues="0.184314 0.184314"/><feFuncA type="linear" slope="0.6" intercept="0"/></feComponentTransfer><feGaussianBlur stdDeviation="3.55556 3.55556"/></filter><filter id="fx5" x="-10%" y="-10%" width="120%" height="120%" filterUnits="userSpaceOnUse" primitiveUnits="userSpaceOnUse"><feComponentTransfer color-interpolation-filters="sRGB"><feFuncR type="discrete" tableValues="0.94902 0.94902"/><feFuncG type="discrete" tableValues="0.729412 0.729412"/><feFuncB type="discrete" tableValues="0.00784314 0.00784314"/><feFuncA type="linear" slope="0.6" intercept="0"/></feComponentTransfer><feGaussianBlur stdDeviation="3.55556 3.55556"/></filter><filter id="fx6" x="-10%" y="-10%" width="120%" height="120%" filterUnits="userSpaceOnUse" primitiveUnits="userSpaceOnUse"><feComponentTransfer color-interpolation-filters="sRGB"><feFuncR type="discrete" tableValues="0.933333 0.933333"/><feFuncG type="discrete" tableValues="0.509804 0.509804"/><feFuncB type="discrete" tableValues="0.184314 0.184314"/><feFuncA type="linear" slope="0.6" intercept="0"/></feComponentTransfer><feGaussianBlur stdDeviation="3.55556 3.55556"/></filter><filter id="fx7" x="-10%" y="-10%" width="120%" height="120%" filterUnits="userSpaceOnUse" primitiveUnits="userSpaceOnUse"><feComponentTransfer color-interpolation-filters="sRGB"><feFuncR type="discrete" tableValues="0.94902 0.94902"/><feFuncG type="discrete" tableValues="0.729412 0.729412"/><feFuncB type="discrete" tableValues="0.00784314 0.00784314"/><feFuncA type="linear" slope="0.6" intercept="0"/></feComponentTransfer><feGaussianBlur stdDeviation="3.55556 3.55556"/></filter><filter id="fx8" x="-10%" y="-10%" width="120%" height="120%" filterUnits="userSpaceOnUse" primitiveUnits="userSpaceOnUse"><feComponentTransfer color-interpolation-filters="sRGB"><feFuncR type="discrete" tableValues="0.282353 0.282353"/><feFuncG type="discrete" tableValues="0.454902 0.454902"/><feFuncB type="discrete" tableValues="0.796078 0.796078"/><feFuncA type="linear" slope="0.6" intercept="0"/></feComponentTransfer><feGaussianBlur stdDeviation="3.55556 3.55556"/></filter><clipPath id="clip9"><rect x="279" y="-5" width="787" height="740"/></clipPath><clipPath id="clip10"><path d="M291 602 291 717 1049 717 1049 602ZM279-4.99999 1066-4.99999 1066 735 279 735Z" fill-rule="evenodd" clip-rule="evenodd"/></clipPath><clipPath id="clip11"><rect x="16" y="16" width="119" height="58"/></clipPath><clipPath id="clip12"><path d="M321 499 321 577 407 577 407 499ZM279-4.99999 1066-4.99999 1066 735 279 735Z" fill-rule="evenodd" clip-rule="evenodd"/></clipPath><clipPath id="clip13"><path d="M368 72.5001C352.812 72.5001 340.5 84.1407 340.5 98.5001 340.5 112.859 352.812 124.5 368 124.5 383.188 124.5 395.5 112.859 395.5 98.5001 395.5 84.1407 383.188 72.5001 368 72.5001ZM279-4.99999 1066-4.99999 1066 735 279 735Z" fill-rule="evenodd" clip-rule="evenodd"/></clipPath><clipPath id="clip14"><path d="M618 499 618 577 703 577 703 499ZM279-4.99999 1066-4.99999 1066 735 279 735Z" fill-rule="evenodd" clip-rule="evenodd"/></clipPath><clipPath id="clip15"><path d="M665 72.5001C649.812 72.5001 637.5 84.1407 637.5 98.5001 637.5 112.859 649.812 124.5 665 124.5 680.188 124.5 692.5 112.859 692.5 98.5001 692.5 84.1407 680.188 72.5001 665 72.5001ZM279-4.99999 1066-4.99999 1066 735 279 735Z" fill-rule="evenodd" clip-rule="evenodd"/></clipPath><clipPath id="clip16"><path d="M927 499 927 577 1013 577 1013 499ZM279-4.99999 1066-4.99999 1066 735 279 735Z" fill-rule="evenodd" clip-rule="evenodd"/></clipPath><clipPath id="clip17"><path d="M974 72.5001C958.812 72.5001 946.5 84.1407 946.5 98.5001 946.5 112.859 958.812 124.5 974 124.5 989.188 124.5 1001.5 112.859 1001.5 98.5001 1001.5 84.1407 989.188 72.5001 974 72.5001ZM279-4.99999 1066-4.99999 1066 735 279 735Z" fill-rule="evenodd" clip-rule="evenodd"/></clipPath><clipPath id="clip18"><path d="M665 3.50007C652.574 3.50007 642.5 13.3498 642.5 25.5001 642.5 37.6503 652.574 47.5001 665 47.5001 677.426 47.5001 687.5 37.6503 687.5 25.5001 687.5 13.3498 677.426 3.50007 665 3.50007ZM279-4.99999 1066-4.99999 1066 735 279 735Z" fill-rule="evenodd" clip-rule="evenodd"/></clipPath></defs><g clip-path="url(#clip9)" transform="translate(-279 5)"><path d="M514.5 306.833 571.172 306.833 571.172 308.167 514.5 308.167ZM569.839 303.5 577.839 307.5 569.839 311.5Z" fill="#4874CB"/><path d="M0.666638-0.00619759 0.838048 18.4314-0.495228 18.4437-0.666638 0.00619759ZM4.15884 17.0671 0.233386 25.1039-3.84081 17.1415Z" fill="#4874CB" transform="matrix(1 0 0 -1 367.5 201.604)"/><path d="M1.33333-2.38889e-06 1.33343 51.9307-1.33324 51.9307-1.33333 2.38889e-06ZM4.00009 50.5974 0.000104987 58.5974-3.99991 50.5974Z" fill="#4874CB" transform="matrix(1 0 0 -1 364.5 500.097)"/><path d="M296.5 376.5C296.5 369.32 302.32 363.5 309.5 363.5L419.5 363.5C426.68 363.5 432.5 369.32 432.5 376.5L432.5 428.5C432.5 435.68 426.68 441.5 419.5 441.5L309.5 441.5C302.32 441.5 296.5 435.68 296.5 428.5Z" stroke="#588E31" stroke-width="3.33333" stroke-miterlimit="8" fill="#F5B482" fill-rule="evenodd"/><path d="M2-1.33659e-06 2.0001 147.097-1.9999 147.097-2 1.33659e-06ZM6.0001 145.097 0.000104987 157.097-5.9999 145.097Z" fill="#4874CB" transform="matrix(1 0 0 -1 311 598.097)"/><path d="M284 219.833C284 209.984 291.984 202 301.833 202L1046.17 202C1056.02 202 1064 209.984 1064 219.833L1064 291.167C1064 301.016 1056.02 309 1046.17 309L301.833 309C291.984 309 284 301.016 284 291.167Z" stroke="#664D00" stroke-width="2" stroke-miterlimit="8" fill="#F2BA02" fill-rule="evenodd"/><text font-family="Times New Roman,Times New Roman_MSFontService,sans-serif" font-weight="700" font-size="32" transform="translate(617.117 267)">Softmax</text><g clip-path="url(#clip10)"><g filter="url(#fx0)" transform="translate(278 594)"><g><rect x="13" y="13.3333" width="758" height="115" stroke="#4874CB" stroke-width="2" stroke-miterlimit="8" fill="#B6C7EA"/></g></g><g clip-path="url(#clip11)" filter="url(#fx1)" transform="translate(595 624)"><g><path d="M15.2969 0.1875C15.776 1.57292 16.5208 2.61458 17.5312 3.3125 18.5417 4.01042 19.8073 4.35938 21.3281 4.35938 21.7448 4.35938 22.1875 4.31771 22.6562 4.23438L22.6562 5.1875C21.0833 5.58333 19.6771 5.78125 18.4375 5.78125 16.5 5.78125 14.7682 5.30729 13.2422 4.35938 11.7161 3.41146 10.5677 2.02083 9.79688 0.1875 7.23438-0.354167 5.16927-1.60938 3.60156-3.57812 2.03385-5.54688 1.25-7.89583 1.25-10.625 1.25-13.7917 2.3125-16.4245 4.4375-18.5234 6.5625-20.6224 9.26042-21.6719 12.5312-21.6719 15.7917-21.6719 18.4792-20.6198 20.5938-18.5156 22.7083-16.4115 23.7656-13.7812 23.7656-10.625 23.7656-7.875 22.9375-5.48438 21.2812-3.45312 19.625-1.42188 17.6302-0.208333 15.2969 0.1875ZM12.5156-20.4844C10.6406-20.4844 9.19271-19.5104 8.17188-17.5625 7.31771-15.9271 6.89062-13.599 6.89062-10.5781 6.89062-6.95312 7.53125-4.26562 8.8125-2.51562 9.70833-1.29688 10.9427-0.6875 12.5156-0.6875 14.099-0.6875 15.3333-1.28646 16.2188-2.48438 17.5-4.20312 18.1406-6.78646 18.1406-10.2344 18.1406-13.6302 17.7396-16.0885 16.9375-17.6094 15.9375-19.526 14.4635-20.4844 12.5156-20.4844ZM40.0208-14.6094 40.0208-3.17188C40.0208-2.05729 40.125-1.36198 40.3333-1.08594 40.5417-0.809896 40.9635-0.635417 41.599-0.5625L41.599 0 35.6458 0 35.6458-1.95312C34.9479-1.11979 34.25-0.513021 33.5521-0.132812 32.8542 0.247396 32.0729 0.4375 31.2083 0.4375 30.3854 0.4375 29.6536 0.184896 29.013-0.320312 28.3724-0.825521 27.9427-1.41667 27.724-2.09375 27.5052-2.77083 27.3958-3.95312 27.3958-5.64062L27.3958-11.4375C27.3958-12.5417 27.2943-13.2292 27.0911-13.5 26.888-13.7708 26.4635-13.9479 25.8177-14.0312L25.8177-14.6094 31.7708-14.6094 31.7708-4.625C31.7708-3.58333 31.8203-2.91146 31.9193-2.60938 32.0182-2.30729 32.1745-2.07812 32.388-1.92188 32.6016-1.76562 32.849-1.6875 33.1302-1.6875 33.5052-1.6875 33.8438-1.78646 34.1458-1.98438 34.5625-2.25521 35.0625-2.80208 35.6458-3.625L35.6458-11.4375C35.6458-12.5417 35.5443-13.2292 35.3411-13.5 35.138-13.7708 34.7135-13.9479 34.0677-14.0312L34.0677-14.6094ZM56.1198-7.82812 48.1042-7.82812C48.1979-5.89062 48.7135-4.35938 49.651-3.23438 50.3698-2.36979 51.2344-1.9375 52.2448-1.9375 52.8698-1.9375 53.4375-2.11198 53.9479-2.46094 54.4583-2.8099 55.0052-3.4375 55.5885-4.34375L56.1198-4C55.3281-2.38542 54.4531-1.24219 53.4948-0.570312 52.5365 0.101562 51.4271 0.4375 50.1667 0.4375 48 0.4375 46.3594-0.395833 45.2448-2.0625 44.349-3.40625 43.901-5.07292 43.901-7.0625 43.901-9.5 44.5599-11.4401 45.8776-12.8828 47.1953-14.3255 48.7396-15.0469 50.5104-15.0469 51.9896-15.0469 53.2734-14.4401 54.362-13.2266 55.4505-12.013 56.0365-10.2135 56.1198-7.82812ZM52.276-8.875C52.276-10.5521 52.1849-11.7031 52.0026-12.3281 51.8203-12.9531 51.5365-13.4271 51.151-13.75 50.9323-13.9375 50.6406-14.0312 50.276-14.0312 49.7344-14.0312 49.2917-13.7656 48.9479-13.2344 48.3333-12.3073 48.026-11.0365 48.026-9.42188L48.026-8.875ZM63.974-14.6094 63.974-11.2969C64.9427-12.8073 65.7917-13.8099 66.5208-14.3047 67.25-14.7995 67.9531-15.0469 68.6302-15.0469 69.2135-15.0469 69.6797-14.8672 70.0286-14.5078 70.3776-14.1484 70.5521-13.6406 70.5521-12.9844 70.5521-12.2865 70.3828-11.7448 70.0443-11.3594 69.7057-10.974 69.2969-10.7812 68.8177-10.7812 68.2656-10.7812 67.7865-10.9583 67.3802-11.3125 66.974-11.6667 66.7344-11.8646 66.6615-11.9062 66.5573-11.9688 66.4375-12 66.3021-12 66-12 65.7135-11.8854 65.4427-11.6562 65.0156-11.3021 64.6927-10.7969 64.474-10.1406 64.1406-9.13021 63.974-8.01562 63.974-6.79688L63.974-3.4375 63.9896-2.5625C63.9896-1.96875 64.026-1.58854 64.099-1.42188 64.224-1.14062 64.4089-0.934896 64.6536-0.804688 64.8984-0.674479 65.3125-0.59375 65.8958-0.5625L65.8958 0 58.0052 0 58.0052-0.5625C58.6406-0.614583 59.0703-0.789062 59.2943-1.08594 59.5182-1.38281 59.6302-2.16667 59.6302-3.4375L59.6302-11.5156C59.6302-12.349 59.5885-12.8802 59.5052-13.1094 59.401-13.401 59.25-13.6146 59.0521-13.75 58.8542-13.8854 58.5052-13.9792 58.0052-14.0312L58.0052-14.6094ZM78.7812 0.59375 74.0625-10.2344C73.3542-11.8698 72.8307-12.875 72.4922-13.25 72.1536-13.625 71.7448-13.8854 71.2656-14.0312L71.2656-14.6094 79.0312-14.6094 79.0312-14.0312C78.5208-14.0104 78.1615-13.9115 77.9531-13.7344 77.7448-13.5573 77.6406-13.3438 77.6406-13.0938 77.6406-12.6979 77.901-11.9167 78.4219-10.75L80.9219-5.03125 82.625-9.45312C83.2396-11.026 83.5469-12.1198 83.5469-12.7344 83.5469-13.1198 83.4193-13.4271 83.1641-13.6562 82.9089-13.8854 82.4583-14.0104 81.8125-14.0312L81.8125-14.6094 86.7031-14.6094 86.7031-14.0312C86.224-13.9792 85.8333-13.7943 85.5312-13.4766 85.2292-13.1589 84.724-12.0781 84.0156-10.2344L79.8438 0.59375C78.7917 3.30208 78.0104 4.96875 77.5 5.59375 76.7812 6.46875 75.8802 6.90625 74.7969 6.90625 73.9323 6.90625 73.2318 6.65885 72.6953 6.16406 72.1589 5.66927 71.8906 5.07292 71.8906 4.375 71.8906 3.77083 72.0755 3.27083 72.4453 2.875 72.8151 2.47917 73.2708 2.28125 73.8125 2.28125 74.3333 2.28125 74.7526 2.44792 75.0703 2.78125 75.388 3.11458 75.5521 3.63021 75.5625 4.32812 75.5729 4.72396 75.6198 4.97917 75.7031 5.09375 75.7865 5.20833 75.9062 5.26562 76.0625 5.26562 76.3125 5.26562 76.5781 5.11458 76.8594 4.8125 77.276 4.375 77.7656 3.375 78.3281 1.8125Z" transform="translate(31.4488 53)"/></g></g></g><rect x="291" y="602" width="758" height="115" stroke="#4874CB" stroke-width="2.33333" stroke-miterlimit="8" fill="#B6C7EA"/><text font-family="Times New Roman,Times New Roman_MSFontService,sans-serif" font-weight="700" font-size="32" transform="translate(626.449 671)">Query</text><g clip-path="url(#clip12)"><g filter="url(#fx2)" transform="translate(308 491)"><g><rect x="13" y="13.3333" width="86" height="78" stroke="#588E31" stroke-width="2" stroke-miterlimit="8" fill="#C8E5B3"/></g></g></g><rect x="321" y="499" width="86" height="78" stroke="#588E31" stroke-width="2.33333" stroke-miterlimit="8" fill="#C8E5B3"/><text font-family="Cambria Math,Cambria Math_MSFontService,sans-serif" font-weight="400" font-size="27" transform="translate(357.729 542)">洧논</text><text font-family="Cambria Math,Cambria Math_MSFontService,sans-serif" font-weight="400" font-size="20" transform="translate(371.015 547)">1</text><text font-family="Cambria Math,Cambria Math_MSFontService,sans-serif" font-weight="400" font-size="27" transform="translate(327.334 406)">洧</text><path d="M402.951 386.079C405.518 386.756 407.489 388.217 408.864 390.463 410.24 392.708 410.927 395.418 410.927 398.591 410.927 401.772 410.242 404.481 408.871 406.718 407.5 408.955 405.526 410.412 402.951 411.089L402.635 410.073C404.665 409.397 406.175 408.061 407.163 406.066 408.152 404.071 408.646 401.535 408.646 398.459 408.646 395.488 408.154 393.02 407.17 391.056 406.186 389.092 404.661 387.771 402.595 387.094ZM350.563 386.079 350.919 387.094C348.863 387.771 347.34 389.092 346.351 391.056 345.362 393.02 344.868 395.488 344.868 398.459 344.868 401.535 345.362 404.071 346.351 406.066 347.34 408.061 348.849 409.397 350.88 410.073L350.563 411.089C347.988 410.412 346.015 408.955 344.644 406.718 343.273 404.481 342.587 401.772 342.587 398.591 342.587 395.418 343.275 392.708 344.651 390.463 346.026 388.217 347.997 386.756 350.563 386.079Z" fill="#836967" fill-rule="evenodd"/><text font-family="Cambria Math,Cambria Math_MSFontService,sans-serif" font-weight="400" font-size="27" transform="translate(351.281 406)">洧</text><text font-family="Cambria Math,Cambria Math_MSFontService,sans-serif" font-weight="400" font-size="27" transform="translate(366.421 406)">,</text><text font-family="Cambria Math,Cambria Math_MSFontService,sans-serif" font-weight="400" font-size="27" transform="translate(376.368 406)">洧논</text><text font-family="Cambria Math,Cambria Math_MSFontService,sans-serif" font-weight="400" font-size="20" transform="translate(389.654 412)">1</text><g clip-path="url(#clip13)"><g filter="url(#fx3)" transform="translate(327 65)"><g><path d="M13.5001 38.8334C13.5001 24.474 25.8122 12.8334 41.0001 12.8334 56.1879 12.8334 68.5001 24.474 68.5001 38.8334 68.5001 53.1928 56.1879 64.8334 41.0001 64.8334 25.8122 64.8334 13.5001 53.1928 13.5001 38.8334Z" fill="#FFFFFF" fill-rule="evenodd"/><path d="M21.5546 20.4486 60.4455 57.2182M60.4455 20.4486 21.5546 57.2182" stroke="#588E31" stroke-width="3" stroke-miterlimit="8" fill="none" fill-rule="evenodd"/><path d="M13.5001 38.8334C13.5001 24.474 25.8122 12.8334 41.0001 12.8334 56.1879 12.8334 68.5001 24.474 68.5001 38.8334 68.5001 53.1928 56.1879 64.8334 41.0001 64.8334 25.8122 64.8334 13.5001 53.1928 13.5001 38.8334Z" stroke="#588E31" stroke-width="3" stroke-miterlimit="8" fill="none" fill-rule="evenodd"/></g></g></g><path d="M340.5 98.5001C340.5 84.1406 352.812 72.5001 368 72.5001 383.188 72.5001 395.5 84.1406 395.5 98.5001 395.5 112.859 383.188 124.5 368 124.5 352.812 124.5 340.5 112.859 340.5 98.5001Z" fill="#FFFFFF" fill-rule="evenodd"/><path d="M348.555 80.1153 387.445 116.885M387.445 80.1153 348.555 116.885" stroke="#588E31" stroke-width="2.66667" stroke-miterlimit="8" fill="none" fill-rule="evenodd"/><path d="M340.5 98.5001C340.5 84.1406 352.812 72.5001 368 72.5001 383.188 72.5001 395.5 84.1406 395.5 98.5001 395.5 112.859 383.188 124.5 368 124.5 352.812 124.5 340.5 112.859 340.5 98.5001Z" stroke="#588E31" stroke-width="2.66667" stroke-miterlimit="8" fill="none" fill-rule="evenodd"/><path d="M1.33333-2.56224e-06 1.33343 47.9662-1.33324 47.9662-1.33333 2.56224e-06ZM4.00009 46.6329 0.000104987 54.6329-3.99991 46.6329Z" fill="#4874CB" transform="matrix(1 0 0 -1 364.5 363.133)"/><path d="M406.984 537.633 446.184 537.633 444.851 538.966 444.851 98.5001 446.184 99.8334 402.167 99.8334 402.167 97.1667 447.518 97.1667 447.518 540.299 406.984 540.299ZM403.5 102.5 395.5 98.5001 403.5 94.5001Z" fill="#4874CB"/><path d="M0.666638-0.00619759 0.838048 18.4314-0.495228 18.4437-0.666638 0.00619759ZM4.15884 17.0671 0.233386 25.1039-3.84081 17.1415Z" fill="#4874CB" transform="matrix(1 0 0 -1 367.5 148.604)"/><text font-family="Cambria Math,Cambria Math_MSFontService,sans-serif" font-weight="400" font-size="27" transform="translate(354.002 166)">洧랝</text><text font-family="Cambria Math,Cambria Math_MSFontService,sans-serif" font-weight="400" font-size="20" transform="translate(367.215 172)">1</text><path d="M792.5 306.833 849.172 306.833 849.172 308.167 792.5 308.167ZM847.839 303.5 855.839 307.5 847.839 311.5Z" fill="#4874CB"/><path d="M0.666638-0.00619759 0.838048 18.4314-0.495228 18.4437-0.666638 0.00619759ZM4.15884 17.0671 0.233386 25.1039-3.84081 17.1415Z" fill="#4874CB" transform="matrix(1 0 0 -1 664.5 201.604)"/><path d="M1.33333-2.38889e-06 1.33343 51.9307-1.33324 51.9307-1.33333 2.38889e-06ZM4.00009 50.5974 0.000104987 58.5974-3.99991 50.5974Z" fill="#4874CB" transform="matrix(1 0 0 -1 661.5 500.097)"/><path d="M593.5 376.5C593.5 369.32 599.32 363.5 606.5 363.5L716.5 363.5C723.68 363.5 729.5 369.32 729.5 376.5L729.5 428.5C729.5 435.68 723.68 441.5 716.5 441.5L606.5 441.5C599.32 441.5 593.5 435.68 593.5 428.5Z" stroke="#588E31" stroke-width="3.33333" stroke-miterlimit="8" fill="#F5B482" fill-rule="evenodd"/><path d="M2-1.33659e-06 2.0001 147.097-1.9999 147.097-2 1.33659e-06ZM6.0001 145.097 0.000104987 157.097-5.9999 145.097Z" fill="#4874CB" transform="matrix(1 0 0 -1 608 598.097)"/><g clip-path="url(#clip14)"><g filter="url(#fx4)" transform="translate(605 491)"><g><rect x="13" y="13.3333" width="85" height="78" stroke="#588E31" stroke-width="2" stroke-miterlimit="8" fill="#C8E5B3"/></g></g></g><rect x="618" y="499" width="85" height="78" stroke="#588E31" stroke-width="2.33333" stroke-miterlimit="8" fill="#C8E5B3"/><text font-family="Cambria Math,Cambria Math_MSFontService,sans-serif" font-weight="400" font-size="27" transform="translate(654.664 542)">洧논</text><text font-family="Cambria Math,Cambria Math_MSFontService,sans-serif" font-weight="400" font-size="20" transform="translate(668.571 547)">洧릟</text><text font-family="Cambria Math,Cambria Math_MSFontService,sans-serif" font-weight="400" font-size="27" transform="translate(623.963 406)">洧</text><path d="M700.2 386.079C702.766 386.756 704.737 388.217 706.113 390.463 707.488 392.708 708.176 395.418 708.176 398.591 708.176 401.772 707.491 404.481 706.119 406.718 704.748 408.955 702.775 410.412 700.2 411.089L699.884 410.073C701.914 409.397 703.423 408.061 704.412 406.066 705.401 404.071 705.895 401.535 705.895 398.459 705.895 395.488 705.403 393.02 704.419 391.056 703.434 389.092 701.909 387.771 699.844 387.094ZM647.192 386.079 647.548 387.094C645.492 387.771 643.969 389.092 642.98 391.056 641.991 393.02 641.497 395.488 641.497 398.459 641.497 401.535 641.991 404.071 642.98 406.066 643.969 408.061 645.478 409.397 647.509 410.073L647.192 411.089C644.617 410.412 642.644 408.955 641.273 406.718 639.902 404.481 639.216 401.772 639.216 398.591 639.216 395.418 639.904 392.708 641.279 390.463 642.655 388.217 644.626 386.756 647.192 386.079Z" fill="#836967" fill-rule="evenodd"/><text font-family="Cambria Math,Cambria Math_MSFontService,sans-serif" font-weight="400" font-size="27" transform="translate(647.91 406)">洧</text><text font-family="Cambria Math,Cambria Math_MSFontService,sans-serif" font-weight="400" font-size="27" transform="translate(663.05 406)">,</text><text font-family="Cambria Math,Cambria Math_MSFontService,sans-serif" font-weight="400" font-size="27" transform="translate(672.996 406)">洧논</text><text font-family="Cambria Math,Cambria Math_MSFontService,sans-serif" font-weight="400" font-size="20" transform="translate(686.903 412)">2</text><g clip-path="url(#clip15)"><g filter="url(#fx5)" transform="translate(624 65)"><g><path d="M13.5001 38.8334C13.5001 24.474 25.8122 12.8334 41.0001 12.8334 56.1879 12.8334 68.5001 24.474 68.5001 38.8334 68.5001 53.1928 56.1879 64.8334 41.0001 64.8334 25.8122 64.8334 13.5001 53.1928 13.5001 38.8334Z" fill="#FFFFFF" fill-rule="evenodd"/><path d="M21.5546 20.4486 60.4455 57.2182M60.4455 20.4486 21.5546 57.2182" stroke="#588E31" stroke-width="3" stroke-miterlimit="8" fill="none" fill-rule="evenodd"/><path d="M13.5001 38.8334C13.5001 24.474 25.8122 12.8334 41.0001 12.8334 56.1879 12.8334 68.5001 24.474 68.5001 38.8334 68.5001 53.1928 56.1879 64.8334 41.0001 64.8334 25.8122 64.8334 13.5001 53.1928 13.5001 38.8334Z" stroke="#588E31" stroke-width="3" stroke-miterlimit="8" fill="none" fill-rule="evenodd"/></g></g></g><path d="M637.5 98.5001C637.5 84.1406 649.812 72.5001 665 72.5001 680.188 72.5001 692.5 84.1406 692.5 98.5001 692.5 112.859 680.188 124.5 665 124.5 649.812 124.5 637.5 112.859 637.5 98.5001Z" fill="#FFFFFF" fill-rule="evenodd"/><path d="M645.555 80.1153 684.445 116.885M684.445 80.1153 645.555 116.885" stroke="#588E31" stroke-width="2.66667" stroke-miterlimit="8" fill="none" fill-rule="evenodd"/><path d="M637.5 98.5001C637.5 84.1406 649.812 72.5001 665 72.5001 680.188 72.5001 692.5 84.1406 692.5 98.5001 692.5 112.859 680.188 124.5 665 124.5 649.812 124.5 637.5 112.859 637.5 98.5001Z" stroke="#588E31" stroke-width="2.66667" stroke-miterlimit="8" fill="none" fill-rule="evenodd"/><path d="M1.33333-2.56224e-06 1.33343 47.9662-1.33324 47.9662-1.33333 2.56224e-06ZM4.00009 46.6329 0.000104987 54.6329-3.99991 46.6329Z" fill="#4874CB" transform="matrix(1 0 0 -1 661.5 363.133)"/><path d="M703.984 537.633 745.006 537.633 743.672 538.966 743.672 98.5001 745.006 99.8334 699.167 99.8334 699.167 97.1667 746.339 97.1667 746.339 540.299 703.984 540.299ZM700.5 102.5 692.5 98.5001 700.5 94.5001Z" fill="#4874CB"/><path d="M0.666638-0.00619759 0.838048 18.4314-0.495228 18.4437-0.666638 0.00619759ZM4.15884 17.0671 0.233386 25.1039-3.84081 17.1415Z" fill="#4874CB" transform="matrix(1 0 0 -1 664.5 148.604)"/><text font-family="Cambria Math,Cambria Math_MSFontService,sans-serif" font-weight="400" font-size="27" transform="translate(650.938 166)">洧랝</text><text font-family="Cambria Math,Cambria Math_MSFontService,sans-serif" font-weight="400" font-size="20" transform="translate(664.771 172)">2</text><path d="M0.666638-0.00619759 0.838048 18.4314-0.495228 18.4437-0.666638 0.00619759ZM4.15884 17.0671 0.233386 25.1039-3.84081 17.1415Z" fill="#4874CB" transform="matrix(1 0 0 -1 973.5 201.604)"/><path d="M1.33333-2.38889e-06 1.33343 51.9307-1.33324 51.9307-1.33333 2.38889e-06ZM4.00009 50.5974 0.000104987 58.5974-3.99991 50.5974Z" fill="#4874CB" transform="matrix(1 0 0 -1 970.5 500.097)"/><path d="M902.5 376.5C902.5 369.32 908.32 363.5 915.5 363.5L1025.5 363.5C1032.68 363.5 1038.5 369.32 1038.5 376.5L1038.5 428.5C1038.5 435.68 1032.68 441.5 1025.5 441.5L915.5 441.5C908.32 441.5 902.5 435.68 902.5 428.5Z" stroke="#588E31" stroke-width="3.33333" stroke-miterlimit="8" fill="#F5B482" fill-rule="evenodd"/><path d="M2-1.33659e-06 2.0001 147.097-1.9999 147.097-2 1.33659e-06ZM6.0001 145.097 0.000104987 157.097-5.9999 145.097Z" fill="#4874CB" transform="matrix(1 0 0 -1 917 598.097)"/><g clip-path="url(#clip16)"><g filter="url(#fx6)" transform="translate(914 491)"><g><rect x="13" y="13.3333" width="86" height="78" stroke="#588E31" stroke-width="2" stroke-miterlimit="8" fill="#C8E5B3"/></g></g></g><rect x="927" y="499" width="86" height="78" stroke="#588E31" stroke-width="2.33333" stroke-miterlimit="8" fill="#C8E5B3"/><text font-family="Cambria Math,Cambria Math_MSFontService,sans-serif" font-weight="400" font-size="27" transform="translate(964.053 542)">洧논</text><text font-family="Cambria Math,Cambria Math_MSFontService,sans-serif" font-weight="400" font-size="20" transform="translate(977.96 547)">n</text><text font-family="Cambria Math,Cambria Math_MSFontService,sans-serif" font-weight="400" font-size="27" transform="translate(932.519 406)">洧</text><path d="M1010.42 386.079C1012.99 386.756 1014.96 388.217 1016.34 390.463 1017.71 392.708 1018.4 395.418 1018.4 398.591 1018.4 401.772 1017.71 404.481 1016.34 406.718 1014.97 408.955 1013 410.412 1010.42 411.089L1010.11 410.073C1012.14 409.397 1013.65 408.061 1014.63 406.066 1015.62 404.071 1016.12 401.535 1016.12 398.459 1016.12 395.488 1015.63 393.02 1014.64 391.056 1013.66 389.092 1012.13 387.771 1010.07 387.094ZM955.748 386.079 956.104 387.094C954.047 387.771 952.525 389.092 951.536 391.056 950.547 393.02 950.053 395.488 950.053 398.459 950.053 401.535 950.547 404.071 951.536 406.066 952.525 408.061 954.034 409.397 956.064 410.073L955.748 411.089C953.173 410.412 951.2 408.955 949.829 406.718 948.457 404.481 947.772 401.772 947.772 398.591 947.772 395.418 948.46 392.708 949.835 390.463 951.211 388.217 953.182 386.756 955.748 386.079Z" fill="#836967" fill-rule="evenodd"/><text font-family="Cambria Math,Cambria Math_MSFontService,sans-serif" font-weight="400" font-size="27" transform="translate(956.466 406)">洧</text><text font-family="Cambria Math,Cambria Math_MSFontService,sans-serif" font-weight="400" font-size="27" transform="translate(971.606 406)">,</text><text font-family="Cambria Math,Cambria Math_MSFontService,sans-serif" font-weight="400" font-size="27" transform="translate(981.552 406)">洧논</text><text font-family="Cambria Math,Cambria Math_MSFontService,sans-serif" font-weight="400" font-size="20" transform="translate(995.459 412)">洧녵</text><g clip-path="url(#clip17)"><g filter="url(#fx7)" transform="translate(933 65)"><g><path d="M13.5001 38.8334C13.5001 24.474 25.8122 12.8334 41.0001 12.8334 56.1879 12.8334 68.5001 24.474 68.5001 38.8334 68.5001 53.1928 56.1879 64.8334 41.0001 64.8334 25.8122 64.8334 13.5001 53.1928 13.5001 38.8334Z" fill="#FFFFFF" fill-rule="evenodd"/><path d="M21.5546 20.4486 60.4455 57.2182M60.4455 20.4486 21.5546 57.2182" stroke="#588E31" stroke-width="3" stroke-miterlimit="8" fill="none" fill-rule="evenodd"/><path d="M13.5001 38.8334C13.5001 24.474 25.8122 12.8334 41.0001 12.8334 56.1879 12.8334 68.5001 24.474 68.5001 38.8334 68.5001 53.1928 56.1879 64.8334 41.0001 64.8334 25.8122 64.8334 13.5001 53.1928 13.5001 38.8334Z" stroke="#588E31" stroke-width="3" stroke-miterlimit="8" fill="none" fill-rule="evenodd"/></g></g></g><path d="M946.5 98.5001C946.5 84.1406 958.812 72.5001 974 72.5001 989.188 72.5001 1001.5 84.1406 1001.5 98.5001 1001.5 112.859 989.188 124.5 974 124.5 958.812 124.5 946.5 112.859 946.5 98.5001Z" fill="#FFFFFF" fill-rule="evenodd"/><path d="M954.555 80.1153 993.445 116.885M993.445 80.1153 954.555 116.885" stroke="#588E31" stroke-width="2.66667" stroke-miterlimit="8" fill="none" fill-rule="evenodd"/><path d="M946.5 98.5001C946.5 84.1406 958.812 72.5001 974 72.5001 989.188 72.5001 1001.5 84.1406 1001.5 98.5001 1001.5 112.859 989.188 124.5 974 124.5 958.812 124.5 946.5 112.859 946.5 98.5001Z" stroke="#588E31" stroke-width="2.66667" stroke-miterlimit="8" fill="none" fill-rule="evenodd"/><path d="M1.33333-2.56224e-06 1.33343 47.9662-1.33324 47.9662-1.33333 2.56224e-06ZM4.00009 46.6329 0.000104987 54.6329-3.99991 46.6329Z" fill="#4874CB" transform="matrix(1 0 0 -1 970.5 363.133)"/><path d="M1012.98 537.633 1050.58 537.633 1049.25 538.966 1049.25 98.5001 1050.58 99.8334 1008.17 99.8334 1008.17 97.1667 1051.92 97.1667 1051.92 540.299 1012.98 540.299ZM1009.5 102.5 1001.5 98.5001 1009.5 94.5001Z" fill="#4874CB"/><path d="M0.666638-0.00619759 0.838048 18.4314-0.495228 18.4437-0.666638 0.00619759ZM4.15884 17.0671 0.233386 25.1039-3.84081 17.1415Z" fill="#4874CB" transform="matrix(1 0 0 -1 974.5 148.604)"/><text font-family="Cambria Math,Cambria Math_MSFontService,sans-serif" font-weight="400" font-size="27" transform="translate(960.327 166)">洧랝</text><text font-family="Cambria Math,Cambria Math_MSFontService,sans-serif" font-weight="400" font-size="20" transform="translate(974.16 172)">洧녵</text><path d="M0.222994-1.31455 254.879 41.884 254.433 44.5131-0.222994 1.31455ZM254.011 39.0319 261.229 44.3135 252.673 46.9192Z" fill="#4874CB" transform="matrix(1 0 0 -1 387.5 84.8135)"/><path d="M955.104 80.6201 687.913 42.7556 688.288 40.1153 955.478 77.9798ZM688.86 45.583 681.5 40.5001 689.982 37.6621Z" fill="#4874CB"/><path d="M664.201 72.101 664.176 54.1686 666.843 54.1648 666.868 72.0972ZM661.511 55.5057 665.5 47.5001 669.511 55.4944Z" fill="#4874CB"/><g clip-path="url(#clip18)"><g filter="url(#fx8)" transform="translate(629 -5)"><g><path d="M13.5001 35.8334C13.5001 23.6831 23.5737 13.8334 36.0001 13.8334 48.4265 13.8334 58.5001 23.6831 58.5001 35.8334 58.5001 47.9837 48.4265 57.8334 36.0001 57.8334 23.5737 57.8334 13.5001 47.9837 13.5001 35.8334Z" fill="#FFFFFF" fill-rule="evenodd"/><path d="M36.0001 13.8334 36.0001 57.8334M13.5001 35.8334 58.5001 35.8334" stroke="#C81D31" stroke-width="3" stroke-miterlimit="8" fill="none" fill-rule="evenodd"/><path d="M13.5001 35.8334C13.5001 23.6831 23.5737 13.8334 36.0001 13.8334 48.4265 13.8334 58.5001 23.6831 58.5001 35.8334 58.5001 47.9837 48.4265 57.8334 36.0001 57.8334 23.5737 57.8334 13.5001 47.9837 13.5001 35.8334Z" stroke="#C81D31" stroke-width="3" stroke-miterlimit="8" fill="none" fill-rule="evenodd"/></g></g></g><path d="M642.5 25.5001C642.5 13.3498 652.574 3.50005 665 3.50005 677.426 3.50005 687.5 13.3498 687.5 25.5001 687.5 37.6503 677.426 47.5001 665 47.5001 652.574 47.5001 642.5 37.6503 642.5 25.5001Z" fill="#FFFFFF" fill-rule="evenodd"/><path d="M665 3.50005 665 47.5001M642.5 25.5001 687.5 25.5001" stroke="#C81D31" stroke-width="3" stroke-miterlimit="8" fill="none" fill-rule="evenodd"/><path d="M642.5 25.5001C642.5 13.3498 652.574 3.50005 665 3.50005 677.426 3.50005 687.5 13.3498 687.5 25.5001 687.5 37.6503 677.426 47.5001 665 47.5001 652.574 47.5001 642.5 37.6503 642.5 25.5001Z" stroke="#C81D31" stroke-width="3" stroke-miterlimit="8" fill="none" fill-rule="evenodd"/><text font-family="Calibri,Calibri_MSFontService,sans-serif" font-weight="400" font-size="43" transform="translate(767.663 529)">...</text><text font-family="Calibri,Calibri_MSFontService,sans-serif" font-weight="400" font-size="43" transform="translate(767.68 486)">...</text></g></svg>