<svg width="1049" height="599" xmlns="http://www.w3.org/2000/svg" xmlns:xlink="http://www.w3.org/1999/xlink" overflow="hidden"><defs><filter id="fx0" x="-10%" y="-10%" width="120%" height="120%" filterUnits="userSpaceOnUse" primitiveUnits="userSpaceOnUse"><feComponentTransfer color-interpolation-filters="sRGB"><feFuncR type="discrete" tableValues="0.282353 0.282353"/><feFuncG type="discrete" tableValues="0.454902 0.454902"/><feFuncB type="discrete" tableValues="0.796078 0.796078"/><feFuncA type="linear" slope="0.6" intercept="0"/></feComponentTransfer><feGaussianBlur stdDeviation="3.55556 3.55556"/></filter><filter id="fx1" x="-10%" y="-10%" width="120%" height="120%" filterUnits="userSpaceOnUse" primitiveUnits="userSpaceOnUse"><feComponentTransfer color-interpolation-filters="sRGB"><feFuncR type="discrete" tableValues="0.282353 0.282353"/><feFuncG type="discrete" tableValues="0.454902 0.454902"/><feFuncB type="discrete" tableValues="0.796078 0.796078"/><feFuncA type="linear" slope="0.6" intercept="0"/></feComponentTransfer><feGaussianBlur stdDeviation="3.55556 3.55556"/></filter><filter id="fx2" x="-10%" y="-10%" width="120%" height="120%" filterUnits="userSpaceOnUse" primitiveUnits="userSpaceOnUse"><feComponentTransfer color-interpolation-filters="sRGB"><feFuncR type="discrete" tableValues="0.282353 0.282353"/><feFuncG type="discrete" tableValues="0.454902 0.454902"/><feFuncB type="discrete" tableValues="0.796078 0.796078"/><feFuncA type="linear" slope="0.6" intercept="0"/></feComponentTransfer><feGaussianBlur stdDeviation="3.55556 3.55556"/></filter><filter id="fx3" x="-10%" y="-10%" width="120%" height="120%" filterUnits="userSpaceOnUse" primitiveUnits="userSpaceOnUse"><feComponentTransfer color-interpolation-filters="sRGB"><feFuncR type="discrete" tableValues="0.282353 0.282353"/><feFuncG type="discrete" tableValues="0.454902 0.454902"/><feFuncB type="discrete" tableValues="0.796078 0.796078"/><feFuncA type="linear" slope="0.6" intercept="0"/></feComponentTransfer><feGaussianBlur stdDeviation="3.55556 3.55556"/></filter><filter id="fx4" x="-10%" y="-10%" width="120%" height="120%" filterUnits="userSpaceOnUse" primitiveUnits="userSpaceOnUse"><feComponentTransfer color-interpolation-filters="sRGB"><feFuncR type="discrete" tableValues="0.282353 0.282353"/><feFuncG type="discrete" tableValues="0.454902 0.454902"/><feFuncB type="discrete" tableValues="0.796078 0.796078"/><feFuncA type="linear" slope="0.6" intercept="0"/></feComponentTransfer><feGaussianBlur stdDeviation="3.55556 3.55556"/></filter><filter id="fx5" x="-10%" y="-10%" width="120%" height="120%" filterUnits="userSpaceOnUse" primitiveUnits="userSpaceOnUse"><feComponentTransfer color-interpolation-filters="sRGB"><feFuncR type="discrete" tableValues="0.282353 0.282353"/><feFuncG type="discrete" tableValues="0.454902 0.454902"/><feFuncB type="discrete" tableValues="0.796078 0.796078"/><feFuncA type="linear" slope="0.6" intercept="0"/></feComponentTransfer><feGaussianBlur stdDeviation="3.55556 3.55556"/></filter><filter id="fx6" x="-10%" y="-10%" width="120%" height="120%" filterUnits="userSpaceOnUse" primitiveUnits="userSpaceOnUse"><feComponentTransfer color-interpolation-filters="sRGB"><feFuncR type="discrete" tableValues="0.282353 0.282353"/><feFuncG type="discrete" tableValues="0.454902 0.454902"/><feFuncB type="discrete" tableValues="0.796078 0.796078"/><feFuncA type="linear" slope="0.6" intercept="0"/></feComponentTransfer><feGaussianBlur stdDeviation="3.55556 3.55556"/></filter><filter id="fx7" x="-10%" y="-10%" width="120%" height="120%" filterUnits="userSpaceOnUse" primitiveUnits="userSpaceOnUse"><feComponentTransfer color-interpolation-filters="sRGB"><feFuncR type="discrete" tableValues="0.282353 0.282353"/><feFuncG type="discrete" tableValues="0.454902 0.454902"/><feFuncB type="discrete" tableValues="0.796078 0.796078"/><feFuncA type="linear" slope="0.6" intercept="0"/></feComponentTransfer><feGaussianBlur stdDeviation="3.55556 3.55556"/></filter><filter id="fx8" x="-10%" y="-10%" width="120%" height="120%" filterUnits="userSpaceOnUse" primitiveUnits="userSpaceOnUse"><feComponentTransfer color-interpolation-filters="sRGB"><feFuncR type="discrete" tableValues="0.282353 0.282353"/><feFuncG type="discrete" tableValues="0.454902 0.454902"/><feFuncB type="discrete" tableValues="0.796078 0.796078"/><feFuncA type="linear" slope="0.6" intercept="0"/></feComponentTransfer><feGaussianBlur stdDeviation="3.55556 3.55556"/></filter><filter id="fx9" x="-10%" y="-10%" width="120%" height="120%" filterUnits="userSpaceOnUse" primitiveUnits="userSpaceOnUse"><feComponentTransfer color-interpolation-filters="sRGB"><feFuncR type="discrete" tableValues="0.282353 0.282353"/><feFuncG type="discrete" tableValues="0.454902 0.454902"/><feFuncB type="discrete" tableValues="0.796078 0.796078"/><feFuncA type="linear" slope="0.6" intercept="0"/></feComponentTransfer><feGaussianBlur stdDeviation="3.55556 3.55556"/></filter><filter id="fx10" x="-10%" y="-10%" width="120%" height="120%" filterUnits="userSpaceOnUse" primitiveUnits="userSpaceOnUse"><feComponentTransfer color-interpolation-filters="sRGB"><feFuncR type="discrete" tableValues="0.282353 0.282353"/><feFuncG type="discrete" tableValues="0.454902 0.454902"/><feFuncB type="discrete" tableValues="0.796078 0.796078"/><feFuncA type="linear" slope="0.6" intercept="0"/></feComponentTransfer><feGaussianBlur stdDeviation="3.55556 3.55556"/></filter><filter id="fx11" x="-10%" y="-10%" width="120%" height="120%" filterUnits="userSpaceOnUse" primitiveUnits="userSpaceOnUse"><feComponentTransfer color-interpolation-filters="sRGB"><feFuncR type="discrete" tableValues="0.282353 0.282353"/><feFuncG type="discrete" tableValues="0.454902 0.454902"/><feFuncB type="discrete" tableValues="0.796078 0.796078"/><feFuncA type="linear" slope="0.6" intercept="0"/></feComponentTransfer><feGaussianBlur stdDeviation="3.55556 3.55556"/></filter><filter id="fx12" x="-10%" y="-10%" width="120%" height="120%" filterUnits="userSpaceOnUse" primitiveUnits="userSpaceOnUse"><feComponentTransfer color-interpolation-filters="sRGB"><feFuncR type="discrete" tableValues="0.282353 0.282353"/><feFuncG type="discrete" tableValues="0.454902 0.454902"/><feFuncB type="discrete" tableValues="0.796078 0.796078"/><feFuncA type="linear" slope="0.6" intercept="0"/></feComponentTransfer><feGaussianBlur stdDeviation="3.55556 3.55556"/></filter><filter id="fx13" x="-10%" y="-10%" width="120%" height="120%" filterUnits="userSpaceOnUse" primitiveUnits="userSpaceOnUse"><feComponentTransfer color-interpolation-filters="sRGB"><feFuncR type="discrete" tableValues="0.282353 0.282353"/><feFuncG type="discrete" tableValues="0.454902 0.454902"/><feFuncB type="discrete" tableValues="0.796078 0.796078"/><feFuncA type="linear" slope="0.6" intercept="0"/></feComponentTransfer><feGaussianBlur stdDeviation="3.55556 3.55556"/></filter><filter id="fx14" x="-10%" y="-10%" width="120%" height="120%" filterUnits="userSpaceOnUse" primitiveUnits="userSpaceOnUse"><feComponentTransfer color-interpolation-filters="sRGB"><feFuncR type="discrete" tableValues="0.282353 0.282353"/><feFuncG type="discrete" tableValues="0.454902 0.454902"/><feFuncB type="discrete" tableValues="0.796078 0.796078"/><feFuncA type="linear" slope="0.6" intercept="0"/></feComponentTransfer><feGaussianBlur stdDeviation="3.55556 3.55556"/></filter><filter id="fx15" x="-10%" y="-10%" width="120%" height="120%" filterUnits="userSpaceOnUse" primitiveUnits="userSpaceOnUse"><feComponentTransfer color-interpolation-filters="sRGB"><feFuncR type="discrete" tableValues="0.282353 0.282353"/><feFuncG type="discrete" tableValues="0.454902 0.454902"/><feFuncB type="discrete" tableValues="0.796078 0.796078"/><feFuncA type="linear" slope="0.6" intercept="0"/></feComponentTransfer><feGaussianBlur stdDeviation="3.55556 3.55556"/></filter><filter id="fx16" x="-10%" y="-10%" width="120%" height="120%" filterUnits="userSpaceOnUse" primitiveUnits="userSpaceOnUse"><feComponentTransfer color-interpolation-filters="sRGB"><feFuncR type="discrete" tableValues="0.282353 0.282353"/><feFuncG type="discrete" tableValues="0.454902 0.454902"/><feFuncB type="discrete" tableValues="0.796078 0.796078"/><feFuncA type="linear" slope="0.6" intercept="0"/></feComponentTransfer><feGaussianBlur stdDeviation="3.55556 3.55556"/></filter><filter id="fx17" x="-10%" y="-10%" width="120%" height="120%" filterUnits="userSpaceOnUse" primitiveUnits="userSpaceOnUse"><feComponentTransfer color-interpolation-filters="sRGB"><feFuncR type="discrete" tableValues="0.282353 0.282353"/><feFuncG type="discrete" tableValues="0.454902 0.454902"/><feFuncB type="discrete" tableValues="0.796078 0.796078"/><feFuncA type="linear" slope="0.6" intercept="0"/></feComponentTransfer><feGaussianBlur stdDeviation="3.55556 3.55556"/></filter><filter id="fx18" x="-10%" y="-10%" width="120%" height="120%" filterUnits="userSpaceOnUse" primitiveUnits="userSpaceOnUse"><feComponentTransfer color-interpolation-filters="sRGB"><feFuncR type="discrete" tableValues="0.282353 0.282353"/><feFuncG type="discrete" tableValues="0.454902 0.454902"/><feFuncB type="discrete" tableValues="0.796078 0.796078"/><feFuncA type="linear" slope="0.6" intercept="0"/></feComponentTransfer><feGaussianBlur stdDeviation="3.55556 3.55556"/></filter><filter id="fx19" x="-10%" y="-10%" width="120%" height="120%" filterUnits="userSpaceOnUse" primitiveUnits="userSpaceOnUse"><feComponentTransfer color-interpolation-filters="sRGB"><feFuncR type="discrete" tableValues="0.282353 0.282353"/><feFuncG type="discrete" tableValues="0.454902 0.454902"/><feFuncB type="discrete" tableValues="0.796078 0.796078"/><feFuncA type="linear" slope="0.6" intercept="0"/></feComponentTransfer><feGaussianBlur stdDeviation="3.55556 3.55556"/></filter><filter id="fx20" x="-10%" y="-10%" width="120%" height="120%" filterUnits="userSpaceOnUse" primitiveUnits="userSpaceOnUse"><feComponentTransfer color-interpolation-filters="sRGB"><feFuncR type="discrete" tableValues="0.282353 0.282353"/><feFuncG type="discrete" tableValues="0.454902 0.454902"/><feFuncB type="discrete" tableValues="0.796078 0.796078"/><feFuncA type="linear" slope="0.6" intercept="0"/></feComponentTransfer><feGaussianBlur stdDeviation="3.55556 3.55556"/></filter><filter id="fx21" x="-10%" y="-10%" width="120%" height="120%" filterUnits="userSpaceOnUse" primitiveUnits="userSpaceOnUse"><feComponentTransfer color-interpolation-filters="sRGB"><feFuncR type="discrete" tableValues="0.282353 0.282353"/><feFuncG type="discrete" tableValues="0.454902 0.454902"/><feFuncB type="discrete" tableValues="0.796078 0.796078"/><feFuncA type="linear" slope="0.6" intercept="0"/></feComponentTransfer><feGaussianBlur stdDeviation="3.55556 3.55556"/></filter><filter id="fx22" x="-10%" y="-10%" width="120%" height="120%" filterUnits="userSpaceOnUse" primitiveUnits="userSpaceOnUse"><feComponentTransfer color-interpolation-filters="sRGB"><feFuncR type="discrete" tableValues="0.282353 0.282353"/><feFuncG type="discrete" tableValues="0.454902 0.454902"/><feFuncB type="discrete" tableValues="0.796078 0.796078"/><feFuncA type="linear" slope="0.6" intercept="0"/></feComponentTransfer><feGaussianBlur stdDeviation="3.55556 3.55556"/></filter><filter id="fx23" x="-10%" y="-10%" width="120%" height="120%" filterUnits="userSpaceOnUse" primitiveUnits="userSpaceOnUse"><feComponentTransfer color-interpolation-filters="sRGB"><feFuncR type="discrete" tableValues="0.282353 0.282353"/><feFuncG type="discrete" tableValues="0.454902 0.454902"/><feFuncB type="discrete" tableValues="0.796078 0.796078"/><feFuncA type="linear" slope="0.6" intercept="0"/></feComponentTransfer><feGaussianBlur stdDeviation="3.55556 3.55556"/></filter><filter id="fx24" x="-10%" y="-10%" width="120%" height="120%" filterUnits="userSpaceOnUse" primitiveUnits="userSpaceOnUse"><feComponentTransfer color-interpolation-filters="sRGB"><feFuncR type="discrete" tableValues="0.282353 0.282353"/><feFuncG type="discrete" tableValues="0.454902 0.454902"/><feFuncB type="discrete" tableValues="0.796078 0.796078"/><feFuncA type="linear" slope="0.6" intercept="0"/></feComponentTransfer><feGaussianBlur stdDeviation="3.55556 3.55556"/></filter><filter id="fx25" x="-10%" y="-10%" width="120%" height="120%" filterUnits="userSpaceOnUse" primitiveUnits="userSpaceOnUse"><feComponentTransfer color-interpolation-filters="sRGB"><feFuncR type="discrete" tableValues="0.282353 0.282353"/><feFuncG type="discrete" tableValues="0.454902 0.454902"/><feFuncB type="discrete" tableValues="0.796078 0.796078"/><feFuncA type="linear" slope="0.6" intercept="0"/></feComponentTransfer><feGaussianBlur stdDeviation="3.55556 3.55556"/></filter><filter id="fx26" x="-10%" y="-10%" width="120%" height="120%" filterUnits="userSpaceOnUse" primitiveUnits="userSpaceOnUse"><feComponentTransfer color-interpolation-filters="sRGB"><feFuncR type="discrete" tableValues="0.282353 0.282353"/><feFuncG type="discrete" tableValues="0.454902 0.454902"/><feFuncB type="discrete" tableValues="0.796078 0.796078"/><feFuncA type="linear" slope="0.6" intercept="0"/></feComponentTransfer><feGaussianBlur stdDeviation="3.55556 3.55556"/></filter><filter id="fx27" x="-10%" y="-10%" width="120%" height="120%" filterUnits="userSpaceOnUse" primitiveUnits="userSpaceOnUse"><feComponentTransfer color-interpolation-filters="sRGB"><feFuncR type="discrete" tableValues="0.282353 0.282353"/><feFuncG type="discrete" tableValues="0.454902 0.454902"/><feFuncB type="discrete" tableValues="0.796078 0.796078"/><feFuncA type="linear" slope="0.6" intercept="0"/></feComponentTransfer><feGaussianBlur stdDeviation="3.55556 3.55556"/></filter><filter id="fx28" x="-10%" y="-10%" width="120%" height="120%" filterUnits="userSpaceOnUse" primitiveUnits="userSpaceOnUse"><feComponentTransfer color-interpolation-filters="sRGB"><feFuncR type="discrete" tableValues="0.282353 0.282353"/><feFuncG type="discrete" tableValues="0.454902 0.454902"/><feFuncB type="discrete" tableValues="0.796078 0.796078"/><feFuncA type="linear" slope="0.6" intercept="0"/></feComponentTransfer><feGaussianBlur stdDeviation="3.55556 3.55556"/></filter><filter id="fx29" x="-10%" y="-10%" width="120%" height="120%" filterUnits="userSpaceOnUse" primitiveUnits="userSpaceOnUse"><feComponentTransfer color-interpolation-filters="sRGB"><feFuncR type="discrete" tableValues="0.282353 0.282353"/><feFuncG type="discrete" tableValues="0.454902 0.454902"/><feFuncB type="discrete" tableValues="0.796078 0.796078"/><feFuncA type="linear" slope="0.6" intercept="0"/></feComponentTransfer><feGaussianBlur stdDeviation="3.55556 3.55556"/></filter><filter id="fx30" x="-10%" y="-10%" width="120%" height="120%" filterUnits="userSpaceOnUse" primitiveUnits="userSpaceOnUse"><feComponentTransfer color-interpolation-filters="sRGB"><feFuncR type="discrete" tableValues="0.282353 0.282353"/><feFuncG type="discrete" tableValues="0.454902 0.454902"/><feFuncB type="discrete" tableValues="0.796078 0.796078"/><feFuncA type="linear" slope="0.6" intercept="0"/></feComponentTransfer><feGaussianBlur stdDeviation="3.55556 3.55556"/></filter><filter id="fx31" x="-10%" y="-10%" width="120%" height="120%" filterUnits="userSpaceOnUse" primitiveUnits="userSpaceOnUse"><feComponentTransfer color-interpolation-filters="sRGB"><feFuncR type="discrete" tableValues="0.282353 0.282353"/><feFuncG type="discrete" tableValues="0.454902 0.454902"/><feFuncB type="discrete" tableValues="0.796078 0.796078"/><feFuncA type="linear" slope="0.6" intercept="0"/></feComponentTransfer><feGaussianBlur stdDeviation="3.55556 3.55556"/></filter><filter id="fx32" x="-10%" y="-10%" width="120%" height="120%" filterUnits="userSpaceOnUse" primitiveUnits="userSpaceOnUse"><feComponentTransfer color-interpolation-filters="sRGB"><feFuncR type="discrete" tableValues="0.282353 0.282353"/><feFuncG type="discrete" tableValues="0.454902 0.454902"/><feFuncB type="discrete" tableValues="0.796078 0.796078"/><feFuncA type="linear" slope="0.6" intercept="0"/></feComponentTransfer><feGaussianBlur stdDeviation="3.55556 3.55556"/></filter><filter id="fx33" x="-10%" y="-10%" width="120%" height="120%" filterUnits="userSpaceOnUse" primitiveUnits="userSpaceOnUse"><feComponentTransfer color-interpolation-filters="sRGB"><feFuncR type="discrete" tableValues="0.282353 0.282353"/><feFuncG type="discrete" tableValues="0.454902 0.454902"/><feFuncB type="discrete" tableValues="0.796078 0.796078"/><feFuncA type="linear" slope="0.6" intercept="0"/></feComponentTransfer><feGaussianBlur stdDeviation="3.55556 3.55556"/></filter><filter id="fx34" x="-10%" y="-10%" width="120%" height="120%" filterUnits="userSpaceOnUse" primitiveUnits="userSpaceOnUse"><feComponentTransfer color-interpolation-filters="sRGB"><feFuncR type="discrete" tableValues="0.282353 0.282353"/><feFuncG type="discrete" tableValues="0.454902 0.454902"/><feFuncB type="discrete" tableValues="0.796078 0.796078"/><feFuncA type="linear" slope="0.6" intercept="0"/></feComponentTransfer><feGaussianBlur stdDeviation="3.55556 3.55556"/></filter><filter id="fx35" x="-10%" y="-10%" width="120%" height="120%" filterUnits="userSpaceOnUse" primitiveUnits="userSpaceOnUse"><feComponentTransfer color-interpolation-filters="sRGB"><feFuncR type="discrete" tableValues="0.282353 0.282353"/><feFuncG type="discrete" tableValues="0.454902 0.454902"/><feFuncB type="discrete" tableValues="0.796078 0.796078"/><feFuncA type="linear" slope="0.6" intercept="0"/></feComponentTransfer><feGaussianBlur stdDeviation="3.55556 3.55556"/></filter><filter id="fx36" x="-10%" y="-10%" width="120%" height="120%" filterUnits="userSpaceOnUse" primitiveUnits="userSpaceOnUse"><feComponentTransfer color-interpolation-filters="sRGB"><feFuncR type="discrete" tableValues="0.282353 0.282353"/><feFuncG type="discrete" tableValues="0.454902 0.454902"/><feFuncB type="discrete" tableValues="0.796078 0.796078"/><feFuncA type="linear" slope="0.6" intercept="0"/></feComponentTransfer><feGaussianBlur stdDeviation="3.55556 3.55556"/></filter><filter id="fx37" x="-10%" y="-10%" width="120%" height="120%" filterUnits="userSpaceOnUse" primitiveUnits="userSpaceOnUse"><feComponentTransfer color-interpolation-filters="sRGB"><feFuncR type="discrete" tableValues="0.282353 0.282353"/><feFuncG type="discrete" tableValues="0.454902 0.454902"/><feFuncB type="discrete" tableValues="0.796078 0.796078"/><feFuncA type="linear" slope="0.6" intercept="0"/></feComponentTransfer><feGaussianBlur stdDeviation="3.55556 3.55556"/></filter><filter id="fx38" x="-10%" y="-10%" width="120%" height="120%" filterUnits="userSpaceOnUse" primitiveUnits="userSpaceOnUse"><feComponentTransfer color-interpolation-filters="sRGB"><feFuncR type="discrete" tableValues="0.282353 0.282353"/><feFuncG type="discrete" tableValues="0.454902 0.454902"/><feFuncB type="discrete" tableValues="0.796078 0.796078"/><feFuncA type="linear" slope="0.6" intercept="0"/></feComponentTransfer><feGaussianBlur stdDeviation="3.55556 3.55556"/></filter><filter id="fx39" x="-10%" y="-10%" width="120%" height="120%" filterUnits="userSpaceOnUse" primitiveUnits="userSpaceOnUse"><feComponentTransfer color-interpolation-filters="sRGB"><feFuncR type="discrete" tableValues="0.282353 0.282353"/><feFuncG type="discrete" tableValues="0.454902 0.454902"/><feFuncB type="discrete" tableValues="0.796078 0.796078"/><feFuncA type="linear" slope="0.6" intercept="0"/></feComponentTransfer><feGaussianBlur stdDeviation="3.55556 3.55556"/></filter><filter id="fx40" x="-10%" y="-10%" width="120%" height="120%" filterUnits="userSpaceOnUse" primitiveUnits="userSpaceOnUse"><feComponentTransfer color-interpolation-filters="sRGB"><feFuncR type="discrete" tableValues="0.282353 0.282353"/><feFuncG type="discrete" tableValues="0.454902 0.454902"/><feFuncB type="discrete" tableValues="0.796078 0.796078"/><feFuncA type="linear" slope="0.6" intercept="0"/></feComponentTransfer><feGaussianBlur stdDeviation="3.55556 3.55556"/></filter><filter id="fx41" x="-10%" y="-10%" width="120%" height="120%" filterUnits="userSpaceOnUse" primitiveUnits="userSpaceOnUse"><feComponentTransfer color-interpolation-filters="sRGB"><feFuncR type="discrete" tableValues="0.282353 0.282353"/><feFuncG type="discrete" tableValues="0.454902 0.454902"/><feFuncB type="discrete" tableValues="0.796078 0.796078"/><feFuncA type="linear" slope="0.6" intercept="0"/></feComponentTransfer><feGaussianBlur stdDeviation="3.55556 3.55556"/></filter><filter id="fx42" x="-10%" y="-10%" width="120%" height="120%" filterUnits="userSpaceOnUse" primitiveUnits="userSpaceOnUse"><feComponentTransfer color-interpolation-filters="sRGB"><feFuncR type="discrete" tableValues="0.282353 0.282353"/><feFuncG type="discrete" tableValues="0.454902 0.454902"/><feFuncB type="discrete" tableValues="0.796078 0.796078"/><feFuncA type="linear" slope="0.6" intercept="0"/></feComponentTransfer><feGaussianBlur stdDeviation="3.55556 3.55556"/></filter><filter id="fx43" x="-10%" y="-10%" width="120%" height="120%" filterUnits="userSpaceOnUse" primitiveUnits="userSpaceOnUse"><feComponentTransfer color-interpolation-filters="sRGB"><feFuncR type="discrete" tableValues="0.282353 0.282353"/><feFuncG type="discrete" tableValues="0.454902 0.454902"/><feFuncB type="discrete" tableValues="0.796078 0.796078"/><feFuncA type="linear" slope="0.6" intercept="0"/></feComponentTransfer><feGaussianBlur stdDeviation="3.55556 3.55556"/></filter><clipPath id="clip44"><rect x="63" y="15" width="1049" height="599"/></clipPath><clipPath id="clip45"><path d="M129.5 360.5 129.5 417.5 185.5 417.5 185.5 360.5ZM63 15 1112 15 1112 614 63 614Z" fill-rule="evenodd" clip-rule="evenodd"/></clipPath><clipPath id="clip46"><rect x="19" y="16" width="39" height="50"/></clipPath><clipPath id="clip47"><path d="M185.5 360.5 185.5 417.5 242.5 417.5 242.5 360.5ZM63 15 1112 15 1112 614 63 614Z" fill-rule="evenodd" clip-rule="evenodd"/></clipPath><clipPath id="clip48"><rect x="16" y="16" width="45" height="50"/></clipPath><clipPath id="clip49"><path d="M242.5 360.5 242.5 417.5 299.5 417.5 299.5 360.5ZM63 15 1112 15 1112 614 63 614Z" fill-rule="evenodd" clip-rule="evenodd"/></clipPath><clipPath id="clip50"><rect x="16" y="16" width="45" height="50"/></clipPath><clipPath id="clip51"><path d="M129.5 417.5 129.5 473.5 185.5 473.5 185.5 417.5ZM63 15 1112 15 1112 614 63 614Z" fill-rule="evenodd" clip-rule="evenodd"/></clipPath><clipPath id="clip52"><rect x="16" y="16" width="45" height="50"/></clipPath><clipPath id="clip53"><path d="M185.5 417.5 185.5 473.5 242.5 473.5 242.5 417.5ZM63 15 1112 15 1112 614 63 614Z" fill-rule="evenodd" clip-rule="evenodd"/></clipPath><clipPath id="clip54"><rect x="16" y="16" width="45" height="50"/></clipPath><clipPath id="clip55"><path d="M242.5 417.5 242.5 473.5 299.5 473.5 299.5 417.5ZM63 15 1112 15 1112 614 63 614Z" fill-rule="evenodd" clip-rule="evenodd"/></clipPath><clipPath id="clip56"><rect x="16" y="16" width="45" height="50"/></clipPath><clipPath id="clip57"><path d="M129.5 473.5 129.5 530.5 185.5 530.5 185.5 473.5ZM63 15 1112 15 1112 614 63 614Z" fill-rule="evenodd" clip-rule="evenodd"/></clipPath><clipPath id="clip58"><rect x="16" y="16" width="45" height="53"/></clipPath><clipPath id="clip59"><path d="M185.5 473.5 185.5 530.5 242.5 530.5 242.5 473.5ZM63 15 1112 15 1112 614 63 614Z" fill-rule="evenodd" clip-rule="evenodd"/></clipPath><clipPath id="clip60"><rect x="16" y="16" width="45" height="53"/></clipPath><clipPath id="clip61"><path d="M242.5 473.5 242.5 530.5 299.5 530.5 299.5 473.5ZM63 15 1112 15 1112 614 63 614Z" fill-rule="evenodd" clip-rule="evenodd"/></clipPath><clipPath id="clip62"><rect x="19" y="16" width="42" height="53"/></clipPath><clipPath id="clip63"><path d="M299.5 360.5 299.5 417.5 355.5 417.5 355.5 360.5ZM63 15 1112 15 1112 614 63 614Z" fill-rule="evenodd" clip-rule="evenodd"/></clipPath><clipPath id="clip64"><rect x="16" y="16" width="45" height="50"/></clipPath><clipPath id="clip65"><path d="M299.5 417.5 299.5 473.5 355.5 473.5 355.5 417.5ZM63 15 1112 15 1112 614 63 614Z" fill-rule="evenodd" clip-rule="evenodd"/></clipPath><clipPath id="clip66"><rect x="16" y="16" width="45" height="50"/></clipPath><clipPath id="clip67"><path d="M299.5 473.5 299.5 530.5 355.5 530.5 355.5 473.5ZM63 15 1112 15 1112 614 63 614Z" fill-rule="evenodd" clip-rule="evenodd"/></clipPath><clipPath id="clip68"><rect x="16" y="16" width="45" height="53"/></clipPath><clipPath id="clip69"><path d="M129.5 530.5 129.5 587.5 185.5 587.5 185.5 530.5ZM63 15 1112 15 1112 614 63 614Z" fill-rule="evenodd" clip-rule="evenodd"/></clipPath><clipPath id="clip70"><rect x="16" y="16" width="45" height="53"/></clipPath><clipPath id="clip71"><path d="M185.5 530.5 185.5 587.5 242.5 587.5 242.5 530.5ZM63 15 1112 15 1112 614 63 614Z" fill-rule="evenodd" clip-rule="evenodd"/></clipPath><clipPath id="clip72"><rect x="16" y="16" width="45" height="53"/></clipPath><clipPath id="clip73"><path d="M242.5 530.5 242.5 587.5 299.5 587.5 299.5 530.5ZM63 15 1112 15 1112 614 63 614Z" fill-rule="evenodd" clip-rule="evenodd"/></clipPath><clipPath id="clip74"><rect x="19" y="16" width="42" height="53"/></clipPath><clipPath id="clip75"><path d="M299.5 530.5 299.5 587.5 355.5 587.5 355.5 530.5ZM63 15 1112 15 1112 614 63 614Z" fill-rule="evenodd" clip-rule="evenodd"/></clipPath><clipPath id="clip76"><rect x="16" y="16" width="45" height="53"/></clipPath><clipPath id="clip77"><path d="M868.5 416.5 868.5 473.5 925.5 473.5 925.5 416.5ZM63 15 1112 15 1112 614 63 614Z" fill-rule="evenodd" clip-rule="evenodd"/></clipPath><clipPath id="clip78"><rect x="16" y="16" width="45" height="53"/></clipPath><clipPath id="clip79"><path d="M868.5 473.5 868.5 530.5 925.5 530.5 925.5 473.5ZM63 15 1112 15 1112 614 63 614Z" fill-rule="evenodd" clip-rule="evenodd"/></clipPath><clipPath id="clip80"><rect x="19" y="16" width="42" height="50"/></clipPath><clipPath id="clip81"><path d="M927.5 416.5 927.5 473.5 984.5 473.5 984.5 416.5ZM63 15 1112 15 1112 614 63 614Z" fill-rule="evenodd" clip-rule="evenodd"/></clipPath><clipPath id="clip82"><rect x="16" y="16" width="45" height="53"/></clipPath><clipPath id="clip83"><path d="M927.5 473.5 927.5 530.5 984.5 530.5 984.5 473.5ZM63 15 1112 15 1112 614 63 614Z" fill-rule="evenodd" clip-rule="evenodd"/></clipPath><clipPath id="clip84"><rect x="16" y="16" width="45" height="50"/></clipPath><clipPath id="clip85"><path d="M133.549 22 77 78.5492 77 240 381.451 240 438 183.451 438 22ZM63 15 1112 15 1112 614 63 614Z" fill-rule="evenodd" clip-rule="evenodd"/></clipPath><clipPath id="clip86"><path d="M827 87 789 125 789 239 1061 239 1099 201 1099 87ZM63 15 1112 15 1112 614 63 614Z" fill-rule="evenodd" clip-rule="evenodd"/></clipPath><clipPath id="clip87"><path d="M253.277 22.5001 197.5 78.2765 197.5 240.5 220.724 240.5 276.5 184.724 276.5 22.5001ZM63 15 1112 15 1112 614 63 614Z" fill-rule="evenodd" clip-rule="evenodd"/></clipPath><clipPath id="clip88"><path d="M947.8 86.5001 908.5 125.8 908.5 238.5 929.2 238.5 968.5 199.2 968.5 86.5001ZM63 15 1112 15 1112 614 63 614Z" fill-rule="evenodd" clip-rule="evenodd"/></clipPath></defs><g clip-path="url(#clip44)" transform="translate(-63 -15)"><g clip-path="url(#clip45)"><g filter="url(#fx0)" transform="translate(116 352)"><g><rect x="13.5" y="13.8334" width="56" height="57" stroke="#2E54A1" stroke-width="3" stroke-miterlimit="8" fill="#E54C5E"/></g></g><g clip-path="url(#clip46)" filter="url(#fx1)" transform="translate(118 353)"><g><path d="M3.75-19.1094 8.90625-21.625 9.42188-21.625 9.42188-3.73438C9.42188-2.54688 9.47135-1.80729 9.57031-1.51562 9.66927-1.22396 9.875-1 10.1875-0.84375 10.5-0.6875 11.1354-0.598958 12.0938-0.578125L12.0938 0 4.125 0 4.125-0.578125C5.125-0.598958 5.77083-0.684896 6.0625-0.835938 6.35417-0.986979 6.55729-1.1901 6.67188-1.44531 6.78646-1.70052 6.84375-2.46354 6.84375-3.73438L6.84375-15.1719C6.84375-16.7135 6.79167-17.7031 6.6875-18.1406 6.61458-18.474 6.48177-18.7188 6.28906-18.875 6.09635-19.0312 5.86458-19.1094 5.59375-19.1094 5.20833-19.1094 4.67188-18.9479 3.98438-18.625Z" fill="#7030A0" transform="translate(31.0273 52)"/></g></g></g><rect x="129.5" y="360.5" width="56" height="57" stroke="#2E54A1" stroke-width="3" stroke-miterlimit="8" fill="#E54C5E"/><text fill="#7030A0" font-family="Times New Roman,Times New Roman_MSFontService,sans-serif" font-weight="400" font-size="32" transform="translate(149.027 400)">1</text><g clip-path="url(#clip47)"><g filter="url(#fx2)" transform="translate(172 352)"><g><rect x="13.5" y="13.8334" width="57" height="57" stroke="#2E54A1" stroke-width="3" stroke-miterlimit="8" fill="#E54C5E"/></g></g><g clip-path="url(#clip48)" filter="url(#fx3)" transform="translate(175 353)"><g><path d="M14.6719-4.07812 13.1875 0 0.6875 0 0.6875-0.578125C4.36458-3.93229 6.95312-6.67188 8.45312-8.79688 9.95312-10.9219 10.7031-12.8646 10.7031-14.625 10.7031-15.9687 10.2917-17.0729 9.46875-17.9375 8.64583-18.8021 7.66146-19.2344 6.51562-19.2344 5.47396-19.2344 4.53906-18.9297 3.71094-18.3203 2.88281-17.7109 2.27083-16.8177 1.875-15.6406L1.29688-15.6406C1.55729-17.5677 2.22656-19.0469 3.30469-20.0781 4.38281-21.1094 5.72917-21.625 7.34375-21.625 9.0625-21.625 10.4974-21.0729 11.6484-19.9688 12.7995-18.8646 13.375-17.5625 13.375-16.0625 13.375-14.9896 13.125-13.9167 12.625-12.8438 11.8542-11.1562 10.6042-9.36979 8.875-7.48438 6.28125-4.65104 4.66146-2.94271 4.01562-2.35938L9.54688-2.35938C10.6719-2.35938 11.4609-2.40104 11.9141-2.48438 12.3672-2.56771 12.776-2.73698 13.1406-2.99219 13.5052-3.2474 13.8229-3.60937 14.0938-4.07812Z" fill="#7030A0" transform="translate(30.7202 52)"/></g></g></g><rect x="185.5" y="360.5" width="57" height="57" stroke="#2E54A1" stroke-width="3" stroke-miterlimit="8" fill="#E54C5E"/><text fill="#7030A0" font-family="Times New Roman,Times New Roman_MSFontService,sans-serif" font-weight="400" font-size="32" transform="translate(205.72 400)">2</text><g clip-path="url(#clip49)"><g filter="url(#fx4)" transform="translate(229 352)"><g><rect x="13.5" y="13.8334" width="57" height="57" stroke="#2E54A1" stroke-width="3" stroke-miterlimit="8" fill="#30C0B4"/></g></g><g clip-path="url(#clip50)" filter="url(#fx5)" transform="translate(231 353)"><g><path d="M1.625-17.1562C2.22917-18.5833 2.99219-19.6849 3.91406-20.4609 4.83594-21.237 5.98438-21.625 7.35938-21.625 9.05729-21.625 10.3594-21.0729 11.2656-19.9688 11.9531-19.1458 12.2969-18.2656 12.2969-17.3281 12.2969-15.7865 11.3281-14.1927 9.39062-12.5469 10.6927-12.0365 11.6771-11.3073 12.3438-10.3594 13.0104-9.41146 13.3438-8.29688 13.3438-7.01562 13.3438-5.18229 12.7604-3.59375 11.5938-2.25 10.0729-0.5 7.86979 0.375 4.98438 0.375 3.55729 0.375 2.58594 0.197917 2.07031-0.15625 1.55469-0.510417 1.29688-0.890625 1.29688-1.29688 1.29688-1.59896 1.41927-1.86458 1.66406-2.09375 1.90885-2.32292 2.20312-2.4375 2.54688-2.4375 2.80729-2.4375 3.07292-2.39583 3.34375-2.3125 3.52083-2.26042 3.92187-2.07031 4.54688-1.74219 5.17188-1.41406 5.60417-1.21875 5.84375-1.15625 6.22917-1.04167 6.64062-0.984375 7.07812-0.984375 8.14062-0.984375 9.0651-1.39583 9.85156-2.21875 10.638-3.04167 11.0312-4.01562 11.0312-5.14062 11.0312-5.96354 10.849-6.76562 10.4844-7.54688 10.2135-8.13021 9.91667-8.57292 9.59375-8.875 9.14583-9.29167 8.53125-9.66927 7.75-10.0078 6.96875-10.3464 6.17188-10.5156 5.35938-10.5156L4.85938-10.5156 4.85938-10.9844C5.68229-11.0885 6.50781-11.3854 7.33594-11.875 8.16406-12.3646 8.76562-12.9531 9.14062-13.6406 9.51562-14.3281 9.70312-15.0833 9.70312-15.9062 9.70312-16.9792 9.36719-17.8464 8.69531-18.5078 8.02344-19.1693 7.1875-19.5 6.1875-19.5 4.57292-19.5 3.22396-18.6354 2.14062-16.9062Z" fill="#7030A0" transform="translate(31.4131 52)"/></g></g></g><rect x="242.5" y="360.5" width="57" height="57" stroke="#2E54A1" stroke-width="3" stroke-miterlimit="8" fill="#30C0B4"/><text fill="#7030A0" font-family="Times New Roman,Times New Roman_MSFontService,sans-serif" font-weight="400" font-size="32" transform="translate(262.413 400)">3</text><g clip-path="url(#clip51)"><g filter="url(#fx6)" transform="translate(116 409)"><g><rect x="13.5" y="13.8334" width="56" height="56" stroke="#2E54A1" stroke-width="3" stroke-miterlimit="8" fill="#E54C5E"/></g></g><g clip-path="url(#clip52)" filter="url(#fx7)" transform="translate(118 410)"><g><path d="M14.8906-7.8125 14.8906-5.59375 12.0469-5.59375 12.0469 0 9.46875 0 9.46875-5.59375 0.5-5.59375 0.5-7.59375 10.3281-21.625 12.0469-21.625 12.0469-7.8125ZM9.46875-7.8125 9.46875-18.3281 2.03125-7.8125Z" fill="#7030A0" transform="translate(31.0273 52)"/></g></g></g><rect x="129.5" y="417.5" width="56" height="56" stroke="#2E54A1" stroke-width="3" stroke-miterlimit="8" fill="#E54C5E"/><text fill="#7030A0" font-family="Times New Roman,Times New Roman_MSFontService,sans-serif" font-weight="400" font-size="32" transform="translate(149.027 457)">4</text><g clip-path="url(#clip53)"><g filter="url(#fx8)" transform="translate(172 409)"><g><rect x="13.5" y="13.8334" width="57" height="56" stroke="#2E54A1" stroke-width="3" stroke-miterlimit="8" fill="#E54C5E"/></g></g><g clip-path="url(#clip54)" filter="url(#fx9)" transform="translate(175 410)"><g><path d="M13.8906-21.1875 12.6719-18.5312 6.29688-18.5312 4.90625-15.6875C7.66667-15.2812 9.85417-14.2552 11.4688-12.6094 12.8542-11.1927 13.5469-9.52604 13.5469-7.60938 13.5469-6.49479 13.3203-5.46354 12.8672-4.51562 12.4141-3.56771 11.8437-2.76042 11.1562-2.09375 10.4688-1.42708 9.70312-0.890625 8.85938-0.484375 7.66146 0.0885416 6.43229 0.375 5.17188 0.375 3.90104 0.375 2.97656 0.158854 2.39844-0.273438 1.82031-0.705729 1.53125-1.18229 1.53125-1.70312 1.53125-1.99479 1.65104-2.2526 1.89062-2.47656 2.13021-2.70052 2.43229-2.8125 2.79688-2.8125 3.06771-2.8125 3.30469-2.77083 3.50781-2.6875 3.71094-2.60417 4.05729-2.39062 4.54688-2.04688 5.32812-1.50521 6.11979-1.23438 6.92188-1.23438 8.14062-1.23438 9.21094-1.69531 10.1328-2.61719 11.0547-3.53906 11.5156-4.66146 11.5156-5.98438 11.5156-7.26562 11.1042-8.46094 10.2812-9.57031 9.45833-10.6797 8.32292-11.5365 6.875-12.1406 5.73958-12.6094 4.19271-12.8802 2.23438-12.9531L6.29688-21.1875Z" fill="#7030A0" transform="translate(30.7202 52)"/></g></g></g><rect x="185.5" y="417.5" width="57" height="56" stroke="#2E54A1" stroke-width="3" stroke-miterlimit="8" fill="#E54C5E"/><text fill="#7030A0" font-family="Times New Roman,Times New Roman_MSFontService,sans-serif" font-weight="400" font-size="32" transform="translate(205.72 457)">5</text><g clip-path="url(#clip55)"><g filter="url(#fx10)" transform="translate(229 409)"><g><rect x="13.5" y="13.8334" width="57" height="56" stroke="#2E54A1" stroke-width="3" stroke-miterlimit="8" fill="#30C0B4"/></g></g><g clip-path="url(#clip56)" filter="url(#fx11)" transform="translate(231 410)"><g><path d="M14.3438-21.625 14.3438-21.0469C12.9687-20.9115 11.8464-20.638 10.9766-20.2266 10.1068-19.8151 9.2474-19.1875 8.39844-18.3438 7.54948-17.5 6.84635-16.5599 6.28906-15.5234 5.73177-14.487 5.26562-13.2552 4.89062-11.8281 6.39062-12.8594 7.89583-13.375 9.40625-13.375 10.8542-13.375 12.1094-12.7917 13.1719-11.625 14.2344-10.4583 14.7656-8.95833 14.7656-7.125 14.7656-5.35417 14.2292-3.73958 13.1562-2.28125 11.8646-0.510417 10.1562 0.375 8.03125 0.375 6.58333 0.375 5.35417-0.104167 4.34375-1.0625 2.36458-2.92708 1.375-5.34375 1.375-8.3125 1.375-10.2083 1.75521-12.0104 2.51562-13.7188 3.27604-15.4271 4.36198-16.9427 5.77344-18.2656 7.1849-19.5885 8.53646-20.4792 9.82812-20.9375 11.1198-21.3958 12.3229-21.625 13.4375-21.625ZM4.625-10.6875C4.4375-9.28125 4.34375-8.14583 4.34375-7.28125 4.34375-6.28125 4.52865-5.19531 4.89844-4.02344 5.26823-2.85156 5.81771-1.92188 6.54688-1.23438 7.07812-0.744792 7.72396-0.5 8.48438-0.5 9.39062-0.5 10.2005-0.927083 10.9141-1.78125 11.6276-2.63542 11.9844-3.85417 11.9844-5.4375 11.9844-7.21875 11.6302-8.76042 10.9219-10.0625 10.2135-11.3646 9.20833-12.0156 7.90625-12.0156 7.51042-12.0156 7.08594-11.9323 6.63281-11.7656 6.17969-11.599 5.51042-11.2396 4.625-10.6875Z" fill="#7030A0" transform="translate(31.4131 52)"/></g></g></g><rect x="242.5" y="417.5" width="57" height="56" stroke="#2E54A1" stroke-width="3" stroke-miterlimit="8" fill="#30C0B4"/><text fill="#7030A0" font-family="Times New Roman,Times New Roman_MSFontService,sans-serif" font-weight="400" font-size="32" transform="translate(262.413 457)">6</text><g clip-path="url(#clip57)"><g filter="url(#fx12)" transform="translate(116 465)"><g><rect x="13.5" y="13.8334" width="56" height="57" stroke="#2E54A1" stroke-width="3" stroke-miterlimit="8" fill="#FED961"/></g></g><g clip-path="url(#clip58)" filter="url(#fx13)" transform="translate(118 466)"><g><path d="M1.625-17.1562C2.22917-18.5833 2.99219-19.6849 3.91406-20.4609 4.83594-21.237 5.98438-21.625 7.35938-21.625 9.05729-21.625 10.3594-21.0729 11.2656-19.9688 11.9531-19.1458 12.2969-18.2656 12.2969-17.3281 12.2969-15.7865 11.3281-14.1927 9.39062-12.5469 10.6927-12.0365 11.6771-11.3073 12.3438-10.3594 13.0104-9.41146 13.3438-8.29688 13.3438-7.01562 13.3438-5.18229 12.7604-3.59375 11.5938-2.25 10.0729-0.5 7.86979 0.375 4.98438 0.375 3.55729 0.375 2.58594 0.197917 2.07031-0.15625 1.55469-0.510417 1.29688-0.890625 1.29688-1.29688 1.29688-1.59896 1.41927-1.86458 1.66406-2.09375 1.90885-2.32292 2.20312-2.4375 2.54688-2.4375 2.80729-2.4375 3.07292-2.39583 3.34375-2.3125 3.52083-2.26042 3.92187-2.07031 4.54688-1.74219 5.17188-1.41406 5.60417-1.21875 5.84375-1.15625 6.22917-1.04167 6.64062-0.984375 7.07812-0.984375 8.14062-0.984375 9.0651-1.39583 9.85156-2.21875 10.638-3.04167 11.0312-4.01562 11.0312-5.14062 11.0312-5.96354 10.849-6.76562 10.4844-7.54688 10.2135-8.13021 9.91667-8.57292 9.59375-8.875 9.14583-9.29167 8.53125-9.66927 7.75-10.0078 6.96875-10.3464 6.17188-10.5156 5.35938-10.5156L4.85938-10.5156 4.85938-10.9844C5.68229-11.0885 6.50781-11.3854 7.33594-11.875 8.16406-12.3646 8.76562-12.9531 9.14062-13.6406 9.51562-14.3281 9.70312-15.0833 9.70312-15.9062 9.70312-16.9792 9.36719-17.8464 8.69531-18.5078 8.02344-19.1693 7.1875-19.5 6.1875-19.5 4.57292-19.5 3.22396-18.6354 2.14062-16.9062Z" fill="#7030A0" transform="translate(31.0273 53)"/></g></g></g><rect x="129.5" y="473.5" width="56" height="57" stroke="#2E54A1" stroke-width="3" stroke-miterlimit="8" fill="#FED961"/><text fill="#7030A0" font-family="Times New Roman,Times New Roman_MSFontService,sans-serif" font-weight="400" font-size="32" transform="translate(149.027 514)">3</text><g clip-path="url(#clip59)"><g filter="url(#fx14)" transform="translate(172 465)"><g><rect x="13.5" y="13.8334" width="57" height="57" stroke="#2E54A1" stroke-width="3" stroke-miterlimit="8" fill="#FED961"/></g></g><g clip-path="url(#clip60)" filter="url(#fx15)" transform="translate(175 466)"><g><path d="M6.14062-10.6719C4.46354-12.0469 3.38281-13.151 2.89844-13.9844 2.41406-14.8177 2.17188-15.6823 2.17188-16.5781 2.17188-17.9531 2.70312-19.138 3.76562-20.1328 4.82812-21.1276 6.23958-21.625 8-21.625 9.70833-21.625 11.0833-21.1615 12.125-20.2344 13.1667-19.3073 13.6875-18.25 13.6875-17.0625 13.6875-16.2708 13.4062-15.4635 12.8438-14.6406 12.2812-13.8177 11.1094-12.849 9.32812-11.7344 11.1615-10.3177 12.375-9.20312 12.9688-8.39062 13.7604-7.32812 14.1562-6.20833 14.1562-5.03125 14.1562-3.54167 13.5885-2.26823 12.4531-1.21094 11.3177-0.153646 9.82812 0.375 7.98438 0.375 5.97396 0.375 4.40625-0.255208 3.28125-1.51562 2.38542-2.52604 1.9375-3.63021 1.9375-4.82812 1.9375-5.76562 2.2526-6.69531 2.88281-7.61719 3.51302-8.53906 4.59896-9.55729 6.14062-10.6719ZM8.59375-12.3438C9.84375-13.4688 10.6354-14.3568 10.9688-15.0078 11.3021-15.6589 11.4688-16.3958 11.4688-17.2188 11.4688-18.3125 11.1615-19.1693 10.5469-19.7891 9.93229-20.4089 9.09375-20.7188 8.03125-20.7188 6.96875-20.7188 6.10417-20.4115 5.4375-19.7969 4.77083-19.1823 4.4375-18.4635 4.4375-17.6406 4.4375-17.099 4.57552-16.5573 4.85156-16.0156 5.1276-15.474 5.52083-14.9583 6.03125-14.4688ZM6.875-10.0781C6.01042-9.34896 5.36979-8.55469 4.95312-7.69531 4.53646-6.83594 4.32812-5.90625 4.32812-4.90625 4.32812-3.5625 4.69531-2.48698 5.42969-1.67969 6.16406-0.872396 7.09896-0.46875 8.23438-0.46875 9.35938-0.46875 10.2604-0.786458 10.9375-1.42188 11.6146-2.05729 11.9531-2.82812 11.9531-3.73438 11.9531-4.48438 11.7552-5.15625 11.3594-5.75 10.6198-6.85417 9.125-8.29688 6.875-10.0781Z" fill="#7030A0" transform="translate(30.7202 53)"/></g></g></g><rect x="185.5" y="473.5" width="57" height="57" stroke="#2E54A1" stroke-width="3" stroke-miterlimit="8" fill="#FED961"/><text fill="#7030A0" font-family="Times New Roman,Times New Roman_MSFontService,sans-serif" font-weight="400" font-size="32" transform="translate(205.72 514)">8</text><g clip-path="url(#clip61)"><g filter="url(#fx16)" transform="translate(229 465)"><g><rect x="13.5" y="13.8334" width="57" height="57" stroke="#2E54A1" stroke-width="3" stroke-miterlimit="8" fill="#E7E6E6"/></g></g><g clip-path="url(#clip62)" filter="url(#fx17)" transform="translate(231 466)"><g><path d="M13.8906-21.1875 12.6719-18.5312 6.29688-18.5312 4.90625-15.6875C7.66667-15.2812 9.85417-14.2552 11.4688-12.6094 12.8542-11.1927 13.5469-9.52604 13.5469-7.60938 13.5469-6.49479 13.3203-5.46354 12.8672-4.51562 12.4141-3.56771 11.8437-2.76042 11.1562-2.09375 10.4688-1.42708 9.70312-0.890625 8.85938-0.484375 7.66146 0.0885416 6.43229 0.375 5.17188 0.375 3.90104 0.375 2.97656 0.158854 2.39844-0.273438 1.82031-0.705729 1.53125-1.18229 1.53125-1.70312 1.53125-1.99479 1.65104-2.2526 1.89062-2.47656 2.13021-2.70052 2.43229-2.8125 2.79688-2.8125 3.06771-2.8125 3.30469-2.77083 3.50781-2.6875 3.71094-2.60417 4.05729-2.39062 4.54688-2.04688 5.32812-1.50521 6.11979-1.23438 6.92188-1.23438 8.14062-1.23438 9.21094-1.69531 10.1328-2.61719 11.0547-3.53906 11.5156-4.66146 11.5156-5.98438 11.5156-7.26562 11.1042-8.46094 10.2812-9.57031 9.45833-10.6797 8.32292-11.5365 6.875-12.1406 5.73958-12.6094 4.19271-12.8802 2.23438-12.9531L6.29688-21.1875Z" fill="#7030A0" transform="translate(31.4131 53)"/></g></g></g><rect x="242.5" y="473.5" width="57" height="57" stroke="#2E54A1" stroke-width="3" stroke-miterlimit="8" fill="#E7E6E6"/><text fill="#7030A0" font-family="Times New Roman,Times New Roman_MSFontService,sans-serif" font-weight="400" font-size="32" transform="translate(262.413 514)">5</text><g clip-path="url(#clip63)"><g filter="url(#fx18)" transform="translate(286 352)"><g><rect x="13.5001" y="13.8334" width="56" height="57" stroke="#2E54A1" stroke-width="3" stroke-miterlimit="8" fill="#30C0B4"/></g></g><g clip-path="url(#clip64)" filter="url(#fx19)" transform="translate(288 353)"><g><path d="M13.8906-21.1875 12.6719-18.5312 6.29688-18.5312 4.90625-15.6875C7.66667-15.2812 9.85417-14.2552 11.4688-12.6094 12.8542-11.1927 13.5469-9.52604 13.5469-7.60938 13.5469-6.49479 13.3203-5.46354 12.8672-4.51562 12.4141-3.56771 11.8437-2.76042 11.1562-2.09375 10.4688-1.42708 9.70312-0.890625 8.85938-0.484375 7.66146 0.0885416 6.43229 0.375 5.17188 0.375 3.90104 0.375 2.97656 0.158854 2.39844-0.273438 1.82031-0.705729 1.53125-1.18229 1.53125-1.70312 1.53125-1.99479 1.65104-2.2526 1.89062-2.47656 2.13021-2.70052 2.43229-2.8125 2.79688-2.8125 3.06771-2.8125 3.30469-2.77083 3.50781-2.6875 3.71094-2.60417 4.05729-2.39062 4.54688-2.04688 5.32812-1.50521 6.11979-1.23438 6.92188-1.23438 8.14062-1.23438 9.21094-1.69531 10.1328-2.61719 11.0547-3.53906 11.5156-4.66146 11.5156-5.98438 11.5156-7.26562 11.1042-8.46094 10.2812-9.57031 9.45833-10.6797 8.32292-11.5365 6.875-12.1406 5.73958-12.6094 4.19271-12.8802 2.23438-12.9531L6.29688-21.1875Z" fill="#7030A0" transform="translate(31.106 52)"/></g></g></g><rect x="299.5" y="360.5" width="56" height="57" stroke="#2E54A1" stroke-width="3" stroke-miterlimit="8" fill="#30C0B4"/><text fill="#7030A0" font-family="Times New Roman,Times New Roman_MSFontService,sans-serif" font-weight="400" font-size="32" transform="translate(319.106 400)">5</text><g clip-path="url(#clip65)"><g filter="url(#fx20)" transform="translate(286 409)"><g><rect x="13.5001" y="13.8334" width="56" height="56" stroke="#2E54A1" stroke-width="3" stroke-miterlimit="8" fill="#30C0B4"/></g></g><g clip-path="url(#clip66)" filter="url(#fx21)" transform="translate(288 410)"><g><path d="M14.3438-21.625 14.3438-21.0469C12.9687-20.9115 11.8464-20.638 10.9766-20.2266 10.1068-19.8151 9.2474-19.1875 8.39844-18.3438 7.54948-17.5 6.84635-16.5599 6.28906-15.5234 5.73177-14.487 5.26562-13.2552 4.89062-11.8281 6.39062-12.8594 7.89583-13.375 9.40625-13.375 10.8542-13.375 12.1094-12.7917 13.1719-11.625 14.2344-10.4583 14.7656-8.95833 14.7656-7.125 14.7656-5.35417 14.2292-3.73958 13.1562-2.28125 11.8646-0.510417 10.1562 0.375 8.03125 0.375 6.58333 0.375 5.35417-0.104167 4.34375-1.0625 2.36458-2.92708 1.375-5.34375 1.375-8.3125 1.375-10.2083 1.75521-12.0104 2.51562-13.7188 3.27604-15.4271 4.36198-16.9427 5.77344-18.2656 7.1849-19.5885 8.53646-20.4792 9.82812-20.9375 11.1198-21.3958 12.3229-21.625 13.4375-21.625ZM4.625-10.6875C4.4375-9.28125 4.34375-8.14583 4.34375-7.28125 4.34375-6.28125 4.52865-5.19531 4.89844-4.02344 5.26823-2.85156 5.81771-1.92188 6.54688-1.23438 7.07812-0.744792 7.72396-0.5 8.48438-0.5 9.39062-0.5 10.2005-0.927083 10.9141-1.78125 11.6276-2.63542 11.9844-3.85417 11.9844-5.4375 11.9844-7.21875 11.6302-8.76042 10.9219-10.0625 10.2135-11.3646 9.20833-12.0156 7.90625-12.0156 7.51042-12.0156 7.08594-11.9323 6.63281-11.7656 6.17969-11.599 5.51042-11.2396 4.625-10.6875Z" fill="#7030A0" transform="translate(31.106 52)"/></g></g></g><rect x="299.5" y="417.5" width="56" height="56" stroke="#2E54A1" stroke-width="3" stroke-miterlimit="8" fill="#30C0B4"/><text fill="#7030A0" font-family="Times New Roman,Times New Roman_MSFontService,sans-serif" font-weight="400" font-size="32" transform="translate(319.106 457)">6</text><g clip-path="url(#clip67)"><g filter="url(#fx22)" transform="translate(286 465)"><g><rect x="13.5001" y="13.8334" width="56" height="57" stroke="#2E54A1" stroke-width="3" stroke-miterlimit="8" fill="#E7E6E6"/></g></g><g clip-path="url(#clip68)" filter="url(#fx23)" transform="translate(288 466)"><g><path d="M14.6719-4.07812 13.1875 0 0.6875 0 0.6875-0.578125C4.36458-3.93229 6.95312-6.67188 8.45312-8.79688 9.95312-10.9219 10.7031-12.8646 10.7031-14.625 10.7031-15.9687 10.2917-17.0729 9.46875-17.9375 8.64583-18.8021 7.66146-19.2344 6.51562-19.2344 5.47396-19.2344 4.53906-18.9297 3.71094-18.3203 2.88281-17.7109 2.27083-16.8177 1.875-15.6406L1.29688-15.6406C1.55729-17.5677 2.22656-19.0469 3.30469-20.0781 4.38281-21.1094 5.72917-21.625 7.34375-21.625 9.0625-21.625 10.4974-21.0729 11.6484-19.9688 12.7995-18.8646 13.375-17.5625 13.375-16.0625 13.375-14.9896 13.125-13.9167 12.625-12.8438 11.8542-11.1562 10.6042-9.36979 8.875-7.48438 6.28125-4.65104 4.66146-2.94271 4.01562-2.35938L9.54688-2.35938C10.6719-2.35938 11.4609-2.40104 11.9141-2.48438 12.3672-2.56771 12.776-2.73698 13.1406-2.99219 13.5052-3.2474 13.8229-3.60937 14.0938-4.07812Z" fill="#7030A0" transform="translate(31.106 53)"/></g></g></g><rect x="299.5" y="473.5" width="56" height="57" stroke="#2E54A1" stroke-width="3" stroke-miterlimit="8" fill="#E7E6E6"/><text fill="#7030A0" font-family="Times New Roman,Times New Roman_MSFontService,sans-serif" font-weight="400" font-size="32" transform="translate(319.106 514)">2</text><g clip-path="url(#clip69)"><g filter="url(#fx24)" transform="translate(116 522)"><g><rect x="13.5" y="13.8334" width="56" height="57" stroke="#2E54A1" stroke-width="3" stroke-miterlimit="8" fill="#FED961"/></g></g><g clip-path="url(#clip70)" filter="url(#fx25)" transform="translate(118 523)"><g><path d="M3.21875-21.1875 14.5781-21.1875 14.5781-20.5938 7.51562 0.4375 5.76562 0.4375 12.0938-18.6406 6.26562-18.6406C5.08854-18.6406 4.25-18.5 3.75-18.2188 2.875-17.7396 2.17188-17 1.64062-16L1.1875-16.1719Z" fill="#7030A0" transform="translate(31.0514 53)"/></g></g></g><rect x="129.5" y="530.5" width="56" height="57" stroke="#2E54A1" stroke-width="3" stroke-miterlimit="8" fill="#FED961"/><text fill="#7030A0" font-family="Times New Roman,Times New Roman_MSFontService,sans-serif" font-weight="400" font-size="32" transform="translate(149.051 570)">7</text><g clip-path="url(#clip71)"><g filter="url(#fx26)" transform="translate(172 522)"><g><rect x="13.5" y="13.8334" width="57" height="57" stroke="#2E54A1" stroke-width="3" stroke-miterlimit="8" fill="#FED961"/></g></g><g clip-path="url(#clip72)" filter="url(#fx27)" transform="translate(175 523)"><g><path d="M14.8906-7.8125 14.8906-5.59375 12.0469-5.59375 12.0469 0 9.46875 0 9.46875-5.59375 0.5-5.59375 0.5-7.59375 10.3281-21.625 12.0469-21.625 12.0469-7.8125ZM9.46875-7.8125 9.46875-18.3281 2.03125-7.8125Z" fill="#7030A0" transform="translate(30.7444 53)"/></g></g></g><rect x="185.5" y="530.5" width="57" height="57" stroke="#2E54A1" stroke-width="3" stroke-miterlimit="8" fill="#FED961"/><text fill="#7030A0" font-family="Times New Roman,Times New Roman_MSFontService,sans-serif" font-weight="400" font-size="32" transform="translate(205.744 570)">4</text><g clip-path="url(#clip73)"><g filter="url(#fx28)" transform="translate(229 522)"><g><rect x="13.5" y="13.8334" width="57" height="57" stroke="#2E54A1" stroke-width="3" stroke-miterlimit="8" fill="#E7E6E6"/></g></g><g clip-path="url(#clip74)" filter="url(#fx29)" transform="translate(231 523)"><g><path d="M6.14062-10.6719C4.46354-12.0469 3.38281-13.151 2.89844-13.9844 2.41406-14.8177 2.17188-15.6823 2.17188-16.5781 2.17188-17.9531 2.70312-19.138 3.76562-20.1328 4.82812-21.1276 6.23958-21.625 8-21.625 9.70833-21.625 11.0833-21.1615 12.125-20.2344 13.1667-19.3073 13.6875-18.25 13.6875-17.0625 13.6875-16.2708 13.4062-15.4635 12.8438-14.6406 12.2812-13.8177 11.1094-12.849 9.32812-11.7344 11.1615-10.3177 12.375-9.20312 12.9688-8.39062 13.7604-7.32812 14.1562-6.20833 14.1562-5.03125 14.1562-3.54167 13.5885-2.26823 12.4531-1.21094 11.3177-0.153646 9.82812 0.375 7.98438 0.375 5.97396 0.375 4.40625-0.255208 3.28125-1.51562 2.38542-2.52604 1.9375-3.63021 1.9375-4.82812 1.9375-5.76562 2.2526-6.69531 2.88281-7.61719 3.51302-8.53906 4.59896-9.55729 6.14062-10.6719ZM8.59375-12.3438C9.84375-13.4688 10.6354-14.3568 10.9688-15.0078 11.3021-15.6589 11.4688-16.3958 11.4688-17.2188 11.4688-18.3125 11.1615-19.1693 10.5469-19.7891 9.93229-20.4089 9.09375-20.7188 8.03125-20.7188 6.96875-20.7188 6.10417-20.4115 5.4375-19.7969 4.77083-19.1823 4.4375-18.4635 4.4375-17.6406 4.4375-17.099 4.57552-16.5573 4.85156-16.0156 5.1276-15.474 5.52083-14.9583 6.03125-14.4688ZM6.875-10.0781C6.01042-9.34896 5.36979-8.55469 4.95312-7.69531 4.53646-6.83594 4.32812-5.90625 4.32812-4.90625 4.32812-3.5625 4.69531-2.48698 5.42969-1.67969 6.16406-0.872396 7.09896-0.46875 8.23438-0.46875 9.35938-0.46875 10.2604-0.786458 10.9375-1.42188 11.6146-2.05729 11.9531-2.82812 11.9531-3.73438 11.9531-4.48438 11.7552-5.15625 11.3594-5.75 10.6198-6.85417 9.125-8.29688 6.875-10.0781Z" fill="#7030A0" transform="translate(31.4373 53)"/></g></g></g><rect x="242.5" y="530.5" width="57" height="57" stroke="#2E54A1" stroke-width="3" stroke-miterlimit="8" fill="#E7E6E6"/><text fill="#7030A0" font-family="Times New Roman,Times New Roman_MSFontService,sans-serif" font-weight="400" font-size="32" transform="translate(262.437 570)">8</text><g clip-path="url(#clip75)"><g filter="url(#fx30)" transform="translate(286 522)"><g><rect x="13.5001" y="13.8334" width="56" height="57" stroke="#2E54A1" stroke-width="3" stroke-miterlimit="8" fill="#E7E6E6"/></g></g><g clip-path="url(#clip76)" filter="url(#fx31)" transform="translate(288 523)"><g><path d="M1.6875 0.4375 1.6875-0.140625C3.04167-0.161458 4.30208-0.476562 5.46875-1.08594 6.63542-1.69531 7.76302-2.76042 8.85156-4.28125 9.9401-5.80208 10.6979-7.47396 11.125-9.29688 9.48958-8.24479 8.01042-7.71875 6.6875-7.71875 5.19792-7.71875 3.92187-8.29427 2.85938-9.44531 1.79688-10.5964 1.26562-12.125 1.26562-14.0312 1.26562-15.8854 1.79688-17.5365 2.85938-18.9844 4.14062-20.7448 5.8125-21.625 7.875-21.625 9.61458-21.625 11.1042-20.9062 12.3438-19.4688 13.8646-17.6875 14.625-15.4896 14.625-12.875 14.625-10.5208 14.0469-8.32552 12.8906-6.28906 11.7344-4.2526 10.125-2.5625 8.0625-1.21875 6.38542-0.114583 4.55729 0.4375 2.57812 0.4375ZM11.375-10.4531C11.5625-11.8073 11.6562-12.8906 11.6562-13.7031 11.6562-14.7135 11.4844-15.8047 11.1406-16.9766 10.7969-18.1484 10.3099-19.0469 9.67969-19.6719 9.04948-20.2969 8.33333-20.6094 7.53125-20.6094 6.60417-20.6094 5.79167-20.1927 5.09375-19.3594 4.39583-18.526 4.04688-17.2865 4.04688-15.6406 4.04688-13.4427 4.51042-11.724 5.4375-10.4844 6.11458-9.58854 6.94792-9.14062 7.9375-9.14062 8.41667-9.14062 8.98438-9.25521 9.64062-9.48438 10.2969-9.71354 10.875-10.0365 11.375-10.4531Z" fill="#7030A0" transform="translate(31.1302 53)"/></g></g></g><rect x="299.5" y="530.5" width="56" height="57" stroke="#2E54A1" stroke-width="3" stroke-miterlimit="8" fill="#E7E6E6"/><text fill="#7030A0" font-family="Times New Roman,Times New Roman_MSFontService,sans-serif" font-weight="400" font-size="32" transform="translate(319.13 570)">9</text><path d="M449.004 471 754.578 471.549 754.571 475.549 448.996 475ZM752.585 467.546 764.574 473.567 752.564 479.546Z" fill="#4874CB"/><g clip-path="url(#clip77)"><g filter="url(#fx32)" transform="translate(855 408)"><g><rect x="13.5001" y="13.8334" width="57" height="57" stroke="#2E54A1" stroke-width="3" stroke-miterlimit="8" fill="#E54C5E"/></g></g><g clip-path="url(#clip78)" filter="url(#fx33)" transform="translate(857 409)"><g><path d="M13.8906-21.1875 12.6719-18.5312 6.29688-18.5312 4.90625-15.6875C7.66667-15.2812 9.85417-14.2552 11.4688-12.6094 12.8542-11.1927 13.5469-9.52604 13.5469-7.60938 13.5469-6.49479 13.3203-5.46354 12.8672-4.51562 12.4141-3.56771 11.8437-2.76042 11.1562-2.09375 10.4688-1.42708 9.70312-0.890625 8.85938-0.484375 7.66146 0.0885416 6.43229 0.375 5.17188 0.375 3.90104 0.375 2.97656 0.158854 2.39844-0.273438 1.82031-0.705729 1.53125-1.18229 1.53125-1.70312 1.53125-1.99479 1.65104-2.2526 1.89062-2.47656 2.13021-2.70052 2.43229-2.8125 2.79688-2.8125 3.06771-2.8125 3.30469-2.77083 3.50781-2.6875 3.71094-2.60417 4.05729-2.39062 4.54688-2.04688 5.32812-1.50521 6.11979-1.23438 6.92188-1.23438 8.14062-1.23438 9.21094-1.69531 10.1328-2.61719 11.0547-3.53906 11.5156-4.66146 11.5156-5.98438 11.5156-7.26562 11.1042-8.46094 10.2812-9.57031 9.45833-10.6797 8.32292-11.5365 6.875-12.1406 5.73958-12.6094 4.19271-12.8802 2.23438-12.9531L6.29688-21.1875Z" fill="#7030A0" transform="translate(31.2009 53)"/></g></g></g><rect x="868.5" y="416.5" width="57" height="57" stroke="#2E54A1" stroke-width="3" stroke-miterlimit="8" fill="#E54C5E"/><text fill="#7030A0" font-family="Times New Roman,Times New Roman_MSFontService,sans-serif" font-weight="400" font-size="32" transform="translate(888.201 456)">5</text><g clip-path="url(#clip79)"><g filter="url(#fx34)" transform="translate(855 465)"><g><rect x="13.5001" y="13.8334" width="57" height="57" stroke="#2E54A1" stroke-width="3" stroke-miterlimit="8" fill="#FED961"/></g></g><g clip-path="url(#clip80)" filter="url(#fx35)" transform="translate(857 466)"><g><path d="M6.14062-10.6719C4.46354-12.0469 3.38281-13.151 2.89844-13.9844 2.41406-14.8177 2.17188-15.6823 2.17188-16.5781 2.17188-17.9531 2.70312-19.138 3.76562-20.1328 4.82812-21.1276 6.23958-21.625 8-21.625 9.70833-21.625 11.0833-21.1615 12.125-20.2344 13.1667-19.3073 13.6875-18.25 13.6875-17.0625 13.6875-16.2708 13.4062-15.4635 12.8438-14.6406 12.2812-13.8177 11.1094-12.849 9.32812-11.7344 11.1615-10.3177 12.375-9.20312 12.9688-8.39062 13.7604-7.32812 14.1562-6.20833 14.1562-5.03125 14.1562-3.54167 13.5885-2.26823 12.4531-1.21094 11.3177-0.153646 9.82812 0.375 7.98438 0.375 5.97396 0.375 4.40625-0.255208 3.28125-1.51562 2.38542-2.52604 1.9375-3.63021 1.9375-4.82812 1.9375-5.76562 2.2526-6.69531 2.88281-7.61719 3.51302-8.53906 4.59896-9.55729 6.14062-10.6719ZM8.59375-12.3438C9.84375-13.4688 10.6354-14.3568 10.9688-15.0078 11.3021-15.6589 11.4688-16.3958 11.4688-17.2188 11.4688-18.3125 11.1615-19.1693 10.5469-19.7891 9.93229-20.4089 9.09375-20.7188 8.03125-20.7188 6.96875-20.7188 6.10417-20.4115 5.4375-19.7969 4.77083-19.1823 4.4375-18.4635 4.4375-17.6406 4.4375-17.099 4.57552-16.5573 4.85156-16.0156 5.1276-15.474 5.52083-14.9583 6.03125-14.4688ZM6.875-10.0781C6.01042-9.34896 5.36979-8.55469 4.95312-7.69531 4.53646-6.83594 4.32812-5.90625 4.32812-4.90625 4.32812-3.5625 4.69531-2.48698 5.42969-1.67969 6.16406-0.872396 7.09896-0.46875 8.23438-0.46875 9.35938-0.46875 10.2604-0.786458 10.9375-1.42188 11.6146-2.05729 11.9531-2.82812 11.9531-3.73438 11.9531-4.48438 11.7552-5.15625 11.3594-5.75 10.6198-6.85417 9.125-8.29688 6.875-10.0781Z" fill="#7030A0" transform="translate(31.2009 52)"/></g></g></g><rect x="868.5" y="473.5" width="57" height="57" stroke="#2E54A1" stroke-width="3" stroke-miterlimit="8" fill="#FED961"/><text fill="#7030A0" font-family="Times New Roman,Times New Roman_MSFontService,sans-serif" font-weight="400" font-size="32" transform="translate(888.201 513)">8</text><g clip-path="url(#clip81)"><g filter="url(#fx36)" transform="translate(914 408)"><g><rect x="13.5001" y="13.8334" width="57" height="57" stroke="#2E54A1" stroke-width="3" stroke-miterlimit="8" fill="#30C0B4"/></g></g><g clip-path="url(#clip82)" filter="url(#fx37)" transform="translate(917 409)"><g><path d="M14.3438-21.625 14.3438-21.0469C12.9687-20.9115 11.8464-20.638 10.9766-20.2266 10.1068-19.8151 9.2474-19.1875 8.39844-18.3438 7.54948-17.5 6.84635-16.5599 6.28906-15.5234 5.73177-14.487 5.26562-13.2552 4.89062-11.8281 6.39062-12.8594 7.89583-13.375 9.40625-13.375 10.8542-13.375 12.1094-12.7917 13.1719-11.625 14.2344-10.4583 14.7656-8.95833 14.7656-7.125 14.7656-5.35417 14.2292-3.73958 13.1562-2.28125 11.8646-0.510417 10.1562 0.375 8.03125 0.375 6.58333 0.375 5.35417-0.104167 4.34375-1.0625 2.36458-2.92708 1.375-5.34375 1.375-8.3125 1.375-10.2083 1.75521-12.0104 2.51562-13.7188 3.27604-15.4271 4.36198-16.9427 5.77344-18.2656 7.1849-19.5885 8.53646-20.4792 9.82812-20.9375 11.1198-21.3958 12.3229-21.625 13.4375-21.625ZM4.625-10.6875C4.4375-9.28125 4.34375-8.14583 4.34375-7.28125 4.34375-6.28125 4.52865-5.19531 4.89844-4.02344 5.26823-2.85156 5.81771-1.92188 6.54688-1.23438 7.07812-0.744792 7.72396-0.5 8.48438-0.5 9.39062-0.5 10.2005-0.927083 10.9141-1.78125 11.6276-2.63542 11.9844-3.85417 11.9844-5.4375 11.9844-7.21875 11.6302-8.76042 10.9219-10.0625 10.2135-11.3646 9.20833-12.0156 7.90625-12.0156 7.51042-12.0156 7.08594-11.9323 6.63281-11.7656 6.17969-11.599 5.51042-11.2396 4.625-10.6875Z" fill="#7030A0" transform="translate(30.6655 53)"/></g></g></g><rect x="927.5" y="416.5" width="57" height="57" stroke="#2E54A1" stroke-width="3" stroke-miterlimit="8" fill="#30C0B4"/><text fill="#7030A0" font-family="Times New Roman,Times New Roman_MSFontService,sans-serif" font-weight="400" font-size="32" transform="translate(947.666 456)">6</text><g clip-path="url(#clip83)"><g filter="url(#fx38)" transform="translate(914 465)"><g><rect x="13.5001" y="13.8334" width="57" height="57" stroke="#2E54A1" stroke-width="3" stroke-miterlimit="8" fill="#E7E6E6"/></g></g><g clip-path="url(#clip84)" filter="url(#fx39)" transform="translate(917 466)"><g><path d="M1.6875 0.4375 1.6875-0.140625C3.04167-0.161458 4.30208-0.476562 5.46875-1.08594 6.63542-1.69531 7.76302-2.76042 8.85156-4.28125 9.9401-5.80208 10.6979-7.47396 11.125-9.29688 9.48958-8.24479 8.01042-7.71875 6.6875-7.71875 5.19792-7.71875 3.92187-8.29427 2.85938-9.44531 1.79688-10.5964 1.26562-12.125 1.26562-14.0312 1.26562-15.8854 1.79688-17.5365 2.85938-18.9844 4.14062-20.7448 5.8125-21.625 7.875-21.625 9.61458-21.625 11.1042-20.9062 12.3438-19.4688 13.8646-17.6875 14.625-15.4896 14.625-12.875 14.625-10.5208 14.0469-8.32552 12.8906-6.28906 11.7344-4.2526 10.125-2.5625 8.0625-1.21875 6.38542-0.114583 4.55729 0.4375 2.57812 0.4375ZM11.375-10.4531C11.5625-11.8073 11.6562-12.8906 11.6562-13.7031 11.6562-14.7135 11.4844-15.8047 11.1406-16.9766 10.7969-18.1484 10.3099-19.0469 9.67969-19.6719 9.04948-20.2969 8.33333-20.6094 7.53125-20.6094 6.60417-20.6094 5.79167-20.1927 5.09375-19.3594 4.39583-18.526 4.04688-17.2865 4.04688-15.6406 4.04688-13.4427 4.51042-11.724 5.4375-10.4844 6.11458-9.58854 6.94792-9.14062 7.9375-9.14062 8.41667-9.14062 8.98438-9.25521 9.64062-9.48438 10.2969-9.71354 10.875-10.0365 11.375-10.4531Z" fill="#7030A0" transform="translate(30.6655 52)"/></g></g></g><rect x="927.5" y="473.5" width="57" height="57" stroke="#2E54A1" stroke-width="3" stroke-miterlimit="8" fill="#E7E6E6"/><text fill="#7030A0" font-family="Times New Roman,Times New Roman_MSFontService,sans-serif" font-weight="400" font-size="32" transform="translate(947.666 513)">9</text><text fill="#7030A0" font-family="Calibri,Calibri_MSFontService,sans-serif" font-weight="400" font-size="27" transform="translate(552.068 453)">Max Pooling</text><path d="M244 250 244 339.297 240 339.297 240 250ZM248 337.297 242 349.297 236 337.297Z" fill="#4874CB"/><path d="M2-2.11461e-06 2.00009 89.2968-1.99991 89.2968-2 2.11461e-06ZM6.00009 87.2968 0.000104987 99.2968-5.99991 87.2968Z" fill="#4874CB" transform="matrix(1 0 0 -1 925 349.297)"/><g clip-path="url(#clip85)"><g filter="url(#fx40)" transform="translate(63 13)"><g><rect x="14" y="70.8825" width="304.451" height="161.451" fill="#FADBDF"/><path d="M318.451 70.8825 375 14.3333 375 175.784 318.451 232.333Z" fill="#C9B0B3" fill-rule="evenodd"/><path d="M14 70.8825 70.5492 14.3333 375 14.3333 318.451 70.8825Z" fill="#FBE2E5" fill-rule="evenodd"/><path d="M14 70.8825 70.5492 14.3333 375 14.3333 375 175.784 318.451 232.333 14 232.333ZM14 70.8825 318.451 70.8825 375 14.3333M318.451 70.8825 318.451 232.333" stroke="#588E31" stroke-width="4" stroke-miterlimit="8" fill="none" fill-rule="evenodd"/></g></g></g><rect x="77" y="78.5492" width="304.451" height="161.451" fill="#FADBDF"/><path d="M381.451 78.5492 438 22 438 183.451 381.451 240Z" fill="#C9B0B3" fill-rule="evenodd"/><path d="M77 78.5492 133.549 22 438 22 381.451 78.5492Z" fill="#FBE2E5" fill-rule="evenodd"/><path d="M77 78.5492 133.549 22 438 22 438 183.451 381.451 240 77 240ZM77 78.5492 381.451 78.5492 438 22M381.451 78.5492 381.451 240" stroke="#588E31" stroke-width="4" stroke-miterlimit="8" fill="none" fill-rule="evenodd"/><g clip-path="url(#clip86)"><g filter="url(#fx41)" transform="translate(775 78)"><g><rect x="14" y="52.3335" width="272" height="114" fill="#FADBDF"/><path d="M286 52.3335 324 14.3333 324 128.333 286 166.333Z" fill="#C9B0B3" fill-rule="evenodd"/><path d="M14 52.3335 52.0001 14.3333 324 14.3333 286 52.3335Z" fill="#FBE2E5" fill-rule="evenodd"/><path d="M14 52.3335 52.0001 14.3333 324 14.3333 324 128.333 286 166.333 14 166.333ZM14 52.3335 286 52.3335 324 14.3333M286 52.3335 286 166.333" stroke="#588E31" stroke-width="4" stroke-miterlimit="8" fill="none" fill-rule="evenodd"/></g></g></g><rect x="789" y="125" width="272" height="114" fill="#FADBDF"/><path d="M1061 125 1099 87 1099 201 1061 239Z" fill="#C9B0B3" fill-rule="evenodd"/><path d="M789 125 827 87 1099 87 1061 125Z" fill="#FBE2E5" fill-rule="evenodd"/><path d="M789 125 827 87 1099 87 1099 201 1061 239 789 239ZM789 125 1061 125 1099 87M1061 125 1061 239" stroke="#588E31" stroke-width="4" stroke-miterlimit="8" fill="none" fill-rule="evenodd"/><g clip-path="url(#clip87)"><g filter="url(#fx42)" transform="translate(184 14)"><g><rect x="13.5" y="69.6098" width="23.2235" height="162.224" fill="#FED961"/><path d="M36.7236 69.6098 92.5 13.8334 92.5 176.057 36.7236 231.833Z" fill="#CCAE4E" fill-rule="evenodd"/><path d="M13.5 69.6098 69.2765 13.8334 92.5 13.8334 36.7236 69.6098Z" fill="#FEE080" fill-rule="evenodd"/><path d="M13.5 69.6098 69.2765 13.8334 92.5 13.8334 92.5 176.057 36.7236 231.833 13.5 231.833ZM13.5 69.6098 36.7236 69.6098 92.5 13.8334M36.7236 69.6098 36.7236 231.833" stroke="#588E31" stroke-width="3" stroke-miterlimit="8" fill="none" fill-rule="evenodd"/></g></g></g><rect x="197.5" y="78.2765" width="23.2235" height="162.224" fill="#FED961"/><path d="M220.724 78.2765 276.5 22.5001 276.5 184.724 220.724 240.5Z" fill="#CCAE4E" fill-rule="evenodd"/><path d="M197.5 78.2765 253.277 22.5001 276.5 22.5001 220.724 78.2765Z" fill="#FEE080" fill-rule="evenodd"/><path d="M197.5 78.2765 253.277 22.5001 276.5 22.5001 276.5 184.724 220.724 240.5 197.5 240.5ZM197.5 78.2765 220.724 78.2765 276.5 22.5001M220.724 78.2765 220.724 240.5" stroke="#588E31" stroke-width="3" stroke-miterlimit="8" fill="none" fill-rule="evenodd"/><g clip-path="url(#clip88)"><g filter="url(#fx43)" transform="translate(895 78)"><g><rect x="13.5001" y="53.1333" width="20.7" height="112.7" fill="#FED961"/><path d="M34.2001 53.1333 73.5001 13.8334 73.5001 126.533 34.2001 165.833Z" fill="#CCAE4E" fill-rule="evenodd"/><path d="M13.5001 53.1333 52.8 13.8334 73.5001 13.8334 34.2001 53.1333Z" fill="#FEE080" fill-rule="evenodd"/><path d="M13.5001 53.1333 52.8 13.8334 73.5001 13.8334 73.5001 126.533 34.2001 165.833 13.5001 165.833ZM13.5001 53.1333 34.2001 53.1333 73.5001 13.8334M34.2001 53.1333 34.2001 165.833" stroke="#588E31" stroke-width="3" stroke-miterlimit="8" fill="none" fill-rule="evenodd"/></g></g></g><rect x="908.5" y="125.8" width="20.7001" height="112.7" fill="#FED961"/><path d="M929.2 125.8 968.5 86.5001 968.5 199.2 929.2 238.5Z" fill="#CCAE4E" fill-rule="evenodd"/><path d="M908.5 125.8 947.8 86.5001 968.5 86.5001 929.2 125.8Z" fill="#FEE080" fill-rule="evenodd"/><path d="M908.5 125.8 947.8 86.5001 968.5 86.5001 968.5 199.2 929.2 238.5 908.5 238.5ZM908.5 125.8 929.2 125.8 968.5 86.5001M929.2 125.8 929.2 238.5" stroke="#588E31" stroke-width="3" stroke-miterlimit="8" fill="none" fill-rule="evenodd"/></g></svg>