<svg width="993" height="212" xmlns="http://www.w3.org/2000/svg" xmlns:xlink="http://www.w3.org/1999/xlink" overflow="hidden"><g transform="translate(-103 -219)"><rect x="105.5" y="254.685" width="38.8153" height="174.815" fill="#FFD966" fill-opacity="0.980392"/><path d="M144.315 254.685 177.5 221.5 177.5 396.315 144.315 429.5Z" fill="#CDAE52" fill-rule="evenodd" fill-opacity="0.980392"/><path d="M105.5 254.685 138.685 221.5 177.5 221.5 144.315 254.685Z" fill="#FFE084" fill-rule="evenodd" fill-opacity="0.980392"/><path d="M105.5 254.685 138.685 221.5 177.5 221.5 177.5 396.315 144.315 429.5 105.5 429.5ZM105.5 254.685 144.315 254.685 177.5 221.5M144.315 254.685 144.315 429.5" stroke="#2E75B6" stroke-width="3" stroke-miterlimit="8" fill="none" fill-rule="evenodd"/><path d="M186.5 323.833 254.724 323.833 254.724 327.167 186.5 327.167ZM253.057 320.5 263.057 325.5 253.057 330.5Z" fill="#4472C4"/><path d="M271.5 270.167C271.5 254.887 283.887 242.5 299.167 242.5L495.833 242.5C511.113 242.5 523.5 254.887 523.5 270.167L523.5 380.833C523.5 396.113 511.113 408.5 495.833 408.5L299.167 408.5C283.887 408.5 271.5 396.113 271.5 380.833Z" stroke="#2F528F" stroke-width="2.66667" stroke-miterlimit="8" fill="#F4B183" fill-rule="evenodd"/><text font-family="DengXian,DengXian_MSFontService,sans-serif" font-weight="700" font-size="24" transform="translate(353.843 304)">Conv3D</text><text font-family="DengXian,DengXian_MSFontService,sans-serif" font-weight="700" font-size="24" transform="translate(300.176 333)">（</text><text font-family="DengXian,DengXian_MSFontService,sans-serif" font-weight="700" font-size="24" transform="translate(324.176 333)">kernel=4*4*4</text><text font-family="DengXian,DengXian_MSFontService,sans-serif" font-weight="700" font-size="24" transform="translate(469.343 333)">，</text><text font-family="DengXian,DengXian_MSFontService,sans-serif" font-weight="700" font-size="24" transform="translate(337.676 362)">Stride=4</text><text font-family="DengXian,DengXian_MSFontService,sans-serif" font-weight="700" font-size="24" transform="translate(431.843 362)">）</text><path d="M543.667 429.5C536.947 429.5 531.5 424.053 531.5 417.333L531.5 233.667C531.5 226.947 536.947 221.5 543.667 221.5L592.333 221.5C599.053 221.5 604.5 226.947 604.5 233.667L604.5 417.333C604.5 424.053 599.053 429.5 592.333 429.5Z" stroke="#2F528F" stroke-width="2.66667" stroke-miterlimit="8" fill="#FBE5D6" fill-rule="evenodd"/><text font-family="DengXian,DengXian_MSFontService,sans-serif" font-weight="700" font-size="27" transform="matrix(-1.83697e-16 -1 1 -1.83697e-16 576.349 401)">LayerNorm</text><text font-family="DengXian,DengXian_MSFontService,sans-serif" font-weight="700" font-size="27" transform="matrix(-1.83697e-16 -1 1 -1.83697e-16 576.349 267)">()</text><path d="M612.5 270.167C612.5 254.887 624.887 242.5 640.167 242.5L836.833 242.5C852.113 242.5 864.5 254.887 864.5 270.167L864.5 380.833C864.5 396.113 852.113 408.5 836.833 408.5L640.167 408.5C624.887 408.5 612.5 396.113 612.5 380.833Z" stroke="#2F528F" stroke-width="2.66667" stroke-miterlimit="8" fill="#F4B183" fill-rule="evenodd"/><text font-family="DengXian,DengXian_MSFontService,sans-serif" font-weight="700" font-size="24" transform="translate(695.022 304)">Conv3D</text><text font-family="DengXian,DengXian_MSFontService,sans-serif" font-weight="700" font-size="24" transform="translate(641.355 333)">（</text><text font-family="DengXian,DengXian_MSFontService,sans-serif" font-weight="700" font-size="24" transform="translate(665.355 333)">kernel=4*4*4</text><text font-family="DengXian,DengXian_MSFontService,sans-serif" font-weight="700" font-size="24" transform="translate(810.522 333)">，</text><text font-family="DengXian,DengXian_MSFontService,sans-serif" font-weight="700" font-size="24" transform="translate(678.855 362)">Stride=4</text><text font-family="DengXian,DengXian_MSFontService,sans-serif" font-weight="700" font-size="24" transform="translate(773.022 362)">）</text><path d="M885.667 429.5C878.947 429.5 873.5 424.053 873.5 417.333L873.5 233.667C873.5 226.947 878.947 221.5 885.667 221.5L934.333 221.5C941.053 221.5 946.5 226.947 946.5 233.667L946.5 417.333C946.5 424.053 941.053 429.5 934.333 429.5Z" stroke="#2F528F" stroke-width="2.66667" stroke-miterlimit="8" fill="#FBE5D6" fill-rule="evenodd"/><text font-family="DengXian,DengXian_MSFontService,sans-serif" font-weight="700" font-size="27" transform="matrix(-1.83697e-16 -1 1 -1.83697e-16 918.454 401)">LayerNorm</text><text font-family="DengXian,DengXian_MSFontService,sans-serif" font-weight="700" font-size="27" transform="matrix(-1.83697e-16 -1 1 -1.83697e-16 918.454 267)">()</text><path d="M955.5 323.833 1023.72 323.833 1023.72 327.167 955.5 327.167ZM1022.06 320.5 1032.06 325.5 1022.06 330.5Z" fill="#4472C4"/><rect x="1041.5" y="288.928" width="28.5723" height="96.5723" fill="#FFD966" fill-opacity="0.980392"/><path d="M1070.07 288.928 1094.5 264.5 1094.5 361.072 1070.07 385.5Z" fill="#CDAE52" fill-rule="evenodd" fill-opacity="0.980392"/><path d="M1041.5 288.928 1065.93 264.5 1094.5 264.5 1070.07 288.928Z" fill="#FFE084" fill-rule="evenodd" fill-opacity="0.980392"/><path d="M1041.5 288.928 1065.93 264.5 1094.5 264.5 1094.5 361.072 1070.07 385.5 1041.5 385.5ZM1041.5 288.928 1070.07 288.928 1094.5 264.5M1070.07 288.928 1070.07 385.5" stroke="#2E75B6" stroke-width="3" stroke-miterlimit="8" fill="none" fill-rule="evenodd"/></g></svg>