<svg width="3657" height="2437" xmlns="http://www.w3.org/2000/svg" xmlns:xlink="http://www.w3.org/1999/xlink" overflow="hidden"><defs><clipPath id="clip0"><rect x="134" y="65" width="3657" height="2437"/></clipPath></defs><g clip-path="url(#clip0)" transform="translate(-134 -65)"><path d="M614 825.005C614 685.827 726.826 573 866.005 573L3534 573C3673.17 573 3786 685.827 3786 825.005L3786 1832.99C3786 1972.17 3673.17 2085 3534 2085L866.005 2085C726.826 2085 614 1972.17 614 1832.99Z" stroke="#A6A6A6" stroke-width="10.3125" stroke-miterlimit="8" fill="#FFFFFF" fill-rule="evenodd"/><rect x="1116.5" y="2227.5" width="101" height="104" stroke="#7F7F7F" stroke-width="6.875" stroke-miterlimit="8" fill="#F8CBAD"/><rect x="1217.5" y="2227.5" width="101" height="104" stroke="#7F7F7F" stroke-width="6.875" stroke-miterlimit="8" fill="#F8CBAD"/><rect x="1318.5" y="2227.5" width="101" height="104" stroke="#7F7F7F" stroke-width="6.875" stroke-miterlimit="8" fill="#F8CBAD"/><rect x="1419.5" y="2227.5" width="100" height="104" stroke="#7F7F7F" stroke-width="6.875" stroke-miterlimit="8" fill="#F8CBAD"/><path d="M993.065 2270.22C993.994 2270.22 994.81 2270.33 995.513 2270.54 996.217 2270.75 996.839 2271.07 997.378 2271.5 997.917 2271.94 998.396 2272.5 998.815 2273.19 999.234 2273.87 999.639 2274.81 1000.03 2275.99 1000.42 2277.18 1000.78 2278.64 1001.13 2280.4 1001.47 2282.15 1001.78 2283.97 1002.05 2285.85L1002.5 2285.85C1005.37 2281.81 1007.55 2278.85 1009.03 2276.98 1010.52 2275.11 1011.77 2273.72 1012.79 2272.8 1013.8 2271.89 1014.78 2271.25 1015.73 2270.87 1016.67 2270.5 1017.92 2270.31 1019.48 2270.31 1020.89 2270.31 1022.04 2270.49 1022.94 2270.85L1021.14 2278.98 1018 2278.98C1017.82 2277.72 1017.29 2277.09 1016.42 2277.09 1016.15 2277.09 1015.87 2277.14 1015.57 2277.23 1015.27 2277.32 1014.9 2277.51 1014.47 2277.81 1014.04 2278.11 1013.4 2278.7 1012.56 2279.56 1011.72 2280.43 1010.78 2281.5 1009.73 2282.75 1008.68 2284.01 1007.6 2285.33 1006.5 2286.71L1003.44 2290.53C1003.98 2293.4 1004.49 2295.89 1004.97 2297.98 1005.45 2300.08 1005.88 2301.82 1006.25 2303.22 1006.62 2304.61 1006.95 2305.71 1007.24 2306.52 1007.52 2307.33 1007.83 2307.93 1008.16 2308.34 1008.49 2308.74 1008.83 2309.03 1009.17 2309.19 1009.51 2309.36 1009.91 2309.44 1010.36 2309.44 1011.17 2309.44 1011.95 2309.12 1012.72 2308.49 1013.48 2307.87 1014.58 2306.44 1016.02 2304.23L1018.94 2306.16C1016.84 2309.27 1014.95 2311.47 1013.26 2312.74 1011.57 2314.01 1009.55 2314.65 1007.22 2314.65 1005.93 2314.65 1004.83 2314.42 1003.94 2313.95 1003.04 2313.49 1002.26 2312.75 1001.6 2311.73 1000.94 2310.71 1000.36 2309.12 999.848 2306.97 998.92 2303.13 998.351 2300.2 998.141 2298.16L997.692 2298.16C994.518 2302.62 992.159 2305.83 990.617 2307.78 989.075 2309.72 987.802 2311.16 986.799 2312.09 985.795 2313.02 984.822 2313.67 983.879 2314.04 982.935 2314.42 981.685 2314.6 980.128 2314.6 978.72 2314.6 977.567 2314.42 976.669 2314.06L978.466 2305.93 981.61 2305.93C981.79 2307.19 982.314 2307.82 983.182 2307.82 983.602 2307.82 984.043 2307.71 984.508 2307.48 984.972 2307.26 985.638 2306.72 986.507 2305.87 987.375 2305.01 988.573 2303.67 990.1 2301.85 991.628 2300.02 993.844 2297.28 996.749 2293.63 996.299 2291.26 995.835 2288.98 995.356 2286.8 994.877 2284.61 994.383 2282.57 993.874 2280.69 993.365 2278.8 992.945 2277.57 992.616 2276.98 992.286 2276.4 991.935 2275.99 991.56 2275.77 991.186 2275.54 990.714 2275.43 990.145 2275.43 989.516 2275.43 988.947 2275.57 988.438 2275.86 987.929 2276.14 987.375 2276.64 986.776 2277.34 986.177 2278.04 985.383 2279.15 984.395 2280.64L981.475 2278.71C983.362 2275.87 985.174 2273.74 986.911 2272.33 988.648 2270.92 990.699 2270.22 993.065 2270.22Z" fill="#BF9000" fill-rule="evenodd"/><text fill="#000000" fill-opacity="0" font-family="Arial,Arial_MSFontService,sans-serif" font-size="44.4277" x="976.669" y="2309.1">ğ‘¥</text><path d="M1043.08 2290.49 1045.07 2290.49C1045.03 2291.69 1045 2292.77 1044.97 2293.72 1044.95 2294.66 1044.94 2295.59 1044.92 2296.48 1044.91 2297.37 1044.91 2298.26 1044.91 2299.13L1044.91 2323.99C1044.91 2324.67 1044.93 2325.25 1044.97 2325.74 1045.02 2326.23 1045.09 2326.65 1045.19 2326.99 1045.28 2327.32 1045.42 2327.61 1045.58 2327.85 1045.74 2328.09 1045.93 2328.3 1046.15 2328.48 1046.41 2328.74 1046.76 2328.94 1047.2 2329.08 1047.63 2329.22 1048.19 2329.34 1048.87 2329.44 1049.54 2329.54 1050.36 2329.61 1051.3 2329.67 1052.25 2329.72 1053.39 2329.76 1054.72 2329.78L1054.72 2332.63 1028.78 2332.63 1028.78 2329.78C1030.07 2329.74 1031.16 2329.69 1032.05 2329.64 1032.95 2329.58 1033.71 2329.51 1034.34 2329.41 1034.97 2329.31 1035.48 2329.2 1035.86 2329.08 1036.24 2328.96 1036.58 2328.81 1036.86 2328.64 1037.17 2328.44 1037.43 2328.23 1037.65 2328 1037.86 2327.77 1038.04 2327.48 1038.17 2327.13 1038.3 2326.78 1038.4 2326.36 1038.48 2325.86 1038.56 2325.36 1038.59 2324.73 1038.59 2323.99L1038.59 2300.54C1038.59 2299.69 1038.43 2299.09 1038.1 2298.74 1037.78 2298.39 1037.31 2298.21 1036.7 2298.21 1036.02 2298.21 1035.02 2298.56 1033.69 2299.26 1032.36 2299.96 1030.63 2300.99 1028.52 2302.37 1028.23 2301.87 1027.97 2301.37 1027.73 2300.86 1027.49 2300.36 1027.24 2299.85 1026.98 2299.33 1029.69 2297.84 1032.36 2296.37 1035.01 2294.89 1037.66 2293.42 1040.35 2291.95 1043.08 2290.49Z" fill="#BF9000" fill-rule="evenodd"/><text fill="#000000" fill-opacity="0" font-family="Arial,Arial_MSFontService,sans-serif" font-size="42.1367" x="1026.98" y="2327.36">1</text><path d="M780 1633.5C780 1592.91 812.907 1560 853.5 1560L3556.5 1560C3597.09 1560 3630 1592.91 3630 1633.5L3630 1927.5C3630 1968.09 3597.09 2001 3556.5 2001L853.5 2001C812.907 2001 780 1968.09 780 1927.5Z" stroke="#595959" stroke-width="8.02083" stroke-miterlimit="8" fill="#E2F0D9" fill-rule="evenodd"/><text fill="#7F7F7F" font-family="Arial,Arial_MSFontService,sans-serif" font-weight="400" font-size="83" transform="matrix(1 0 0 1 1957.5 1811)">Self<tspan font-size="83" x="142.083" y="0">-</tspan>Attention<tspan fill="#767171" font-weight="700" font-size="73" x="-784.501" y="629">Thinking</tspan></text><path d="M1288.5 2034 1318 2004.5 1347.5 2034 1332.75 2034 1332.75 2211.5 1303.25 2211.5 1303.25 2034Z" stroke="#AE5A21" stroke-width="4.58333" stroke-miterlimit="8" fill="#ED7D31" fill-rule="evenodd"/><rect x="2851.5" y="2224.5" width="101" height="103" stroke="#7F7F7F" stroke-width="6.875" stroke-miterlimit="8" fill="#F8CBAD"/><rect x="2952.5" y="2224.5" width="101" height="103" stroke="#7F7F7F" stroke-width="6.875" stroke-miterlimit="8" fill="#F8CBAD"/><rect x="3053.5" y="2224.5" width="101" height="103" stroke="#7F7F7F" stroke-width="6.875" stroke-miterlimit="8" fill="#F8CBAD"/><rect x="3154.5" y="2224.5" width="101" height="103" stroke="#7F7F7F" stroke-width="6.875" stroke-miterlimit="8" fill="#F8CBAD"/><path d="M2728.48 2266.52C2729.41 2266.52 2730.22 2266.63 2730.93 2266.84 2731.63 2267.05 2732.25 2267.37 2732.79 2267.8 2733.33 2268.24 2733.81 2268.8 2734.23 2269.49 2734.65 2270.18 2735.05 2271.11 2735.44 2272.3 2735.83 2273.48 2736.2 2274.95 2736.54 2276.7 2736.89 2278.45 2737.19 2280.27 2737.46 2282.16L2737.91 2282.16C2740.79 2278.11 2742.97 2275.16 2744.45 2273.28 2745.93 2271.41 2747.18 2270.02 2748.2 2269.11 2749.22 2268.19 2750.2 2267.55 2751.14 2267.18 2752.08 2266.8 2753.33 2266.61 2754.89 2266.61 2756.3 2266.61 2757.45 2266.79 2758.35 2267.15L2756.55 2275.28 2753.41 2275.28C2753.23 2274.03 2752.71 2273.4 2751.84 2273.4 2751.57 2273.4 2751.28 2273.44 2750.98 2273.53 2750.68 2273.62 2750.32 2273.82 2749.88 2274.12 2749.45 2274.42 2748.81 2275 2747.97 2275.87 2747.14 2276.74 2746.19 2277.8 2745.14 2279.06 2744.1 2280.31 2743.02 2281.63 2741.91 2283.01L2738.85 2286.83C2739.39 2289.7 2739.9 2292.19 2740.38 2294.29 2740.86 2296.38 2741.29 2298.13 2741.66 2299.52 2742.04 2300.91 2742.37 2302.01 2742.65 2302.82 2742.94 2303.63 2743.24 2304.24 2743.57 2304.64 2743.9 2305.04 2744.24 2305.33 2744.58 2305.49 2744.93 2305.66 2745.32 2305.74 2745.77 2305.74 2746.58 2305.74 2747.37 2305.43 2748.13 2304.8 2748.89 2304.17 2750 2302.75 2751.43 2300.53L2754.35 2302.46C2752.26 2305.58 2750.36 2307.77 2748.67 2309.04 2746.98 2310.32 2744.96 2310.95 2742.63 2310.95 2741.34 2310.95 2740.25 2310.72 2739.35 2310.26 2738.45 2309.79 2737.67 2309.05 2737.01 2308.03 2736.35 2307.01 2735.77 2305.43 2735.26 2303.27 2734.33 2299.44 2733.76 2296.5 2733.55 2294.47L2733.1 2294.47C2729.93 2298.93 2727.57 2302.13 2726.03 2304.08 2724.49 2306.03 2723.21 2307.46 2722.21 2308.39 2721.21 2309.32 2720.23 2309.97 2719.29 2310.35 2718.35 2310.72 2717.1 2310.91 2715.54 2310.91 2714.13 2310.91 2712.98 2310.73 2712.08 2310.37L2713.88 2302.24 2717.02 2302.24C2717.2 2303.49 2717.73 2304.12 2718.59 2304.12 2719.01 2304.12 2719.46 2304.01 2719.92 2303.79 2720.38 2303.56 2721.05 2303.02 2721.92 2302.17 2722.79 2301.32 2723.99 2299.98 2725.51 2298.15 2727.04 2296.32 2729.26 2293.58 2732.16 2289.93 2731.71 2287.56 2731.25 2285.29 2730.77 2283.1 2730.29 2280.91 2729.8 2278.88 2729.29 2276.99 2728.78 2275.1 2728.36 2273.87 2728.03 2273.28 2727.7 2272.7 2727.35 2272.3 2726.97 2272.07 2726.6 2271.85 2726.13 2271.73 2725.56 2271.73 2724.93 2271.73 2724.36 2271.88 2723.85 2272.16 2723.34 2272.45 2722.79 2272.94 2722.19 2273.64 2721.59 2274.35 2720.8 2275.45 2719.81 2276.95L2716.89 2275.01C2718.77 2272.17 2720.59 2270.04 2722.32 2268.64 2724.06 2267.23 2726.11 2266.52 2728.48 2266.52Z" fill="#BF9000" fill-rule="evenodd"/><text fill="#000000" fill-opacity="0" font-family="Arial,Arial_MSFontService,sans-serif" font-size="44.4277" x="2712.08" y="2305.4">ğ‘¥</text><path d="M2778.49 2286.8 2780.48 2286.8C2780.44 2288 2780.41 2289.07 2780.39 2290.02 2780.36 2290.97 2780.35 2291.89 2780.34 2292.78 2780.33 2293.68 2780.32 2294.56 2780.32 2295.43L2780.32 2320.3C2780.32 2320.97 2780.34 2321.56 2780.39 2322.05 2780.43 2322.54 2780.5 2322.95 2780.6 2323.29 2780.7 2323.63 2780.83 2323.92 2780.99 2324.16 2781.16 2324.4 2781.35 2324.6 2781.56 2324.78 2781.83 2325.04 2782.17 2325.24 2782.61 2325.38 2783.05 2325.53 2783.6 2325.65 2784.28 2325.74 2784.96 2325.84 2785.77 2325.92 2786.72 2325.97 2787.67 2326.03 2788.81 2326.07 2790.14 2326.09L2790.14 2328.93 2764.19 2328.93 2764.19 2326.09C2765.48 2326.04 2766.57 2325.99 2767.46 2325.94 2768.36 2325.89 2769.12 2325.81 2769.75 2325.71 2770.39 2325.61 2770.89 2325.5 2771.28 2325.38 2771.66 2325.26 2771.99 2325.12 2772.27 2324.94 2772.58 2324.75 2772.84 2324.53 2773.06 2324.3 2773.28 2324.07 2773.45 2323.79 2773.58 2323.44 2773.71 2323.09 2773.82 2322.66 2773.89 2322.16 2773.97 2321.66 2774.01 2321.04 2774.01 2320.3L2774.01 2296.84C2774.01 2295.99 2773.84 2295.39 2773.52 2295.04 2773.19 2294.69 2772.72 2294.52 2772.11 2294.52 2771.43 2294.52 2770.43 2294.87 2769.1 2295.56 2767.77 2296.26 2766.05 2297.3 2763.93 2298.67 2763.65 2298.17 2763.39 2297.67 2763.15 2297.17 2762.91 2296.67 2762.66 2296.15 2762.39 2295.63 2765.1 2294.15 2767.77 2292.67 2770.42 2291.2 2773.07 2289.72 2775.76 2288.26 2778.49 2286.8Z" fill="#BF9000" fill-rule="evenodd"/><text fill="#000000" fill-opacity="0" font-family="Arial,Arial_MSFontService,sans-serif" font-size="42.1367" x="2762.39" y="2323.67">1</text><path d="M3024.5 2030.5 3053.5 2001.5 3082.5 2030.5 3068 2030.5 3068 2207.5 3039 2207.5 3039 2030.5Z" stroke="#AE5A21" stroke-width="4.58333" stroke-miterlimit="8" fill="#ED7D31" fill-rule="evenodd"/><text fill="#767171" font-family="Arial,Arial_MSFontService,sans-serif" font-weight="700" font-size="73" transform="matrix(1 0 0 1 2908.41 2440)">Machines</text><rect x="1118.5" y="1292.5" width="101" height="103" stroke="#7F7F7F" stroke-width="6.875" stroke-miterlimit="8" fill="#D0CECE"/><rect x="1219.5" y="1292.5" width="101" height="103" stroke="#7F7F7F" stroke-width="6.875" stroke-miterlimit="8" fill="#D0CECE"/><rect x="1320.5" y="1292.5" width="101" height="103" stroke="#7F7F7F" stroke-width="6.875" stroke-miterlimit="8" fill="#D0CECE"/><rect x="1421.5" y="1292.5" width="101" height="103" stroke="#7F7F7F" stroke-width="6.875" stroke-miterlimit="8" fill="#D0CECE"/><path d="M987.966 1335.59 1019.91 1335.59 1020.76 1337.84 999.332 1362.46C995.169 1367.22 991.56 1371.26 988.506 1374.58L988.775 1374.9 998.927 1374.9C1000.72 1374.9 1002.1 1374.8 1003.06 1374.61 1004.02 1374.41 1004.86 1374.05 1005.58 1373.51 1006.29 1372.97 1007.04 1372.15 1007.8 1371.06 1008.56 1369.96 1009.51 1368.25 1010.65 1365.91L1014.65 1365.91 1011.91 1378.54 979.386 1378.54 978.533 1376.34 1003.11 1348.04C1006.58 1344.05 1009.12 1341.22 1010.74 1339.55L1010.47 1339.23 999.961 1339.23C998.403 1339.23 997.265 1339.34 996.547 1339.55 995.828 1339.75 995.109 1340.12 994.39 1340.65 993.672 1341.17 992.9 1341.95 992.077 1342.98 991.253 1344.01 990.332 1345.49 989.314 1347.41L985.316 1347.41Z" fill="#BF9000" fill-rule="evenodd"/><text fill="#000000" fill-opacity="0" font-family="Arial,Arial_MSFontService,sans-serif" font-size="42.9453" x="978.533" y="1373.17">ğ‘§</text><path d="M1039.23 1355.1 1041.23 1355.1C1041.18 1356.3 1041.15 1357.37 1041.13 1358.32 1041.11 1359.27 1041.09 1360.19 1041.08 1361.09 1041.07 1361.98 1041.06 1362.86 1041.06 1363.74L1041.06 1388.6C1041.06 1389.28 1041.08 1389.86 1041.13 1390.35 1041.17 1390.84 1041.24 1391.26 1041.34 1391.59 1041.44 1391.93 1041.57 1392.22 1041.73 1392.46 1041.9 1392.7 1042.09 1392.91 1042.31 1393.08 1042.57 1393.34 1042.92 1393.55 1043.35 1393.69 1043.79 1393.83 1044.34 1393.95 1045.02 1394.05 1045.7 1394.15 1046.51 1394.22 1047.46 1394.28 1048.41 1394.33 1049.55 1394.37 1050.88 1394.39L1050.88 1397.24 1024.93 1397.24 1024.93 1394.39C1026.22 1394.35 1027.31 1394.3 1028.2 1394.24 1029.1 1394.19 1029.86 1394.11 1030.49 1394.02 1031.13 1393.92 1031.63 1393.81 1032.02 1393.69 1032.4 1393.57 1032.73 1393.42 1033.01 1393.25 1033.32 1393.05 1033.58 1392.84 1033.8 1392.61 1034.02 1392.38 1034.19 1392.09 1034.32 1391.74 1034.45 1391.39 1034.56 1390.97 1034.63 1390.47 1034.71 1389.96 1034.75 1389.34 1034.75 1388.6L1034.75 1365.14C1034.75 1364.29 1034.58 1363.69 1034.26 1363.34 1033.93 1363 1033.46 1362.82 1032.85 1362.82 1032.17 1362.82 1031.17 1363.17 1029.84 1363.87 1028.51 1364.57 1026.79 1365.6 1024.67 1366.98 1024.39 1366.47 1024.13 1365.97 1023.89 1365.47 1023.65 1364.97 1023.4 1364.46 1023.13 1363.93 1025.84 1362.45 1028.52 1360.97 1031.17 1359.5 1033.82 1358.03 1036.5 1356.56 1039.23 1355.1Z" fill="#BF9000" fill-rule="evenodd"/><text fill="#000000" fill-opacity="0" font-family="Arial,Arial_MSFontService,sans-serif" font-size="42.1367" x="1023.13" y="1391.97">1</text><rect x="2851.5" y="1288.5" width="101" height="103" stroke="#7F7F7F" stroke-width="6.875" stroke-miterlimit="8" fill="#D0CECE"/><rect x="2952.5" y="1288.5" width="101" height="103" stroke="#7F7F7F" stroke-width="6.875" stroke-miterlimit="8" fill="#D0CECE"/><rect x="3053.5" y="1288.5" width="101" height="103" stroke="#7F7F7F" stroke-width="6.875" stroke-miterlimit="8" fill="#D0CECE"/><rect x="3154.5" y="1288.5" width="101" height="103" stroke="#7F7F7F" stroke-width="6.875" stroke-miterlimit="8" fill="#D0CECE"/><path d="M2721.29 1331.84 2753.23 1331.84 2754.08 1334.09 2732.66 1358.7C2728.49 1363.47 2724.88 1367.51 2721.83 1370.83L2722.1 1371.15 2732.25 1371.15C2734.05 1371.15 2735.43 1371.05 2736.38 1370.86 2737.34 1370.66 2738.18 1370.29 2738.9 1369.76 2739.62 1369.22 2740.36 1368.4 2741.12 1367.31 2741.89 1366.21 2742.84 1364.5 2743.98 1362.16L2747.97 1362.16 2745.23 1374.79 2712.71 1374.79 2711.86 1372.59 2736.43 1344.28C2739.9 1340.3 2742.45 1337.47 2744.07 1335.79L2743.8 1335.48 2733.28 1335.48C2731.73 1335.48 2730.59 1335.58 2729.87 1335.79 2729.15 1336 2728.43 1336.37 2727.71 1336.9 2727 1337.42 2726.22 1338.2 2725.4 1339.23 2724.58 1340.26 2723.66 1341.74 2722.64 1343.66L2718.64 1343.66Z" fill="#BF9000" fill-rule="evenodd"/><text fill="#000000" fill-opacity="0" font-family="Arial,Arial_MSFontService,sans-serif" font-size="42.9453" x="2711.86" y="1369.42">ğ‘§</text><path d="M2772.13 1351.12C2774.4 1351.12 2776.34 1351.38 2777.94 1351.89 2779.54 1352.4 2780.85 1353.09 2781.85 1353.97 2782.85 1354.84 2783.58 1355.89 2784.03 1357.11 2784.47 1358.33 2784.7 1359.65 2784.7 1361.07 2784.7 1361.92 2784.64 1362.71 2784.52 1363.44 2784.4 1364.17 2784.19 1364.89 2783.89 1365.6 2783.6 1366.31 2783.21 1367.02 2782.73 1367.74 2782.25 1368.46 2781.65 1369.22 2780.93 1370.03 2780.39 1370.73 2779.68 1371.54 2778.81 1372.45 2777.93 1373.37 2776.98 1374.35 2775.94 1375.4 2774.91 1376.44 2773.82 1377.53 2772.69 1378.67 2771.56 1379.8 2770.45 1380.92 2769.39 1382.04 2768.32 1383.15 2767.34 1384.23 2766.44 1385.28 2765.55 1386.32 2764.82 1387.28 2764.25 1388.15L2776.35 1388.15C2777.38 1388.15 2778.2 1388.12 2778.81 1388.04 2779.42 1387.96 2779.92 1387.79 2780.33 1387.53 2780.73 1387.27 2781.08 1386.87 2781.36 1386.34 2781.64 1385.8 2781.97 1385.07 2782.34 1384.13L2785.38 1384.13C2785.27 1385.68 2785.17 1387.24 2785.07 1388.81 2784.97 1390.38 2784.87 1391.94 2784.76 1393.49L2757.05 1393.49 2757.05 1391.79C2757.58 1390.61 2758.19 1389.45 2758.88 1388.3 2759.58 1387.16 2760.37 1385.99 2761.24 1384.82 2762.11 1383.64 2763.1 1382.42 2764.22 1381.17 2765.33 1379.92 2766.56 1378.61 2767.91 1377.26 2769.96 1375.21 2771.63 1373.46 2772.92 1372.01 2774.21 1370.56 2775.22 1369.27 2775.96 1368.13 2776.7 1367 2777.21 1365.95 2777.48 1364.99 2777.75 1364.03 2777.89 1363.01 2777.89 1361.92 2777.89 1360.8 2777.73 1359.78 2777.42 1358.84 2777.1 1357.9 2776.65 1357.11 2776.06 1356.45 2775.47 1355.8 2774.72 1355.29 2773.82 1354.92 2772.91 1354.55 2771.87 1354.36 2770.69 1354.36 2768.67 1354.36 2766.96 1354.91 2765.59 1356.01 2764.22 1357.11 2763.15 1358.71 2762.38 1360.8L2758.1 1360.8 2758.1 1354.43C2760.89 1353.27 2763.46 1352.43 2765.8 1351.91 2768.15 1351.38 2770.26 1351.12 2772.13 1351.12Z" fill="#BF9000" fill-rule="evenodd"/><text fill="#000000" fill-opacity="0" font-family="Arial,Arial_MSFontService,sans-serif" font-size="42.3657" x="2757.05" y="1388.19">2</text><path d="M775 759.501C775 718.907 807.907 686 848.5 686L3551.5 686C3592.09 686 3625 718.907 3625 759.501L3625 1053.5C3625 1094.09 3592.09 1127 3551.5 1127L848.5 1127C807.907 1127 775 1094.09 775 1053.5Z" stroke="#595959" stroke-width="8.02083" stroke-miterlimit="8" fill="#FFFFFF" fill-rule="evenodd"/><path d="M1288.5 1431 1318 1401.5 1347.5 1431 1332.75 1431 1332.75 1607.5 1303.25 1607.5 1303.25 1431Z" stroke="#AE5A21" stroke-width="4.58333" stroke-miterlimit="8" fill="#ED7D31" fill-rule="evenodd"/><path d="M3024.5 1429.5 3053.5 1400.5 3082.5 1429.5 3068 1429.5 3068 1606.5 3039 1606.5 3039 1429.5Z" stroke="#AE5A21" stroke-width="4.58333" stroke-miterlimit="8" fill="#ED7D31" fill-rule="evenodd"/><path d="M1035.5 877.001C1035.5 855.737 1052.74 838.5 1074 838.5L1563 838.5C1584.26 838.5 1601.5 855.737 1601.5 877.001L1601.5 1031C1601.5 1052.26 1584.26 1069.5 1563 1069.5L1074 1069.5C1052.74 1069.5 1035.5 1052.26 1035.5 1031Z" stroke="#2F528F" stroke-width="4.58333" stroke-miterlimit="8" fill="#8FAADC" fill-rule="evenodd"/><text fill="#595959" font-family="Arial,Arial_MSFontService,sans-serif" font-weight="700" font-size="64" transform="matrix(1 0 0 1 1107.95 939)">Feed Forward <tspan font-size="64" x="-25.2084" y="77">Neural Network</tspan></text><path d="M2770.5 876.001C2770.5 854.737 2787.74 837.5 2809 837.5L3298 837.5C3319.26 837.5 3336.5 854.737 3336.5 876.001L3336.5 1030C3336.5 1051.26 3319.26 1068.5 3298 1068.5L2809 1068.5C2787.74 1068.5 2770.5 1051.26 2770.5 1030Z" stroke="#2F528F" stroke-width="4.58333" stroke-miterlimit="8" fill="#8FAADC" fill-rule="evenodd"/><text fill="#595959" font-family="Arial,Arial_MSFontService,sans-serif" font-weight="700" font-size="64" transform="matrix(1 0 0 1 2843.37 926)">Feed Forward <tspan font-size="64" x="-25.2083" y="77">Neural Network</tspan></text><path d="M3024.5 554.5 3053.5 525.5 3082.5 554.5 3068 554.5 3068 777.5 3039 777.5 3039 554.5Z" stroke="#AE5A21" stroke-width="4.58333" stroke-miterlimit="8" fill="#2E75B6" fill-rule="evenodd"/><path d="M1287.5 549.5 1315.5 521.5 1343.5 549.5 1329.5 549.5 1329.5 781.5 1301.5 781.5 1301.5 549.5Z" stroke="#AE5A21" stroke-width="4.58333" stroke-miterlimit="8" fill="#2E75B6" fill-rule="evenodd"/><path d="M3024.5 1107 3052 1079.5 3079.5 1107 3065.75 1107 3065.75 1218.5 3038.25 1218.5 3038.25 1107Z" stroke="#AE5A21" stroke-width="4.58333" stroke-miterlimit="8" fill="#2E75B6" fill-rule="evenodd"/><path d="M1287.5 1107.5 1315.5 1079.5 1343.5 1107.5 1329.5 1107.5 1329.5 1218.5 1301.5 1218.5 1301.5 1107.5Z" stroke="#AE5A21" stroke-width="4.58333" stroke-miterlimit="8" fill="#2E75B6" fill-rule="evenodd"/><text fill="#767171" font-family="Arial,Arial_MSFontService,sans-serif" font-weight="700" font-size="73" transform="matrix(1 0 0 1 178.84 807)">Encoder #1</text><rect x="1116.5" y="295.5" width="101" height="103" stroke="#7F7F7F" stroke-width="6.875" stroke-miterlimit="8" fill="#00B0F0"/><rect x="1217.5" y="295.5" width="101" height="103" stroke="#7F7F7F" stroke-width="6.875" stroke-miterlimit="8" fill="#00B0F0"/><rect x="1318.5" y="295.5" width="101" height="103" stroke="#7F7F7F" stroke-width="6.875" stroke-miterlimit="8" fill="#00B0F0"/><rect x="1419.5" y="295.5" width="100" height="103" stroke="#7F7F7F" stroke-width="6.875" stroke-miterlimit="8" fill="#00B0F0"/><path d="M989.426 337.747C991.313 337.747 992.803 338.368 993.896 339.611 994.989 340.854 995.536 342.479 995.536 344.485 995.536 345.983 995.251 347.525 994.682 349.112L995.266 349.337C998.201 345.354 1001.02 342.434 1003.73 340.577 1006.44 338.72 1009.19 337.792 1011.98 337.792 1014.16 337.792 1015.99 337.957 1017.46 338.286L1015.3 348.349 1010.67 348.349C1010.49 347.091 1010.24 346.117 1009.91 345.429 1009.58 344.74 1009.19 344.261 1008.74 343.991 1008.29 343.722 1007.72 343.587 1007.04 343.587 1005.96 343.587 1004.78 344.051 1003.51 344.979 1002.24 345.908 1000.81 347.36 999.219 349.337 997.632 351.313 996.367 353.215 995.424 355.042 994.48 356.869 993.694 359.19 993.065 362.005L988.798 381.456 981.026 381.456 987.54 352.976C987.959 351.179 988.229 349.786 988.348 348.798 988.468 347.81 988.528 346.986 988.528 346.327 988.528 345.129 988.333 344.261 987.944 343.722 987.555 343.183 986.941 342.913 986.102 342.913 985.174 342.913 984.193 343.295 983.16 344.059 982.127 344.822 980.712 346.207 978.915 348.214L976.354 345.698C979.109 342.823 981.415 340.779 983.272 339.566 985.129 338.353 987.18 337.747 989.426 337.747Z" fill="#BF9000" fill-rule="evenodd"/><text fill="#000000" fill-opacity="0" font-family="Arial,Arial_MSFontService,sans-serif" font-size="43.709" x="976.354" y="375.992">ğ‘Ÿ</text><path d="M1028.75 358.019 1030.75 358.019C1030.71 359.219 1030.67 360.293 1030.65 361.242 1030.63 362.19 1030.61 363.112 1030.6 364.006 1030.59 364.9 1030.59 365.784 1030.59 366.656L1030.59 391.519C1030.59 392.195 1030.61 392.779 1030.65 393.27 1030.69 393.76 1030.77 394.175 1030.86 394.513 1030.96 394.851 1031.09 395.14 1031.26 395.38 1031.42 395.62 1031.61 395.827 1031.83 396.001 1032.09 396.263 1032.44 396.465 1032.88 396.606 1033.31 396.748 1033.87 396.868 1034.54 396.966 1035.22 397.064 1036.03 397.141 1036.98 397.195 1037.93 397.25 1039.07 397.288 1040.4 397.31L1040.4 400.156 1014.46 400.156 1014.46 397.31C1015.74 397.266 1016.83 397.217 1017.73 397.163 1018.62 397.108 1019.39 397.032 1020.02 396.934 1020.65 396.835 1021.16 396.726 1021.54 396.606 1021.92 396.486 1022.25 396.339 1022.54 396.165 1022.84 395.969 1023.1 395.756 1023.32 395.527 1023.54 395.298 1023.72 395.009 1023.85 394.66 1023.98 394.311 1024.08 393.886 1024.16 393.384 1024.23 392.882 1024.27 392.261 1024.27 391.519L1024.27 368.063C1024.27 367.212 1024.11 366.612 1023.78 366.263 1023.45 365.914 1022.98 365.74 1022.37 365.74 1021.7 365.74 1020.69 366.089 1019.36 366.787 1018.03 367.485 1016.31 368.521 1014.2 369.895 1013.91 369.393 1013.65 368.892 1013.41 368.39 1013.17 367.888 1012.92 367.376 1012.66 366.852 1015.36 365.369 1018.04 363.892 1020.69 362.419 1023.34 360.947 1026.03 359.481 1028.75 358.019Z" fill="#BF9000" fill-rule="evenodd"/><text fill="#000000" fill-opacity="0" font-family="Arial,Arial_MSFontService,sans-serif" font-size="42.1367" x="1012.66" y="394.889">1</text><text fill="#767171" font-family="Arial,Arial_MSFontService,sans-serif" font-weight="700" font-size="73" transform="matrix(1 0 0 1 1173 508)">Thinking</text><rect x="2851.5" y="291.5" width="101" height="103" stroke="#7F7F7F" stroke-width="6.875" stroke-miterlimit="8" fill="#00B0F0"/><rect x="2952.5" y="291.5" width="101" height="103" stroke="#7F7F7F" stroke-width="6.875" stroke-miterlimit="8" fill="#00B0F0"/><rect x="3053.5" y="291.5" width="101" height="103" stroke="#7F7F7F" stroke-width="6.875" stroke-miterlimit="8" fill="#00B0F0"/><rect x="3154.5" y="291.5" width="101" height="103" stroke="#7F7F7F" stroke-width="6.875" stroke-miterlimit="8" fill="#00B0F0"/><path d="M2724.84 334.05C2726.73 334.05 2728.22 334.671 2729.31 335.914 2730.4 337.157 2730.95 338.782 2730.95 340.788 2730.95 342.286 2730.66 343.828 2730.09 345.415L2730.68 345.64C2733.61 341.657 2736.44 338.737 2739.15 336.88 2741.86 335.023 2744.6 334.095 2747.39 334.095 2749.58 334.095 2751.4 334.26 2752.87 334.589L2750.71 344.652 2746.09 344.652C2745.91 343.394 2745.65 342.421 2745.32 341.732 2744.99 341.043 2744.6 340.564 2744.16 340.294 2743.71 340.025 2743.14 339.89 2742.45 339.89 2741.37 339.89 2740.19 340.354 2738.92 341.282 2737.65 342.211 2736.22 343.663 2734.63 345.64 2733.04 347.616 2731.78 349.518 2730.84 351.345 2729.89 353.172 2729.11 355.493 2728.48 358.308L2724.21 377.759 2716.44 377.759 2722.95 349.279C2723.37 347.482 2723.64 346.089 2723.76 345.101 2723.88 344.113 2723.94 343.289 2723.94 342.63 2723.94 341.432 2723.75 340.564 2723.36 340.025 2722.97 339.486 2722.35 339.216 2721.51 339.216 2720.59 339.216 2719.61 339.598 2718.57 340.362 2717.54 341.125 2716.12 342.51 2714.33 344.517L2711.77 342.001C2714.52 339.126 2716.83 337.082 2718.68 335.869 2720.54 334.656 2722.59 334.05 2724.84 334.05Z" fill="#BF9000" fill-rule="evenodd"/><text fill="#000000" fill-opacity="0" font-family="Arial,Arial_MSFontService,sans-serif" font-size="43.709" x="2711.77" y="372.295">ğ‘Ÿ</text><path d="M2763.75 354.093C2766.01 354.093 2767.95 354.35 2769.55 354.862 2771.16 355.375 2772.46 356.067 2773.46 356.94 2774.47 357.812 2775.19 358.859 2775.64 360.08 2776.08 361.302 2776.31 362.621 2776.31 364.039 2776.31 364.889 2776.25 365.68 2776.13 366.41 2776.01 367.141 2775.8 367.861 2775.51 368.57 2775.21 369.278 2774.82 369.993 2774.35 370.712 2773.87 371.432 2773.27 372.196 2772.55 373.003 2772 373.7 2771.29 374.507 2770.42 375.423 2769.55 376.339 2768.59 377.321 2767.56 378.368 2766.52 379.415 2765.44 380.505 2764.3 381.639 2763.17 382.773 2762.07 383.897 2761 385.009 2759.93 386.121 2758.95 387.201 2758.05 388.248 2757.16 389.294 2756.43 390.254 2755.86 391.127L2767.97 391.127C2768.99 391.127 2769.81 391.088 2770.42 391.012 2771.03 390.936 2771.54 390.767 2771.94 390.505 2772.34 390.243 2772.69 389.845 2772.97 389.311 2773.25 388.777 2773.58 388.04 2773.95 387.103L2777 387.103C2776.89 388.651 2776.78 390.211 2776.68 391.781 2776.59 393.351 2776.48 394.911 2776.37 396.459L2748.66 396.459 2748.66 394.758C2749.19 393.58 2749.8 392.419 2750.5 391.274 2751.19 390.129 2751.98 388.967 2752.85 387.79 2753.72 386.612 2754.72 385.396 2755.83 384.142 2756.94 382.888 2758.17 381.585 2759.53 380.232 2761.58 378.182 2763.24 376.432 2764.53 374.982 2765.82 373.531 2766.83 372.239 2767.57 371.105 2768.31 369.971 2768.82 368.924 2769.09 367.964 2769.37 367.005 2769.5 365.98 2769.5 364.889 2769.5 363.777 2769.35 362.752 2769.03 361.814 2768.71 360.876 2768.26 360.08 2767.67 359.426 2767.08 358.772 2766.34 358.259 2765.43 357.888 2764.53 357.517 2763.48 357.332 2762.31 357.332 2760.28 357.332 2758.58 357.883 2757.2 358.984 2755.83 360.086 2754.76 361.683 2754 363.777L2749.71 363.777 2749.71 357.398C2752.5 356.242 2755.07 355.402 2757.42 354.878 2759.76 354.355 2761.87 354.093 2763.75 354.093Z" fill="#BF9000" fill-rule="evenodd"/><text fill="#000000" fill-opacity="0" font-family="Arial,Arial_MSFontService,sans-serif" font-size="42.3657" x="2748.66" y="391.163">2</text><text fill="#767171" font-family="Arial,Arial_MSFontService,sans-serif" font-weight="700" font-size="73" transform="matrix(1 0 0 1 2908.41 508)">Machines</text><path d="M1291.5 186.5 1319.5 158.5 1347.5 186.5 1333.5 186.5 1333.5 297.5 1305.5 297.5 1305.5 186.5Z" stroke="#AE5A21" stroke-width="4.58333" stroke-miterlimit="8" fill="#2E75B6" fill-rule="evenodd"/><path d="M3025.5 177.5 3053.5 149.5 3081.5 177.5 3067.5 177.5 3067.5 288.5 3039.5 288.5 3039.5 177.5Z" stroke="#AE5A21" stroke-width="4.58333" stroke-miterlimit="8" fill="#2E75B6" fill-rule="evenodd"/><text fill="#767171" font-family="Arial,Arial_MSFontService,sans-serif" font-weight="700" font-size="73" transform="matrix(1 0 0 1 178.84 158)">Encoder #2</text></g></svg>