<svg width="3498" height="1059" xmlns="http://www.w3.org/2000/svg" xmlns:xlink="http://www.w3.org/1999/xlink" overflow="hidden"><defs><clipPath id="clip0"><rect x="165" y="637" width="3498" height="1059"/></clipPath></defs><g clip-path="url(#clip0)" transform="translate(-165 -637)"><path d="M300.5 788.75 833 788.75 833 777.5 855.5 800 833 822.5 833 811.25 300.5 811.25Z" stroke="#2F528F" stroke-width="4.58333" stroke-miterlimit="8" fill="#4472C4" fill-rule="evenodd"/><path d="M432.5 978.75 833.001 978.75 833.001 967.5 855.5 990 833.001 1012.5 833.001 1001.25 432.5 1001.25Z" stroke="#2F528F" stroke-width="4.58333" stroke-miterlimit="8" fill="#4472C4" fill-rule="evenodd"/><path d="M855.5 766.002C855.5 719.333 893.333 681.5 940.002 681.5L1641 681.5C1687.67 681.5 1725.5 719.333 1725.5 766.002L1725.5 1104C1725.5 1150.67 1687.67 1188.5 1641 1188.5L940.002 1188.5C893.333 1188.5 855.5 1150.67 855.5 1104Z" stroke="#41719C" stroke-width="4.58333" stroke-miterlimit="8" fill="#5B9BD5" fill-rule="evenodd"/><text fill="#FFFFFF" font-family="DengXian,DengXian_MSFontService,sans-serif" font-weight="700" font-size="83" transform="matrix(1 0 0 1 1021.59 962)">Self<tspan font-size="83" x="139.219" y="0">-</tspan>Attention<tspan fill="#000000" font-family="Times New Roman,Times New Roman_MSFontService,sans-serif" font-weight="400" font-size="73" x="-472.589" y="-231">O</tspan><tspan fill="#000000" font-family="Times New Roman,Times New Roman_MSFontService,sans-serif" font-weight="400" font-size="73" x="-651.088" y="40">E</tspan></text><path d="M1165.5 1563.5C1165.5 1492.26 1222.36 1434.5 1292.5 1434.5 1362.64 1434.5 1419.5 1492.26 1419.5 1563.5 1419.5 1634.74 1362.64 1692.5 1292.5 1692.5 1222.36 1692.5 1165.5 1634.74 1165.5 1563.5Z" fill="#B4C7E7" fill-rule="evenodd"/><path d="M1292.5 1434.5 1292.5 1692.5M1165.5 1563.5 1419.5 1563.5" stroke="#000000" stroke-width="4.58333" stroke-miterlimit="8" stroke-opacity="0.960784" fill="none" fill-rule="evenodd"/><path d="M1165.5 1563.5C1165.5 1492.26 1222.36 1434.5 1292.5 1434.5 1362.64 1434.5 1419.5 1492.26 1419.5 1563.5 1419.5 1634.74 1362.64 1692.5 1292.5 1692.5 1222.36 1692.5 1165.5 1634.74 1165.5 1563.5Z" stroke="#000000" stroke-width="4.58333" stroke-miterlimit="8" stroke-opacity="0.960784" fill="none" fill-rule="evenodd"/><path d="M470.042 1049.51 469.979 1049.88 470.048 1049.39 469.923 1050.51 469.974 1049.82 469.909 1051.7 469.78 1054.27 469.79 1054 469.727 1057.12 469.728 1057.09 469.664 1060.96 469.538 1065.39 469.541 1065.24 469.478 1070.29 469.352 1075.89 469.354 1075.78 469.291 1081.91 469.229 1088.52 469.166 1095.62 469.04 1103.28 469.041 1103.2 468.979 1111.2 468.916 1119.69 468.854 1128.56 468.791 1137.75 468.729 1147.37 468.604 1167.49 468.479 1188.8 468.417 1210.96 468.292 1233.99 468.229 1257.52 468.229 1281.38 468.229 1305.5 468.221 1305.12 468.471 1311.18 468.408 1310.43 469.158 1316.43 469.017 1315.6 470.33 1321.6 470.182 1321.02 471.932 1327.08 471.708 1326.41 473.958 1332.41 473.741 1331.88 476.428 1337.88 476.139 1337.29 479.326 1343.23 479.037 1342.73 482.725 1348.66 482.503 1348.32 486.565 1354.26 486.269 1353.85 490.831 1359.79 490.543 1359.43 495.543 1365.31 495.293 1365.03 500.668 1370.84 500.385 1370.55 506.26 1376.36 506.019 1376.13 512.269 1381.88 512.071 1381.7 518.696 1387.45 518.437 1387.24 525.499 1392.92 525.279 1392.75 532.717 1398.38 532.504 1398.22 540.317 1403.78 540.045 1403.6 556.732 1414.6 556.372 1414.37 574.559 1425.18 574.221 1424.99 593.721 1435.49 593.405 1435.33 614.218 1445.52 613.961 1445.4 635.961 1455.33 635.682 1455.21 658.87 1464.78 658.635 1464.68 682.947 1473.93 682.72 1473.85 708.033 1482.72 707.799 1482.65 734.112 1491.08 733.9 1491.02 761.088 1499.02 760.904 1498.97 788.966 1506.59 788.745 1506.53 817.557 1513.6 817.384 1513.56 846.884 1520.18 846.68 1520.14 876.867 1526.2 876.694 1526.17 907.444 1531.73 907.258 1531.7 938.57 1536.7 938.379 1536.67 970.066 1541.04 969.893 1541.02 1002.02 1544.83 1001.82 1544.81 1034.25 1547.94 1034.06 1547.92 1066.74 1550.36 1066.57 1550.35 1099.44 1552.16 1099.18 1552.15 1119.48 1552.69 1119 1571.01 1098.56 1570.47 1065.47 1568.65 1032.59 1566.2 999.958 1563.05 967.645 1559.22 935.775 1554.82 904.274 1549.79 873.344 1544.19 842.968 1538.09 813.279 1531.42 784.269 1524.31 756.004 1516.63 728.619 1508.58 702.083 1500.07 676.541 1491.11 651.997 1481.77 628.552 1472.1 606.285 1462.05 585.185 1451.72 565.358 1441.04 546.82 1430.02 529.817 1418.81 521.763 1413.08 514.109 1407.29 506.806 1401.41 499.954 1395.46 493.484 1389.51 487.346 1383.44 481.704 1377.34 476.433 1371.14 471.577 1364.82 467.258 1358.51 463.31 1352.15 459.831 1345.67 456.892 1339.11 454.417 1332.51 452.484 1325.82 451.018 1319.11 450.169 1312.32 449.896 1305.69 449.896 1281.38 449.896 1257.48 449.958 1233.89 450.083 1210.91 450.146 1188.7 450.271 1167.38 450.396 1147.25 450.459 1137.63 450.521 1128.44 450.584 1119.56 450.646 1111.05 450.709 1103.01 450.835 1095.35 450.834 1095.42 450.896 1088.35 450.959 1081.72 451.022 1075.54 451.148 1069.92 451.147 1070.01 451.21 1064.94 451.337 1060.49 451.335 1060.6 451.397 1056.77 451.463 1053.49 451.595 1050.85 451.589 1051 451.663 1048.84 451.854 1047.11 451.958 1046.49ZM1110.61 1534.18 1165.06 1562.75 1109.53 1589.17Z" fill="#4472C4"/><path d="M300.5 1597.75 1111 1597.75 1111 1586.5 1133.5 1609 1111 1631.5 1111 1620.25 300.5 1620.25Z" stroke="#2F528F" stroke-width="4.58333" stroke-miterlimit="8" fill="#4472C4" fill-rule="evenodd"/><text font-family="Times New Roman,Times New Roman_MSFontService,sans-serif" font-weight="400" font-size="73" transform="matrix(1 0 0 1 209.999 1634)">B</text><path d="M0.123123-9.16584 42.1077-8.60187 84.1536-7.03065 126.07-4.32839 167.656-0.684881 208.94 3.90216 249.846 9.49458 290.239 15.965 330.013 23.2537 369.16 31.4225 407.617 40.3455 445.209 50.0264 481.93 60.4641 517.65 71.5951 552.32 83.3616 585.867 95.8239 618.169 108.795 649.183 122.348 678.801 136.464 693.092 143.735 706.991 151.064 720.518 158.586 733.655 166.165 746.396 173.835 758.694 181.696 770.604 189.615 782.029 197.612 793.026 205.685 803.614 213.913 813.68 222.259 823.313 230.616 832.414 239.076 841.057 247.655 849.218 256.266 856.854 265.002 863.893 273.85 870.422 282.641 876.484 291.636 881.916 300.668 887.019 310.252 892.76 327.559 875.359 333.331 869.862 316.761 870.471 318.183 865.846 309.495 866.082 309.912 860.895 301.287 861.148 301.685 855.336 293.06 855.578 293.403 849.266 284.903 849.452 285.145 842.639 276.582 842.911 276.908 835.536 268.47 835.784 268.743 827.847 260.368 828.042 260.568 819.605 252.193 819.821 252.401 810.946 244.151 811.18 244.362 801.743 236.174 801.899 236.307 792.024 228.119 792.25 228.301 781.875 220.238 782.075 220.389 771.263 212.452 771.431 212.572 760.181 204.697 760.362 204.821 748.612 197.008 748.751 197.099 736.626 189.349 736.835 189.478 724.272 181.916 724.419 182.003 711.419 174.503 711.545 174.574 698.17 167.136 698.35 167.234 684.6 159.984 684.718 160.045 670.593 152.857 670.806 152.962 641.431 138.962 641.704 139.087 610.954 125.65 611.209 125.756 579.147 112.881 579.37 112.968 546.058 100.593 546.304 100.68 511.867 88.9929 512.085 89.0641 476.585 78.0016 476.806 78.0674 440.306 67.6924 440.526 67.752 403.151 58.127 403.366 58.1795 365.116 49.3045 365.315 49.3484 326.378 41.2234 326.598 41.2665 287.035 34.0165 287.238 34.0513 247.05 27.6138 247.258 27.6447 206.571 22.0822 206.8 22.1106 165.738 17.5481 165.95 17.5692 124.575 13.9442 124.785 13.9602 83.0978 11.2727 83.3452 11.2853 41.5327 9.72277 41.7519 9.72834-0.123123 9.16584ZM908.917 315.532 894 375.188 855.226 327.461Z" fill="#4472C4" transform="matrix(1 0 0 -1 1419 1563.18)"/><path d="M1878.5 766.002C1878.5 719.333 1916.33 681.5 1963 681.5L2664 681.5C2710.67 681.5 2748.5 719.333 2748.5 766.002L2748.5 1104C2748.5 1150.67 2710.67 1188.5 2664 1188.5L1963 1188.5C1916.33 1188.5 1878.5 1150.67 1878.5 1104Z" stroke="#41719C" stroke-width="4.58333" stroke-miterlimit="8" fill="#5B9BD5" fill-rule="evenodd"/><text fill="#FFFFFF" font-family="DengXian,DengXian_MSFontService,sans-serif" font-weight="700" font-size="83" transform="matrix(1 0 0 1 2144.85 962)">3D<tspan font-size="83" x="104.844" y="0">-</tspan>Conv</text><path d="M1306.25 1182.5 1306.25 1416 1318.5 1416 1294 1440.5 1269.5 1416 1281.75 1416 1281.75 1182.5Z" stroke="#2F528F" stroke-width="4.58333" stroke-miterlimit="8" fill="#4472C4" fill-rule="evenodd"/><path d="M2748.5 969 3088.5 969 3088.5 954.5 3117.5 983.5 3088.5 1012.5 3088.5 998 2748.5 998Z" stroke="#2F528F" stroke-width="4.58333" stroke-miterlimit="8" fill="#4472C4" fill-rule="evenodd"/><path d="M3123.5 855.001C3123.5 818.826 3152.83 789.5 3189 789.5L3595 789.5C3631.17 789.5 3660.5 818.826 3660.5 855.001L3660.5 1117C3660.5 1153.17 3631.17 1182.5 3595 1182.5L3189 1182.5C3152.83 1182.5 3123.5 1153.17 3123.5 1117Z" stroke="#BC8C00" stroke-width="4.58333" stroke-miterlimit="8" fill="#FFC000" fill-rule="evenodd"/><text fill="#FFFFFF" font-family="DengXian,DengXian_MSFontService,sans-serif" font-weight="700" font-size="83" transform="matrix(1 0 0 1 3235.67 914)">Instance<tspan font-size="83" x="56.7188" y="99">Mask</tspan><tspan font-size="83" x="-25.2085" y="198">Sequence</tspan></text></g></svg>