<svg width="1192" height="599" xmlns="http://www.w3.org/2000/svg" xmlns:xlink="http://www.w3.org/1999/xlink" overflow="hidden"><g transform="translate(-24 -46)"><path d="M26.5001 147.002C26.5001 92.0484 71.0484 47.5001 126.002 47.5001L1115 47.5001C1169.95 47.5001 1214.5 92.0484 1214.5 147.002L1214.5 544.999C1214.5 599.952 1169.95 644.5 1115 644.5L126.002 644.5C71.0484 644.5 26.5001 599.952 26.5001 544.999Z" stroke="#172C51" stroke-width="1.33333" stroke-miterlimit="8" fill="#DAE3F3" fill-rule="evenodd"/><path d="M72.5001 226.5C72.5001 220.425 77.8726 215.5 84.5001 215.5 91.1275 215.5 96.5001 220.425 96.5001 226.5 96.5001 232.575 91.1275 237.5 84.5001 237.5 77.8726 237.5 72.5001 232.575 72.5001 226.5Z" stroke="#BC8C00" stroke-width="1.33333" stroke-miterlimit="8" fill="#C00000" fill-rule="evenodd"/><path d="M108.5 226.5C108.5 220.425 113.873 215.5 120.5 215.5 127.127 215.5 132.5 220.425 132.5 226.5 132.5 232.575 127.127 237.5 120.5 237.5 113.873 237.5 108.5 232.575 108.5 226.5Z" stroke="#507E32" stroke-width="1.33333" stroke-miterlimit="8" fill="#FFC000" fill-rule="evenodd"/><path d="M144.5 226.5C144.5 220.425 149.649 215.5 156 215.5 162.351 215.5 167.5 220.425 167.5 226.5 167.5 232.575 162.351 237.5 156 237.5 149.649 237.5 144.5 232.575 144.5 226.5Z" stroke="#507E32" stroke-width="1.33333" stroke-miterlimit="8" fill="#FFFF00" fill-rule="evenodd"/><text font-family="Times New Roman,Times New Roman_MSFontService,sans-serif" font-weight="700" font-size="24" transform="translate(195.55 234)">Per</text><text font-family="Times New Roman,Times New Roman_MSFontService,sans-serif" font-weight="700" font-size="24" transform="translate(230.656 234)">-</text><text font-family="Times New Roman,Times New Roman_MSFontService,sans-serif" font-weight="700" font-size="24" transform="translate(238.656 234)">frame queries</text><text font-family="Times New Roman,Times New Roman_MSFontService,sans-serif" font-weight="700" font-size="24" transform="translate(195.55 267)">Per</text><text font-family="Times New Roman,Times New Roman_MSFontService,sans-serif" font-weight="700" font-size="24" transform="translate(230.656 267)">-</text><text font-family="Times New Roman,Times New Roman_MSFontService,sans-serif" font-weight="700" font-size="24" transform="translate(238.656 267)">clip queries</text><path d="M70.5001 261.5 83.5001 249.5 96.5001 261.5 83.5001 273.5Z" stroke="#BC8C00" stroke-width="1.33333" stroke-miterlimit="8" fill="#C00000" fill-rule="evenodd"/><path d="M106.5 261.5 119.5 249.5 132.5 261.5 119.5 273.5Z" stroke="#BC8C00" stroke-width="1.33333" stroke-miterlimit="8" fill="#FFC000" fill-rule="evenodd"/><path d="M144.5 261.5 157 249.5 169.5 261.5 157 273.5Z" stroke="#BC8C00" stroke-width="1.33333" stroke-miterlimit="8" fill="#FFFF00" fill-rule="evenodd"/><path d="M66.5001 340.667C66.5001 329.529 75.5292 320.5 86.6672 320.5L253.333 320.5C264.471 320.5 273.5 329.529 273.5 340.667L273.5 421.333C273.5 432.471 264.471 441.5 253.333 441.5L86.6672 441.5C75.5292 441.5 66.5001 432.471 66.5001 421.333Z" stroke="#2F528F" stroke-width="1.33333" stroke-miterlimit="8" fill="#ADB9CA" fill-rule="evenodd"/><text font-family="Times New Roman,Times New Roman_MSFontService,sans-serif" font-weight="700" font-size="24" transform="translate(125.314 375)">Random</text><text font-family="Times New Roman,Times New Roman_MSFontService,sans-serif" font-weight="700" font-size="24" transform="translate(103.314 404)">Initialization</text><path d="M273.5 381.167 304.533 381.167 304.533 381.833 273.5 381.833ZM303.2 377.5 311.2 381.5 303.2 385.5Z" fill="#4472C4"/><path d="M273.5 413.167 304.533 413.167 304.533 413.833 273.5 413.833ZM303.2 409.5 311.2 413.5 303.2 417.5Z" fill="#4472C4"/><path d="M272.5 349.167 303.533 349.167 303.533 349.833 272.5 349.833ZM302.2 345.5 310.2 349.5 302.2 353.5Z" fill="#4472C4"/><rect x="311.5" y="337.5" width="23" height="25" stroke="#2F528F" stroke-width="1.33333" stroke-miterlimit="8" fill="#E7E6E6"/><rect x="311.5" y="368.5" width="23" height="25" stroke="#2F528F" stroke-width="1.33333" stroke-miterlimit="8" fill="#E7E6E6"/><rect x="311.5" y="400.5" width="23" height="25" stroke="#2F528F" stroke-width="1.33333" stroke-miterlimit="8" fill="#E7E6E6"/><path d="M0.016499-0.332925 11.4755 0.234958 22.8596 1.89243 34.0626 4.56576 44.9951 8.18222 55.5679 12.6692 65.6918 17.9543 75.2775 23.9651 84.2358 30.6294 92.4772 37.8753 99.9125 45.6307 106.452 53.824 112.006 62.3833 116.484 71.2371 119.795 80.3136 121.849 89.5405 122.552 98.8189 123.253 108.073 123.246 108.026 125.29 117.208 125.278 117.167 128.575 126.204 128.559 126.168 133.02 134.988 133.002 134.957 138.537 143.487 138.518 143.461 145.038 151.63 145.018 151.607 152.433 159.341 152.413 159.321 160.633 166.549 160.612 166.532 169.549 173.18 169.527 173.165 179.09 179.162 179.067 179.149 189.168 184.422 189.144 184.41 199.692 188.887 199.666 188.877 210.572 192.485 210.545 192.477 221.719 195.144 221.69 195.138 233.044 196.791 233.012 196.788 237.797 197.025 237.764 197.691 232.963 197.453 221.579 195.796 210.376 193.122 199.444 189.506 188.871 185.019 178.747 179.734 169.161 173.723 160.203 167.059 151.962 159.813 144.526 152.057 137.987 143.864 132.433 135.305 127.955 126.451 124.644 117.375 122.59 108.148 121.887 98.8693 121.186 89.6147 121.193 89.6619 119.149 80.4798 119.161 80.5216 115.864 71.4842 115.88 71.5204 111.419 62.7002 111.437 62.7312 105.902 54.2006 105.921 54.2271 99.4009 46.0584 99.4208 46.0812 92.0058 38.3469 92.0264 38.3666 83.8058 31.1391 83.8269 31.1562 74.8902 24.5079 74.9121 24.5228 65.3488 18.5261 65.3716 18.5391 55.2712 13.2663 55.2952 13.2777 44.7472 8.80124 44.7728 8.81087 33.8667 5.20316 33.894 5.21092 22.7194 2.54436 22.7488 2.54998 11.3951 0.896953 11.4267 0.900022-0.016499 0.332925ZM236.647 193.297 244.439 197.688 236.251 201.287Z" fill="#4472C4" transform="matrix(1 0 0 -1 336.5 377.188)"/><path d="M0.00170111-0.333329 22.6054-0.217973 44.5004 0.10805 54.9604 0.340672 64.9763 0.61467 74.4599 0.926297 83.3224 1.2718 91.4754 1.64742 98.8303 2.04943 105.299 2.47412 110.793 2.91784 115.226 3.37716 118.516 3.84973 120.618 4.34462 121.365 4.86131 122.061 5.34207 121.947 5.29177 123.974 5.76879 123.945 5.76331 127.214 6.23281 127.201 6.2312 131.624 6.68942 131.616 6.68873 137.104 7.13192 137.099 7.13155 143.563 7.55593 143.559 7.55571 150.911 7.95753 150.908 7.95739 159.058 8.33288 159.056 8.33278 167.916 8.67818 167.914 8.67811 177.396 8.98966 177.394 8.98961 187.408 9.26355 187.407 9.26351 197.865 9.49608 197.862 9.49603 219.754 9.82201 219.751 9.82198 235.687 9.9033 235.683 10.57 219.746 10.4886 197.851 10.1626 187.391 9.92999 177.375 9.656 167.891 9.34438 159.029 8.99889 150.876 8.62328 143.521 8.22128 137.053 7.79662 131.559 7.35293 127.126 6.89364 123.835 6.4211 121.733 5.92626 120.986 5.40961 120.291 4.92879 120.404 4.9791 118.378 4.50204 118.407 4.50752 115.138 4.03799 115.151 4.0396 110.728 3.58134 110.735 3.58204 105.248 3.13883 105.253 3.13919 98.7884 2.71479 98.7921 2.71501 91.4405 2.31317 91.4433 2.31332 83.293 1.93781 83.2953 1.93791 74.4349 1.5925 74.437 1.59257 64.9553 1.28101 64.9572 1.28106 54.943 1.00711 54.9447 1.00715 44.4868 0.77458 44.4892 0.774625 22.5971 0.448644 22.6004 0.448676-0.00170111 0.333329ZM234.372 6.22988 242.351 10.2707 234.331 14.2298Z" fill="#4472C4" transform="matrix(1 0 0 -1 337.5 379.771)"/><path d="M334.515 381.167 346.008 381.677 357.425 383.164 368.661 385.564 379.626 388.81 390.23 392.838 400.385 397.582 410 402.978 418.987 408.961 427.255 415.466 434.714 422.43 441.276 429.787 446.849 437.475 451.344 445.428 454.669 453.583 456.731 461.876 457.437 470.211 458.141 478.519 458.132 478.467 460.182 486.71 460.167 486.665 463.475 494.778 463.457 494.74 467.931 502.659 467.911 502.627 473.464 510.285 473.443 510.259 479.983 517.593 479.962 517.571 487.4 524.514 487.379 524.496 495.625 530.985 495.604 530.969 504.569 536.938 504.547 536.925 514.14 542.308 514.118 542.297 524.251 547.031 524.228 547.021 534.809 551.04 534.785 551.032 545.726 554.271 545.701 554.264 556.911 556.658 556.884 556.654 568.274 558.138 568.245 558.135 573.064 558.349 573.035 559.015 568.202 558.801 556.785 557.313 545.549 554.914 534.584 551.668 523.98 547.64 513.825 542.896 504.21 537.5 495.223 531.517 486.955 525.011 479.496 518.048 472.934 510.69 467.36 503.003 462.866 495.05 459.541 486.894 457.478 478.602 456.773 470.267 456.069 461.958 456.078 462.011 454.028 453.767 454.042 453.813 450.735 445.699 450.753 445.737 446.278 437.819 446.299 437.851 440.746 430.192 440.767 430.218 434.227 422.885 434.248 422.907 426.81 415.963 426.831 415.982 418.585 409.493 418.606 409.508 409.641 403.54 409.663 403.553 400.069 398.169 400.091 398.181 389.959 393.447 389.982 393.456 379.401 389.438 379.424 389.446 368.484 386.207 368.509 386.213 357.299 383.819 357.326 383.824 345.936 382.34 345.965 382.342 334.485 381.833ZM571.895 554.627 579.71 558.977 571.54 562.619Z" fill="#4472C4"/><rect x="580.5" y="136.5" width="24" height="25" stroke="#2F528F" stroke-width="1.33333" stroke-linecap="square" stroke-miterlimit="8" stroke-dasharray="4 1.33333" fill="#E7E6E6"/><rect x="580.5" y="167.5" width="24" height="25" stroke="#2F528F" stroke-width="1.33333" stroke-linecap="square" stroke-miterlimit="8" stroke-dasharray="4 1.33333" fill="#E7E6E6"/><rect x="580.5" y="199.5" width="24" height="25" stroke="#2F528F" stroke-width="1.33333" stroke-linecap="square" stroke-miterlimit="8" stroke-dasharray="4 1.33333" fill="#E7E6E6"/><rect x="580.5" y="326.5" width="23" height="25" stroke="#2F528F" stroke-width="1.33333" stroke-linecap="square" stroke-miterlimit="8" stroke-dasharray="4 1.33333" fill="#E7E6E6"/><rect x="580.5" y="357.5" width="23" height="25" stroke="#2F528F" stroke-width="1.33333" stroke-linecap="square" stroke-miterlimit="8" stroke-dasharray="4 1.33333" fill="#E7E6E6"/><rect x="580.5" y="389.5" width="23" height="25" stroke="#2F528F" stroke-width="1.33333" stroke-linecap="square" stroke-miterlimit="8" stroke-dasharray="4 1.33333" fill="#E7E6E6"/><rect x="580.5" y="514.5" width="23" height="25" stroke="#2F528F" stroke-width="1.33333" stroke-linecap="square" stroke-miterlimit="8" stroke-dasharray="4 1.33333" fill="#E7E6E6"/><rect x="580.5" y="546.5" width="23" height="25" stroke="#2F528F" stroke-width="1.33333" stroke-linecap="square" stroke-miterlimit="8" stroke-dasharray="4 1.33333" fill="#E7E6E6"/><rect x="580.5" y="578.5" width="23" height="25" stroke="#2F528F" stroke-width="1.33333" stroke-linecap="square" stroke-miterlimit="8" stroke-dasharray="4 1.33333" fill="#E7E6E6"/><path d="M603.5 148.167 626.888 148.167 626.888 148.833 603.5 148.833ZM625.555 144.5 633.555 148.5 625.555 152.5Z" fill="#4472C4"/><path d="M603.5 179.167 626.888 179.167 626.888 179.833 603.5 179.833ZM625.555 175.5 633.555 179.5 625.555 183.5Z" fill="#4472C4"/><path d="M603.5 211.167 626.888 211.167 626.888 211.833 603.5 211.833ZM625.555 207.5 633.555 211.5 625.555 215.5Z" fill="#4472C4"/><path d="M635.5 129.834C635.5 125.231 639.231 121.5 643.834 121.5L677.167 121.5C681.769 121.5 685.5 125.231 685.5 129.834L685.5 226.167C685.5 230.769 681.769 234.5 677.167 234.5L643.834 234.5C639.231 234.5 635.5 230.769 635.5 226.167Z" stroke="#2F528F" stroke-width="1.33333" stroke-miterlimit="8" fill="#DEEBF7" fill-rule="evenodd"/><text font-family="DengXian,DengXian_MSFontService,sans-serif" font-weight="700" font-size="24" transform="translate(653.551 171)">S</text><text font-family="DengXian,DengXian_MSFontService,sans-serif" font-weight="700" font-size="24" transform="translate(651.971 200)">A</text><path d="M685.5 148.167 708.888 148.167 708.888 148.833 685.5 148.833ZM707.555 144.5 715.555 148.5 707.555 152.5Z" fill="#4472C4"/><path d="M685.5 179.167 708.888 179.167 708.888 179.833 685.5 179.833ZM707.555 175.5 715.555 179.5 707.555 183.5Z" fill="#4472C4"/><path d="M685.5 211.167 708.888 211.167 708.888 211.833 685.5 211.833ZM707.555 207.5 715.555 211.5 707.555 215.5Z" fill="#4472C4"/><path d="M715.5 148C715.5 142.753 719.753 138.5 725 138.5 730.247 138.5 734.5 142.753 734.5 148 734.5 153.247 730.247 157.5 725 157.5 719.753 157.5 715.5 153.247 715.5 148Z" stroke="#2F528F" stroke-width="1.33333" stroke-miterlimit="8" fill="#FFFFFF" fill-rule="evenodd"/><path d="M715.5 212C715.5 206.753 719.753 202.5 725 202.5 730.247 202.5 734.5 206.753 734.5 212 734.5 217.247 730.247 221.5 725 221.5 719.753 221.5 715.5 217.247 715.5 212Z" stroke="#2F528F" stroke-width="1.33333" stroke-miterlimit="8" fill="#FFFFFF" fill-rule="evenodd"/><path d="M715.5 178C715.5 172.753 719.753 168.5 725 168.5 730.247 168.5 734.5 172.753 734.5 178 734.5 183.247 730.247 187.5 725 187.5 719.753 187.5 715.5 183.247 715.5 178Z" stroke="#2F528F" stroke-width="1.33333" stroke-miterlimit="8" fill="#FFFFFF" fill-rule="evenodd"/><path d="M734.5 148.167 757.888 148.167 757.888 148.833 734.5 148.833ZM756.555 144.5 764.555 148.5 756.555 152.5Z" fill="#4472C4"/><path d="M734.5 179.167 757.888 179.167 757.888 179.833 734.5 179.833ZM756.555 175.5 764.555 179.5 756.555 183.5Z" fill="#4472C4"/><path d="M734.5 211.167 757.888 211.167 757.888 211.833 734.5 211.833ZM756.555 207.5 764.555 211.5 756.555 215.5Z" fill="#4472C4"/><path d="M765.5 127.834C765.5 123.231 769.231 119.5 773.834 119.5L807.167 119.5C811.769 119.5 815.5 123.231 815.5 127.834L815.5 224.167C815.5 228.769 811.769 232.5 807.167 232.5L773.834 232.5C769.231 232.5 765.5 228.769 765.5 224.167Z" stroke="#2F528F" stroke-width="1.33333" stroke-miterlimit="8" fill="#DEEBF7" fill-rule="evenodd"/><text font-family="DengXian,DengXian_MSFontService,sans-serif" font-weight="700" font-size="24" transform="translate(782.971 169)">C</text><text font-family="DengXian,DengXian_MSFontService,sans-serif" font-weight="700" font-size="24" transform="translate(782.304 198)">A</text><path d="M789.833 93.5001 789.833 112.878 789.167 112.878 789.167 93.5001ZM793.5 111.545 789.5 119.545 785.5 111.545Z" fill="#4472C4"/><path d="M605.5 339.167 628.888 339.167 628.888 339.833 605.5 339.833ZM627.555 335.5 635.555 339.5 627.555 343.5Z" fill="#4472C4"/><path d="M605.5 370.167 628.888 370.167 628.888 370.833 605.5 370.833ZM627.555 366.5 635.555 370.5 627.555 374.5Z" fill="#4472C4"/><path d="M605.5 402.167 628.888 402.167 628.888 402.833 605.5 402.833ZM627.555 398.5 635.555 402.5 627.555 406.5Z" fill="#4472C4"/><path d="M637.5 320.834C637.5 316.231 641.231 312.5 645.834 312.5L679.167 312.5C683.769 312.5 687.5 316.231 687.5 320.834L687.5 417.167C687.5 421.769 683.769 425.5 679.167 425.5L645.834 425.5C641.231 425.5 637.5 421.769 637.5 417.167Z" stroke="#2F528F" stroke-width="1.33333" stroke-miterlimit="8" fill="#DEEBF7" fill-rule="evenodd"/><text font-family="DengXian,DengXian_MSFontService,sans-serif" font-weight="700" font-size="24" transform="translate(655.158 362)">S</text><text font-family="DengXian,DengXian_MSFontService,sans-serif" font-weight="700" font-size="24" transform="translate(653.578 391)">A</text><path d="M687.5 339.167 710.888 339.167 710.888 339.833 687.5 339.833ZM709.555 335.5 717.555 339.5 709.555 343.5Z" fill="#4472C4"/><path d="M687.5 370.167 710.888 370.167 710.888 370.833 687.5 370.833ZM709.555 366.5 717.555 370.5 709.555 374.5Z" fill="#4472C4"/><path d="M687.5 402.167 710.888 402.167 710.888 402.833 687.5 402.833ZM709.555 398.5 717.555 402.5 709.555 406.5Z" fill="#4472C4"/><path d="M717.5 339C717.5 333.753 721.753 329.5 727 329.5 732.247 329.5 736.5 333.753 736.5 339 736.5 344.247 732.247 348.5 727 348.5 721.753 348.5 717.5 344.247 717.5 339Z" stroke="#2F528F" stroke-width="1.33333" stroke-miterlimit="8" fill="#FFFFFF" fill-rule="evenodd"/><path d="M717.5 402C717.5 396.753 721.753 392.5 727 392.5 732.247 392.5 736.5 396.753 736.5 402 736.5 407.247 732.247 411.5 727 411.5 721.753 411.5 717.5 407.247 717.5 402Z" stroke="#2F528F" stroke-width="1.33333" stroke-miterlimit="8" fill="#FFFFFF" fill-rule="evenodd"/><path d="M717.5 369C717.5 363.753 721.753 359.5 727 359.5 732.247 359.5 736.5 363.753 736.5 369 736.5 374.247 732.247 378.5 727 378.5 721.753 378.5 717.5 374.247 717.5 369Z" stroke="#2F528F" stroke-width="1.33333" stroke-miterlimit="8" fill="#FFFFFF" fill-rule="evenodd"/><path d="M736.5 339.167 759.888 339.167 759.888 339.833 736.5 339.833ZM758.555 335.5 766.555 339.5 758.555 343.5Z" fill="#4472C4"/><path d="M736.5 370.167 759.888 370.167 759.888 370.833 736.5 370.833ZM758.555 366.5 766.555 370.5 758.555 374.5Z" fill="#4472C4"/><path d="M736.5 402.167 759.888 402.167 759.888 402.833 736.5 402.833ZM758.555 398.5 766.555 402.5 758.555 406.5Z" fill="#4472C4"/><path d="M767.5 317.833C767.5 313.231 771.231 309.5 775.833 309.5L809.167 309.5C813.769 309.5 817.5 313.231 817.5 317.833L817.5 415.167C817.5 419.769 813.769 423.5 809.167 423.5L775.833 423.5C771.231 423.5 767.5 419.769 767.5 415.167Z" stroke="#2F528F" stroke-width="1.33333" stroke-miterlimit="8" fill="#DEEBF7" fill-rule="evenodd"/><text font-family="DengXian,DengXian_MSFontService,sans-serif" font-weight="700" font-size="24" transform="translate(784.577 359)">C</text><text font-family="DengXian,DengXian_MSFontService,sans-serif" font-weight="700" font-size="24" transform="translate(783.911 388)">A</text><path d="M602.5 527.167 625.888 527.167 625.888 527.833 602.5 527.833ZM624.555 523.5 632.555 527.5 624.555 531.5Z" fill="#4472C4"/><path d="M602.5 559.167 625.888 559.167 625.888 559.833 602.5 559.833ZM624.555 555.5 632.555 559.5 624.555 563.5Z" fill="#4472C4"/><path d="M602.5 591.167 625.888 591.167 625.888 591.833 602.5 591.833ZM624.555 587.5 632.555 591.5 624.555 595.5Z" fill="#4472C4"/><path d="M634.5 508.833C634.5 504.231 638.231 500.5 642.833 500.5L676.167 500.5C680.769 500.5 684.5 504.231 684.5 508.833L684.5 606.167C684.5 610.769 680.769 614.5 676.167 614.5L642.833 614.5C638.231 614.5 634.5 610.769 634.5 606.167Z" stroke="#2F528F" stroke-width="1.33333" stroke-miterlimit="8" fill="#DEEBF7" fill-rule="evenodd"/><text font-family="DengXian,DengXian_MSFontService,sans-serif" font-weight="700" font-size="24" transform="translate(652.681 550)">S</text><text font-family="DengXian,DengXian_MSFontService,sans-serif" font-weight="700" font-size="24" transform="translate(651.101 579)">A</text><path d="M686.5 527.167 840.175 527.167 840.175 527.833 686.5 527.833ZM838.841 523.5 846.841 527.5 838.841 531.5Z" fill="#4472C4"/><path d="M0.000440878-0.333333 153.675-0.130077 153.675 0.536589-0.000440878 0.333333ZM152.347-3.7985 160.342 0.212073 152.336 4.20149Z" fill="#4472C4" transform="matrix(1 0 0 -1 686.5 559.712)"/><path d="M686.5 591.167 840.175 591.167 840.175 591.833 686.5 591.833ZM838.842 587.5 846.842 591.5 838.842 595.5Z" fill="#4472C4"/><path d="M816.5 148.167 839.888 148.167 839.888 148.833 816.5 148.833ZM838.555 144.5 846.555 148.5 838.555 152.5Z" fill="#4472C4"/><path d="M816.5 179.167 839.888 179.167 839.888 179.833 816.5 179.833ZM838.555 175.5 846.555 179.5 838.555 183.5Z" fill="#4472C4"/><path d="M816.5 211.167 839.888 211.167 839.888 211.833 816.5 211.833ZM838.555 207.5 846.555 211.5 838.555 215.5Z" fill="#4472C4"/><path d="M846.5 148C846.5 142.753 850.753 138.5 856 138.5 861.247 138.5 865.5 142.753 865.5 148 865.5 153.247 861.247 157.5 856 157.5 850.753 157.5 846.5 153.247 846.5 148Z" stroke="#2F528F" stroke-width="1.33333" stroke-miterlimit="8" fill="#C00000" fill-rule="evenodd"/><path d="M847.5 212C847.5 206.753 851.753 202.5 857 202.5 862.247 202.5 866.5 206.753 866.5 212 866.5 217.247 862.247 221.5 857 221.5 851.753 221.5 847.5 217.247 847.5 212Z" stroke="#2F528F" stroke-width="1.33333" stroke-miterlimit="8" fill="#FFFF00" fill-rule="evenodd"/><path d="M846.5 178C846.5 172.753 850.753 168.5 856 168.5 861.247 168.5 865.5 172.753 865.5 178 865.5 183.247 861.247 187.5 856 187.5 850.753 187.5 846.5 183.247 846.5 178Z" stroke="#2F528F" stroke-width="1.33333" stroke-miterlimit="8" fill="#FFC000" fill-rule="evenodd"/><path d="M0.333333-1.19061e-06 0.333414 22.7263-0.333252 22.7263-0.333333 1.19061e-06ZM4.00008 21.393 0.000104987 29.393-3.99992 21.393Z" fill="#4472C4" transform="matrix(1 0 0 -1 792.5 452.893)"/><path d="M816.5 338.167 839.888 338.167 839.888 338.833 816.5 338.833ZM838.555 334.5 846.555 338.5 838.555 342.5Z" fill="#4472C4"/><path d="M816.5 369.167 839.888 369.167 839.888 369.833 816.5 369.833ZM838.555 365.5 846.555 369.5 838.555 373.5Z" fill="#4472C4"/><path d="M816.5 401.167 839.888 401.167 839.888 401.833 816.5 401.833ZM838.555 397.5 846.555 401.5 838.555 405.5Z" fill="#4472C4"/><path d="M846.5 338C846.5 332.753 850.753 328.5 856 328.5 861.247 328.5 865.5 332.753 865.5 338 865.5 343.247 861.247 347.5 856 347.5 850.753 347.5 846.5 343.247 846.5 338Z" stroke="#2F528F" stroke-width="1.33333" stroke-miterlimit="8" fill="#C00000" fill-rule="evenodd"/><path d="M847.5 401C847.5 395.753 851.753 391.5 857 391.5 862.247 391.5 866.5 395.753 866.5 401 866.5 406.247 862.247 410.5 857 410.5 851.753 410.5 847.5 406.247 847.5 401Z" stroke="#2F528F" stroke-width="1.33333" stroke-miterlimit="8" fill="#FFFF00" fill-rule="evenodd"/><path d="M846.5 368C846.5 362.753 850.753 358.5 856 358.5 861.247 358.5 865.5 362.753 865.5 368 865.5 373.247 861.247 377.5 856 377.5 850.753 377.5 846.5 373.247 846.5 368Z" stroke="#2F528F" stroke-width="1.33333" stroke-miterlimit="8" fill="#FFC000" fill-rule="evenodd"/><path d="M846.5 528C846.5 522.753 850.753 518.5 856 518.5 861.247 518.5 865.5 522.753 865.5 528 865.5 533.247 861.247 537.5 856 537.5 850.753 537.5 846.5 533.247 846.5 528Z" fill="#FFFFFF" fill-rule="evenodd"/><path d="M856 518.5 856 537.5M846.5 528 865.5 528" stroke="#000000" stroke-width="1.33333" stroke-miterlimit="8" fill="none" fill-rule="evenodd"/><path d="M846.5 528C846.5 522.753 850.753 518.5 856 518.5 861.247 518.5 865.5 522.753 865.5 528 865.5 533.247 861.247 537.5 856 537.5 850.753 537.5 846.5 533.247 846.5 528Z" stroke="#000000" stroke-width="1.33333" stroke-miterlimit="8" fill="none" fill-rule="evenodd"/><path d="M846.5 558.5C846.5 552.977 850.753 548.5 856 548.5 861.247 548.5 865.5 552.977 865.5 558.5 865.5 564.023 861.247 568.5 856 568.5 850.753 568.5 846.5 564.023 846.5 558.5Z" fill="#FFFFFF" fill-rule="evenodd"/><path d="M856 548.5 856 568.5M846.5 558.5 865.5 558.5" stroke="#000000" stroke-width="1.33333" stroke-miterlimit="8" fill="none" fill-rule="evenodd"/><path d="M846.5 558.5C846.5 552.977 850.753 548.5 856 548.5 861.247 548.5 865.5 552.977 865.5 558.5 865.5 564.023 861.247 568.5 856 568.5 850.753 568.5 846.5 564.023 846.5 558.5Z" stroke="#000000" stroke-width="1.33333" stroke-miterlimit="8" fill="none" fill-rule="evenodd"/><path d="M846.5 591.5C846.5 585.977 850.753 581.5 856 581.5 861.247 581.5 865.5 585.977 865.5 591.5 865.5 597.023 861.247 601.5 856 601.5 850.753 601.5 846.5 597.023 846.5 591.5Z" fill="#FFFFFF" fill-rule="evenodd"/><path d="M856 581.5 856 601.5M846.5 591.5 865.5 591.5" stroke="#000000" stroke-width="1.33333" stroke-miterlimit="8" fill="none" fill-rule="evenodd"/><path d="M846.5 591.5C846.5 585.977 850.753 581.5 856 581.5 861.247 581.5 865.5 585.977 865.5 591.5 865.5 597.023 861.247 601.5 856 601.5 850.753 601.5 846.5 597.023 846.5 591.5Z" stroke="#000000" stroke-width="1.33333" stroke-miterlimit="8" fill="none" fill-rule="evenodd"/><path d="M865.5 527.167 888.888 527.167 888.888 527.833 865.5 527.833ZM887.555 523.5 895.555 527.5 887.555 531.5Z" fill="#4472C4"/><path d="M865.5 558.167 888.888 558.167 888.888 558.833 865.5 558.833ZM887.555 554.5 895.555 558.5 887.555 562.5Z" fill="#4472C4"/><path d="M865.5 590.167 888.888 590.167 888.888 590.833 865.5 590.833ZM887.555 586.5 895.555 590.5 887.555 594.5Z" fill="#4472C4"/><path d="M846.5 475.5C846.5 469.977 850.753 465.5 856 465.5 861.247 465.5 865.5 469.977 865.5 475.5 865.5 481.023 861.247 485.5 856 485.5 850.753 485.5 846.5 481.023 846.5 475.5Z" fill="#FFFFFF" fill-rule="evenodd"/><path d="M856 465.5 856 485.5M846.5 475.5 865.5 475.5" stroke="#000000" stroke-width="1.33333" stroke-miterlimit="8" fill="none" fill-rule="evenodd"/><path d="M846.5 475.5C846.5 469.977 850.753 465.5 856 465.5 861.247 465.5 865.5 469.977 865.5 475.5 865.5 481.023 861.247 485.5 856 485.5 850.753 485.5 846.5 481.023 846.5 475.5Z" stroke="#000000" stroke-width="1.33333" stroke-miterlimit="8" fill="none" fill-rule="evenodd"/><path d="M855.833 410.495 856.583 459.267 855.916 459.278 855.167 410.505ZM860.228 457.878 856.352 465.938 852.229 458.001Z" fill="#4472C4"/><path d="M856.833 485.5 856.833 511.403 856.167 511.403 856.167 485.5ZM860.5 510.07 856.5 518.07 852.5 510.07Z" fill="#4472C4"/><path d="M865.5 148.167 888.888 148.167 888.888 148.833 865.5 148.833ZM887.555 144.5 895.555 148.5 887.555 152.5Z" fill="#4472C4"/><path d="M865.5 179.167 888.888 179.167 888.888 179.833 865.5 179.833ZM887.555 175.5 895.555 179.5 887.555 183.5Z" fill="#4472C4"/><path d="M865.5 211.167 888.888 211.167 888.888 211.833 865.5 211.833ZM887.555 207.5 895.555 211.5 887.555 215.5Z" fill="#4472C4"/><path d="M865.5 338.167 888.888 338.167 888.888 338.833 865.5 338.833ZM887.555 334.5 895.555 338.5 887.555 342.5Z" fill="#4472C4"/><path d="M865.5 369.167 888.888 369.167 888.888 369.833 865.5 369.833ZM887.555 365.5 895.555 369.5 887.555 373.5Z" fill="#4472C4"/><path d="M865.5 401.167 888.888 401.167 888.888 401.833 865.5 401.833ZM887.555 397.5 895.555 401.5 887.555 405.5Z" fill="#4472C4"/><path d="M895.5 134.834C895.5 127.47 901.47 121.5 908.834 121.5L962.167 121.5C969.53 121.5 975.5 127.47 975.5 134.834L975.5 213.167C975.5 220.53 969.53 226.5 962.167 226.5L908.834 226.5C901.47 226.5 895.5 220.53 895.5 213.167Z" stroke="#2F528F" stroke-width="1.33333" stroke-miterlimit="8" fill="#DEEBF7" fill-rule="evenodd"/><text font-family="DengXian,DengXian_MSFontService,sans-serif" font-weight="700" font-size="24" transform="translate(913.747 181)">FFN</text><path d="M895.5 328C895.5 320.544 901.544 314.5 909 314.5L963 314.5C970.456 314.5 976.5 320.544 976.5 328L976.5 406C976.5 413.456 970.456 419.5 963 419.5L909 419.5C901.544 419.5 895.5 413.456 895.5 406Z" stroke="#2F528F" stroke-width="1.33333" stroke-miterlimit="8" fill="#DEEBF7" fill-rule="evenodd"/><text font-family="DengXian,DengXian_MSFontService,sans-serif" font-weight="700" font-size="24" transform="translate(914.533 374)">FFN</text><path d="M895.5 518C895.5 510.544 901.544 504.5 909 504.5L963 504.5C970.456 504.5 976.5 510.544 976.5 518L976.5 595C976.5 602.456 970.456 608.5 963 608.5L909 608.5C901.544 608.5 895.5 602.456 895.5 595Z" stroke="#2F528F" stroke-width="1.33333" stroke-miterlimit="8" fill="#DEEBF7" fill-rule="evenodd"/><text font-family="DengXian,DengXian_MSFontService,sans-serif" font-weight="700" font-size="24" transform="translate(914.533 564)">FFN</text><path d="M974.5 148.167 997.888 148.167 997.888 148.833 974.5 148.833ZM996.555 144.5 1004.55 148.5 996.555 152.5Z" fill="#4472C4"/><path d="M974.5 179.167 997.888 179.167 997.888 179.833 974.5 179.833ZM996.555 175.5 1004.55 179.5 996.555 183.5Z" fill="#4472C4"/><path d="M974.5 211.167 997.888 211.167 997.888 211.833 974.5 211.833ZM996.555 207.5 1004.55 211.5 996.555 215.5Z" fill="#4472C4"/><path d="M1004.5 148C1004.5 142.753 1008.75 138.5 1014 138.5 1019.25 138.5 1023.5 142.753 1023.5 148 1023.5 153.247 1019.25 157.5 1014 157.5 1008.75 157.5 1004.5 153.247 1004.5 148Z" stroke="#2F528F" stroke-width="1.33333" stroke-miterlimit="8" fill="#C00000" fill-rule="evenodd"/><path d="M1005.5 212C1005.5 206.753 1009.53 202.5 1014.5 202.5 1019.47 202.5 1023.5 206.753 1023.5 212 1023.5 217.247 1019.47 221.5 1014.5 221.5 1009.53 221.5 1005.5 217.247 1005.5 212Z" stroke="#2F528F" stroke-width="1.33333" stroke-miterlimit="8" fill="#FFFF00" fill-rule="evenodd"/><path d="M1004.5 178C1004.5 172.753 1008.75 168.5 1014 168.5 1019.25 168.5 1023.5 172.753 1023.5 178 1023.5 183.247 1019.25 187.5 1014 187.5 1008.75 187.5 1004.5 183.247 1004.5 178Z" stroke="#2F528F" stroke-width="1.33333" stroke-miterlimit="8" fill="#FFC000" fill-rule="evenodd"/><path d="M1023.5 148.167 1046.89 148.167 1046.89 148.833 1023.5 148.833ZM1045.55 144.5 1053.55 148.5 1045.55 152.5Z" fill="#4472C4"/><path d="M1023.5 179.167 1046.89 179.167 1046.89 179.833 1023.5 179.833ZM1045.55 175.5 1053.55 179.5 1045.55 183.5Z" fill="#4472C4"/><path d="M1023.5 211.167 1046.89 211.167 1046.89 211.833 1023.5 211.833ZM1045.55 207.5 1053.55 211.5 1045.55 215.5Z" fill="#4472C4"/><path d="M975.5 337.167 998.888 337.167 998.888 337.833 975.5 337.833ZM997.555 333.5 1005.55 337.5 997.555 341.5Z" fill="#4472C4"/><path d="M975.5 369.167 998.888 369.167 998.888 369.833 975.5 369.833ZM997.555 365.5 1005.55 369.5 997.555 373.5Z" fill="#4472C4"/><path d="M975.5 401.167 998.888 401.167 998.888 401.833 975.5 401.833ZM997.555 397.5 1005.55 401.5 997.555 405.5Z" fill="#4472C4"/><path d="M1005.5 338C1005.5 332.753 1009.75 328.5 1015 328.5 1020.25 328.5 1024.5 332.753 1024.5 338 1024.5 343.247 1020.25 347.5 1015 347.5 1009.75 347.5 1005.5 343.247 1005.5 338Z" stroke="#2F528F" stroke-width="1.33333" stroke-miterlimit="8" fill="#C00000" fill-rule="evenodd"/><path d="M1006.5 401C1006.5 395.753 1010.75 391.5 1016 391.5 1021.25 391.5 1025.5 395.753 1025.5 401 1025.5 406.247 1021.25 410.5 1016 410.5 1010.75 410.5 1006.5 406.247 1006.5 401Z" stroke="#2F528F" stroke-width="1.33333" stroke-miterlimit="8" fill="#FFFF00" fill-rule="evenodd"/><path d="M1005.5 368C1005.5 362.753 1009.75 358.5 1015 358.5 1020.25 358.5 1024.5 362.753 1024.5 368 1024.5 373.247 1020.25 377.5 1015 377.5 1009.75 377.5 1005.5 373.247 1005.5 368Z" stroke="#2F528F" stroke-width="1.33333" stroke-miterlimit="8" fill="#FFC000" fill-rule="evenodd"/><path d="M1024.5 337.167 1047.89 337.167 1047.89 337.833 1024.5 337.833ZM1046.55 333.5 1054.55 337.5 1046.55 341.5Z" fill="#4472C4"/><path d="M1024.5 369.167 1047.89 369.167 1047.89 369.833 1024.5 369.833ZM1046.55 365.5 1054.55 369.5 1046.55 373.5Z" fill="#4472C4"/><path d="M1024.5 401.167 1047.89 401.167 1047.89 401.833 1024.5 401.833ZM1046.55 397.5 1054.55 401.5 1046.55 405.5Z" fill="#4472C4"/><path d="M976.5 528.167 999.888 528.167 999.888 528.833 976.5 528.833ZM998.555 524.5 1006.55 528.5 998.555 532.5Z" fill="#4472C4"/><path d="M976.5 559.167 999.888 559.167 999.888 559.833 976.5 559.833ZM998.555 555.5 1006.55 559.5 998.555 563.5Z" fill="#4472C4"/><path d="M976.5 591.167 999.888 591.167 999.888 591.833 976.5 591.833ZM998.555 587.5 1006.55 591.5 998.555 595.5Z" fill="#4472C4"/><path d="M1025.5 528.167 1048.89 528.167 1048.89 528.833 1025.5 528.833ZM1047.55 524.5 1055.55 528.5 1047.55 532.5Z" fill="#4472C4"/><path d="M1025.5 559.167 1048.89 559.167 1048.89 559.833 1025.5 559.833ZM1047.55 555.5 1055.55 559.5 1047.55 563.5Z" fill="#4472C4"/><path d="M1025.5 591.167 1048.89 591.167 1048.89 591.833 1025.5 591.833ZM1047.55 587.5 1055.55 591.5 1047.55 595.5Z" fill="#4472C4"/><path d="M0-0.333333 0.63181-0.333333 0.63181 64.8817 0.298477 64.5483 144.039 64.5483 144.039 65.215-0.0348562 65.215-0.0348562 0 0.298477 0.333333 0 0.333333ZM142.705 60.8817 150.705 64.8817 142.705 68.8817Z" fill="#4472C4" transform="matrix(-1 1.22465e-16 1.22465e-16 1 1016.21 410.5)"/><text font-family="Cambria Math,Cambria Math_MSFontService,sans-serif" font-weight="400" font-size="24" transform="translate(950.239 464)">ğ’˜</text><text font-family="Cambria Math,Cambria Math_MSFontService,sans-serif" font-weight="400" font-size="18" transform="translate(969.073 469)">ğ’•</text><text font-family="Cambria Math,Cambria Math_MSFontService,sans-serif" font-weight="400" font-size="24" transform="translate(1076.96 560)">ğ‘</text><text font-family="Cambria Math,Cambria Math_MSFontService,sans-serif" font-weight="400" font-size="24" transform="translate(1073.51 368)">ğ‘</text><text font-family="Cambria Math,Cambria Math_MSFontService,sans-serif" font-weight="400" font-size="18" transform="translate(1086.04 373)">2</text><text font-family="Cambria Math,Cambria Math_MSFontService,sans-serif" font-weight="400" font-size="24" transform="translate(1071.16 177)">ğ‘</text><text font-family="Cambria Math,Cambria Math_MSFontService,sans-serif" font-weight="400" font-size="18" transform="translate(1083.14 182)">1</text><path d="M1005.5 527.5 1018.5 515.5 1031.5 527.5 1018.5 539.5Z" stroke="#BC8C00" stroke-width="1.33333" stroke-miterlimit="8" fill="#C00000" fill-rule="evenodd"/><path d="M1006.5 560.5 1019.5 548.5 1032.5 560.5 1019.5 572.5Z" stroke="#BC8C00" stroke-width="1.33333" stroke-miterlimit="8" fill="#FFC000" fill-rule="evenodd"/><path d="M1006.5 591 1019.5 579.5 1032.5 591 1019.5 602.5Z" stroke="#BC8C00" stroke-width="1.33333" stroke-miterlimit="8" fill="#FFFF00" fill-rule="evenodd"/></g></svg>