<svg width="1280" height="720" xmlns="http://www.w3.org/2000/svg" xmlns:xlink="http://www.w3.org/1999/xlink" overflow="hidden"><defs><clipPath id="clip0"><rect x="0" y="0" width="1280" height="720"/></clipPath></defs><g clip-path="url(#clip0)"><rect x="0" y="0" width="1280" height="720" fill="#FFFFFF"/><path d="M72.5001 226.5C72.5001 220.425 77.8726 215.5 84.5001 215.5 91.1275 215.5 96.5001 220.425 96.5001 226.5 96.5001 232.575 91.1275 237.5 84.5001 237.5 77.8726 237.5 72.5001 232.575 72.5001 226.5Z" stroke="#BC8C00" stroke-width="1.33333" stroke-miterlimit="8" fill="#C00000" fill-rule="evenodd"/><path d="M108.5 226.5C108.5 220.425 113.873 215.5 120.5 215.5 127.127 215.5 132.5 220.425 132.5 226.5 132.5 232.575 127.127 237.5 120.5 237.5 113.873 237.5 108.5 232.575 108.5 226.5Z" stroke="#507E32" stroke-width="1.33333" stroke-miterlimit="8" fill="#FFC000" fill-rule="evenodd"/><path d="M144.5 226.5C144.5 220.425 149.649 215.5 156 215.5 162.351 215.5 167.5 220.425 167.5 226.5 167.5 232.575 162.351 237.5 156 237.5 149.649 237.5 144.5 232.575 144.5 226.5Z" stroke="#507E32" stroke-width="1.33333" stroke-miterlimit="8" fill="#FFFF00" fill-rule="evenodd"/><text font-family="Times New Roman,Times New Roman_MSFontService,sans-serif" font-weight="400" font-size="21" transform="translate(196.137 234)">Per-<tspan font-size="21" x="35.24" y="0">frame queries</tspan><tspan font-size="21" x="0" y="41">Per</tspan>-<tspan font-size="21" x="35.24" y="41">clip queries</tspan></text><path d="M70.5001 261.5 83.5001 249.5 96.5001 261.5 83.5001 273.5Z" stroke="#BC8C00" stroke-width="1.33333" stroke-miterlimit="8" fill="#C00000" fill-rule="evenodd"/><path d="M106.5 261.5 119.5 249.5 132.5 261.5 119.5 273.5Z" stroke="#BC8C00" stroke-width="1.33333" stroke-miterlimit="8" fill="#FFC000" fill-rule="evenodd"/><path d="M144.5 261.5 157 249.5 169.5 261.5 157 273.5Z" stroke="#BC8C00" stroke-width="1.33333" stroke-miterlimit="8" fill="#FFFF00" fill-rule="evenodd"/><path d="M66.5001 340.667C66.5001 329.529 75.5292 320.5 86.6672 320.5L253.333 320.5C264.471 320.5 273.5 329.529 273.5 340.667L273.5 421.333C273.5 432.471 264.471 441.5 253.333 441.5L86.6672 441.5C75.5292 441.5 66.5001 432.471 66.5001 421.333Z" stroke="#2F528F" stroke-width="1.33333" stroke-miterlimit="8" fill="#ADB9CA" fill-rule="evenodd"/><text font-family="Times New Roman,Times New Roman_MSFontService,sans-serif" font-weight="400" font-size="24" transform="translate(128.648 375)">Random<tspan font-size="24" x="-20.6667" y="29">Initialization</tspan></text><path d="M273.5 381.167 304.533 381.167 304.533 381.833 273.5 381.833ZM303.2 377.5 311.2 381.5 303.2 385.5Z" fill="#4472C4"/><path d="M273.5 413.167 304.533 413.167 304.533 413.833 273.5 413.833ZM303.2 409.5 311.2 413.5 303.2 417.5Z" fill="#4472C4"/><path d="M272.5 349.167 303.533 349.167 303.533 349.833 272.5 349.833ZM302.2 345.5 310.2 349.5 302.2 353.5Z" fill="#4472C4"/><rect x="311.5" y="337.5" width="23" height="25" stroke="#2F528F" stroke-width="1.33333" stroke-miterlimit="8" fill="#E7E6E6"/><rect x="311.5" y="368.5" width="23" height="25" stroke="#2F528F" stroke-width="1.33333" stroke-miterlimit="8" fill="#E7E6E6"/><rect x="311.5" y="400.5" width="23" height="25" stroke="#2F528F" stroke-width="1.33333" stroke-miterlimit="8" fill="#E7E6E6"/><path d="M0.0163737-0.332931 11.4702 0.230373 22.8751 1.92231 34.091 4.55396 44.9932 8.18804 55.5797 12.6983 65.7281 17.9604 75.3131 23.9745 84.2726 30.6158 92.4811 37.8844 99.9388 45.6555 106.458 53.8672 112.039 62.3957 116.494 71.2424 119.82 80.3434 121.893 89.5759 122.582 98.8503 123.27 108.1 123.263 108.052 125.325 117.239 125.313 117.198 128.626 126.261 128.61 126.225 133.048 135.038 133.029 135.005 138.591 143.505 138.574 143.48 145.074 151.668 145.053 151.644 152.49 159.394 152.47 159.374 160.657 166.562 160.636 166.545 169.574 173.17 169.552 173.155 179.115 179.155 179.092 179.142 189.217 184.455 189.192 184.443 199.692 188.88 199.667 188.871 210.605 192.496 210.578 192.488 221.703 195.176 221.672 195.17 233.047 196.795 233.016 196.792 237.795 197.027 237.762 197.693 232.968 197.457 221.562 195.828 210.408 193.133 199.445 189.5 188.92 185.052 178.771 179.727 169.187 173.713 160.228 167.072 152.019 159.866 144.561 152.095 138.042 143.883 132.461 135.354 128.006 126.508 124.679 117.407 122.607 108.174 121.918 98.8997 121.23 89.6497 121.237 89.698 119.175 80.5105 119.187 80.5519 115.874 71.4894 115.89 71.5249 111.452 62.7124 111.471 62.745 105.909 54.245 105.926 54.2698 99.4264 46.0823 99.447 46.1058 92.0095 38.3558 92.029 38.3746 83.8415 31.1246 83.864 31.1428 74.9265 24.5178 74.9478 24.5324 65.3853 18.5324 65.4091 18.5459 55.2841 13.2959 55.3069 13.3067 44.7444 8.80666 44.7696 8.81623 33.8946 5.19123 33.9239 5.19952 22.7364 2.57452 22.7636 2.57972 11.3886 0.892225 11.4211 0.895431-0.0163737 0.332931ZM236.644 193.299 244.437 197.687 236.251 201.29Z" fill="#4472C4" transform="matrix(1 0 0 -1 336.5 377.188)"/><path d="M0.00184159-0.333328 22.6283-0.20832 44.5063 0.104223 55.0079 0.354261 65.0108 0.604332 74.4507 0.979429 74.4492 0.979373 83.326 1.29194 91.5176 1.66712 98.8336 2.10484 105.337 2.54257 110.78 2.98048 115.229 3.41916 118.497 3.92197 120.639 4.37616 121.384 4.91792 122.071 5.41792 121.944 5.36142 124.007 5.79892 123.988 5.79554 127.238 6.29554 127.22 6.29327 131.658 6.73077 131.651 6.73022 137.151 7.16772 137.148 7.16743 143.585 7.60493 143.579 7.6046 150.954 7.9796 150.953 7.97952 159.078 8.35452 159.077 8.35446 167.952 8.72946 167.948 8.72935 177.448 9.04185 177.446 9.04177 187.446 9.29177 197.883 9.54176 197.88 9.5417 219.755 9.8542 219.752 9.85417 235.71 9.94234 235.707 10.609 219.747 10.5208 197.869 10.2083 187.429 9.95823 177.428 9.7082 167.925 9.3956 159.048 9.02051 150.921 8.64544 143.543 8.27026 137.1 7.83244 131.595 7.39453 127.146 6.95584 123.878 6.45303 121.736 5.99884 120.991 5.45708 120.304 4.95708 120.431 5.01358 118.368 4.57608 118.387 4.57946 115.137 4.07946 115.155 4.08172 110.717 3.64422 110.723 3.64476 105.286 3.20726 105.29 3.20758 98.7901 2.77008 98.7926 2.77024 91.4801 2.33274 91.4847 2.33298 83.2972 1.95798 83.3008 1.95813 74.425 1.6456 64.9868 1.27057 64.9917 1.27073 54.9921 1.02074 44.4921 0.770739 44.4952 0.770799 22.6202 0.458299 22.6232 0.458328-0.00184159 0.333328ZM234.397 6.26836 242.375 10.3125 234.353 14.2682Z" fill="#4472C4" transform="matrix(1 0 0 -1 337.5 379.771)"/><path d="M334.515 381.167 346.029 381.668 357.432 383.171 368.645 385.552 379.606 388.809 390.255 392.818 400.403 397.578 409.987 402.966 419.008 408.98 427.28 415.497 434.738 422.454 441.323 429.791 446.844 437.507 451.363 445.416 454.693 453.584 456.768 461.883 457.457 470.223 458.145 478.535 458.136 478.482 460.198 486.732 460.184 486.687 463.496 494.812 463.477 494.772 467.977 502.647 467.959 502.619 473.459 510.306 473.436 510.277 479.998 517.59 479.977 517.569 487.415 524.506 487.394 524.488 495.644 530.988 495.622 530.973 504.622 536.973 504.601 536.959 514.163 542.334 514.142 542.323 524.267 547.073 524.242 547.063 534.867 551.063 534.845 551.056 545.782 554.306 545.757 554.299 556.944 556.674 556.919 556.67 568.294 558.17 568.265 558.167 573.104 558.377 573.075 559.043 568.221 558.832 556.819 557.329 545.605 554.948 534.644 551.691 523.995 547.682 513.847 542.922 504.263 537.534 495.242 531.52 486.97 525.003 479.512 518.046 472.927 510.709 467.407 502.993 462.887 495.084 459.557 486.916 457.483 478.617 456.793 470.278 456.105 461.965 456.114 462.018 454.052 453.768 454.066 453.813 450.754 445.688 450.773 445.728 446.273 437.853 446.291 437.882 440.791 430.194 440.814 430.223 434.252 422.91 434.273 422.931 426.835 415.994 426.856 416.012 418.606 409.512 418.628 409.527 409.628 403.527 409.649 403.541 400.087 398.166 400.108 398.177 389.983 393.427 390.008 393.437 379.383 389.437 379.405 389.445 368.468 386.195 368.493 386.201 357.306 383.826 357.331 383.831 345.956 382.331 345.986 382.333 334.486 381.833ZM571.931 554.656 579.75 559 571.584 562.649Z" fill="#4472C4"/><rect x="580.5" y="136.5" width="24" height="25" stroke="#2F528F" stroke-width="1.33333" stroke-miterlimit="8" stroke-dasharray="4 1.33333" fill="#E7E6E6"/><rect x="580.5" y="167.5" width="24" height="25" stroke="#2F528F" stroke-width="1.33333" stroke-miterlimit="8" stroke-dasharray="4 1.33333" fill="#E7E6E6"/><rect x="580.5" y="199.5" width="24" height="25" stroke="#2F528F" stroke-width="1.33333" stroke-miterlimit="8" stroke-dasharray="4 1.33333" fill="#E7E6E6"/><rect x="580.5" y="326.5" width="23" height="25" stroke="#2F528F" stroke-width="1.33333" stroke-miterlimit="8" stroke-dasharray="4 1.33333" fill="#E7E6E6"/><rect x="580.5" y="357.5" width="23" height="25" stroke="#2F528F" stroke-width="1.33333" stroke-miterlimit="8" stroke-dasharray="4 1.33333" fill="#E7E6E6"/><rect x="580.5" y="389.5" width="23" height="25" stroke="#2F528F" stroke-width="1.33333" stroke-miterlimit="8" stroke-dasharray="4 1.33333" fill="#E7E6E6"/><rect x="580.5" y="514.5" width="23" height="25" stroke="#2F528F" stroke-width="1.33333" stroke-miterlimit="8" stroke-dasharray="4 1.33333" fill="#E7E6E6"/><rect x="580.5" y="546.5" width="23" height="25" stroke="#2F528F" stroke-width="1.33333" stroke-miterlimit="8" stroke-dasharray="4 1.33333" fill="#E7E6E6"/><rect x="580.5" y="578.5" width="23" height="25" stroke="#2F528F" stroke-width="1.33333" stroke-miterlimit="8" stroke-dasharray="4 1.33333" fill="#E7E6E6"/><path d="M603.5 148.167 626.888 148.167 626.888 148.833 603.5 148.833ZM625.555 144.5 633.555 148.5 625.555 152.5Z" fill="#4472C4"/><path d="M603.5 179.167 626.888 179.167 626.888 179.833 603.5 179.833ZM625.555 175.5 633.555 179.5 625.555 183.5Z" fill="#4472C4"/><path d="M603.5 211.167 626.888 211.167 626.888 211.833 603.5 211.833ZM625.555 207.5 633.555 211.5 625.555 215.5Z" fill="#4472C4"/><path d="M635.5 129.834C635.5 125.231 639.231 121.5 643.834 121.5L677.167 121.5C681.769 121.5 685.5 125.231 685.5 129.834L685.5 226.167C685.5 230.769 681.769 234.5 677.167 234.5L643.834 234.5C639.231 234.5 635.5 230.769 635.5 226.167Z" stroke="#2F528F" stroke-width="1.33333" stroke-miterlimit="8" fill="#DEEBF7" fill-rule="evenodd"/><text font-family="DengXian,DengXian_MSFontService,sans-serif" font-weight="700" font-size="24" transform="translate(653.551 171)">S<tspan font-size="24" x="-1.57996" y="29">A</tspan></text><path d="M685.5 148.167 708.888 148.167 708.888 148.833 685.5 148.833ZM707.555 144.5 715.555 148.5 707.555 152.5Z" fill="#4472C4"/><path d="M685.5 179.167 708.888 179.167 708.888 179.833 685.5 179.833ZM707.555 175.5 715.555 179.5 707.555 183.5Z" fill="#4472C4"/><path d="M685.5 211.167 708.888 211.167 708.888 211.833 685.5 211.833ZM707.555 207.5 715.555 211.5 707.555 215.5Z" fill="#4472C4"/><path d="M715.5 148C715.5 142.753 719.753 138.5 725 138.5 730.247 138.5 734.5 142.753 734.5 148 734.5 153.247 730.247 157.5 725 157.5 719.753 157.5 715.5 153.247 715.5 148Z" stroke="#2F528F" stroke-width="1.33333" stroke-miterlimit="8" fill="#FFFFFF" fill-rule="evenodd"/><path d="M715.5 212C715.5 206.753 719.753 202.5 725 202.5 730.247 202.5 734.5 206.753 734.5 212 734.5 217.247 730.247 221.5 725 221.5 719.753 221.5 715.5 217.247 715.5 212Z" stroke="#2F528F" stroke-width="1.33333" stroke-miterlimit="8" fill="#FFFFFF" fill-rule="evenodd"/><path d="M715.5 178C715.5 172.753 719.753 168.5 725 168.5 730.247 168.5 734.5 172.753 734.5 178 734.5 183.247 730.247 187.5 725 187.5 719.753 187.5 715.5 183.247 715.5 178Z" stroke="#2F528F" stroke-width="1.33333" stroke-miterlimit="8" fill="#FFFFFF" fill-rule="evenodd"/><path d="M734.5 148.167 757.888 148.167 757.888 148.833 734.5 148.833ZM756.555 144.5 764.555 148.5 756.555 152.5Z" fill="#4472C4"/><path d="M734.5 179.167 757.888 179.167 757.888 179.833 734.5 179.833ZM756.555 175.5 764.555 179.5 756.555 183.5Z" fill="#4472C4"/><path d="M734.5 211.167 757.888 211.167 757.888 211.833 734.5 211.833ZM756.555 207.5 764.555 211.5 756.555 215.5Z" fill="#4472C4"/><path d="M765.5 127.834C765.5 123.231 769.231 119.5 773.834 119.5L807.167 119.5C811.769 119.5 815.5 123.231 815.5 127.834L815.5 224.167C815.5 228.769 811.769 232.5 807.167 232.5L773.834 232.5C769.231 232.5 765.5 228.769 765.5 224.167Z" stroke="#2F528F" stroke-width="1.33333" stroke-miterlimit="8" fill="#DEEBF7" fill-rule="evenodd"/><text font-family="DengXian,DengXian_MSFontService,sans-serif" font-weight="700" font-size="24" transform="translate(782.971 169)">C<tspan font-size="24" x="-0.666687" y="29">A</tspan></text><path d="M789.833 93.5001 789.833 112.878 789.167 112.878 789.167 93.5001ZM793.5 111.545 789.5 119.545 785.5 111.545Z" fill="#4472C4"/><path d="M605.5 339.167 628.888 339.167 628.888 339.833 605.5 339.833ZM627.555 335.5 635.555 339.5 627.555 343.5Z" fill="#4472C4"/><path d="M605.5 370.167 628.888 370.167 628.888 370.833 605.5 370.833ZM627.555 366.5 635.555 370.5 627.555 374.5Z" fill="#4472C4"/><path d="M605.5 402.167 628.888 402.167 628.888 402.833 605.5 402.833ZM627.555 398.5 635.555 402.5 627.555 406.5Z" fill="#4472C4"/><path d="M637.5 320.834C637.5 316.231 641.231 312.5 645.834 312.5L679.167 312.5C683.769 312.5 687.5 316.231 687.5 320.834L687.5 417.167C687.5 421.769 683.769 425.5 679.167 425.5L645.834 425.5C641.231 425.5 637.5 421.769 637.5 417.167Z" stroke="#2F528F" stroke-width="1.33333" stroke-miterlimit="8" fill="#DEEBF7" fill-rule="evenodd"/><text font-family="DengXian,DengXian_MSFontService,sans-serif" font-weight="700" font-size="24" transform="translate(655.158 362)">S<tspan font-size="24" x="-1.58002" y="29">A</tspan></text><path d="M687.5 339.167 710.888 339.167 710.888 339.833 687.5 339.833ZM709.555 335.5 717.555 339.5 709.555 343.5Z" fill="#4472C4"/><path d="M687.5 370.167 710.888 370.167 710.888 370.833 687.5 370.833ZM709.555 366.5 717.555 370.5 709.555 374.5Z" fill="#4472C4"/><path d="M687.5 402.167 710.888 402.167 710.888 402.833 687.5 402.833ZM709.555 398.5 717.555 402.5 709.555 406.5Z" fill="#4472C4"/><path d="M717.5 339C717.5 333.753 721.753 329.5 727 329.5 732.247 329.5 736.5 333.753 736.5 339 736.5 344.247 732.247 348.5 727 348.5 721.753 348.5 717.5 344.247 717.5 339Z" stroke="#2F528F" stroke-width="1.33333" stroke-miterlimit="8" fill="#FFFFFF" fill-rule="evenodd"/><path d="M717.5 402C717.5 396.753 721.753 392.5 727 392.5 732.247 392.5 736.5 396.753 736.5 402 736.5 407.247 732.247 411.5 727 411.5 721.753 411.5 717.5 407.247 717.5 402Z" stroke="#2F528F" stroke-width="1.33333" stroke-miterlimit="8" fill="#FFFFFF" fill-rule="evenodd"/><path d="M717.5 369C717.5 363.753 721.753 359.5 727 359.5 732.247 359.5 736.5 363.753 736.5 369 736.5 374.247 732.247 378.5 727 378.5 721.753 378.5 717.5 374.247 717.5 369Z" stroke="#2F528F" stroke-width="1.33333" stroke-miterlimit="8" fill="#FFFFFF" fill-rule="evenodd"/><path d="M736.5 339.167 759.888 339.167 759.888 339.833 736.5 339.833ZM758.555 335.5 766.555 339.5 758.555 343.5Z" fill="#4472C4"/><path d="M736.5 370.167 759.888 370.167 759.888 370.833 736.5 370.833ZM758.555 366.5 766.555 370.5 758.555 374.5Z" fill="#4472C4"/><path d="M736.5 402.167 759.888 402.167 759.888 402.833 736.5 402.833ZM758.555 398.5 766.555 402.5 758.555 406.5Z" fill="#4472C4"/><path d="M767.5 317.833C767.5 313.231 771.231 309.5 775.833 309.5L809.167 309.5C813.769 309.5 817.5 313.231 817.5 317.833L817.5 415.167C817.5 419.769 813.769 423.5 809.167 423.5L775.833 423.5C771.231 423.5 767.5 419.769 767.5 415.167Z" stroke="#2F528F" stroke-width="1.33333" stroke-miterlimit="8" fill="#DEEBF7" fill-rule="evenodd"/><text font-family="DengXian,DengXian_MSFontService,sans-serif" font-weight="700" font-size="24" transform="translate(784.577 359)">C<tspan font-size="24" x="-0.666687" y="29">A</tspan></text><path d="M602.5 527.167 625.888 527.167 625.888 527.833 602.5 527.833ZM624.555 523.5 632.555 527.5 624.555 531.5Z" fill="#4472C4"/><path d="M602.5 559.167 625.888 559.167 625.888 559.833 602.5 559.833ZM624.555 555.5 632.555 559.5 624.555 563.5Z" fill="#4472C4"/><path d="M602.5 591.167 625.888 591.167 625.888 591.833 602.5 591.833ZM624.555 587.5 632.555 591.5 624.555 595.5Z" fill="#4472C4"/><path d="M634.5 508.833C634.5 504.231 638.231 500.5 642.833 500.5L676.167 500.5C680.769 500.5 684.5 504.231 684.5 508.833L684.5 606.167C684.5 610.769 680.769 614.5 676.167 614.5L642.833 614.5C638.231 614.5 634.5 610.769 634.5 606.167Z" stroke="#2F528F" stroke-width="1.33333" stroke-miterlimit="8" fill="#DEEBF7" fill-rule="evenodd"/><text font-family="DengXian,DengXian_MSFontService,sans-serif" font-weight="700" font-size="24" transform="translate(652.681 550)">S<tspan font-size="24" x="-1.58002" y="29">A</tspan></text><path d="M686.5 527.167 840.175 527.167 840.175 527.833 686.5 527.833ZM838.841 523.5 846.841 527.5 838.841 531.5Z" fill="#4472C4"/><path d="M0.000440878-0.333333 153.675-0.130077 153.675 0.536589-0.000440878 0.333333ZM152.347-3.7985 160.342 0.212073 152.336 4.20149Z" fill="#4472C4" transform="matrix(1 0 0 -1 686.5 559.712)"/><path d="M686.5 591.167 840.175 591.167 840.175 591.833 686.5 591.833ZM838.842 587.5 846.842 591.5 838.842 595.5Z" fill="#4472C4"/><path d="M816.5 148.167 839.888 148.167 839.888 148.833 816.5 148.833ZM838.555 144.5 846.555 148.5 838.555 152.5Z" fill="#4472C4"/><path d="M816.5 179.167 839.888 179.167 839.888 179.833 816.5 179.833ZM838.555 175.5 846.555 179.5 838.555 183.5Z" fill="#4472C4"/><path d="M816.5 211.167 839.888 211.167 839.888 211.833 816.5 211.833ZM838.555 207.5 846.555 211.5 838.555 215.5Z" fill="#4472C4"/><path d="M846.5 148C846.5 142.753 850.753 138.5 856 138.5 861.247 138.5 865.5 142.753 865.5 148 865.5 153.247 861.247 157.5 856 157.5 850.753 157.5 846.5 153.247 846.5 148Z" stroke="#2F528F" stroke-width="1.33333" stroke-miterlimit="8" fill="#C00000" fill-rule="evenodd"/><path d="M847.5 212C847.5 206.753 851.753 202.5 857 202.5 862.247 202.5 866.5 206.753 866.5 212 866.5 217.247 862.247 221.5 857 221.5 851.753 221.5 847.5 217.247 847.5 212Z" stroke="#2F528F" stroke-width="1.33333" stroke-miterlimit="8" fill="#FFFF00" fill-rule="evenodd"/><path d="M846.5 178C846.5 172.753 850.753 168.5 856 168.5 861.247 168.5 865.5 172.753 865.5 178 865.5 183.247 861.247 187.5 856 187.5 850.753 187.5 846.5 183.247 846.5 178Z" stroke="#2F528F" stroke-width="1.33333" stroke-miterlimit="8" fill="#FFC000" fill-rule="evenodd"/><path d="M0.333333-1.19061e-06 0.333414 22.7263-0.333252 22.7263-0.333333 1.19061e-06ZM4.00008 21.393 0.000104987 29.393-3.99992 21.393Z" fill="#4472C4" transform="matrix(1 0 0 -1 792.5 452.893)"/><path d="M816.5 338.167 839.888 338.167 839.888 338.833 816.5 338.833ZM838.555 334.5 846.555 338.5 838.555 342.5Z" fill="#4472C4"/><path d="M816.5 369.167 839.888 369.167 839.888 369.833 816.5 369.833ZM838.555 365.5 846.555 369.5 838.555 373.5Z" fill="#4472C4"/><path d="M816.5 401.167 839.888 401.167 839.888 401.833 816.5 401.833ZM838.555 397.5 846.555 401.5 838.555 405.5Z" fill="#4472C4"/><path d="M846.5 338C846.5 332.753 850.753 328.5 856 328.5 861.247 328.5 865.5 332.753 865.5 338 865.5 343.247 861.247 347.5 856 347.5 850.753 347.5 846.5 343.247 846.5 338Z" stroke="#2F528F" stroke-width="1.33333" stroke-miterlimit="8" fill="#C00000" fill-rule="evenodd"/><path d="M847.5 401C847.5 395.753 851.753 391.5 857 391.5 862.247 391.5 866.5 395.753 866.5 401 866.5 406.247 862.247 410.5 857 410.5 851.753 410.5 847.5 406.247 847.5 401Z" stroke="#2F528F" stroke-width="1.33333" stroke-miterlimit="8" fill="#FFFF00" fill-rule="evenodd"/><path d="M846.5 368C846.5 362.753 850.753 358.5 856 358.5 861.247 358.5 865.5 362.753 865.5 368 865.5 373.247 861.247 377.5 856 377.5 850.753 377.5 846.5 373.247 846.5 368Z" stroke="#2F528F" stroke-width="1.33333" stroke-miterlimit="8" fill="#FFC000" fill-rule="evenodd"/><path d="M846.5 528C846.5 522.753 850.753 518.5 856 518.5 861.247 518.5 865.5 522.753 865.5 528 865.5 533.247 861.247 537.5 856 537.5 850.753 537.5 846.5 533.247 846.5 528Z" fill="#FFFFFF" fill-rule="evenodd"/><path d="M856 518.5 856 537.5M846.5 528 865.5 528" stroke="#000000" stroke-width="1.33333" stroke-miterlimit="8" fill="none" fill-rule="evenodd"/><path d="M846.5 528C846.5 522.753 850.753 518.5 856 518.5 861.247 518.5 865.5 522.753 865.5 528 865.5 533.247 861.247 537.5 856 537.5 850.753 537.5 846.5 533.247 846.5 528Z" stroke="#000000" stroke-width="1.33333" stroke-miterlimit="8" fill="none" fill-rule="evenodd"/><path d="M846.5 558.5C846.5 552.977 850.753 548.5 856 548.5 861.247 548.5 865.5 552.977 865.5 558.5 865.5 564.023 861.247 568.5 856 568.5 850.753 568.5 846.5 564.023 846.5 558.5Z" fill="#FFFFFF" fill-rule="evenodd"/><path d="M856 548.5 856 568.5M846.5 558.5 865.5 558.5" stroke="#000000" stroke-width="1.33333" stroke-miterlimit="8" fill="none" fill-rule="evenodd"/><path d="M846.5 558.5C846.5 552.977 850.753 548.5 856 548.5 861.247 548.5 865.5 552.977 865.5 558.5 865.5 564.023 861.247 568.5 856 568.5 850.753 568.5 846.5 564.023 846.5 558.5Z" stroke="#000000" stroke-width="1.33333" stroke-miterlimit="8" fill="none" fill-rule="evenodd"/><path d="M846.5 591.5C846.5 585.977 850.753 581.5 856 581.5 861.247 581.5 865.5 585.977 865.5 591.5 865.5 597.023 861.247 601.5 856 601.5 850.753 601.5 846.5 597.023 846.5 591.5Z" fill="#FFFFFF" fill-rule="evenodd"/><path d="M856 581.5 856 601.5M846.5 591.5 865.5 591.5" stroke="#000000" stroke-width="1.33333" stroke-miterlimit="8" fill="none" fill-rule="evenodd"/><path d="M846.5 591.5C846.5 585.977 850.753 581.5 856 581.5 861.247 581.5 865.5 585.977 865.5 591.5 865.5 597.023 861.247 601.5 856 601.5 850.753 601.5 846.5 597.023 846.5 591.5Z" stroke="#000000" stroke-width="1.33333" stroke-miterlimit="8" fill="none" fill-rule="evenodd"/><path d="M865.5 527.167 888.888 527.167 888.888 527.833 865.5 527.833ZM887.555 523.5 895.555 527.5 887.555 531.5Z" fill="#4472C4"/><path d="M865.5 558.167 888.888 558.167 888.888 558.833 865.5 558.833ZM887.555 554.5 895.555 558.5 887.555 562.5Z" fill="#4472C4"/><path d="M865.5 590.167 888.888 590.167 888.888 590.833 865.5 590.833ZM887.555 586.5 895.555 590.5 887.555 594.5Z" fill="#4472C4"/><path d="M846.5 475.5C846.5 469.977 850.753 465.5 856 465.5 861.247 465.5 865.5 469.977 865.5 475.5 865.5 481.023 861.247 485.5 856 485.5 850.753 485.5 846.5 481.023 846.5 475.5Z" fill="#FFFFFF" fill-rule="evenodd"/><path d="M856 465.5 856 485.5M846.5 475.5 865.5 475.5" stroke="#000000" stroke-width="1.33333" stroke-miterlimit="8" fill="none" fill-rule="evenodd"/><path d="M846.5 475.5C846.5 469.977 850.753 465.5 856 465.5 861.247 465.5 865.5 469.977 865.5 475.5 865.5 481.023 861.247 485.5 856 485.5 850.753 485.5 846.5 481.023 846.5 475.5Z" stroke="#000000" stroke-width="1.33333" stroke-miterlimit="8" fill="none" fill-rule="evenodd"/><path d="M855.833 410.495 856.583 459.267 855.916 459.278 855.167 410.505ZM860.228 457.878 856.352 465.938 852.229 458.001Z" fill="#4472C4"/><path d="M856.833 485.5 856.833 511.403 856.167 511.403 856.167 485.5ZM860.5 510.07 856.5 518.07 852.5 510.07Z" fill="#4472C4"/><path d="M865.5 148.167 888.888 148.167 888.888 148.833 865.5 148.833ZM887.555 144.5 895.555 148.5 887.555 152.5Z" fill="#4472C4"/><path d="M865.5 179.167 888.888 179.167 888.888 179.833 865.5 179.833ZM887.555 175.5 895.555 179.5 887.555 183.5Z" fill="#4472C4"/><path d="M865.5 211.167 888.888 211.167 888.888 211.833 865.5 211.833ZM887.555 207.5 895.555 211.5 887.555 215.5Z" fill="#4472C4"/><path d="M865.5 338.167 888.888 338.167 888.888 338.833 865.5 338.833ZM887.555 334.5 895.555 338.5 887.555 342.5Z" fill="#4472C4"/><path d="M865.5 369.167 888.888 369.167 888.888 369.833 865.5 369.833ZM887.555 365.5 895.555 369.5 887.555 373.5Z" fill="#4472C4"/><path d="M865.5 401.167 888.888 401.167 888.888 401.833 865.5 401.833ZM887.555 397.5 895.555 401.5 887.555 405.5Z" fill="#4472C4"/><path d="M895.5 134.834C895.5 127.47 901.47 121.5 908.834 121.5L962.167 121.5C969.53 121.5 975.5 127.47 975.5 134.834L975.5 213.167C975.5 220.53 969.53 226.5 962.167 226.5L908.834 226.5C901.47 226.5 895.5 220.53 895.5 213.167Z" stroke="#2F528F" stroke-width="1.33333" stroke-miterlimit="8" fill="#DEEBF7" fill-rule="evenodd"/><text font-family="DengXian,DengXian_MSFontService,sans-serif" font-weight="700" font-size="24" transform="translate(913.747 181)">FFN</text><path d="M895.5 328C895.5 320.544 901.544 314.5 909 314.5L963 314.5C970.456 314.5 976.5 320.544 976.5 328L976.5 406C976.5 413.456 970.456 419.5 963 419.5L909 419.5C901.544 419.5 895.5 413.456 895.5 406Z" stroke="#2F528F" stroke-width="1.33333" stroke-miterlimit="8" fill="#DEEBF7" fill-rule="evenodd"/><text font-family="DengXian,DengXian_MSFontService,sans-serif" font-weight="700" font-size="24" transform="translate(914.533 374)">FFN</text><path d="M895.5 518C895.5 510.544 901.544 504.5 909 504.5L963 504.5C970.456 504.5 976.5 510.544 976.5 518L976.5 595C976.5 602.456 970.456 608.5 963 608.5L909 608.5C901.544 608.5 895.5 602.456 895.5 595Z" stroke="#2F528F" stroke-width="1.33333" stroke-miterlimit="8" fill="#DEEBF7" fill-rule="evenodd"/><text font-family="DengXian,DengXian_MSFontService,sans-serif" font-weight="700" font-size="24" transform="translate(914.533 564)">FFN</text><path d="M974.5 148.167 997.888 148.167 997.888 148.833 974.5 148.833ZM996.555 144.5 1004.55 148.5 996.555 152.5Z" fill="#4472C4"/><path d="M974.5 179.167 997.888 179.167 997.888 179.833 974.5 179.833ZM996.555 175.5 1004.55 179.5 996.555 183.5Z" fill="#4472C4"/><path d="M974.5 211.167 997.888 211.167 997.888 211.833 974.5 211.833ZM996.555 207.5 1004.55 211.5 996.555 215.5Z" fill="#4472C4"/><path d="M1004.5 148C1004.5 142.753 1008.75 138.5 1014 138.5 1019.25 138.5 1023.5 142.753 1023.5 148 1023.5 153.247 1019.25 157.5 1014 157.5 1008.75 157.5 1004.5 153.247 1004.5 148Z" stroke="#2F528F" stroke-width="1.33333" stroke-miterlimit="8" fill="#C00000" fill-rule="evenodd"/><path d="M1005.5 212C1005.5 206.753 1009.53 202.5 1014.5 202.5 1019.47 202.5 1023.5 206.753 1023.5 212 1023.5 217.247 1019.47 221.5 1014.5 221.5 1009.53 221.5 1005.5 217.247 1005.5 212Z" stroke="#2F528F" stroke-width="1.33333" stroke-miterlimit="8" fill="#FFFF00" fill-rule="evenodd"/><path d="M1004.5 178C1004.5 172.753 1008.75 168.5 1014 168.5 1019.25 168.5 1023.5 172.753 1023.5 178 1023.5 183.247 1019.25 187.5 1014 187.5 1008.75 187.5 1004.5 183.247 1004.5 178Z" stroke="#2F528F" stroke-width="1.33333" stroke-miterlimit="8" fill="#FFC000" fill-rule="evenodd"/><path d="M1023.5 148.167 1046.89 148.167 1046.89 148.833 1023.5 148.833ZM1045.55 144.5 1053.55 148.5 1045.55 152.5Z" fill="#4472C4"/><path d="M1023.5 179.167 1046.89 179.167 1046.89 179.833 1023.5 179.833ZM1045.55 175.5 1053.55 179.5 1045.55 183.5Z" fill="#4472C4"/><path d="M1023.5 211.167 1046.89 211.167 1046.89 211.833 1023.5 211.833ZM1045.55 207.5 1053.55 211.5 1045.55 215.5Z" fill="#4472C4"/><path d="M975.5 337.167 998.888 337.167 998.888 337.833 975.5 337.833ZM997.555 333.5 1005.55 337.5 997.555 341.5Z" fill="#4472C4"/><path d="M975.5 369.167 998.888 369.167 998.888 369.833 975.5 369.833ZM997.555 365.5 1005.55 369.5 997.555 373.5Z" fill="#4472C4"/><path d="M975.5 401.167 998.888 401.167 998.888 401.833 975.5 401.833ZM997.555 397.5 1005.55 401.5 997.555 405.5Z" fill="#4472C4"/><path d="M1005.5 338C1005.5 332.753 1009.75 328.5 1015 328.5 1020.25 328.5 1024.5 332.753 1024.5 338 1024.5 343.247 1020.25 347.5 1015 347.5 1009.75 347.5 1005.5 343.247 1005.5 338Z" stroke="#2F528F" stroke-width="1.33333" stroke-miterlimit="8" fill="#C00000" fill-rule="evenodd"/><path d="M1006.5 401C1006.5 395.753 1010.75 391.5 1016 391.5 1021.25 391.5 1025.5 395.753 1025.5 401 1025.5 406.247 1021.25 410.5 1016 410.5 1010.75 410.5 1006.5 406.247 1006.5 401Z" stroke="#2F528F" stroke-width="1.33333" stroke-miterlimit="8" fill="#FFFF00" fill-rule="evenodd"/><path d="M1005.5 368C1005.5 362.753 1009.75 358.5 1015 358.5 1020.25 358.5 1024.5 362.753 1024.5 368 1024.5 373.247 1020.25 377.5 1015 377.5 1009.75 377.5 1005.5 373.247 1005.5 368Z" stroke="#2F528F" stroke-width="1.33333" stroke-miterlimit="8" fill="#FFC000" fill-rule="evenodd"/><path d="M1024.5 337.167 1047.89 337.167 1047.89 337.833 1024.5 337.833ZM1046.55 333.5 1054.55 337.5 1046.55 341.5Z" fill="#4472C4"/><path d="M1024.5 369.167 1047.89 369.167 1047.89 369.833 1024.5 369.833ZM1046.55 365.5 1054.55 369.5 1046.55 373.5Z" fill="#4472C4"/><path d="M1024.5 401.167 1047.89 401.167 1047.89 401.833 1024.5 401.833ZM1046.55 397.5 1054.55 401.5 1046.55 405.5Z" fill="#4472C4"/><path d="M976.5 528.167 999.888 528.167 999.888 528.833 976.5 528.833ZM998.555 524.5 1006.55 528.5 998.555 532.5Z" fill="#4472C4"/><path d="M976.5 559.167 999.888 559.167 999.888 559.833 976.5 559.833ZM998.555 555.5 1006.55 559.5 998.555 563.5Z" fill="#4472C4"/><path d="M976.5 591.167 999.888 591.167 999.888 591.833 976.5 591.833ZM998.555 587.5 1006.55 591.5 998.555 595.5Z" fill="#4472C4"/><path d="M1025.5 528.167 1048.89 528.167 1048.89 528.833 1025.5 528.833ZM1047.55 524.5 1055.55 528.5 1047.55 532.5Z" fill="#4472C4"/><path d="M1025.5 559.167 1048.89 559.167 1048.89 559.833 1025.5 559.833ZM1047.55 555.5 1055.55 559.5 1047.55 563.5Z" fill="#4472C4"/><path d="M1025.5 591.167 1048.89 591.167 1048.89 591.833 1025.5 591.833ZM1047.55 587.5 1055.55 591.5 1047.55 595.5Z" fill="#4472C4"/><path d="M0-0.333333 0.63181-0.333333 0.63181 64.8817 0.298477 64.5483 144.039 64.5483 144.039 65.215-0.0348562 65.215-0.0348562 0 0.298477 0.333333 0 0.333333ZM142.705 60.8817 150.705 64.8817 142.705 68.8817Z" fill="#4472C4" transform="matrix(-1 1.22465e-16 1.22465e-16 1 1016.21 410.5)"/><text font-family="Cambria Math,Cambria Math_MSFontService,sans-serif" font-weight="400" font-size="24" transform="translate(950.239 464)">ğ’˜<tspan font-size="18" x="18.8333" y="5">ğ’•</tspan><tspan font-size="24" x="126.718" y="96">ğ‘</tspan><tspan font-size="24" x="123.272" y="-96">ğ‘</tspan><tspan font-size="18" x="135.805" y="-91">2</tspan><tspan font-size="24" x="120.919" y="-287">ğ‘</tspan><tspan font-size="18" x="132.899" y="-282">1</tspan></text><path d="M1005.5 527.5 1018.5 515.5 1031.5 527.5 1018.5 539.5Z" stroke="#BC8C00" stroke-width="1.33333" stroke-miterlimit="8" fill="#C00000" fill-rule="evenodd"/><path d="M1006.5 560.5 1019.5 548.5 1032.5 560.5 1019.5 572.5Z" stroke="#BC8C00" stroke-width="1.33333" stroke-miterlimit="8" fill="#FFC000" fill-rule="evenodd"/><path d="M1006.5 591 1019.5 579.5 1032.5 591 1019.5 602.5Z" stroke="#BC8C00" stroke-width="1.33333" stroke-miterlimit="8" fill="#FFFF00" fill-rule="evenodd"/></g></svg>