<svg width="3585" height="1795" xmlns="http://www.w3.org/2000/svg" xmlns:xlink="http://www.w3.org/1999/xlink" overflow="hidden"><defs><clipPath id="clip0"><rect x="224" y="318" width="3585" height="1795"/></clipPath></defs><g clip-path="url(#clip0)" transform="translate(-224 -318)"><path d="M249.5 776C249.5 755.289 267.632 738.5 290 738.5 312.367 738.5 330.5 755.289 330.5 776 330.5 796.711 312.367 813.5 290 813.5 267.632 813.5 249.5 796.711 249.5 776Z" stroke="#BC8C00" stroke-width="4.58333" stroke-miterlimit="8" fill="#C00000" fill-rule="evenodd"/><path d="M371.5 776C371.5 755.289 389.856 738.5 412.5 738.5 435.144 738.5 453.5 755.289 453.5 776 453.5 796.711 435.144 813.5 412.5 813.5 389.856 813.5 371.5 796.711 371.5 776Z" stroke="#507E32" stroke-width="4.58333" stroke-miterlimit="8" fill="#FFC000" fill-rule="evenodd"/><path d="M494.5 776C494.5 755.289 512.633 738.5 535 738.5 557.367 738.5 575.5 755.289 575.5 776 575.5 796.711 557.367 813.5 535 813.5 512.633 813.5 494.5 796.711 494.5 776Z" stroke="#507E32" stroke-width="4.58333" stroke-miterlimit="8" fill="#FFFF00" fill-rule="evenodd"/><text font-family="Times New Roman,Times New Roman_MSFontService,sans-serif" font-weight="400" font-size="73" transform="matrix(1 0 0 1 674.22 802)">Per<tspan font-size="73" x="96.5021" y="0">-</tspan><tspan font-size="73" x="121.138" y="0">frame queries</tspan><tspan font-size="73" x="0" y="143">Per</tspan><tspan font-size="73" x="96.5021" y="143">-</tspan><tspan font-size="73" x="121.138" y="143">clip queries</tspan></text><path d="M242.5 898.5 286.5 858.5 330.5 898.5 286.5 938.5Z" stroke="#BC8C00" stroke-width="4.58333" stroke-miterlimit="8" fill="#C00000" fill-rule="evenodd"/><path d="M365.5 898.5 409.5 858.5 453.5 898.5 409.5 938.5Z" stroke="#BC8C00" stroke-width="4.58333" stroke-miterlimit="8" fill="#FFC000" fill-rule="evenodd"/><path d="M494.5 898.5 538.5 858.5 582.5 898.5 538.5 938.5Z" stroke="#BC8C00" stroke-width="4.58333" stroke-miterlimit="8" fill="#FFFF00" fill-rule="evenodd"/><path d="M226.5 1170C226.5 1131.62 257.617 1100.5 296.001 1100.5L868.999 1100.5C907.383 1100.5 938.5 1131.62 938.5 1170L938.5 1448C938.5 1486.38 907.383 1517.5 868.999 1517.5L296.001 1517.5C257.617 1517.5 226.5 1486.38 226.5 1448Z" stroke="#2F528F" stroke-width="4.58333" stroke-miterlimit="8" fill="#ADB9CA" fill-rule="evenodd"/><text font-family="Times New Roman,Times New Roman_MSFontService,sans-serif" font-weight="400" font-size="83" transform="matrix(1 0 0 1 442.226 1290)">Random<tspan font-size="83" x="-71.0417" y="99">Initialization</tspan></text><path d="M938 1307.85 1044.68 1307.85 1044.68 1310.15 938 1310.15ZM1040.09 1295.25 1067.59 1309 1040.09 1322.75Z" fill="#4472C4"/><path d="M938 1418.85 1044.68 1418.85 1044.68 1421.15 938 1421.15ZM1040.09 1406.25 1067.59 1420 1040.09 1433.75Z" fill="#4472C4"/><path d="M935 1197.85 1041.68 1197.85 1041.68 1200.15 935 1200.15ZM1037.09 1185.25 1064.59 1199 1037.09 1212.75Z" fill="#4472C4"/><rect x="1069.5" y="1158.5" width="81.0001" height="85.9999" stroke="#2F528F" stroke-width="4.58333" stroke-miterlimit="8" fill="#E7E6E6"/><rect x="1069.5" y="1266.5" width="81.0001" height="86.0002" stroke="#2F528F" stroke-width="4.58333" stroke-miterlimit="8" fill="#E7E6E6"/><rect x="1069.5" y="1376.5" width="81.0001" height="86.0002" stroke="#2F528F" stroke-width="4.58333" stroke-miterlimit="8" fill="#E7E6E6"/><path d="M0.0290911-1.14546 19.7438-0.644773 39.4858 0.796709 59.1029 3.17833 78.5928 6.49976 97.9539 10.6978 117.126 15.7102 136.047 21.5367 154.717 28.1152 173.074 35.5081 191.052 43.5886 208.655 52.2963 225.883 61.756 242.609 71.7792 258.834 82.429 274.496 93.5803 289.595 105.296 304.133 117.515 317.918 130.235 331.077 143.331 343.487 156.87 355.146 170.785 365.992 185.079 375.962 199.627 385.055 214.49 393.272 229.607 400.488 244.917 406.702 260.42 411.85 276.116 415.932 291.939 418.884 307.83 420.706 323.787 421.332 339.768 421.957 355.705 421.951 355.62 423.763 371.495 423.752 371.416 426.689 387.228 426.672 387.151 430.734 402.901 430.714 402.83 435.839 418.455 435.814 418.386 442.001 433.824 441.974 433.761 449.161 449.011 449.132 448.953 457.319 464.015 457.29 463.964 466.352 478.777 466.32 478.727 476.258 493.227 476.225 493.182 487.038 507.432 487.002 507.387 498.627 521.2 498.595 521.163 510.97 534.663 510.937 534.629 524 547.754 523.961 547.717 537.773 560.342 537.737 560.31 552.237 572.498 552.202 572.47 567.265 584.157 567.23 584.131 582.855 595.318 582.816 595.292 599.004 605.917 598.964 605.892 615.651 615.892 615.613 615.87 632.738 625.245 632.697 625.224 650.322 633.974 650.279 633.954 668.217 641.954 668.178 641.937 686.491 649.312 686.444 649.295 705.007 655.857 704.962 655.842 723.837 661.655 723.79 661.641 742.915 666.641 742.868 666.63 762.18 670.818 762.13 670.808 781.568 674.12 781.513 674.112 801.076 676.487 801.01 676.481 817.486 677.528 817.341 679.815 800.832 678.766 781.21 676.384 761.72 673.063 742.359 668.865 723.186 663.852 704.265 658.026 685.657 651.447 667.302 644.055 649.324 636.037 631.657 627.266 614.493 617.869 597.766 607.846 581.539 597.195 565.877 585.981 550.78 574.267 536.245 562.049 522.394 549.39 509.296 536.229 496.889 522.694 485.23 508.841 474.383 494.546 464.413 479.998 455.32 465.135 447.103 450.018 439.887 434.708 433.673 419.205 428.525 403.509 424.443 387.686 421.491 371.795 419.669 355.838 419.043 339.857 418.418 323.92 418.424 324.005 416.612 308.13 416.623 308.209 413.686 292.397 413.703 292.474 409.64 276.724 409.661 276.795 404.536 261.17 404.561 261.239 398.374 245.801 398.401 245.864 391.214 230.614 391.243 230.672 383.056 215.61 383.085 215.66 374.023 200.848 374.055 200.898 364.117 186.398 364.15 186.443 353.337 172.193 353.372 172.236 341.747 158.361 341.78 158.399 329.405 144.899 329.442 144.937 316.317 131.875 316.348 131.905 302.598 119.217 302.638 119.252 288.138 107.065 288.173 107.093 273.11 95.4053 273.148 95.4334 257.523 84.3084 257.559 84.3329 241.371 73.7079 241.411 73.7329 224.724 63.7329 224.761 63.7544 207.574 54.3169 207.617 54.3396 190.054 45.6521 190.093 45.6701 172.155 37.6076 172.197 37.6254 153.884 30.2504 153.932 30.2682 135.307 23.7057 135.35 23.7201 116.475 17.9076 116.523 17.9211 97.3977 12.9211 97.4447 12.9323 78.1322 8.74481 78.1825 8.75455 58.745 5.44205 58.7994 5.44998 39.2369 3.07498 39.2916 3.08029 19.6041 1.64279 19.6584 1.64546-0.0290911 1.14546ZM813.368 664.754 840.312 679.562 812.299 692.233Z" fill="#4472C4" transform="matrix(1 0 0 -1 1155 1296.55)"/><path d="M0.00367252-1.14583 39.0056-1.02082 77.6987-0.770785 115.83-0.270708 153.023 0.354399 171.153 0.792 188.966 1.16701 206.345 1.66714 223.409 2.10467 239.914 2.66733 255.978 3.22987 271.482 3.79254 286.423 4.41767 300.8 5.04275 314.494 5.66805 327.5 6.35586 339.757 7.04376 351.265 7.79428 361.958 8.54471 371.841 9.29528 380.855 10.0464 388.93 10.8602 396.072 11.612 402.29 12.4285 407.391 13.2471 411.515 14.0721 414.6 14.9253 416.685 15.9678 417.471 16.9889 418.096 17.8014 417.67 17.4607 419.42 18.2732 419.265 18.2143 422.202 19.0893 422.1 19.0639 426.162 19.8764 426.119 19.8686 431.182 20.6811 431.139 20.6752 437.264 21.4252 437.255 21.424 444.38 22.2365 444.364 22.2349 452.489 23.0474 452.47 23.0456 461.47 23.7956 461.462 23.795 471.337 24.545 471.33 24.5445 482.018 25.2945 482.006 25.2937 493.506 25.9812 493.502 25.981 505.752 26.6685 505.748 26.6683 518.748 27.3558 532.432 28.0431 532.425 28.0427 546.8 28.6677 561.735 29.2927 561.729 29.2924 577.229 29.8549 593.29 30.4174 593.285 30.4172 609.785 30.9172 626.784 31.4172 626.779 31.417 644.216 31.8545 662.028 32.292 662.024 32.2919 680.149 32.6669 680.144 32.6668 717.332 33.2918 717.326 33.2917 755.388 33.7292 755.384 33.7292 794.134 34.0417 794.129 34.0417 810.212 34.0932 810.205 36.3849 794.119 36.3333 755.364 36.0208 717.296 35.5832 680.104 34.9581 661.974 34.583 644.159 34.1455 626.719 33.7079 609.715 33.2078 593.213 32.7077 577.146 32.1451 561.643 31.5825 546.7 30.9573 532.321 30.3321 518.627 29.6442 505.625 28.9566 493.371 28.2689 481.863 27.5809 471.166 26.8303 461.284 26.0797 452.27 25.3286 444.128 24.5144 436.99 23.7004 430.84 22.9472 425.734 22.1279 421.599 21.3007 418.531 20.3869 416.45 19.4211 415.654 18.3861 415.029 17.5736 415.425 17.8999 413.675 17.0249 413.882 17.1044 410.945 16.2919 411.025 16.3111 406.963 15.4986 407.006 15.5064 401.943 14.6939 401.976 14.6986 395.788 13.8861 395.818 13.8895 388.693 13.1395 388.698 13.1401 380.635 12.3276 380.655 12.3294 371.655 11.5794 371.663 11.58 361.788 10.83 361.795 10.8305 351.107 10.0805 351.113 10.0809 339.613 9.3309 339.623 9.33153 327.373 8.64403 327.377 8.64423 314.377 7.95673 314.385 7.95714 300.7 7.33225 286.327 6.70733 271.39 6.08233 271.396 6.08258 255.897 5.52013 239.836 4.95767 223.336 4.39517 223.346 4.39546 206.28 3.95786 188.905 3.45786 188.913 3.45808 171.097 3.083 152.972 2.6455 152.981 2.64567 115.793 2.02067 115.797 2.02073 77.6725 1.52073 77.6801 1.52081 38.9926 1.27081 38.9963 1.27083-0.00367252 1.14583ZM805.669 21.4744 833.125 35.3125 805.581 48.9743Z" fill="#4472C4" transform="matrix(1 0 0 -1 1160 1305.31)"/><path d="M1150.03 1307.85 1169.8 1308.29 1189.54 1309.61 1209.27 1311.74 1228.82 1314.75 1248.24 1318.44 1267.47 1322.95 1286.45 1328.21 1305.12 1334.16 1323.53 1340.74 1341.57 1348.01 1359.23 1355.84 1376.52 1364.29 1393.31 1373.31 1409.54 1382.84 1425.32 1392.92 1440.48 1403.38 1455.02 1414.41 1468.87 1425.75 1482.09 1437.54 1494.51 1449.7 1506.23 1462.24 1517.08 1475.03 1527.12 1488.08 1536.21 1501.44 1544.43 1515 1551.72 1528.75 1557.94 1542.69 1563.15 1556.83 1567.24 1571.04 1570.19 1585.31 1572.02 1599.65 1572.64 1614.01 1573.27 1628.32 1573.26 1628.23 1575.07 1642.48 1575.06 1642.39 1578 1656.58 1577.98 1656.5 1582.04 1670.62 1582.01 1670.54 1587.2 1684.6 1587.17 1684.53 1593.36 1698.41 1593.32 1698.34 1600.57 1712.03 1600.54 1711.97 1608.67 1725.47 1608.63 1725.41 1617.76 1738.73 1617.72 1738.68 1627.72 1751.68 1627.69 1751.63 1638.5 1764.38 1638.46 1764.34 1650.09 1776.84 1650.05 1776.8 1662.49 1788.93 1662.45 1788.9 1675.58 1800.65 1675.54 1800.61 1689.41 1811.92 1689.38 1811.9 1703.88 1822.84 1703.84 1822.81 1718.97 1833.31 1718.93 1833.29 1734.62 1843.35 1734.58 1843.32 1750.83 1852.82 1750.79 1852.8 1767.54 1861.8 1767.5 1861.78 1784.69 1870.22 1784.65 1870.2 1802.28 1878.01 1802.24 1878 1820.24 1885.25 1820.2 1885.23 1838.57 1891.8 1838.53 1891.78 1857.22 1897.72 1857.18 1897.71 1876.12 1902.96 1876.07 1902.95 1895.2 1907.45 1895.15 1907.44 1914.53 1911.12 1914.49 1911.12 1933.99 1914.12 1933.94 1914.11 1953.62 1916.24 1953.57 1916.23 1970.1 1917.19 1969.97 1919.47 1953.41 1918.52 1933.66 1916.39 1914.12 1913.38 1894.7 1909.68 1875.53 1905.17 1856.55 1899.91 1837.82 1893.96 1819.41 1887.38 1801.37 1880.12 1783.7 1872.29 1766.48 1863.83 1749.69 1854.81 1733.4 1845.29 1717.68 1835.2 1702.52 1824.68 1687.98 1813.71 1674.07 1802.37 1660.9 1790.59 1648.43 1778.43 1636.77 1765.89 1625.92 1753.1 1615.89 1740.05 1606.72 1726.68 1598.56 1713.13 1591.28 1699.38 1585.06 1685.43 1579.85 1671.29 1575.76 1657.09 1572.81 1642.81 1570.98 1628.47 1570.36 1614.11 1569.73 1599.8 1569.74 1599.89 1567.93 1585.64 1567.94 1585.73 1565 1571.54 1565.02 1571.63 1560.96 1557.5 1560.99 1557.58 1555.8 1543.52 1555.83 1543.59 1549.64 1529.72 1549.67 1529.79 1542.42 1516.1 1542.46 1516.16 1534.27 1502.66 1534.3 1502.71 1525.24 1489.39 1525.28 1489.45 1515.28 1476.45 1515.31 1476.49 1504.5 1463.74 1504.54 1463.78 1492.85 1451.28 1492.89 1451.32 1480.51 1439.19 1480.55 1439.23 1467.36 1427.48 1467.4 1427.51 1453.59 1416.2 1453.62 1416.23 1439.12 1405.23 1439.16 1405.26 1424.04 1394.82 1424.07 1394.84 1408.32 1384.78 1408.36 1384.8 1392.17 1375.3 1392.21 1375.32 1375.46 1366.32 1375.5 1366.34 1358.25 1357.9 1358.29 1357.92 1340.66 1350.11 1340.7 1350.13 1322.7 1342.88 1322.74 1342.89 1304.36 1336.33 1304.4 1336.34 1285.78 1330.4 1285.82 1330.42 1266.88 1325.17 1266.93 1325.18 1247.74 1320.68 1247.79 1320.69 1228.41 1317 1228.45 1317.01 1208.95 1314.01 1209 1314.01 1189.31 1311.89 1189.36 1311.89 1169.67 1310.58 1169.72 1310.58 1149.97 1310.15ZM1965.93 1904.43 1992.94 1919.12 1964.98 1931.91Z" fill="#4472C4"/><rect x="1995.5" y="466.5" width="80" height="85.9999" stroke="#2F528F" stroke-width="4.58333" stroke-miterlimit="8" stroke-dasharray="13.75 4.58333" fill="#E7E6E6"/><rect x="1995.5" y="574.5" width="80" height="85.9999" stroke="#2F528F" stroke-width="4.58333" stroke-miterlimit="8" stroke-dasharray="13.75 4.58333" fill="#E7E6E6"/><rect x="1995.5" y="684.5" width="80" height="85.9999" stroke="#2F528F" stroke-width="4.58333" stroke-miterlimit="8" stroke-dasharray="13.75 4.58333" fill="#E7E6E6"/><rect x="1993.5" y="1119.5" width="80.0001" height="85.9999" stroke="#2F528F" stroke-width="4.58333" stroke-miterlimit="8" stroke-dasharray="13.75 4.58333" fill="#E7E6E6"/><rect x="1993.5" y="1227.5" width="80.0001" height="85.9999" stroke="#2F528F" stroke-width="4.58333" stroke-miterlimit="8" stroke-dasharray="13.75 4.58333" fill="#E7E6E6"/><rect x="1993.5" y="1337.5" width="80.0001" height="85.9999" stroke="#2F528F" stroke-width="4.58333" stroke-miterlimit="8" stroke-dasharray="13.75 4.58333" fill="#E7E6E6"/><rect x="1993.5" y="1768.5" width="80.0001" height="85.9999" stroke="#2F528F" stroke-width="4.58333" stroke-miterlimit="8" stroke-dasharray="13.75 4.58333" fill="#E7E6E6"/><rect x="1993.5" y="1876.5" width="80.0001" height="85.9999" stroke="#2F528F" stroke-width="4.58333" stroke-miterlimit="8" stroke-dasharray="13.75 4.58333" fill="#E7E6E6"/><rect x="1993.5" y="1986.5" width="80.0001" height="86" stroke="#2F528F" stroke-width="4.58333" stroke-miterlimit="8" stroke-dasharray="13.75 4.58333" fill="#E7E6E6"/><path d="M2073 507.854 2153.4 507.855 2153.4 510.146 2073 510.146ZM2148.81 495.25 2176.31 509 2148.81 522.75Z" fill="#4472C4"/><path d="M2073 615.854 2153.4 615.854 2153.4 618.146 2073 618.146ZM2148.81 603.25 2176.31 617 2148.81 630.75Z" fill="#4472C4"/><path d="M2073 725.854 2153.4 725.854 2153.4 728.146 2073 728.146ZM2148.81 713.25 2176.31 727 2148.81 740.75Z" fill="#4472C4"/><path d="M2183.5 445.167C2183.5 429.335 2196.33 416.5 2212.17 416.5L2326.83 416.5C2342.67 416.5 2355.5 429.335 2355.5 445.167L2355.5 777.833C2355.5 793.665 2342.67 806.5 2326.83 806.5L2212.17 806.5C2196.33 806.5 2183.5 793.665 2183.5 777.833Z" stroke="#2F528F" stroke-width="4.58333" stroke-miterlimit="8" fill="#DEEBF7" fill-rule="evenodd"/><text font-family="DengXian,DengXian_MSFontService,sans-serif" font-weight="700" font-size="83" transform="matrix(1 0 0 1 2246.58 589)">S<tspan font-size="83" x="-5.43115" y="99">A</tspan></text><path d="M2355 506.854 2435.4 506.855 2435.4 509.146 2355 509.146ZM2430.81 494.25 2458.31 508 2430.81 521.75Z" fill="#4472C4"/><path d="M2355 614.854 2435.4 614.854 2435.4 617.146 2355 617.146ZM2430.81 602.25 2458.31 616 2430.81 629.75Z" fill="#4472C4"/><path d="M2355 724.854 2435.4 724.854 2435.4 727.146 2355 727.146ZM2430.81 712.25 2458.31 726 2430.81 739.75Z" fill="#4472C4"/><path d="M2458.5 509C2458.5 491.051 2473.05 476.5 2491 476.5 2508.95 476.5 2523.5 491.051 2523.5 509 2523.5 526.949 2508.95 541.5 2491 541.5 2473.05 541.5 2458.5 526.949 2458.5 509Z" stroke="#2F528F" stroke-width="4.58333" stroke-miterlimit="8" fill="#FFFFFF" fill-rule="evenodd"/><path d="M2459.5 726C2459.5 708.051 2474.05 693.5 2492 693.5 2509.95 693.5 2524.5 708.051 2524.5 726 2524.5 743.949 2509.95 758.5 2492 758.5 2474.05 758.5 2459.5 743.949 2459.5 726Z" stroke="#2F528F" stroke-width="4.58333" stroke-miterlimit="8" fill="#FFFFFF" fill-rule="evenodd"/><path d="M2458.5 611C2458.5 593.051 2473.05 578.5 2491 578.5 2508.95 578.5 2523.5 593.051 2523.5 611 2523.5 628.949 2508.95 643.5 2491 643.5 2473.05 643.5 2458.5 628.949 2458.5 611Z" stroke="#2F528F" stroke-width="4.58333" stroke-miterlimit="8" fill="#FFFFFF" fill-rule="evenodd"/><path d="M2523 506.854 2603.4 506.855 2603.4 509.146 2523 509.146ZM2598.81 494.25 2626.31 508 2598.81 521.75Z" fill="#4472C4"/><path d="M2523 614.854 2603.4 614.854 2603.4 617.146 2523 617.146ZM2598.81 602.25 2626.31 616 2598.81 629.75Z" fill="#4472C4"/><path d="M2523 724.854 2603.4 724.854 2603.4 727.146 2523 727.146ZM2598.81 712.25 2626.31 726 2598.81 739.75Z" fill="#4472C4"/><path d="M2631.5 437.167C2631.5 421.335 2644.33 408.5 2660.17 408.5L2774.83 408.5C2790.67 408.5 2803.5 421.335 2803.5 437.167L2803.5 769.833C2803.5 785.665 2790.67 798.5 2774.83 798.5L2660.17 798.5C2644.33 798.5 2631.5 785.665 2631.5 769.833Z" stroke="#2F528F" stroke-width="4.58333" stroke-miterlimit="8" fill="#DEEBF7" fill-rule="evenodd"/><text font-family="DengXian,DengXian_MSFontService,sans-serif" font-weight="700" font-size="83" transform="matrix(1 0 0 1 2691.46 581)">C<tspan font-size="83" x="-2.29175" y="99">A</tspan></text><path d="M2713.15 318 2713.15 384.612 2710.85 384.612 2710.85 318ZM2725.75 380.029 2712 407.529 2698.25 380.029Z" fill="#4472C4"/><path d="M2079 1163.85 2159.4 1163.85 2159.4 1166.15 2079 1166.15ZM2154.81 1151.25 2182.31 1165 2154.81 1178.75Z" fill="#4472C4"/><path d="M2079 1271.85 2159.4 1271.85 2159.4 1274.15 2079 1274.15ZM2154.81 1259.25 2182.31 1273 2154.81 1286.75Z" fill="#4472C4"/><path d="M2079 1381.85 2159.4 1381.85 2159.4 1384.15 2079 1384.15ZM2154.81 1369.25 2182.31 1383 2154.81 1396.75Z" fill="#4472C4"/><path d="M2188.5 1100.17C2188.5 1084.33 2201.34 1071.5 2217.17 1071.5L2331.83 1071.5C2347.67 1071.5 2360.5 1084.33 2360.5 1100.17L2360.5 1433.83C2360.5 1449.67 2347.67 1462.5 2331.83 1462.5L2217.17 1462.5C2201.34 1462.5 2188.5 1449.67 2188.5 1433.83Z" stroke="#2F528F" stroke-width="4.58333" stroke-miterlimit="8" fill="#DEEBF7" fill-rule="evenodd"/><text font-family="DengXian,DengXian_MSFontService,sans-serif" font-weight="700" font-size="83" transform="matrix(1 0 0 1 2252.1 1244)">S<tspan font-size="83" x="-5.43115" y="99">A</tspan></text><path d="M2360 1162.85 2440.4 1162.85 2440.4 1165.15 2360 1165.15ZM2435.81 1150.25 2463.31 1164 2435.81 1177.75Z" fill="#4472C4"/><path d="M2360 1270.85 2440.4 1270.85 2440.4 1273.15 2360 1273.15ZM2435.81 1258.25 2463.31 1272 2435.81 1285.75Z" fill="#4472C4"/><path d="M2360 1380.85 2440.4 1380.85 2440.4 1383.15 2360 1383.15ZM2435.81 1368.25 2463.31 1382 2435.81 1395.75Z" fill="#4472C4"/><path d="M2464.5 1165C2464.5 1147.05 2479.05 1132.5 2497 1132.5 2514.95 1132.5 2529.5 1147.05 2529.5 1165 2529.5 1182.95 2514.95 1197.5 2497 1197.5 2479.05 1197.5 2464.5 1182.95 2464.5 1165Z" stroke="#2F528F" stroke-width="4.58333" stroke-miterlimit="8" fill="#FFFFFF" fill-rule="evenodd"/><path d="M2465.5 1382C2465.5 1364.05 2480.05 1349.5 2498 1349.5 2515.95 1349.5 2530.5 1364.05 2530.5 1382 2530.5 1399.95 2515.95 1414.5 2498 1414.5 2480.05 1414.5 2465.5 1399.95 2465.5 1382Z" stroke="#2F528F" stroke-width="4.58333" stroke-miterlimit="8" fill="#FFFFFF" fill-rule="evenodd"/><path d="M2464.5 1267C2464.5 1249.05 2479.05 1234.5 2497 1234.5 2514.95 1234.5 2529.5 1249.05 2529.5 1267 2529.5 1284.95 2514.95 1299.5 2497 1299.5 2479.05 1299.5 2464.5 1284.95 2464.5 1267Z" stroke="#2F528F" stroke-width="4.58333" stroke-miterlimit="8" fill="#FFFFFF" fill-rule="evenodd"/><path d="M2529 1162.85 2609.4 1162.85 2609.4 1165.15 2529 1165.15ZM2604.81 1150.25 2632.31 1164 2604.81 1177.75Z" fill="#4472C4"/><path d="M2529 1270.85 2609.4 1270.85 2609.4 1273.15 2529 1273.15ZM2604.81 1258.25 2632.31 1272 2604.81 1285.75Z" fill="#4472C4"/><path d="M2529 1380.85 2609.4 1380.85 2609.4 1383.15 2529 1383.15ZM2604.81 1368.25 2632.31 1382 2604.81 1395.75Z" fill="#4472C4"/><path d="M2636.5 1093.17C2636.5 1077.33 2649.33 1064.5 2665.17 1064.5L2779.83 1064.5C2795.67 1064.5 2808.5 1077.33 2808.5 1093.17L2808.5 1425.83C2808.5 1441.67 2795.67 1454.5 2779.83 1454.5L2665.17 1454.5C2649.33 1454.5 2636.5 1441.67 2636.5 1425.83Z" stroke="#2F528F" stroke-width="4.58333" stroke-miterlimit="8" fill="#DEEBF7" fill-rule="evenodd"/><text font-family="DengXian,DengXian_MSFontService,sans-serif" font-weight="700" font-size="83" transform="matrix(1 0 0 1 2696.98 1237)">C<tspan font-size="83" x="-2.29175" y="99">A</tspan></text><path d="M2070 1811.85 2150.4 1811.85 2150.4 1814.15 2070 1814.15ZM2145.81 1799.25 2173.31 1813 2145.81 1826.75Z" fill="#4472C4"/><path d="M2070 1919.85 2150.4 1919.85 2150.4 1922.15 2070 1922.15ZM2145.81 1907.25 2173.31 1921 2145.81 1934.75Z" fill="#4472C4"/><path d="M2070 2029.85 2150.4 2029.85 2150.4 2032.15 2070 2032.15ZM2145.81 2017.25 2173.31 2031 2145.81 2044.75Z" fill="#4472C4"/><path d="M2180.5 1748.17C2180.5 1732.33 2193.33 1719.5 2209.17 1719.5L2323.83 1719.5C2339.67 1719.5 2352.5 1732.33 2352.5 1748.17L2352.5 2081.83C2352.5 2097.67 2339.67 2110.5 2323.83 2110.5L2209.17 2110.5C2193.33 2110.5 2180.5 2097.67 2180.5 2081.83Z" stroke="#2F528F" stroke-width="4.58333" stroke-miterlimit="8" fill="#DEEBF7" fill-rule="evenodd"/><text font-family="DengXian,DengXian_MSFontService,sans-serif" font-weight="700" font-size="83" transform="matrix(1 0 0 1 2243.59 1893)">S<tspan font-size="83" x="-5.43115" y="99">A</tspan></text><path d="M2358 1811.85 2886.26 1811.85 2886.26 1814.15 2358 1814.15ZM2881.67 1799.25 2909.17 1813 2881.67 1826.75Z" fill="#4472C4"/><path d="M0.00151552-1.14583 528.259-0.44714 528.256 1.84453-0.00151552 1.14583ZM523.692-13.0574 551.174 0.729003 523.656 14.4426Z" fill="#4472C4" transform="matrix(1 0 0 -1 2358 1920.73)"/><path d="M2358 2029.85 2886.26 2029.85 2886.26 2032.15 2358 2032.15ZM2881.67 2017.25 2909.17 2031 2881.67 2044.75Z" fill="#4472C4"/><path d="M2806 506.854 2886.4 506.855 2886.4 509.146 2806 509.146ZM2881.81 494.25 2909.31 508 2881.81 521.75Z" fill="#4472C4"/><path d="M2806 614.854 2886.4 614.854 2886.4 617.146 2806 617.146ZM2881.81 602.25 2909.31 616 2881.81 629.75Z" fill="#4472C4"/><path d="M2806 724.854 2886.4 724.854 2886.4 727.146 2806 727.146ZM2881.81 712.25 2909.31 726 2881.81 739.75Z" fill="#4472C4"/><path d="M2909.5 509C2909.5 491.051 2924.05 476.5 2942 476.5 2959.95 476.5 2974.5 491.051 2974.5 509 2974.5 526.949 2959.95 541.5 2942 541.5 2924.05 541.5 2909.5 526.949 2909.5 509Z" stroke="#2F528F" stroke-width="4.58333" stroke-miterlimit="8" fill="#C00000" fill-rule="evenodd"/><path d="M2911.5 726C2911.5 708.051 2926.05 693.5 2944 693.5 2961.95 693.5 2976.5 708.051 2976.5 726 2976.5 743.949 2961.95 758.5 2944 758.5 2926.05 758.5 2911.5 743.949 2911.5 726Z" stroke="#2F528F" stroke-width="4.58333" stroke-miterlimit="8" fill="#FFFF00" fill-rule="evenodd"/><path d="M2909.5 611C2909.5 593.051 2924.05 578.5 2942 578.5 2959.95 578.5 2974.5 593.051 2974.5 611 2974.5 628.949 2959.95 643.5 2942 643.5 2924.05 643.5 2909.5 628.949 2909.5 611Z" stroke="#2F528F" stroke-width="4.58333" stroke-miterlimit="8" fill="#FFC000" fill-rule="evenodd"/><path d="M1.14583-4.09273e-06 1.14611 78.1217-1.14555 78.1217-1.14583 4.09273e-06ZM13.7503 73.5383 0.000360892 101.038-13.7497 73.5384Z" fill="#4472C4" transform="matrix(1 0 0 -1 2723 1556.04)"/><path d="M2806 1159.85 2886.4 1159.85 2886.4 1162.15 2806 1162.15ZM2881.81 1147.25 2909.31 1161 2881.81 1174.75Z" fill="#4472C4"/><path d="M2806 1266.85 2886.4 1266.85 2886.4 1269.15 2806 1269.15ZM2881.81 1254.25 2909.31 1268 2881.81 1281.75Z" fill="#4472C4"/><path d="M2806 1376.85 2886.4 1376.85 2886.4 1379.15 2806 1379.15ZM2881.81 1364.25 2909.31 1378 2881.81 1391.75Z" fill="#4472C4"/><path d="M2909.5 1161C2909.5 1143.05 2924.05 1128.5 2942 1128.5 2959.95 1128.5 2974.5 1143.05 2974.5 1161 2974.5 1178.95 2959.95 1193.5 2942 1193.5 2924.05 1193.5 2909.5 1178.95 2909.5 1161Z" stroke="#2F528F" stroke-width="4.58333" stroke-miterlimit="8" fill="#C00000" fill-rule="evenodd"/><path d="M2911.5 1379C2911.5 1361.05 2926.05 1346.5 2944 1346.5 2961.95 1346.5 2976.5 1361.05 2976.5 1379 2976.5 1396.95 2961.95 1411.5 2944 1411.5 2926.05 1411.5 2911.5 1396.95 2911.5 1379Z" stroke="#2F528F" stroke-width="4.58333" stroke-miterlimit="8" fill="#FFFF00" fill-rule="evenodd"/><path d="M2909.5 1264C2909.5 1246.05 2924.05 1231.5 2942 1231.5 2959.95 1231.5 2974.5 1246.05 2974.5 1264 2974.5 1281.95 2959.95 1296.5 2942 1296.5 2924.05 1296.5 2909.5 1281.95 2909.5 1264Z" stroke="#2F528F" stroke-width="4.58333" stroke-miterlimit="8" fill="#FFC000" fill-rule="evenodd"/><path d="M2909.5 1813.5C2909.5 1794.72 2924.05 1779.5 2942 1779.5 2959.95 1779.5 2974.5 1794.72 2974.5 1813.5 2974.5 1832.28 2959.95 1847.5 2942 1847.5 2924.05 1847.5 2909.5 1832.28 2909.5 1813.5Z" fill="#FFFFFF" fill-rule="evenodd"/><path d="M2942 1779.5 2942 1847.5M2909.5 1813.5 2974.5 1813.5" stroke="#000000" stroke-width="4.58333" stroke-miterlimit="8" fill="none" fill-rule="evenodd"/><path d="M2909.5 1813.5C2909.5 1794.72 2924.05 1779.5 2942 1779.5 2959.95 1779.5 2974.5 1794.72 2974.5 1813.5 2974.5 1832.28 2959.95 1847.5 2942 1847.5 2924.05 1847.5 2909.5 1832.28 2909.5 1813.5Z" stroke="#000000" stroke-width="4.58333" stroke-miterlimit="8" fill="none" fill-rule="evenodd"/><path d="M2909.5 1919.5C2909.5 1900.72 2924.05 1885.5 2942 1885.5 2959.95 1885.5 2974.5 1900.72 2974.5 1919.5 2974.5 1938.28 2959.95 1953.5 2942 1953.5 2924.05 1953.5 2909.5 1938.28 2909.5 1919.5Z" fill="#FFFFFF" fill-rule="evenodd"/><path d="M2942 1885.5 2942 1953.5M2909.5 1919.5 2974.5 1919.5" stroke="#000000" stroke-width="4.58333" stroke-miterlimit="8" fill="none" fill-rule="evenodd"/><path d="M2909.5 1919.5C2909.5 1900.72 2924.05 1885.5 2942 1885.5 2959.95 1885.5 2974.5 1900.72 2974.5 1919.5 2974.5 1938.28 2959.95 1953.5 2942 1953.5 2924.05 1953.5 2909.5 1938.28 2909.5 1919.5Z" stroke="#000000" stroke-width="4.58333" stroke-miterlimit="8" fill="none" fill-rule="evenodd"/><path d="M2909.5 2031.5C2909.5 2012.72 2924.05 1997.5 2942 1997.5 2959.95 1997.5 2974.5 2012.72 2974.5 2031.5 2974.5 2050.28 2959.95 2065.5 2942 2065.5 2924.05 2065.5 2909.5 2050.28 2909.5 2031.5Z" fill="#FFFFFF" fill-rule="evenodd"/><path d="M2942 1997.5 2942 2065.5M2909.5 2031.5 2974.5 2031.5" stroke="#000000" stroke-width="4.58333" stroke-miterlimit="8" fill="none" fill-rule="evenodd"/><path d="M2909.5 2031.5C2909.5 2012.72 2924.05 1997.5 2942 1997.5 2959.95 1997.5 2974.5 2012.72 2974.5 2031.5 2974.5 2050.28 2959.95 2065.5 2942 2065.5 2924.05 2065.5 2909.5 2050.28 2909.5 2031.5Z" stroke="#000000" stroke-width="4.58333" stroke-miterlimit="8" fill="none" fill-rule="evenodd"/><path d="M2974 1809.85 3054.4 1809.85 3054.4 1812.15 2974 1812.15ZM3049.81 1797.25 3077.31 1811 3049.81 1824.75Z" fill="#4472C4"/><path d="M2974 1917.85 3054.4 1917.85 3054.4 1920.15 2974 1920.15ZM3049.81 1905.25 3077.31 1919 3049.81 1932.75Z" fill="#4472C4"/><path d="M2974 2027.85 3054.4 2027.85 3054.4 2030.15 2974 2030.15ZM3049.81 2015.25 3077.31 2029 3049.81 2042.75Z" fill="#4472C4"/><path d="M2909.5 1634C2909.5 1615.5 2924.05 1600.5 2942 1600.5 2959.95 1600.5 2974.5 1615.5 2974.5 1634 2974.5 1652.5 2959.95 1667.5 2942 1667.5 2924.05 1667.5 2909.5 1652.5 2909.5 1634Z" fill="#FFFFFF" fill-rule="evenodd"/><path d="M2942 1600.5 2942 1667.5M2909.5 1634 2974.5 1634" stroke="#000000" stroke-width="4.58333" stroke-miterlimit="8" fill="none" fill-rule="evenodd"/><path d="M2909.5 1634C2909.5 1615.5 2924.05 1600.5 2942 1600.5 2959.95 1600.5 2974.5 1615.5 2974.5 1634 2974.5 1652.5 2959.95 1667.5 2942 1667.5 2924.05 1667.5 2909.5 1652.5 2909.5 1634Z" stroke="#000000" stroke-width="4.58333" stroke-miterlimit="8" fill="none" fill-rule="evenodd"/><path d="M2940.15 1408.98 2942.72 1576.64 2940.43 1576.67 2937.85 1409.02ZM2955.25 1571.86 2941.93 1599.57 2927.76 1572.28Z" fill="#4472C4"/><path d="M2943.15 1667 2943.15 1756.04 2940.85 1756.04 2940.85 1667ZM2955.75 1751.46 2942 1778.96 2928.25 1751.46Z" fill="#4472C4"/><path d="M2974 506.854 3054.4 506.855 3054.4 509.146 2974 509.146ZM3049.81 494.25 3077.31 508 3049.81 521.75Z" fill="#4472C4"/><path d="M2974 614.854 3054.4 614.854 3054.4 617.146 2974 617.146ZM3049.81 602.25 3077.31 616 3049.81 629.75Z" fill="#4472C4"/><path d="M2974 724.854 3054.4 724.854 3054.4 727.146 2974 727.146ZM3049.81 712.25 3077.31 726 3049.81 739.75Z" fill="#4472C4"/><path d="M2974 1159.85 3054.4 1159.85 3054.4 1162.15 2974 1162.15ZM3049.81 1147.25 3077.31 1161 3049.81 1174.75Z" fill="#4472C4"/><path d="M2974 1266.85 3054.4 1266.85 3054.4 1269.15 2974 1269.15ZM3049.81 1254.25 3077.31 1268 3049.81 1281.75Z" fill="#4472C4"/><path d="M2974 1376.85 3054.4 1376.85 3054.4 1379.15 2974 1379.15ZM3049.81 1364.25 3077.31 1378 3049.81 1391.75Z" fill="#4472C4"/><path d="M3075.5 462.834C3075.5 437.245 3096.24 416.5 3121.83 416.5L3307.17 416.5C3332.76 416.5 3353.5 437.245 3353.5 462.834L3353.5 730.166C3353.5 755.755 3332.76 776.5 3307.17 776.5L3121.83 776.5C3096.24 776.5 3075.5 755.755 3075.5 730.166Z" stroke="#2F528F" stroke-width="4.58333" stroke-miterlimit="8" fill="#DEEBF7" fill-rule="evenodd"/><text font-family="DengXian,DengXian_MSFontService,sans-serif" font-weight="700" font-size="83" transform="matrix(1 0 0 1 3141.01 623)">FFN</text><path d="M3078.5 1125.67C3078.5 1100.17 3099.17 1079.5 3124.67 1079.5L3309.33 1079.5C3334.83 1079.5 3355.5 1100.17 3355.5 1125.67L3355.5 1393.33C3355.5 1418.83 3334.83 1439.5 3309.33 1439.5L3124.67 1439.5C3099.17 1439.5 3078.5 1418.83 3078.5 1393.33Z" stroke="#2F528F" stroke-width="4.58333" stroke-miterlimit="8" fill="#DEEBF7" fill-rule="evenodd"/><text font-family="DengXian,DengXian_MSFontService,sans-serif" font-weight="700" font-size="83" transform="matrix(1 0 0 1 3143.71 1286)">FFN</text><path d="M3078.5 1777.67C3078.5 1752.17 3099.17 1731.5 3124.67 1731.5L3309.33 1731.5C3334.83 1731.5 3355.5 1752.17 3355.5 1777.67L3355.5 2045.33C3355.5 2070.83 3334.83 2091.5 3309.33 2091.5L3124.67 2091.5C3099.17 2091.5 3078.5 2070.83 3078.5 2045.33Z" stroke="#2F528F" stroke-width="4.58333" stroke-miterlimit="8" fill="#DEEBF7" fill-rule="evenodd"/><text font-family="DengXian,DengXian_MSFontService,sans-serif" font-weight="700" font-size="83" transform="matrix(1 0 0 1 3143.71 1939)">FFN</text><path d="M3349 506.854 3429.4 506.855 3429.4 509.146 3349 509.146ZM3424.81 494.25 3452.31 508 3424.81 521.75Z" fill="#4472C4"/><path d="M3349 614.854 3429.4 614.854 3429.4 617.146 3349 617.146ZM3424.81 602.25 3452.31 616 3424.81 629.75Z" fill="#4472C4"/><path d="M3349 724.854 3429.4 724.854 3429.4 727.146 3349 727.146ZM3424.81 712.25 3452.31 726 3424.81 739.75Z" fill="#4472C4"/><path d="M3452.5 509C3452.5 491.051 3467.05 476.5 3485 476.5 3502.95 476.5 3517.5 491.051 3517.5 509 3517.5 526.949 3502.95 541.5 3485 541.5 3467.05 541.5 3452.5 526.949 3452.5 509Z" stroke="#2F528F" stroke-width="4.58333" stroke-miterlimit="8" fill="#C00000" fill-rule="evenodd"/><path d="M3453.5 726C3453.5 708.051 3468.05 693.5 3486 693.5 3503.95 693.5 3518.5 708.051 3518.5 726 3518.5 743.949 3503.95 758.5 3486 758.5 3468.05 758.5 3453.5 743.949 3453.5 726Z" stroke="#2F528F" stroke-width="4.58333" stroke-miterlimit="8" fill="#FFFF00" fill-rule="evenodd"/><path d="M3452.5 611C3452.5 593.051 3467.05 578.5 3485 578.5 3502.95 578.5 3517.5 593.051 3517.5 611 3517.5 628.949 3502.95 643.5 3485 643.5 3467.05 643.5 3452.5 628.949 3452.5 611Z" stroke="#2F528F" stroke-width="4.58333" stroke-miterlimit="8" fill="#FFC000" fill-rule="evenodd"/><path d="M3517 506.854 3597.4 506.855 3597.4 509.146 3517 509.146ZM3592.81 494.25 3620.31 508 3592.81 521.75Z" fill="#4472C4"/><path d="M3517 614.854 3597.4 614.854 3597.4 617.146 3517 617.146ZM3592.81 602.25 3620.31 616 3592.81 629.75Z" fill="#4472C4"/><path d="M3517 724.854 3597.4 724.854 3597.4 727.146 3517 727.146ZM3592.81 712.25 3620.31 726 3592.81 739.75Z" fill="#4472C4"/><path d="M3353 1158.85 3433.4 1158.85 3433.4 1161.15 3353 1161.15ZM3428.81 1146.25 3456.31 1160 3428.81 1173.75Z" fill="#4472C4"/><path d="M3353 1265.85 3433.4 1265.85 3433.4 1268.15 3353 1268.15ZM3428.81 1253.25 3456.31 1267 3428.81 1280.75Z" fill="#4472C4"/><path d="M3353 1375.85 3433.4 1375.85 3433.4 1378.15 3353 1378.15ZM3428.81 1363.25 3456.31 1377 3428.81 1390.75Z" fill="#4472C4"/><path d="M3456.5 1160.5C3456.5 1142.83 3471.05 1128.5 3489 1128.5 3506.95 1128.5 3521.5 1142.83 3521.5 1160.5 3521.5 1178.17 3506.95 1192.5 3489 1192.5 3471.05 1192.5 3456.5 1178.17 3456.5 1160.5Z" stroke="#2F528F" stroke-width="4.58333" stroke-miterlimit="8" fill="#C00000" fill-rule="evenodd"/><path d="M3457.5 1378C3457.5 1360.05 3472.05 1345.5 3490 1345.5 3507.95 1345.5 3522.5 1360.05 3522.5 1378 3522.5 1395.95 3507.95 1410.5 3490 1410.5 3472.05 1410.5 3457.5 1395.95 3457.5 1378Z" stroke="#2F528F" stroke-width="4.58333" stroke-miterlimit="8" fill="#FFFF00" fill-rule="evenodd"/><path d="M3456.5 1263C3456.5 1245.05 3471.05 1230.5 3489 1230.5 3506.95 1230.5 3521.5 1245.05 3521.5 1263 3521.5 1280.95 3506.95 1295.5 3489 1295.5 3471.05 1295.5 3456.5 1280.95 3456.5 1263Z" stroke="#2F528F" stroke-width="4.58333" stroke-miterlimit="8" fill="#FFC000" fill-rule="evenodd"/><path d="M3521 1158.85 3601.4 1158.85 3601.4 1161.15 3521 1161.15ZM3596.81 1146.25 3624.31 1160 3596.81 1173.75Z" fill="#4472C4"/><path d="M3521 1265.85 3601.4 1265.85 3601.4 1268.15 3521 1268.15ZM3596.81 1253.25 3624.31 1267 3596.81 1280.75Z" fill="#4472C4"/><path d="M3521 1375.85 3601.4 1375.85 3601.4 1378.15 3521 1378.15ZM3596.81 1363.25 3624.31 1377 3596.81 1390.75Z" fill="#4472C4"/><path d="M3354 1813.85 3434.4 1813.85 3434.4 1816.15 3354 1816.15ZM3429.81 1801.25 3457.31 1815 3429.81 1828.75Z" fill="#4472C4"/><path d="M3354 1920.85 3434.4 1920.85 3434.4 1923.15 3354 1923.15ZM3429.81 1908.25 3457.31 1922 3429.81 1935.75Z" fill="#4472C4"/><path d="M3354 2030.85 3434.4 2030.85 3434.4 2033.15 3354 2033.15ZM3429.81 2018.25 3457.31 2032 3429.81 2045.75Z" fill="#4472C4"/><path d="M3522 1813.85 3602.4 1813.85 3602.4 1816.15 3522 1816.15ZM3597.81 1801.25 3625.31 1815 3597.81 1828.75Z" fill="#4472C4"/><path d="M3522 1920.85 3602.4 1920.85 3602.4 1923.15 3522 1923.15ZM3597.81 1908.25 3625.31 1922 3597.81 1935.75Z" fill="#4472C4"/><path d="M3522 2030.85 3602.4 2030.85 3602.4 2033.15 3522 2033.15ZM3597.81 2018.25 3625.31 2032 3597.81 2045.75Z" fill="#4472C4"/><path d="M0-1.14583 2.17185-1.14583 2.17185 223.031 1.02602 221.885 495.133 221.885 495.133 224.177-0.119818 224.177-0.119818 0 1.02602 1.14583 0 1.14583ZM490.55 209.281 518.05 223.031 490.55 236.781Z" fill="#4472C4" transform="matrix(-1 1.22465e-16 1.22465e-16 1 3492.05 1411)"/><path d="M3269.28 1555.8 3283.43 1555.8 3285.66 1585.22C3289.71 1578.95 3292.54 1573.96 3294.15 1570.24 3295.76 1566.53 3296.76 1562.6 3297.17 1558.47L3297.73 1555.8 3306.85 1555.8 3309.37 1585.26C3313.28 1579.34 3316.13 1574.53 3317.9 1570.83 3319.67 1567.13 3320.55 1564.08 3320.55 1561.67 3320.55 1560.64 3320.31 1559.87 3319.82 1559.34 3319.34 1558.81 3318.48 1558.52 3317.27 1558.47L3317.84 1555.8 3329.26 1555.8 3330.68 1558.47C3329.41 1562.12 3326.64 1567.43 3322.35 1574.42 3318.07 1581.4 3312.99 1588.8 3307.1 1596.61L3300.25 1596.61 3298.99 1584.61C3298.64 1581.37 3298.41 1578.92 3298.3 1577.27 3298.19 1575.63 3298.14 1574.32 3298.14 1573.34L3297.73 1573.34C3294.36 1580.37 3289.62 1588.12 3283.51 1596.61L3276.13 1596.61 3272.93 1565.44C3272.74 1563.55 3272.51 1562.15 3272.22 1561.25 3271.94 1560.34 3271.53 1559.67 3271.01 1559.24 3270.48 1558.81 3269.7 1558.55 3268.68 1558.47Z" fill-rule="evenodd"/><text fill="#000000" fill-opacity="0" font-family="Arial,Arial_MSFontService,sans-serif" font-size="40.811" x="3268.68" y="1591.5">ğ’˜</text><path d="M3343.22 1575.85 3350.37 1575.85 3348.64 1583.3 3355.88 1583.3 3355.07 1587.02 3347.78 1587.02 3344.89 1598.93C3344.39 1600.98 3344.05 1602.53 3343.86 1603.59 3343.67 1604.66 3343.58 1605.55 3343.58 1606.29 3343.58 1607.22 3343.75 1607.9 3344.08 1608.33 3344.42 1608.76 3344.92 1608.97 3345.57 1608.97 3346.47 1608.97 3347.39 1608.65 3348.33 1608.02 3349.27 1607.38 3350.29 1606.4 3351.38 1605.07L3353.67 1607.42C3351.67 1609.63 3349.83 1611.16 3348.15 1612.02 3346.47 1612.89 3344.49 1613.32 3342.21 1613.32 3339.94 1613.32 3338.21 1612.74 3336.99 1611.58 3335.78 1610.41 3335.18 1608.81 3335.18 1606.77 3335.18 1605.83 3335.25 1604.94 3335.39 1604.1 3335.53 1603.26 3335.81 1601.87 3336.25 1599.95L3339.32 1587.02 3334.67 1587.02 3335.24 1584.61C3336.63 1584.61 3337.68 1584.48 3338.39 1584.22 3339.11 1583.96 3339.71 1583.57 3340.2 1583.06 3340.68 1582.54 3341.15 1581.76 3341.61 1580.7 3342.07 1579.65 3342.6 1578.03 3343.22 1575.85Z" fill-rule="evenodd"/><text fill="#000000" fill-opacity="0" font-family="Arial,Arial_MSFontService,sans-serif" font-size="37.4697" x="3334.67" y="1608.63">ğ’•</text><path d="M3727.94 1888.59C3725.18 1888.59 3722.71 1889.7 3720.52 1891.93 3718.33 1894.16 3716.61 1897.17 3715.35 1900.95 3714.1 1904.73 3713.47 1908.5 3713.47 1912.26 3713.47 1915.07 3713.85 1917.17 3714.62 1918.56 3715.39 1919.95 3716.68 1920.64 3718.49 1920.64 3719.33 1920.64 3720.18 1920.46 3721.05 1920.1 3721.91 1919.73 3722.81 1919.15 3723.74 1918.33 3724.67 1917.52 3725.59 1916.54 3726.5 1915.38 3727.4 1914.21 3728.23 1913.05 3728.99 1911.87 3729.75 1910.7 3730.45 1909.3 3731.1 1907.7 3731.75 1906.09 3732.3 1904.15 3732.76 1901.88L3733.12 1900.14C3733.53 1898.19 3733.73 1896.36 3733.73 1894.63 3733.73 1892.52 3733.29 1890.99 3732.39 1890.03 3731.5 1889.07 3730.02 1888.59 3727.94 1888.59ZM3727.21 1885.39C3728.88 1885.39 3730.48 1885.58 3731.99 1885.97 3733.5 1886.37 3735.07 1887.06 3736.69 1888.06L3740.42 1885.39 3743.01 1886.03 3732.64 1932.11C3732.18 1934.17 3731.95 1935.71 3731.95 1936.73 3731.95 1937.92 3732.25 1938.77 3732.86 1939.27 3733.47 1939.77 3734.66 1940.1 3736.45 1940.26L3736.08 1942.25 3723.44 1942.25 3730.41 1915.66 3729.84 1915.42C3727.52 1918.69 3725.15 1921.17 3722.73 1922.87 3720.31 1924.58 3717.95 1925.43 3715.66 1925.43 3712.68 1925.43 3710.38 1924.31 3708.75 1922.06 3707.11 1919.82 3706.29 1916.67 3706.29 1912.62 3706.29 1907.97 3707.21 1903.51 3709.03 1899.23 3710.85 1894.94 3713.36 1891.57 3716.55 1889.09 3719.74 1886.62 3723.29 1885.39 3727.21 1885.39Z" fill-rule="evenodd"/><text fill="#000000" fill-opacity="0" font-family="Arial,Arial_MSFontService,sans-serif" font-size="56.8599" x="3706.29" y="1935.14">ğ‘</text><path d="M3716.09 1231.13C3713.33 1231.13 3710.86 1232.24 3708.67 1234.47 3706.49 1236.7 3704.76 1239.7 3703.51 1243.49 3702.25 1247.27 3701.62 1251.04 3701.62 1254.79 3701.62 1257.6 3702.01 1259.7 3702.78 1261.1 3703.55 1262.49 3704.84 1263.18 3706.65 1263.18 3707.49 1263.18 3708.34 1263 3709.2 1262.64 3710.07 1262.27 3710.96 1261.68 3711.9 1260.87 3712.83 1260.06 3713.75 1259.08 3714.65 1257.91 3715.56 1256.75 3716.39 1255.58 3717.14 1254.41 3717.9 1253.23 3718.6 1251.84 3719.25 1250.23 3719.9 1248.63 3720.45 1246.69 3720.91 1244.42L3721.28 1242.68C3721.68 1240.73 3721.89 1238.89 3721.89 1237.16 3721.89 1235.06 3721.44 1233.52 3720.55 1232.56 3719.66 1231.61 3718.17 1231.13 3716.09 1231.13ZM3715.36 1227.92C3717.04 1227.92 3718.63 1228.12 3720.14 1228.51 3721.66 1228.9 3723.22 1229.6 3724.84 1230.6L3728.57 1227.92 3731.17 1228.57 3720.79 1274.65C3720.33 1276.71 3720.1 1278.25 3720.1 1279.27 3720.1 1280.46 3720.41 1281.31 3721.01 1281.81 3721.62 1282.31 3722.82 1282.64 3724.6 1282.8L3724.24 1284.78 3711.59 1284.78 3718.56 1258.2 3718 1257.96C3715.67 1261.22 3713.3 1263.71 3710.88 1265.41 3708.46 1267.11 3706.11 1267.97 3703.81 1267.97 3700.84 1267.97 3698.54 1266.84 3696.9 1264.6 3695.27 1262.36 3694.45 1259.21 3694.45 1255.16 3694.45 1250.51 3695.36 1246.05 3697.18 1241.76 3699.01 1237.48 3701.51 1234.1 3704.7 1231.63 3707.89 1229.16 3711.44 1227.92 3715.36 1227.92Z" fill-rule="evenodd"/><text fill="#000000" fill-opacity="0" font-family="Arial,Arial_MSFontService,sans-serif" font-size="56.8599" x="3694.45" y="1277.68">ğ‘</text><path d="M3751.06 1245.63C3753.12 1245.63 3754.89 1245.86 3756.35 1246.33 3757.81 1246.8 3758.99 1247.43 3759.91 1248.22 3760.82 1249.02 3761.48 1249.97 3761.89 1251.08 3762.29 1252.19 3762.5 1253.39 3762.5 1254.68 3762.5 1255.46 3762.44 1256.18 3762.33 1256.84 3762.22 1257.51 3762.03 1258.16 3761.77 1258.81 3761.5 1259.45 3761.15 1260.1 3760.71 1260.76 3760.27 1261.42 3759.73 1262.11 3759.07 1262.85 3758.57 1263.48 3757.93 1264.22 3757.14 1265.05 3756.34 1265.88 3755.47 1266.78 3754.53 1267.73 3753.59 1268.68 3752.6 1269.68 3751.57 1270.71 3750.53 1271.74 3749.53 1272.76 3748.56 1273.78 3747.58 1274.79 3746.69 1275.77 3745.88 1276.73 3745.06 1277.68 3744.4 1278.55 3743.88 1279.35L3754.9 1279.35C3755.83 1279.35 3756.58 1279.31 3757.14 1279.24 3757.69 1279.17 3758.15 1279.02 3758.52 1278.78 3758.89 1278.54 3759.2 1278.18 3759.46 1277.69 3759.72 1277.21 3760.01 1276.54 3760.35 1275.68L3763.12 1275.68C3763.02 1277.09 3762.93 1278.51 3762.84 1279.94 3762.75 1281.37 3762.66 1282.79 3762.56 1284.2L3737.33 1284.2 3737.33 1282.65C3737.8 1281.58 3738.36 1280.52 3739 1279.48 3739.63 1278.44 3740.35 1277.38 3741.14 1276.31 3741.93 1275.24 3742.84 1274.13 3743.85 1272.99 3744.86 1271.85 3745.99 1270.66 3747.22 1269.43 3749.08 1267.56 3750.6 1265.97 3751.77 1264.65 3752.95 1263.33 3753.87 1262.15 3754.54 1261.12 3755.22 1260.09 3755.68 1259.13 3755.93 1258.26 3756.18 1257.38 3756.3 1256.45 3756.3 1255.46 3756.3 1254.45 3756.16 1253.51 3755.87 1252.66 3755.58 1251.8 3755.17 1251.08 3754.63 1250.48 3754.1 1249.89 3753.42 1249.42 3752.59 1249.08 3751.77 1248.75 3750.82 1248.58 3749.75 1248.58 3747.9 1248.58 3746.35 1249.08 3745.1 1250.08 3743.85 1251.09 3742.88 1252.54 3742.18 1254.45L3738.28 1254.45 3738.28 1248.64C3740.82 1247.59 3743.16 1246.82 3745.3 1246.34 3747.43 1245.87 3749.35 1245.63 3751.06 1245.63Z" fill-rule="evenodd"/><text fill="#000000" fill-opacity="0" font-family="Arial,Arial_MSFontService,sans-serif" font-size="38.5718" x="3737.33" y="1279.38">2</text><path d="M3708 573.665C3705.25 573.665 3702.78 574.779 3700.59 577.008 3698.4 579.237 3696.68 582.243 3695.42 586.025 3694.16 589.808 3693.54 593.577 3693.54 597.333 3693.54 600.142 3693.92 602.243 3694.69 603.635 3695.46 605.026 3696.75 605.722 3698.56 605.722 3699.4 605.722 3700.25 605.539 3701.11 605.175 3701.98 604.81 3702.88 604.222 3703.81 603.412 3704.74 602.601 3705.66 601.615 3706.57 600.453 3707.47 599.291 3708.3 598.123 3709.06 596.948 3709.81 595.772 3710.52 594.381 3711.17 592.773 3711.81 591.166 3712.37 589.227 3712.83 586.958L3713.19 585.215C3713.6 583.27 3713.8 581.432 3713.8 579.703 3713.8 577.596 3713.35 576.062 3712.46 575.103 3711.57 574.144 3710.08 573.665 3708 573.665ZM3707.27 570.463C3708.95 570.463 3710.54 570.659 3712.06 571.051 3713.57 571.442 3715.14 572.138 3716.76 573.138L3720.49 570.463 3723.08 571.111 3712.71 617.191C3712.25 619.244 3712.02 620.784 3712.02 621.811 3712.02 623 3712.32 623.844 3712.93 624.344 3713.54 624.844 3714.73 625.175 3716.51 625.337L3716.15 627.323 3703.51 627.323 3710.48 600.737 3709.91 600.494C3707.59 603.763 3705.21 606.249 3702.8 607.951 3700.38 609.653 3698.02 610.504 3695.72 610.504 3692.75 610.504 3690.45 609.383 3688.81 607.14 3687.18 604.898 3686.36 601.75 3686.36 597.697 3686.36 593.05 3687.27 588.585 3689.1 584.303 3690.92 580.021 3693.43 576.643 3696.62 574.171 3699.8 571.699 3703.36 570.463 3707.27 570.463Z" fill-rule="evenodd"/><text fill="#000000" fill-opacity="0" font-family="Arial,Arial_MSFontService,sans-serif" font-size="56.8599" x="3686.36" y="620.215">ğ‘</text><path d="M3743.39 588.376 3745.21 588.376C3745.17 589.469 3745.14 590.447 3745.12 591.31 3745.1 592.174 3745.09 593.013 3745.08 593.827 3745.07 594.641 3745.06 595.445 3745.06 596.24L3745.06 618.876C3745.06 619.492 3745.08 620.023 3745.12 620.47 3745.16 620.917 3745.22 621.294 3745.31 621.602 3745.4 621.91 3745.52 622.173 3745.67 622.391 3745.82 622.61 3745.99 622.798 3746.19 622.957 3746.43 623.195 3746.75 623.379 3747.15 623.508 3747.54 623.637 3748.05 623.746 3748.67 623.836 3749.28 623.925 3750.02 623.995 3750.88 624.044 3751.75 624.094 3752.79 624.129 3754 624.148L3754 626.74 3730.38 626.74 3730.38 624.148C3731.55 624.109 3732.54 624.064 3733.36 624.014 3734.17 623.965 3734.86 623.895 3735.44 623.806 3736.02 623.717 3736.48 623.617 3736.83 623.508 3737.17 623.399 3737.48 623.265 3737.73 623.106 3738.01 622.927 3738.25 622.734 3738.45 622.525 3738.65 622.317 3738.81 622.054 3738.93 621.736 3739.04 621.418 3739.14 621.031 3739.21 620.574 3739.28 620.117 3739.31 619.552 3739.31 618.876L3739.31 597.521C3739.31 596.746 3739.16 596.2 3738.87 595.882 3738.57 595.565 3738.14 595.406 3737.58 595.406 3736.97 595.406 3736.06 595.723 3734.84 596.359 3733.63 596.994 3732.06 597.938 3730.14 599.188 3729.88 598.732 3729.64 598.275 3729.42 597.818 3729.21 597.362 3728.98 596.895 3728.74 596.418 3731.2 595.068 3733.64 593.723 3736.05 592.383 3738.46 591.042 3740.91 589.707 3743.39 588.376Z" fill-rule="evenodd"/><text fill="#000000" fill-opacity="0" font-family="Arial,Arial_MSFontService,sans-serif" font-size="38.3633" x="3728.74" y="621.944">1</text><path d="M3455.5 1812 3499.5 1771.5 3543.5 1812 3499.5 1852.5Z" stroke="#BC8C00" stroke-width="4.58333" stroke-miterlimit="8" fill="#C00000" fill-rule="evenodd"/><path d="M3458.5 1925 3502.5 1884.5 3546.5 1925 3502.5 1965.5Z" stroke="#BC8C00" stroke-width="4.58333" stroke-miterlimit="8" fill="#FFC000" fill-rule="evenodd"/><path d="M3458.5 2031 3502.5 1990.5 3546.5 2031 3502.5 2071.5Z" stroke="#BC8C00" stroke-width="4.58333" stroke-miterlimit="8" fill="#FFFF00" fill-rule="evenodd"/></g></svg>