<svg width="3483" height="2140" xmlns="http://www.w3.org/2000/svg" xmlns:xlink="http://www.w3.org/1999/xlink" overflow="hidden"><defs><clipPath id="clip0"><rect x="326" y="71" width="3483" height="2140"/></clipPath></defs><g clip-path="url(#clip0)" transform="translate(-326 -71)"><path d="M1765.5 148C1765.5 127.289 1783.63 110.5 1806 110.5 1828.37 110.5 1846.5 127.289 1846.5 148 1846.5 168.711 1828.37 185.5 1806 185.5 1783.63 185.5 1765.5 168.711 1765.5 148Z" stroke="#BC8C00" stroke-width="4.58333" stroke-miterlimit="8" fill="#C00000" fill-rule="evenodd"/><path d="M1887.5 148C1887.5 127.289 1905.86 110.5 1928.5 110.5 1951.14 110.5 1969.5 127.289 1969.5 148 1969.5 168.711 1951.14 185.5 1928.5 185.5 1905.86 185.5 1887.5 168.711 1887.5 148Z" stroke="#507E32" stroke-width="4.58333" stroke-miterlimit="8" fill="#FFC000" fill-rule="evenodd"/><path d="M2010.5 148C2010.5 127.289 2028.63 110.5 2051 110.5 2073.37 110.5 2091.5 127.289 2091.5 148 2091.5 168.711 2073.37 185.5 2051 185.5 2028.63 185.5 2010.5 168.711 2010.5 148Z" stroke="#507E32" stroke-width="4.58333" stroke-miterlimit="8" fill="#FFFF00" fill-rule="evenodd"/><text font-family="Times New Roman,Times New Roman_MSFontService,sans-serif" font-weight="700" font-size="83" transform="matrix(1 0 0 1 2188.11 176)">Per<tspan font-size="83" x="120.679" y="0">-</tspan>frame queries<tspan font-size="83" x="0" y="116">Per</tspan><tspan font-size="83" x="120.679" y="116">-</tspan>clip queries</text><path d="M1758.5 270.5 1802.5 230.5 1846.5 270.5 1802.5 310.5Z" stroke="#BC8C00" stroke-width="4.58333" stroke-miterlimit="8" fill="#C00000" fill-rule="evenodd"/><path d="M1881.5 270.5 1925.5 230.5 1969.5 270.5 1925.5 310.5Z" stroke="#BC8C00" stroke-width="4.58333" stroke-miterlimit="8" fill="#FFC000" fill-rule="evenodd"/><path d="M2010.5 270.5 2054.5 230.5 2098.5 270.5 2054.5 310.5Z" stroke="#BC8C00" stroke-width="4.58333" stroke-miterlimit="8" fill="#FFFF00" fill-rule="evenodd"/><path d="M2073 507.854 2153.4 507.855 2153.4 510.146 2073 510.146ZM2148.81 495.25 2176.31 509 2148.81 522.75Z" fill="#4472C4"/><path d="M2073 615.854 2153.4 615.854 2153.4 618.146 2073 618.146ZM2148.81 603.25 2176.31 617 2148.81 630.75Z" fill="#4472C4"/><path d="M2073 725.854 2153.4 725.854 2153.4 728.146 2073 728.146ZM2148.81 713.25 2176.31 727 2148.81 740.75Z" fill="#4472C4"/><path d="M2183.5 445.167C2183.5 429.335 2196.33 416.5 2212.17 416.5L2326.83 416.5C2342.67 416.5 2355.5 429.335 2355.5 445.167L2355.5 777.833C2355.5 793.665 2342.67 806.5 2326.83 806.5L2212.17 806.5C2196.33 806.5 2183.5 793.665 2183.5 777.833Z" stroke="#2F528F" stroke-width="4.58333" stroke-miterlimit="8" fill="#FFF2CC" fill-rule="evenodd"/><text font-family="DengXian,DengXian_MSFontService,sans-serif" font-weight="400" font-size="55" transform="matrix(1 0 0 1 2241.44 497)">交<tspan font-size="55" x="0" y="66">叉</tspan><tspan font-size="55" x="0" y="132">注</tspan><tspan font-size="55" x="0" y="198">意</tspan><tspan font-size="55" x="0" y="264">力</tspan></text><path d="M2355 506.854 2435.4 506.855 2435.4 509.146 2355 509.146ZM2430.81 494.25 2458.31 508 2430.81 521.75Z" fill="#4472C4"/><path d="M2355 614.854 2435.4 614.854 2435.4 617.146 2355 617.146ZM2430.81 602.25 2458.31 616 2430.81 629.75Z" fill="#4472C4"/><path d="M2355 724.854 2435.4 724.854 2435.4 727.146 2355 727.146ZM2430.81 712.25 2458.31 726 2430.81 739.75Z" fill="#4472C4"/><path d="M2523 506.854 2603.4 506.855 2603.4 509.146 2523 509.146ZM2598.81 494.25 2626.31 508 2598.81 521.75Z" fill="#4472C4"/><path d="M2523 614.854 2603.4 614.854 2603.4 617.146 2523 617.146ZM2598.81 602.25 2626.31 616 2598.81 629.75Z" fill="#4472C4"/><path d="M2523 724.854 2603.4 724.854 2603.4 727.146 2523 727.146ZM2598.81 712.25 2626.31 726 2598.81 739.75Z" fill="#4472C4"/><path d="M2631.5 437.167C2631.5 421.335 2644.33 408.5 2660.17 408.5L2774.83 408.5C2790.67 408.5 2803.5 421.335 2803.5 437.167L2803.5 769.833C2803.5 785.665 2790.67 798.5 2774.83 798.5L2660.17 798.5C2644.33 798.5 2631.5 785.665 2631.5 769.833Z" stroke="#2F528F" stroke-width="4.58333" stroke-miterlimit="8" fill="#FFF2CC" fill-rule="evenodd"/><text font-family="DengXian,DengXian_MSFontService,sans-serif" font-weight="400" font-size="64" transform="matrix(1 0 0 1 2684.87 509)">自<tspan font-size="64" x="0" y="77">注</tspan><tspan font-size="64" x="0" y="154">意</tspan><tspan font-size="64" x="0" y="231">力</tspan></text><path d="M2273.15 329 2273.15 395.612 2270.85 395.612 2270.85 329ZM2285.75 391.029 2272 418.529 2258.25 391.029Z" fill="#4472C4"/><path d="M2079 1163.85 2159.4 1163.85 2159.4 1166.15 2079 1166.15ZM2154.81 1151.25 2182.31 1165 2154.81 1178.75Z" fill="#4472C4"/><path d="M2079 1271.85 2159.4 1271.85 2159.4 1274.15 2079 1274.15ZM2154.81 1259.25 2182.31 1273 2154.81 1286.75Z" fill="#4472C4"/><path d="M2079 1381.85 2159.4 1381.85 2159.4 1384.15 2079 1384.15ZM2154.81 1369.25 2182.31 1383 2154.81 1396.75Z" fill="#4472C4"/><path d="M2188.5 1100.17C2188.5 1084.33 2201.34 1071.5 2217.17 1071.5L2331.83 1071.5C2347.67 1071.5 2360.5 1084.33 2360.5 1100.17L2360.5 1433.83C2360.5 1449.67 2347.67 1462.5 2331.83 1462.5L2217.17 1462.5C2201.34 1462.5 2188.5 1449.67 2188.5 1433.83Z" stroke="#2F528F" stroke-width="4.58333" stroke-miterlimit="8" fill="#FFF2CC" fill-rule="evenodd"/><text font-family="DengXian,DengXian_MSFontService,sans-serif" font-weight="400" font-size="55" transform="matrix(1 0 0 1 2246.96 1152)">交<tspan font-size="55" x="0" y="66">叉</tspan><tspan font-size="55" x="0" y="132">注</tspan><tspan font-size="55" x="0" y="198">意</tspan><tspan font-size="55" x="0" y="264">力</tspan></text><path d="M2360 1162.85 2440.4 1162.85 2440.4 1165.15 2360 1165.15ZM2435.81 1150.25 2463.31 1164 2435.81 1177.75Z" fill="#4472C4"/><path d="M2360 1270.85 2440.4 1270.85 2440.4 1273.15 2360 1273.15ZM2435.81 1258.25 2463.31 1272 2435.81 1285.75Z" fill="#4472C4"/><path d="M2360 1380.85 2440.4 1380.85 2440.4 1383.15 2360 1383.15ZM2435.81 1368.25 2463.31 1382 2435.81 1395.75Z" fill="#4472C4"/><path d="M2529 1162.85 2609.4 1162.85 2609.4 1165.15 2529 1165.15ZM2604.81 1150.25 2632.31 1164 2604.81 1177.75Z" fill="#4472C4"/><path d="M2529 1270.85 2609.4 1270.85 2609.4 1273.15 2529 1273.15ZM2604.81 1258.25 2632.31 1272 2604.81 1285.75Z" fill="#4472C4"/><path d="M2529 1380.85 2609.4 1380.85 2609.4 1383.15 2529 1383.15ZM2604.81 1368.25 2632.31 1382 2604.81 1395.75Z" fill="#4472C4"/><path d="M2636.5 1093.17C2636.5 1077.33 2649.33 1064.5 2665.17 1064.5L2779.83 1064.5C2795.67 1064.5 2808.5 1077.33 2808.5 1093.17L2808.5 1425.83C2808.5 1441.67 2795.67 1454.5 2779.83 1454.5L2665.17 1454.5C2649.33 1454.5 2636.5 1441.67 2636.5 1425.83Z" stroke="#2F528F" stroke-width="4.58333" stroke-miterlimit="8" fill="#FFF2CC" fill-rule="evenodd"/><text font-family="DengXian,DengXian_MSFontService,sans-serif" font-weight="400" font-size="64" transform="matrix(1 0 0 1 2690.4 1165)">自<tspan font-size="64" x="0" y="77">注</tspan><tspan font-size="64" x="0" y="154">意</tspan><tspan font-size="64" x="0" y="231">力</tspan></text><path d="M2070 1811.85 2150.4 1811.85 2150.4 1814.15 2070 1814.15ZM2145.81 1799.25 2173.31 1813 2145.81 1826.75Z" fill="#4472C4"/><path d="M2070 1919.85 2150.4 1919.85 2150.4 1922.15 2070 1922.15ZM2145.81 1907.25 2173.31 1921 2145.81 1934.75Z" fill="#4472C4"/><path d="M2070 2029.85 2150.4 2029.85 2150.4 2032.15 2070 2032.15ZM2145.81 2017.25 2173.31 2031 2145.81 2044.75Z" fill="#4472C4"/><path d="M2180.5 1748.17C2180.5 1732.33 2193.33 1719.5 2209.17 1719.5L2323.83 1719.5C2339.67 1719.5 2352.5 1732.33 2352.5 1748.17L2352.5 2081.83C2352.5 2097.67 2339.67 2110.5 2323.83 2110.5L2209.17 2110.5C2193.33 2110.5 2180.5 2097.67 2180.5 2081.83Z" stroke="#2F528F" stroke-width="4.58333" stroke-miterlimit="8" fill="#FFF2CC" fill-rule="evenodd"/><text font-family="DengXian,DengXian_MSFontService,sans-serif" font-weight="400" font-size="83" transform="matrix(1 0 0 1 2244.47 1843)">T<tspan font-size="83" x="-4.0105" y="99">C</tspan><tspan font-size="83" x="-4.88135" y="198">A</tspan></text><path d="M2806 506.854 2886.4 506.855 2886.4 509.146 2806 509.146ZM2881.81 494.25 2909.31 508 2881.81 521.75Z" fill="#4472C4"/><path d="M2806 614.854 2886.4 614.854 2886.4 617.146 2806 617.146ZM2881.81 602.25 2909.31 616 2881.81 629.75Z" fill="#4472C4"/><path d="M2806 724.854 2886.4 724.854 2886.4 727.146 2806 727.146ZM2881.81 712.25 2909.31 726 2881.81 739.75Z" fill="#4472C4"/><path d="M2909.5 509C2909.5 491.051 2924.05 476.5 2942 476.5 2959.95 476.5 2974.5 491.051 2974.5 509 2974.5 526.949 2959.95 541.5 2942 541.5 2924.05 541.5 2909.5 526.949 2909.5 509Z" stroke="#2F528F" stroke-width="4.58333" stroke-miterlimit="8" fill="#C00000" fill-rule="evenodd"/><path d="M2911.5 726C2911.5 708.051 2926.05 693.5 2944 693.5 2961.95 693.5 2976.5 708.051 2976.5 726 2976.5 743.949 2961.95 758.5 2944 758.5 2926.05 758.5 2911.5 743.949 2911.5 726Z" stroke="#2F528F" stroke-width="4.58333" stroke-miterlimit="8" fill="#FFFF00" fill-rule="evenodd"/><path d="M2909.5 611C2909.5 593.051 2924.05 578.5 2942 578.5 2959.95 578.5 2974.5 593.051 2974.5 611 2974.5 628.949 2959.95 643.5 2942 643.5 2924.05 643.5 2909.5 628.949 2909.5 611Z" stroke="#2F528F" stroke-width="4.58333" stroke-miterlimit="8" fill="#FFC000" fill-rule="evenodd"/><path d="M2806 1159.85 2886.4 1159.85 2886.4 1162.15 2806 1162.15ZM2881.81 1147.25 2909.31 1161 2881.81 1174.75Z" fill="#4472C4"/><path d="M2806 1266.85 2886.4 1266.85 2886.4 1269.15 2806 1269.15ZM2881.81 1254.25 2909.31 1268 2881.81 1281.75Z" fill="#4472C4"/><path d="M2806 1376.85 2886.4 1376.85 2886.4 1379.15 2806 1379.15ZM2881.81 1364.25 2909.31 1378 2881.81 1391.75Z" fill="#4472C4"/><path d="M2909.5 1161C2909.5 1143.05 2924.05 1128.5 2942 1128.5 2959.95 1128.5 2974.5 1143.05 2974.5 1161 2974.5 1178.95 2959.95 1193.5 2942 1193.5 2924.05 1193.5 2909.5 1178.95 2909.5 1161Z" stroke="#2F528F" stroke-width="4.58333" stroke-miterlimit="8" fill="#C00000" fill-rule="evenodd"/><path d="M2911.5 1379C2911.5 1361.05 2926.05 1346.5 2944 1346.5 2961.95 1346.5 2976.5 1361.05 2976.5 1379 2976.5 1396.95 2961.95 1411.5 2944 1411.5 2926.05 1411.5 2911.5 1396.95 2911.5 1379Z" stroke="#2F528F" stroke-width="4.58333" stroke-miterlimit="8" fill="#FFFF00" fill-rule="evenodd"/><path d="M2909.5 1264C2909.5 1246.05 2924.05 1231.5 2942 1231.5 2959.95 1231.5 2974.5 1246.05 2974.5 1264 2974.5 1281.95 2959.95 1296.5 2942 1296.5 2924.05 1296.5 2909.5 1281.95 2909.5 1264Z" stroke="#2F528F" stroke-width="4.58333" stroke-miterlimit="8" fill="#FFC000" fill-rule="evenodd"/><path d="M2470.5 1647C2470.5 1628.5 2485.05 1613.5 2503 1613.5 2520.95 1613.5 2535.5 1628.5 2535.5 1647 2535.5 1665.5 2520.95 1680.5 2503 1680.5 2485.05 1680.5 2470.5 1665.5 2470.5 1647Z" fill="#FFFFFF" fill-rule="evenodd"/><path d="M2503 1613.5 2503 1680.5M2470.5 1647 2535.5 1647" stroke="#000000" stroke-width="4.58333" stroke-miterlimit="8" fill="none" fill-rule="evenodd"/><path d="M2470.5 1647C2470.5 1628.5 2485.05 1613.5 2503 1613.5 2520.95 1613.5 2535.5 1628.5 2535.5 1647 2535.5 1665.5 2520.95 1680.5 2503 1680.5 2485.05 1680.5 2470.5 1665.5 2470.5 1647Z" stroke="#000000" stroke-width="4.58333" stroke-miterlimit="8" fill="none" fill-rule="evenodd"/><path d="M2500.15 1422.98 2502.72 1590.64 2500.43 1590.67 2497.85 1423.02ZM2515.25 1585.86 2501.93 1613.57 2487.76 1586.28Z" fill="#4472C4"/><path d="M2974 506.854 3054.4 506.855 3054.4 509.146 2974 509.146ZM3049.81 494.25 3077.31 508 3049.81 521.75Z" fill="#4472C4"/><path d="M2974 614.854 3054.4 614.854 3054.4 617.146 2974 617.146ZM3049.81 602.25 3077.31 616 3049.81 629.75Z" fill="#4472C4"/><path d="M2974 724.854 3054.4 724.854 3054.4 727.146 2974 727.146ZM3049.81 712.25 3077.31 726 3049.81 739.75Z" fill="#4472C4"/><path d="M2974 1159.85 3054.4 1159.85 3054.4 1162.15 2974 1162.15ZM3049.81 1147.25 3077.31 1161 3049.81 1174.75Z" fill="#4472C4"/><path d="M2974 1266.85 3054.4 1266.85 3054.4 1269.15 2974 1269.15ZM3049.81 1254.25 3077.31 1268 3049.81 1281.75Z" fill="#4472C4"/><path d="M2974 1376.85 3054.4 1376.85 3054.4 1379.15 2974 1379.15ZM3049.81 1364.25 3077.31 1378 3049.81 1391.75Z" fill="#4472C4"/><path d="M3075.5 462.834C3075.5 437.245 3096.24 416.5 3121.83 416.5L3307.17 416.5C3332.76 416.5 3353.5 437.245 3353.5 462.834L3353.5 730.166C3353.5 755.755 3332.76 776.5 3307.17 776.5L3121.83 776.5C3096.24 776.5 3075.5 755.755 3075.5 730.166Z" stroke="#2F528F" stroke-width="4.58333" stroke-miterlimit="8" fill="#FFF2CC" fill-rule="evenodd"/><text font-family="DengXian,DengXian_MSFontService,sans-serif" font-weight="400" font-size="83" transform="matrix(1 0 0 1 3144.16 623)">FFN</text><path d="M3078.5 1125.67C3078.5 1100.17 3099.17 1079.5 3124.67 1079.5L3309.33 1079.5C3334.83 1079.5 3355.5 1100.17 3355.5 1125.67L3355.5 1393.33C3355.5 1418.83 3334.83 1439.5 3309.33 1439.5L3124.67 1439.5C3099.17 1439.5 3078.5 1418.83 3078.5 1393.33Z" stroke="#2F528F" stroke-width="4.58333" stroke-miterlimit="8" fill="#FFF2CC" fill-rule="evenodd"/><text font-family="DengXian,DengXian_MSFontService,sans-serif" font-weight="400" font-size="83" transform="matrix(1 0 0 1 3146.86 1286)">FFN</text><path d="M3078.5 1777.67C3078.5 1752.17 3099.17 1731.5 3124.67 1731.5L3309.33 1731.5C3334.83 1731.5 3355.5 1752.17 3355.5 1777.67L3355.5 2045.33C3355.5 2070.83 3334.83 2091.5 3309.33 2091.5L3124.67 2091.5C3099.17 2091.5 3078.5 2070.83 3078.5 2045.33Z" stroke="#2F528F" stroke-width="4.58333" stroke-miterlimit="8" fill="#FFF2CC" fill-rule="evenodd"/><text font-family="DengXian,DengXian_MSFontService,sans-serif" font-weight="400" font-size="83" transform="matrix(1 0 0 1 3146.86 1939)">FFN</text><path d="M3349 506.854 3429.4 506.855 3429.4 509.146 3349 509.146ZM3424.81 494.25 3452.31 508 3424.81 521.75Z" fill="#4472C4"/><path d="M3349 614.854 3429.4 614.854 3429.4 617.146 3349 617.146ZM3424.81 602.25 3452.31 616 3424.81 629.75Z" fill="#4472C4"/><path d="M3349 724.854 3429.4 724.854 3429.4 727.146 3349 727.146ZM3424.81 712.25 3452.31 726 3424.81 739.75Z" fill="#4472C4"/><path d="M3452.5 509C3452.5 491.051 3467.05 476.5 3485 476.5 3502.95 476.5 3517.5 491.051 3517.5 509 3517.5 526.949 3502.95 541.5 3485 541.5 3467.05 541.5 3452.5 526.949 3452.5 509Z" stroke="#2F528F" stroke-width="4.58333" stroke-miterlimit="8" fill="#C00000" fill-rule="evenodd"/><path d="M3453.5 726C3453.5 708.051 3468.05 693.5 3486 693.5 3503.95 693.5 3518.5 708.051 3518.5 726 3518.5 743.949 3503.95 758.5 3486 758.5 3468.05 758.5 3453.5 743.949 3453.5 726Z" stroke="#2F528F" stroke-width="4.58333" stroke-miterlimit="8" fill="#FFFF00" fill-rule="evenodd"/><path d="M3452.5 611C3452.5 593.051 3467.05 578.5 3485 578.5 3502.95 578.5 3517.5 593.051 3517.5 611 3517.5 628.949 3502.95 643.5 3485 643.5 3467.05 643.5 3452.5 628.949 3452.5 611Z" stroke="#2F528F" stroke-width="4.58333" stroke-miterlimit="8" fill="#FFC000" fill-rule="evenodd"/><path d="M3517 506.854 3597.4 506.855 3597.4 509.146 3517 509.146ZM3592.81 494.25 3620.31 508 3592.81 521.75Z" fill="#4472C4"/><path d="M3517 614.854 3597.4 614.854 3597.4 617.146 3517 617.146ZM3592.81 602.25 3620.31 616 3592.81 629.75Z" fill="#4472C4"/><path d="M3517 724.854 3597.4 724.854 3597.4 727.146 3517 727.146ZM3592.81 712.25 3620.31 726 3592.81 739.75Z" fill="#4472C4"/><path d="M3353 1158.85 3433.4 1158.85 3433.4 1161.15 3353 1161.15ZM3428.81 1146.25 3456.31 1160 3428.81 1173.75Z" fill="#4472C4"/><path d="M3353 1265.85 3433.4 1265.85 3433.4 1268.15 3353 1268.15ZM3428.81 1253.25 3456.31 1267 3428.81 1280.75Z" fill="#4472C4"/><path d="M3353 1375.85 3433.4 1375.85 3433.4 1378.15 3353 1378.15ZM3428.81 1363.25 3456.31 1377 3428.81 1390.75Z" fill="#4472C4"/><path d="M3456.5 1160.5C3456.5 1142.83 3471.05 1128.5 3489 1128.5 3506.95 1128.5 3521.5 1142.83 3521.5 1160.5 3521.5 1178.17 3506.95 1192.5 3489 1192.5 3471.05 1192.5 3456.5 1178.17 3456.5 1160.5Z" stroke="#2F528F" stroke-width="4.58333" stroke-miterlimit="8" fill="#C00000" fill-rule="evenodd"/><path d="M3457.5 1378C3457.5 1360.05 3472.05 1345.5 3490 1345.5 3507.95 1345.5 3522.5 1360.05 3522.5 1378 3522.5 1395.95 3507.95 1410.5 3490 1410.5 3472.05 1410.5 3457.5 1395.95 3457.5 1378Z" stroke="#2F528F" stroke-width="4.58333" stroke-miterlimit="8" fill="#FFFF00" fill-rule="evenodd"/><path d="M3456.5 1263C3456.5 1245.05 3471.05 1230.5 3489 1230.5 3506.95 1230.5 3521.5 1245.05 3521.5 1263 3521.5 1280.95 3506.95 1295.5 3489 1295.5 3471.05 1295.5 3456.5 1280.95 3456.5 1263Z" stroke="#2F528F" stroke-width="4.58333" stroke-miterlimit="8" fill="#FFC000" fill-rule="evenodd"/><path d="M3521 1158.85 3601.4 1158.85 3601.4 1161.15 3521 1161.15ZM3596.81 1146.25 3624.31 1160 3596.81 1173.75Z" fill="#4472C4"/><path d="M3521 1265.85 3601.4 1265.85 3601.4 1268.15 3521 1268.15ZM3596.81 1253.25 3624.31 1267 3596.81 1280.75Z" fill="#4472C4"/><path d="M3521 1375.85 3601.4 1375.85 3601.4 1378.15 3521 1378.15ZM3596.81 1363.25 3624.31 1377 3596.81 1390.75Z" fill="#4472C4"/><path d="M3354 1813.85 3434.4 1813.85 3434.4 1816.15 3354 1816.15ZM3429.81 1801.25 3457.31 1815 3429.81 1828.75Z" fill="#4472C4"/><path d="M3354 1920.85 3434.4 1920.85 3434.4 1923.15 3354 1923.15ZM3429.81 1908.25 3457.31 1922 3429.81 1935.75Z" fill="#4472C4"/><path d="M3354 2030.85 3434.4 2030.85 3434.4 2033.15 3354 2033.15ZM3429.81 2018.25 3457.31 2032 3429.81 2045.75Z" fill="#4472C4"/><path d="M3522 1813.85 3602.4 1813.85 3602.4 1816.15 3522 1816.15ZM3597.81 1801.25 3625.31 1815 3597.81 1828.75Z" fill="#4472C4"/><path d="M3522 1920.85 3602.4 1920.85 3602.4 1923.15 3522 1923.15ZM3597.81 1908.25 3625.31 1922 3597.81 1935.75Z" fill="#4472C4"/><path d="M3522 2030.85 3602.4 2030.85 3602.4 2033.15 3522 2033.15ZM3597.81 2018.25 3625.31 2032 3597.81 2045.75Z" fill="#4472C4"/><path d="M3218.01 1439 3218.01 1647.81 2557.92 1647.81 2557.92 1645.52 3216.86 1645.52 3215.72 1646.66 3215.72 1439ZM2562.5 1660.41 2535 1646.66 2562.5 1632.91Z" fill="#4472C4"/><path d="M3269.28 1555.8 3283.43 1555.8 3285.66 1585.22C3289.71 1578.95 3292.54 1573.96 3294.15 1570.24 3295.76 1566.53 3296.76 1562.6 3297.17 1558.47L3297.73 1555.8 3306.85 1555.8 3309.37 1585.26C3313.28 1579.34 3316.13 1574.53 3317.9 1570.83 3319.67 1567.13 3320.55 1564.08 3320.55 1561.67 3320.55 1560.64 3320.31 1559.87 3319.82 1559.34 3319.34 1558.81 3318.48 1558.52 3317.27 1558.47L3317.84 1555.8 3329.26 1555.8 3330.68 1558.47C3329.41 1562.12 3326.64 1567.43 3322.35 1574.42 3318.07 1581.4 3312.99 1588.8 3307.1 1596.61L3300.25 1596.61 3298.99 1584.61C3298.64 1581.37 3298.41 1578.92 3298.3 1577.27 3298.19 1575.63 3298.14 1574.32 3298.14 1573.34L3297.73 1573.34C3294.36 1580.37 3289.62 1588.12 3283.51 1596.61L3276.13 1596.61 3272.93 1565.44C3272.74 1563.55 3272.51 1562.15 3272.22 1561.25 3271.94 1560.34 3271.53 1559.67 3271.01 1559.24 3270.48 1558.81 3269.7 1558.55 3268.68 1558.47Z" fill-rule="evenodd"/><text fill="#000000" fill-opacity="0" font-family="Arial,Arial_MSFontService,sans-serif" font-size="40.811" x="3268.68" y="1591.5">𝒘</text><path d="M3343.22 1575.85 3350.37 1575.85 3348.64 1583.3 3355.88 1583.3 3355.07 1587.02 3347.78 1587.02 3344.89 1598.93C3344.39 1600.98 3344.05 1602.53 3343.86 1603.59 3343.67 1604.66 3343.58 1605.55 3343.58 1606.29 3343.58 1607.22 3343.75 1607.9 3344.08 1608.33 3344.42 1608.76 3344.92 1608.97 3345.57 1608.97 3346.47 1608.97 3347.39 1608.65 3348.33 1608.02 3349.27 1607.38 3350.29 1606.4 3351.38 1605.07L3353.67 1607.42C3351.67 1609.63 3349.83 1611.16 3348.15 1612.02 3346.47 1612.89 3344.49 1613.32 3342.21 1613.32 3339.94 1613.32 3338.21 1612.74 3336.99 1611.58 3335.78 1610.41 3335.18 1608.81 3335.18 1606.77 3335.18 1605.83 3335.25 1604.94 3335.39 1604.1 3335.53 1603.26 3335.81 1601.87 3336.25 1599.95L3339.32 1587.02 3334.67 1587.02 3335.24 1584.61C3336.63 1584.61 3337.68 1584.48 3338.39 1584.22 3339.11 1583.96 3339.71 1583.57 3340.2 1583.06 3340.68 1582.54 3341.15 1581.76 3341.61 1580.7 3342.07 1579.65 3342.6 1578.03 3343.22 1575.85Z" fill-rule="evenodd"/><text fill="#000000" fill-opacity="0" font-family="Arial,Arial_MSFontService,sans-serif" font-size="37.4697" x="3334.67" y="1608.63">𝒕</text><path d="M3727.94 1888.59C3725.18 1888.59 3722.71 1889.7 3720.52 1891.93 3718.33 1894.16 3716.61 1897.17 3715.35 1900.95 3714.1 1904.73 3713.47 1908.5 3713.47 1912.26 3713.47 1915.07 3713.85 1917.17 3714.62 1918.56 3715.39 1919.95 3716.68 1920.64 3718.49 1920.64 3719.33 1920.64 3720.18 1920.46 3721.05 1920.1 3721.91 1919.73 3722.81 1919.15 3723.74 1918.33 3724.67 1917.52 3725.59 1916.54 3726.5 1915.38 3727.4 1914.21 3728.23 1913.05 3728.99 1911.87 3729.75 1910.7 3730.45 1909.3 3731.1 1907.7 3731.75 1906.09 3732.3 1904.15 3732.76 1901.88L3733.12 1900.14C3733.53 1898.19 3733.73 1896.36 3733.73 1894.63 3733.73 1892.52 3733.29 1890.99 3732.39 1890.03 3731.5 1889.07 3730.02 1888.59 3727.94 1888.59ZM3727.21 1885.39C3728.88 1885.39 3730.48 1885.58 3731.99 1885.97 3733.5 1886.37 3735.07 1887.06 3736.69 1888.06L3740.42 1885.39 3743.01 1886.03 3732.64 1932.11C3732.18 1934.17 3731.95 1935.71 3731.95 1936.73 3731.95 1937.92 3732.25 1938.77 3732.86 1939.27 3733.47 1939.77 3734.66 1940.1 3736.45 1940.26L3736.08 1942.25 3723.44 1942.25 3730.41 1915.66 3729.84 1915.42C3727.52 1918.69 3725.15 1921.17 3722.73 1922.87 3720.31 1924.58 3717.95 1925.43 3715.66 1925.43 3712.68 1925.43 3710.38 1924.31 3708.75 1922.06 3707.11 1919.82 3706.29 1916.67 3706.29 1912.62 3706.29 1907.97 3707.21 1903.51 3709.03 1899.23 3710.85 1894.94 3713.36 1891.57 3716.55 1889.09 3719.74 1886.62 3723.29 1885.39 3727.21 1885.39Z" fill-rule="evenodd"/><text fill="#000000" fill-opacity="0" font-family="Arial,Arial_MSFontService,sans-serif" font-size="56.8599" x="3706.29" y="1935.14">𝑞</text><path d="M3716.09 1231.13C3713.33 1231.13 3710.86 1232.24 3708.67 1234.47 3706.49 1236.7 3704.76 1239.7 3703.51 1243.49 3702.25 1247.27 3701.62 1251.04 3701.62 1254.79 3701.62 1257.6 3702.01 1259.7 3702.78 1261.1 3703.55 1262.49 3704.84 1263.18 3706.65 1263.18 3707.49 1263.18 3708.34 1263 3709.2 1262.64 3710.07 1262.27 3710.96 1261.68 3711.9 1260.87 3712.83 1260.06 3713.75 1259.08 3714.65 1257.91 3715.56 1256.75 3716.39 1255.58 3717.14 1254.41 3717.9 1253.23 3718.6 1251.84 3719.25 1250.23 3719.9 1248.63 3720.45 1246.69 3720.91 1244.42L3721.28 1242.68C3721.68 1240.73 3721.89 1238.89 3721.89 1237.16 3721.89 1235.06 3721.44 1233.52 3720.55 1232.56 3719.66 1231.61 3718.17 1231.13 3716.09 1231.13ZM3715.36 1227.92C3717.04 1227.92 3718.63 1228.12 3720.14 1228.51 3721.66 1228.9 3723.22 1229.6 3724.84 1230.6L3728.57 1227.92 3731.17 1228.57 3720.79 1274.65C3720.33 1276.71 3720.1 1278.25 3720.1 1279.27 3720.1 1280.46 3720.41 1281.31 3721.01 1281.81 3721.62 1282.31 3722.82 1282.64 3724.6 1282.8L3724.24 1284.78 3711.59 1284.78 3718.56 1258.2 3718 1257.96C3715.67 1261.22 3713.3 1263.71 3710.88 1265.41 3708.46 1267.11 3706.11 1267.97 3703.81 1267.97 3700.84 1267.97 3698.54 1266.84 3696.9 1264.6 3695.27 1262.36 3694.45 1259.21 3694.45 1255.16 3694.45 1250.51 3695.36 1246.05 3697.18 1241.76 3699.01 1237.48 3701.51 1234.1 3704.7 1231.63 3707.89 1229.16 3711.44 1227.92 3715.36 1227.92Z" fill-rule="evenodd"/><text fill="#000000" fill-opacity="0" font-family="Arial,Arial_MSFontService,sans-serif" font-size="56.8599" x="3694.45" y="1277.68">𝑞</text><path d="M3751.06 1245.63C3753.12 1245.63 3754.89 1245.86 3756.35 1246.33 3757.81 1246.8 3758.99 1247.43 3759.91 1248.22 3760.82 1249.02 3761.48 1249.97 3761.89 1251.08 3762.29 1252.19 3762.5 1253.39 3762.5 1254.68 3762.5 1255.46 3762.44 1256.18 3762.33 1256.84 3762.22 1257.51 3762.03 1258.16 3761.77 1258.81 3761.5 1259.45 3761.15 1260.1 3760.71 1260.76 3760.27 1261.42 3759.73 1262.11 3759.07 1262.85 3758.57 1263.48 3757.93 1264.22 3757.14 1265.05 3756.34 1265.88 3755.47 1266.78 3754.53 1267.73 3753.59 1268.68 3752.6 1269.68 3751.57 1270.71 3750.53 1271.74 3749.53 1272.76 3748.56 1273.78 3747.58 1274.79 3746.69 1275.77 3745.88 1276.73 3745.06 1277.68 3744.4 1278.55 3743.88 1279.35L3754.9 1279.35C3755.83 1279.35 3756.58 1279.31 3757.14 1279.24 3757.69 1279.17 3758.15 1279.02 3758.52 1278.78 3758.89 1278.54 3759.2 1278.18 3759.46 1277.69 3759.72 1277.21 3760.01 1276.54 3760.35 1275.68L3763.12 1275.68C3763.02 1277.09 3762.93 1278.51 3762.84 1279.94 3762.75 1281.37 3762.66 1282.79 3762.56 1284.2L3737.33 1284.2 3737.33 1282.65C3737.8 1281.58 3738.36 1280.52 3739 1279.48 3739.63 1278.44 3740.35 1277.38 3741.14 1276.31 3741.93 1275.24 3742.84 1274.13 3743.85 1272.99 3744.86 1271.85 3745.99 1270.66 3747.22 1269.43 3749.08 1267.56 3750.6 1265.97 3751.77 1264.65 3752.95 1263.33 3753.87 1262.15 3754.54 1261.12 3755.22 1260.09 3755.68 1259.13 3755.93 1258.26 3756.18 1257.38 3756.3 1256.45 3756.3 1255.46 3756.3 1254.45 3756.16 1253.51 3755.87 1252.66 3755.58 1251.8 3755.17 1251.08 3754.63 1250.48 3754.1 1249.89 3753.42 1249.42 3752.59 1249.08 3751.77 1248.75 3750.82 1248.58 3749.75 1248.58 3747.9 1248.58 3746.35 1249.08 3745.1 1250.08 3743.85 1251.09 3742.88 1252.54 3742.18 1254.45L3738.28 1254.45 3738.28 1248.64C3740.82 1247.59 3743.16 1246.82 3745.3 1246.34 3747.43 1245.87 3749.35 1245.63 3751.06 1245.63Z" fill-rule="evenodd"/><text fill="#000000" fill-opacity="0" font-family="Arial,Arial_MSFontService,sans-serif" font-size="38.5718" x="3737.33" y="1279.38">2</text><path d="M3708 573.665C3705.25 573.665 3702.78 574.779 3700.59 577.008 3698.4 579.237 3696.68 582.243 3695.42 586.025 3694.16 589.808 3693.54 593.577 3693.54 597.333 3693.54 600.142 3693.92 602.243 3694.69 603.635 3695.46 605.026 3696.75 605.722 3698.56 605.722 3699.4 605.722 3700.25 605.539 3701.11 605.175 3701.98 604.81 3702.88 604.222 3703.81 603.412 3704.74 602.601 3705.66 601.615 3706.57 600.453 3707.47 599.291 3708.3 598.123 3709.06 596.948 3709.81 595.772 3710.52 594.381 3711.17 592.773 3711.81 591.166 3712.37 589.227 3712.83 586.958L3713.19 585.215C3713.6 583.27 3713.8 581.432 3713.8 579.703 3713.8 577.596 3713.35 576.062 3712.46 575.103 3711.57 574.144 3710.08 573.665 3708 573.665ZM3707.27 570.463C3708.95 570.463 3710.54 570.659 3712.06 571.051 3713.57 571.442 3715.14 572.138 3716.76 573.138L3720.49 570.463 3723.08 571.111 3712.71 617.191C3712.25 619.244 3712.02 620.784 3712.02 621.811 3712.02 623 3712.32 623.844 3712.93 624.344 3713.54 624.844 3714.73 625.175 3716.51 625.337L3716.15 627.323 3703.51 627.323 3710.48 600.737 3709.91 600.494C3707.59 603.763 3705.21 606.249 3702.8 607.951 3700.38 609.653 3698.02 610.504 3695.72 610.504 3692.75 610.504 3690.45 609.383 3688.81 607.14 3687.18 604.898 3686.36 601.75 3686.36 597.697 3686.36 593.05 3687.27 588.585 3689.1 584.303 3690.92 580.021 3693.43 576.643 3696.62 574.171 3699.8 571.699 3703.36 570.463 3707.27 570.463Z" fill-rule="evenodd"/><text fill="#000000" fill-opacity="0" font-family="Arial,Arial_MSFontService,sans-serif" font-size="56.8599" x="3686.36" y="620.215">𝑞</text><path d="M3743.39 588.376 3745.21 588.376C3745.17 589.469 3745.14 590.447 3745.12 591.31 3745.1 592.174 3745.09 593.013 3745.08 593.827 3745.07 594.641 3745.06 595.445 3745.06 596.24L3745.06 618.876C3745.06 619.492 3745.08 620.023 3745.12 620.47 3745.16 620.917 3745.22 621.294 3745.31 621.602 3745.4 621.91 3745.52 622.173 3745.67 622.391 3745.82 622.61 3745.99 622.798 3746.19 622.957 3746.43 623.195 3746.75 623.379 3747.15 623.508 3747.54 623.637 3748.05 623.746 3748.67 623.836 3749.28 623.925 3750.02 623.995 3750.88 624.044 3751.75 624.094 3752.79 624.129 3754 624.148L3754 626.74 3730.38 626.74 3730.38 624.148C3731.55 624.109 3732.54 624.064 3733.36 624.014 3734.17 623.965 3734.86 623.895 3735.44 623.806 3736.02 623.717 3736.48 623.617 3736.83 623.508 3737.17 623.399 3737.48 623.265 3737.73 623.106 3738.01 622.927 3738.25 622.734 3738.45 622.525 3738.65 622.317 3738.81 622.054 3738.93 621.736 3739.04 621.418 3739.14 621.031 3739.21 620.574 3739.28 620.117 3739.31 619.552 3739.31 618.876L3739.31 597.521C3739.31 596.746 3739.16 596.2 3738.87 595.882 3738.57 595.565 3738.14 595.406 3737.58 595.406 3736.97 595.406 3736.06 595.723 3734.84 596.359 3733.63 596.994 3732.06 597.938 3730.14 599.188 3729.88 598.732 3729.64 598.275 3729.42 597.818 3729.21 597.362 3728.98 596.895 3728.74 596.418 3731.2 595.068 3733.64 593.723 3736.05 592.383 3738.46 591.042 3740.91 589.707 3743.39 588.376Z" fill-rule="evenodd"/><text fill="#000000" fill-opacity="0" font-family="Arial,Arial_MSFontService,sans-serif" font-size="38.3633" x="3728.74" y="621.944">1</text><path d="M3455.5 1812 3499.5 1771.5 3543.5 1812 3499.5 1852.5Z" stroke="#BC8C00" stroke-width="4.58333" stroke-miterlimit="8" fill="#C00000" fill-rule="evenodd"/><path d="M3458.5 1925 3502.5 1884.5 3546.5 1925 3502.5 1965.5Z" stroke="#BC8C00" stroke-width="4.58333" stroke-miterlimit="8" fill="#FFC000" fill-rule="evenodd"/><path d="M3458.5 2031 3502.5 1990.5 3546.5 2031 3502.5 2071.5Z" stroke="#BC8C00" stroke-width="4.58333" stroke-miterlimit="8" fill="#FFFF00" fill-rule="evenodd"/><path d="M2804 1813.85 2884.4 1813.85 2884.4 1816.15 2804 1816.15ZM2879.81 1801.25 2907.31 1815 2879.81 1828.75Z" fill="#4472C4"/><path d="M2804 1920.85 2884.4 1920.85 2884.4 1923.15 2804 1923.15ZM2879.81 1908.25 2907.31 1922 2879.81 1935.75Z" fill="#4472C4"/><path d="M2804 2030.85 2884.4 2030.85 2884.4 2033.15 2804 2033.15ZM2879.81 2018.25 2907.31 2032 2879.81 2045.75Z" fill="#4472C4"/><path d="M2972 1813.85 3052.4 1813.85 3052.4 1816.15 2972 1816.15ZM3047.81 1801.25 3075.31 1815 3047.81 1828.75Z" fill="#4472C4"/><path d="M2972 1920.85 3052.4 1920.85 3052.4 1923.15 2972 1923.15ZM3047.81 1908.25 3075.31 1922 3047.81 1935.75Z" fill="#4472C4"/><path d="M2972 2030.85 3052.4 2030.85 3052.4 2033.15 2972 2033.15ZM3047.81 2018.25 3075.31 2032 3047.81 2045.75Z" fill="#4472C4"/><path d="M2905.5 1812 2949.5 1771.5 2993.5 1812 2949.5 1852.5Z" stroke="#BC8C00" stroke-width="4.58333" stroke-miterlimit="8" fill="#C00000" fill-rule="evenodd"/><path d="M2908.5 1925 2952.5 1884.5 2996.5 1925 2952.5 1965.5Z" stroke="#BC8C00" stroke-width="4.58333" stroke-miterlimit="8" fill="#FFC000" fill-rule="evenodd"/><path d="M2908.5 2031 2952.5 1990.5 2996.5 2031 2952.5 2071.5Z" stroke="#BC8C00" stroke-width="4.58333" stroke-miterlimit="8" fill="#FFFF00" fill-rule="evenodd"/><path d="M2628.5 1756.17C2628.5 1740.33 2641.34 1727.5 2657.17 1727.5L2771.83 1727.5C2787.67 1727.5 2800.5 1740.33 2800.5 1756.17L2800.5 2088.83C2800.5 2104.67 2787.67 2117.5 2771.83 2117.5L2657.17 2117.5C2641.34 2117.5 2628.5 2104.67 2628.5 2088.83Z" stroke="#2F528F" stroke-width="4.58333" stroke-miterlimit="8" fill="#FFF2CC" fill-rule="evenodd"/><text font-family="DengXian,DengXian_MSFontService,sans-serif" font-weight="400" font-size="64" transform="matrix(1 0 0 1 2681.85 1828)">自<tspan font-size="64" x="0" y="77">注</tspan><tspan font-size="64" x="0" y="154">意</tspan><tspan font-size="64" x="0" y="231">力</tspan></text><path d="M2360 1813.85 2440.4 1813.85 2440.4 1816.15 2360 1816.15ZM2435.81 1801.25 2463.31 1815 2435.81 1828.75Z" fill="#4472C4"/><path d="M2360 1920.85 2440.4 1920.85 2440.4 1923.15 2360 1923.15ZM2435.81 1908.25 2463.31 1922 2435.81 1935.75Z" fill="#4472C4"/><path d="M2360 2030.85 2440.4 2030.85 2440.4 2033.15 2360 2033.15ZM2435.81 2018.25 2463.31 2032 2435.81 2045.75Z" fill="#4472C4"/><path d="M2528 1813.85 2608.4 1813.85 2608.4 1816.15 2528 1816.15ZM2603.81 1801.25 2631.31 1815 2603.81 1828.75Z" fill="#4472C4"/><path d="M2528 1920.85 2608.4 1920.85 2608.4 1923.15 2528 1923.15ZM2603.81 1908.25 2631.31 1922 2603.81 1935.75Z" fill="#4472C4"/><path d="M2528 2030.85 2608.4 2030.85 2608.4 2033.15 2528 2033.15ZM2603.81 2018.25 2631.31 2032 2603.81 2045.75Z" fill="#4472C4"/><path d="M2461.5 1812 2506 1771.5 2550.5 1812 2506 1852.5Z" stroke="#BC8C00" stroke-width="4.58333" stroke-miterlimit="8" fill="#C00000" fill-rule="evenodd"/><path d="M2464.5 1925 2508.5 1884.5 2552.5 1925 2508.5 1965.5Z" stroke="#BC8C00" stroke-width="4.58333" stroke-miterlimit="8" fill="#FFC000" fill-rule="evenodd"/><path d="M2464.5 2031 2508.5 1990.5 2552.5 2031 2508.5 2071.5Z" stroke="#BC8C00" stroke-width="4.58333" stroke-miterlimit="8" fill="#FFFF00" fill-rule="evenodd"/><path d="M1971.5 1815 2015.5 1774.5 2059.5 1815 2015.5 1855.5Z" stroke="#BC8C00" stroke-width="4.58333" stroke-miterlimit="8" fill="#C00000" fill-rule="evenodd"/><path d="M1973.5 1928 2018 1887.5 2062.5 1928 2018 1968.5Z" stroke="#BC8C00" stroke-width="4.58333" stroke-miterlimit="8" fill="#FFC000" fill-rule="evenodd"/><path d="M1973.5 2034 2018 1993.5 2062.5 2034 2018 2074.5Z" stroke="#BC8C00" stroke-width="4.58333" stroke-miterlimit="8" fill="#FFFF00" fill-rule="evenodd"/><path d="M0-1.14583 455.715-1.14583 455.715 104.326 453.423 104.326 453.423 0 454.569 1.14583 0 1.14583ZM468.319 99.7427 454.569 127.243 440.819 99.7427Z" fill="#4472C4" transform="matrix(-1 1.22465e-16 1.22465e-16 1 2469.57 1647)"/><path d="M2457.5 513C2457.5 495.051 2472.05 480.5 2490 480.5 2507.95 480.5 2522.5 495.051 2522.5 513 2522.5 530.949 2507.95 545.5 2490 545.5 2472.05 545.5 2457.5 530.949 2457.5 513Z" stroke="#2F528F" stroke-width="4.58333" stroke-miterlimit="8" fill="#C00000" fill-rule="evenodd"/><path d="M2458.5 730C2458.5 712.051 2473.05 697.5 2491 697.5 2508.95 697.5 2523.5 712.051 2523.5 730 2523.5 747.949 2508.95 762.5 2491 762.5 2473.05 762.5 2458.5 747.949 2458.5 730Z" stroke="#2F528F" stroke-width="4.58333" stroke-miterlimit="8" fill="#FFFF00" fill-rule="evenodd"/><path d="M2457.5 615C2457.5 597.051 2472.05 582.5 2490 582.5 2507.95 582.5 2522.5 597.051 2522.5 615 2522.5 632.949 2507.95 647.5 2490 647.5 2472.05 647.5 2457.5 632.949 2457.5 615Z" stroke="#2F528F" stroke-width="4.58333" stroke-miterlimit="8" fill="#FFC000" fill-rule="evenodd"/><path d="M1909 506.854 1989.4 506.855 1989.4 509.146 1909 509.146ZM1984.81 494.25 2012.31 508 1984.81 521.75Z" fill="#4472C4"/><path d="M1909 613.854 1989.4 613.854 1989.4 616.146 1909 616.146ZM1984.81 601.25 2012.31 615 1984.81 628.75Z" fill="#4472C4"/><path d="M1909 723.854 1989.4 723.854 1989.4 726.146 1909 726.146ZM1984.81 711.25 2012.31 725 1984.81 738.75Z" fill="#4472C4"/><path d="M2011.5 512C2011.5 494.051 2026.05 479.5 2044 479.5 2061.95 479.5 2076.5 494.051 2076.5 512 2076.5 529.949 2061.95 544.5 2044 544.5 2026.05 544.5 2011.5 529.949 2011.5 512Z" stroke="#2F528F" stroke-width="4.58333" stroke-miterlimit="8" fill="#C00000" fill-rule="evenodd"/><path d="M2013.5 730C2013.5 712.051 2028.05 697.5 2046 697.5 2063.95 697.5 2078.5 712.051 2078.5 730 2078.5 747.949 2063.95 762.5 2046 762.5 2028.05 762.5 2013.5 747.949 2013.5 730Z" stroke="#2F528F" stroke-width="4.58333" stroke-miterlimit="8" fill="#FFFF00" fill-rule="evenodd"/><path d="M2011.5 615C2011.5 597.051 2026.05 582.5 2044 582.5 2061.95 582.5 2076.5 597.051 2076.5 615 2076.5 632.949 2061.95 647.5 2044 647.5 2026.05 647.5 2011.5 632.949 2011.5 615Z" stroke="#2F528F" stroke-width="4.58333" stroke-miterlimit="8" fill="#FFC000" fill-rule="evenodd"/><path d="M1911 1161.85 1991.4 1161.85 1991.4 1164.15 1911 1164.15ZM1986.81 1149.25 2014.31 1163 1986.81 1176.75Z" fill="#4472C4"/><path d="M1911 1269.85 1991.4 1269.85 1991.4 1272.15 1911 1272.15ZM1986.81 1257.25 2014.31 1271 1986.81 1284.75Z" fill="#4472C4"/><path d="M1911 1379.85 1991.4 1379.85 1991.4 1382.15 1911 1382.15ZM1986.81 1367.25 2014.31 1381 1986.81 1394.75Z" fill="#4472C4"/><path d="M2013.5 1168C2013.5 1150.05 2028.05 1135.5 2046 1135.5 2063.95 1135.5 2078.5 1150.05 2078.5 1168 2078.5 1185.95 2063.95 1200.5 2046 1200.5 2028.05 1200.5 2013.5 1185.95 2013.5 1168Z" stroke="#2F528F" stroke-width="4.58333" stroke-miterlimit="8" fill="#C00000" fill-rule="evenodd"/><path d="M2014.5 1385C2014.5 1367.05 2029.05 1352.5 2047 1352.5 2064.95 1352.5 2079.5 1367.05 2079.5 1385 2079.5 1402.95 2064.95 1417.5 2047 1417.5 2029.05 1417.5 2014.5 1402.95 2014.5 1385Z" stroke="#2F528F" stroke-width="4.58333" stroke-miterlimit="8" fill="#FFFF00" fill-rule="evenodd"/><path d="M2013.5 1270C2013.5 1252.05 2028.05 1237.5 2046 1237.5 2063.95 1237.5 2078.5 1252.05 2078.5 1270 2078.5 1287.95 2063.95 1302.5 2046 1302.5 2028.05 1302.5 2013.5 1287.95 2013.5 1270Z" stroke="#2F528F" stroke-width="4.58333" stroke-miterlimit="8" fill="#FFC000" fill-rule="evenodd"/><path d="M1619.5 464.167C1619.5 437.841 1640.84 416.5 1667.17 416.5L1857.83 416.5C1884.16 416.5 1905.5 437.841 1905.5 464.167L1905.5 1414.83C1905.5 1441.16 1884.16 1462.5 1857.83 1462.5L1667.17 1462.5C1640.84 1462.5 1619.5 1441.16 1619.5 1414.83Z" stroke="#BF9000" stroke-width="11.4583" stroke-miterlimit="8" stroke-dasharray="45.8333 34.375" fill="#F4B183" fill-rule="evenodd"/><text font-family="DengXian,DengXian_MSFontService,sans-serif" font-weight="400" font-size="83" transform="matrix(1 0 0 1 1679.66 768)">帧间<tspan font-size="83" x="0" y="99">关联</tspan><tspan font-size="83" x="0" y="198">初始</tspan><tspan font-size="83" x="0" y="297">化模</tspan><tspan font-size="83" x="41.25" y="396">块</tspan></text><path d="M1446.5 1168C1446.5 1150.05 1460.83 1135.5 1478.5 1135.5 1496.17 1135.5 1510.5 1150.05 1510.5 1168 1510.5 1185.95 1496.17 1200.5 1478.5 1200.5 1460.83 1200.5 1446.5 1185.95 1446.5 1168Z" stroke="#2F528F" stroke-width="4.58333" stroke-miterlimit="8" fill="#FFFFFF" fill-rule="evenodd"/><path d="M1447.5 1385C1447.5 1367.05 1462.05 1352.5 1480 1352.5 1497.95 1352.5 1512.5 1367.05 1512.5 1385 1512.5 1402.95 1497.95 1417.5 1480 1417.5 1462.05 1417.5 1447.5 1402.95 1447.5 1385Z" stroke="#2F528F" stroke-width="4.58333" stroke-miterlimit="8" fill="#FFFFFF" fill-rule="evenodd"/><path d="M1446.5 1270C1446.5 1252.05 1460.83 1237.5 1478.5 1237.5 1496.17 1237.5 1510.5 1252.05 1510.5 1270 1510.5 1287.95 1496.17 1302.5 1478.5 1302.5 1460.83 1302.5 1446.5 1287.95 1446.5 1270Z" stroke="#2F528F" stroke-width="4.58333" stroke-miterlimit="8" fill="#FFFFFF" fill-rule="evenodd"/><path d="M2465.5 1167C2465.5 1149.05 2480.05 1134.5 2498 1134.5 2515.95 1134.5 2530.5 1149.05 2530.5 1167 2530.5 1184.95 2515.95 1199.5 2498 1199.5 2480.05 1199.5 2465.5 1184.95 2465.5 1167Z" stroke="#2F528F" stroke-width="4.58333" stroke-miterlimit="8" fill="#C00000" fill-rule="evenodd"/><path d="M2466.5 1384C2466.5 1366.05 2481.05 1351.5 2499 1351.5 2516.95 1351.5 2531.5 1366.05 2531.5 1384 2531.5 1401.95 2516.95 1416.5 2499 1416.5 2481.05 1416.5 2466.5 1401.95 2466.5 1384Z" stroke="#2F528F" stroke-width="4.58333" stroke-miterlimit="8" fill="#FFFF00" fill-rule="evenodd"/><path d="M2465.5 1269C2465.5 1251.05 2480.05 1236.5 2498 1236.5 2515.95 1236.5 2530.5 1251.05 2530.5 1269 2530.5 1286.95 2515.95 1301.5 2498 1301.5 2480.05 1301.5 2465.5 1286.95 2465.5 1269Z" stroke="#2F528F" stroke-width="4.58333" stroke-miterlimit="8" fill="#FFC000" fill-rule="evenodd"/><path d="M1510 1162.85 1590.4 1162.85 1590.4 1165.15 1510 1165.15ZM1585.81 1150.25 1613.31 1164 1585.81 1177.75Z" fill="#4472C4"/><path d="M1510 1270.85 1590.4 1270.85 1590.4 1273.15 1510 1273.15ZM1585.81 1258.25 1613.31 1272 1585.81 1285.75Z" fill="#4472C4"/><path d="M1510 1380.85 1590.4 1380.85 1590.4 1383.15 1510 1383.15ZM1585.81 1368.25 1613.31 1382 1585.81 1395.75Z" fill="#4472C4"/><path d="M1342 1167.85 1422.4 1167.85 1422.4 1170.15 1342 1170.15ZM1417.81 1155.25 1445.31 1169 1417.81 1182.75Z" fill="#4472C4"/><path d="M1342 1274.85 1422.4 1274.85 1422.4 1277.15 1342 1277.15ZM1417.81 1262.25 1445.31 1276 1417.81 1289.75Z" fill="#4472C4"/><path d="M1342 1384.85 1422.4 1384.85 1422.4 1387.15 1342 1387.15ZM1417.81 1372.25 1445.31 1386 1417.81 1399.75Z" fill="#4472C4"/><path d="M1342 1164.85 1422.4 1164.85 1422.4 1167.15 1342 1167.15ZM1417.81 1152.25 1445.31 1166 1417.81 1179.75Z" fill="#4472C4"/><path d="M1342 1271.85 1422.4 1271.85 1422.4 1274.15 1342 1274.15ZM1417.81 1259.25 1445.31 1273 1417.81 1286.75Z" fill="#4472C4"/><path d="M1342 1381.85 1422.4 1381.85 1422.4 1384.15 1342 1384.15ZM1417.81 1369.25 1445.31 1383 1417.81 1396.75Z" fill="#4472C4"/><path d="M1445.5 519C1445.5 501.051 1460.05 486.5 1478 486.5 1495.95 486.5 1510.5 501.051 1510.5 519 1510.5 536.949 1495.95 551.5 1478 551.5 1460.05 551.5 1445.5 536.949 1445.5 519Z" stroke="#2F528F" stroke-width="4.58333" stroke-miterlimit="8" fill="#FFFFFF" fill-rule="evenodd"/><path d="M1446.5 736C1446.5 718.051 1461.05 703.5 1479 703.5 1496.95 703.5 1511.5 718.051 1511.5 736 1511.5 753.949 1496.95 768.5 1479 768.5 1461.05 768.5 1446.5 753.949 1446.5 736Z" stroke="#2F528F" stroke-width="4.58333" stroke-miterlimit="8" fill="#FFFFFF" fill-rule="evenodd"/><path d="M1445.5 621C1445.5 603.051 1460.05 588.5 1478 588.5 1495.95 588.5 1510.5 603.051 1510.5 621 1510.5 638.949 1495.95 653.5 1478 653.5 1460.05 653.5 1445.5 638.949 1445.5 621Z" stroke="#2F528F" stroke-width="4.58333" stroke-miterlimit="8" fill="#FFFFFF" fill-rule="evenodd"/><path d="M1510 514.854 1590.4 514.854 1590.4 517.146 1510 517.146ZM1585.81 502.25 1613.31 516 1585.81 529.75Z" fill="#4472C4"/><path d="M1516 626.854 1596.4 626.854 1596.4 629.146 1516 629.146ZM1591.81 614.25 1619.31 628 1591.81 641.75Z" fill="#4472C4"/><path d="M1516 733.854 1596.4 733.854 1596.4 736.146 1516 736.146ZM1591.81 721.25 1619.31 735 1591.81 748.75Z" fill="#4472C4"/><path d="M1341 518.854 1421.4 518.855 1421.4 521.146 1341 521.146ZM1416.81 506.25 1444.31 520 1416.81 533.75Z" fill="#4472C4"/><path d="M1341 626.854 1421.4 626.854 1421.4 629.146 1341 629.146ZM1416.81 614.25 1444.31 628 1416.81 641.75Z" fill="#4472C4"/><path d="M1341 736.854 1421.4 736.854 1421.4 739.146 1341 739.146ZM1416.81 724.25 1444.31 738 1416.81 751.75Z" fill="#4472C4"/><path d="M1341 515.854 1421.4 515.854 1421.4 518.146 1341 518.146ZM1416.81 503.25 1444.31 517 1416.81 530.75Z" fill="#4472C4"/><path d="M1341 622.854 1421.4 622.854 1421.4 625.146 1341 625.146ZM1416.81 610.25 1444.31 624 1416.81 637.75Z" fill="#4472C4"/><path d="M1341 732.854 1421.4 732.854 1421.4 735.146 1341 735.146ZM1416.81 720.25 1444.31 734 1416.81 747.75Z" fill="#4472C4"/><path d="M1009.5 493.167C1009.5 464.08 1033.08 440.5 1062.17 440.5L1272.83 440.5C1301.92 440.5 1325.5 464.08 1325.5 493.167L1325.5 811.833C1325.5 840.92 1301.92 864.5 1272.83 864.5L1062.17 864.5C1033.08 864.5 1009.5 840.92 1009.5 811.833Z" stroke="#BF9000" stroke-width="11.4583" stroke-miterlimit="8" stroke-dasharray="45.8333 34.375" fill="#F4B183" fill-rule="evenodd"/><text font-family="DengXian,DengXian_MSFontService,sans-serif" font-weight="400" font-size="73" transform="matrix(1 0 0 1 1100.11 632)">Grid<tspan font-size="73" x="-26.6521" y="88">Select</tspan></text><path d="M1009.5 1084.17C1009.5 1055.08 1033.08 1031.5 1062.17 1031.5L1272.83 1031.5C1301.92 1031.5 1325.5 1055.08 1325.5 1084.17L1325.5 1402.83C1325.5 1431.92 1301.92 1455.5 1272.83 1455.5L1062.17 1455.5C1033.08 1455.5 1009.5 1431.92 1009.5 1402.83Z" stroke="#BF9000" stroke-width="11.4583" stroke-miterlimit="8" stroke-dasharray="45.8333 34.375" fill="#F4B183" fill-rule="evenodd"/><text font-family="DengXian,DengXian_MSFontService,sans-serif" font-weight="400" font-size="73" transform="matrix(1 0 0 1 1100.11 1223)">Grid<tspan font-size="73" x="-26.6521" y="88">Select</tspan></text><path d="M702.5 627.906 944.491 627.907 944.491 645.094 702.5 645.094ZM935.897 610.719 987.459 636.5 935.897 662.282Z" fill="#4472C4"/><text font-family="DengXian,DengXian_MSFontService,sans-serif" font-weight="700" font-size="83" transform="matrix(1 0 0 1 375.937 658)">特征</text><path d="M591.058 602.442 629.397 602.442 626.52 615.492 621.332 615.492C621.197 612.925 620.954 611.128 620.603 610.101 620.251 609.075 619.711 608.332 618.982 607.872 618.252 607.413 617.225 607.183 615.902 607.183L606.742 607.183 602.284 627.447 607.715 627.447C609.309 627.447 610.599 626.934 611.585 625.907 612.572 624.88 613.564 623.219 614.564 620.922L619.022 620.922 614.767 638.997 610.592 638.997C610.592 637.106 610.491 635.701 610.289 634.783 610.086 633.864 609.728 633.202 609.215 632.797 608.701 632.391 607.904 632.189 606.823 632.189L601.271 632.189 598.029 646.819C597.84 647.684 597.705 648.433 597.624 649.068 597.543 649.703 597.502 650.534 597.502 651.561 597.502 652.804 597.82 653.682 598.455 654.195 599.089 654.708 600.082 655.006 601.433 655.087L600.866 657.762 579.913 657.762 580.481 655.087C582.021 654.654 583.155 653.898 583.885 652.817 584.614 651.736 585.303 649.737 585.952 646.819L593.328 613.384C593.679 611.79 593.855 610.209 593.855 608.642 593.855 607.508 593.591 606.677 593.064 606.15 592.538 605.623 591.68 605.279 590.491 605.117Z" fill-rule="evenodd"/><text fill="#000000" fill-opacity="0" font-family="Arial,Arial_MSFontService,sans-serif" font-size="55.3198" x="579.913" y="650.847">𝑭</text><path d="M648.54 589.76C647.13 589.76 646.018 590.381 645.204 591.622 644.39 592.863 643.804 594.709 643.447 597.162 643.089 599.614 642.911 602.806 642.911 606.738 642.911 611.106 643.104 614.581 643.491 617.162 643.879 619.744 644.489 621.645 645.323 622.866 646.157 624.087 647.269 624.698 648.659 624.698 649.414 624.698 650.074 624.514 650.64 624.147 651.206 623.78 651.712 623.204 652.159 622.419 652.606 621.635 652.988 620.593 653.306 619.292 653.623 617.991 653.852 616.373 653.991 614.437 654.13 612.501 654.199 610.342 654.199 607.959 654.199 604.404 654.065 601.416 653.797 598.993 653.529 596.571 653.147 594.704 652.65 593.394 652.154 592.083 651.568 591.15 650.893 590.594 650.218 590.038 649.434 589.76 648.54 589.76ZM648.719 586.424C653.604 586.424 657.247 588.087 659.65 591.413 662.053 594.739 663.254 599.827 663.254 606.678 663.254 613.707 661.978 619.024 659.427 622.628 656.875 626.232 653.127 628.034 648.183 628.034 643.298 628.034 639.689 626.341 637.356 622.956 635.023 619.57 633.856 614.452 633.856 607.601 633.856 600.731 635.157 595.484 637.758 591.86 640.359 588.236 644.013 586.424 648.719 586.424Z" fill-rule="evenodd"/><text fill="#000000" fill-opacity="0" font-family="Arial,Arial_MSFontService,sans-serif" font-size="41.6099" x="633.856" y="622.833">𝟎</text><path d="M714.5 1252.91 956.491 1252.91 956.491 1270.09 714.5 1270.09ZM947.897 1235.72 999.459 1261.5 947.897 1287.28Z" fill="#4472C4"/><path d="M1.14583-3.48058e-06 1.14612 95.892-1.14554 95.892-1.14583 3.48058e-06ZM13.7503 91.3086 0.000360892 118.809-13.7497 91.3087Z" fill="#4472C4" transform="matrix(1 0 0 -1 2275 1580.81)"/><path d="M1.14583-4.09731e-06 1.14611 78.0087-1.14555 78.0087-1.14583 4.09731e-06ZM13.7503 73.4253 0.000360892 100.925-13.7497 73.4254Z" fill="#4472C4" transform="matrix(1 0 0 -1 2263 2210.93)"/><text font-family="DengXian,DengXian_MSFontService,sans-serif" font-weight="700" font-size="83" transform="matrix(1 0 0 1 377.995 1266)">特征</text><path d="M593.117 1210.21 631.456 1210.21 628.579 1223.26 623.391 1223.26C623.256 1220.69 623.013 1218.9 622.662 1217.87 622.31 1216.84 621.77 1216.1 621.04 1215.64 620.311 1215.18 619.284 1214.95 617.96 1214.95L608.801 1214.95 604.343 1235.22 609.774 1235.22C611.368 1235.22 612.658 1234.7 613.644 1233.68 614.63 1232.65 615.623 1230.99 616.623 1228.69L621.081 1228.69 616.826 1246.77 612.651 1246.77C612.651 1244.88 612.55 1243.47 612.347 1242.55 612.145 1241.63 611.787 1240.97 611.273 1240.57 610.76 1240.16 609.963 1239.96 608.882 1239.96L603.33 1239.96 600.088 1254.59C599.899 1255.45 599.764 1256.2 599.683 1256.84 599.602 1257.47 599.561 1258.3 599.561 1259.33 599.561 1260.57 599.878 1261.45 600.513 1261.97 601.148 1262.48 602.141 1262.78 603.492 1262.86L602.925 1265.53 581.972 1265.53 582.539 1262.86C584.08 1262.42 585.214 1261.67 585.944 1260.59 586.673 1259.51 587.362 1257.51 588.011 1254.59L595.387 1221.15C595.738 1219.56 595.914 1217.98 595.914 1216.41 595.914 1215.28 595.65 1214.45 595.123 1213.92 594.596 1213.39 593.739 1213.05 592.55 1212.89Z" fill-rule="evenodd"/><text fill="#000000" fill-opacity="0" font-family="Arial,Arial_MSFontService,sans-serif" font-size="55.3198" x="581.972" y="1258.62">𝑭</text><path d="M652.803 1194.19 656.616 1194.19C656.496 1196.1 656.437 1198.74 656.437 1202.12L656.437 1227.02C656.437 1228.17 656.501 1229.04 656.63 1229.62 656.76 1230.21 656.988 1230.69 657.315 1231.05 657.643 1231.42 658.115 1231.71 658.73 1231.92 659.346 1232.13 660.12 1232.28 661.054 1232.39 661.987 1232.5 663.218 1232.58 664.747 1232.62L664.747 1235.33 639.042 1235.33 639.042 1232.62C641.246 1232.52 642.82 1232.38 643.763 1232.21 644.706 1232.05 645.426 1231.79 645.923 1231.46 646.419 1231.12 646.781 1230.64 647.01 1230.03 647.238 1229.41 647.352 1228.41 647.352 1227.02L647.352 1205.48C647.352 1204.67 647.198 1204.08 646.891 1203.73 646.583 1203.37 646.161 1203.19 645.625 1203.19 645.128 1203.19 644.428 1203.42 643.525 1203.87 642.621 1204.33 641.137 1205.26 639.072 1206.67L637.255 1203.52Z" fill-rule="evenodd"/><text fill="#000000" fill-opacity="0" font-family="Arial,Arial_MSFontService,sans-serif" font-size="41.1333" x="637.255" y="1230.19">𝟏</text></g></svg>