<svg width="3663" height="2046" xmlns="http://www.w3.org/2000/svg" xmlns:xlink="http://www.w3.org/1999/xlink" overflow="hidden"><defs><clipPath id="clip0"><rect x="543" y="316" width="3663" height="2046"/></clipPath></defs><g clip-path="url(#clip0)" transform="translate(-543 -316)"><path d="M894.5 477.5 894.5 2164.98" stroke="#BDD7EE" stroke-width="12.6042" stroke-miterlimit="8" fill="none" fill-rule="evenodd"/><path d="M0 0 2921.32 6.78947" stroke="#BDD7EE" stroke-width="12.6042" stroke-miterlimit="8" fill="none" fill-rule="evenodd" transform="matrix(-1 0 0 1 3815.82 2157.5)"/><text fill="#525252" font-family="Times New Roman,Times New Roman_MSFontService,sans-serif" font-style="italic" font-weight="400" font-size="83" transform="matrix(1 0 0 1 3263.46 2293)">Speed<tspan font-size="83" x="197.083" y="0">-</tspan>FPS</text><path d="M583.849 1399.71 583.849 1393.46 586.24 1392.37C586.889 1392.69 587.76 1393.04 588.854 1393.4 589.948 1393.77 591.684 1394.19 594.062 1394.68L629.726 1402.3C633.833 1403.16 637.251 1404.37 639.979 1405.91 642.195 1407.12 644.127 1408.68 645.775 1410.57 647.612 1412.65 648.936 1414.66 649.747 1416.61 650.8 1419.15 651.327 1422 651.327 1425.16 651.327 1428.16 650.76 1430.83 649.625 1433.18 648.49 1435.53 647.004 1437.33 645.167 1438.57 643.33 1439.81 641.344 1440.44 639.209 1440.44 637.723 1440.44 636.325 1440.24 635.015 1439.85 633.704 1439.46 632.36 1438.79 630.982 1437.86 629.604 1436.93 628.233 1435.71 626.869 1434.21 625.504 1432.72 623.647 1430.29 621.296 1426.94L624.052 1424.91C626.619 1428.13 628.895 1430.36 630.881 1431.6 632.867 1432.84 635.089 1433.47 637.548 1433.47 639.682 1433.47 641.513 1432.97 643.039 1431.99 644.566 1431 645.687 1429.78 646.403 1428.32 647.119 1426.86 647.477 1425.35 647.477 1423.78 647.477 1421.43 647.011 1419.41 646.079 1417.72 645.147 1416.03 643.573 1414.56 641.357 1413.3 639.142 1412.05 636.116 1411.01 632.279 1410.2L600.019 1403.27C597.507 1402.73 595.372 1402.14 593.616 1401.51 591.86 1400.87 590.333 1400.06 589.037 1399.06L588.631 1399.14C588.631 1403.6 588.753 1407.01 588.996 1409.37 589.239 1411.74 589.604 1413.53 590.09 1414.76 590.577 1415.99 591.239 1416.88 592.076 1417.44 592.914 1417.99 594.062 1418.27 595.521 1418.27 596.899 1418.27 598.574 1417.79 600.546 1416.85L602.978 1423.09C602.005 1423.68 601.093 1424.11 600.242 1424.37 599.391 1424.62 598.452 1424.75 597.426 1424.75 596.48 1424.75 595.48 1424.5 594.427 1424 593.373 1423.5 592.265 1422.64 591.103 1421.43 589.726 1420 588.442 1418.28 587.253 1416.28 586.173 1414.5 585.362 1412.69 584.822 1410.85 584.389 1409.34 584.106 1407.58 583.971 1405.58 583.89 1404.34 583.849 1402.38 583.849 1399.71Z" fill="#525252" fill-rule="evenodd"/><text fill="#000000" fill-opacity="0" font-family="Arial,Arial_MSFontService,sans-serif" font-size="48.0654" x="583.849" y="1434.43">ğ’¥</text><path d="M612.502 1368.76C614.231 1371.41 616.048 1373.34 617.953 1374.55 619.858 1375.77 622.026 1376.38 624.457 1376.38 626.7 1376.38 628.639 1375.92 630.273 1375 631.908 1374.08 633.13 1372.82 633.941 1371.23 634.751 1369.64 635.157 1367.84 635.157 1365.84 635.157 1363.49 634.846 1361.37 634.225 1359.48 633.603 1357.59 632.509 1355.57 630.942 1353.44 629.969 1354.3 628.537 1355.55 626.646 1357.17L618.662 1363.85C617.311 1364.96 616.095 1365.95 615.015 1366.81ZM586.645 1361.5C586.645 1363.1 586.99 1364.51 587.679 1365.74 588.368 1366.97 589.368 1367.93 590.678 1368.62 591.988 1369.31 593.535 1369.65 595.318 1369.65 596.966 1369.65 598.655 1369.31 600.384 1368.62 602.113 1367.93 604.18 1366.71 606.585 1364.95 604.748 1361.49 602.775 1358.88 600.668 1357.11 598.56 1355.34 596.359 1354.45 594.062 1354.45 592.522 1354.45 591.191 1354.74 590.07 1355.32 588.949 1355.9 588.098 1356.74 587.517 1357.82 586.936 1358.9 586.645 1360.13 586.645 1361.5ZM583.201 1361.02C583.201 1359.21 583.383 1357.51 583.748 1355.93 584.112 1354.35 584.7 1352.97 585.511 1351.8 586.321 1350.62 587.375 1349.7 588.672 1349.02 589.969 1348.35 591.549 1348.01 593.414 1348.01 594.305 1348.01 595.163 1348.1 595.987 1348.29 596.811 1348.48 597.595 1348.77 598.338 1349.14 599.081 1349.52 599.844 1350.01 600.627 1350.62 601.411 1351.23 602.262 1352.07 603.181 1353.14 604.099 1354.2 605.072 1355.56 606.099 1357.21 607.125 1358.86 608.206 1360.68 609.341 1362.68 611.151 1361.33 613.664 1359.3 616.879 1356.6 620.094 1353.9 623.201 1351.18 626.2 1348.45 624.336 1346.64 622.472 1345.3 620.607 1344.42 618.743 1343.54 616.825 1343.1 614.852 1343.1 613.448 1343.1 612.394 1343.43 611.691 1344.08 610.989 1344.73 610.557 1345.77 610.394 1347.2L608.409 1347.2 608.409 1335.65 610.394 1335.65C610.773 1335.65 611.57 1335.78 612.786 1336.05 613.569 1336.22 614.353 1336.42 615.136 1336.66 615.893 1336.9 616.649 1337.19 617.406 1337.51 618.162 1337.84 618.905 1338.2 619.635 1338.61 620.418 1339.01 621.188 1339.47 621.945 1339.98 622.701 1340.5 623.458 1341.05 624.214 1341.65 624.998 1342.27 625.781 1342.96 626.565 1343.71 627.348 1344.44 628.132 1345.23 628.915 1346.06 630.456 1344.74 631.658 1343.58 632.522 1342.6 633.387 1341.61 634.002 1340.73 634.366 1339.96 634.731 1339.19 634.914 1338.39 634.914 1337.55 634.914 1336.74 634.724 1335.97 634.346 1335.22 633.968 1334.48 633.252 1333.49 632.198 1332.24L634.508 1330.38C636.183 1332 637.487 1333.7 638.419 1335.47 639.351 1337.23 639.817 1338.93 639.817 1340.55 639.817 1341.88 639.642 1343.03 639.29 1344.02 638.939 1345 638.358 1346.01 637.548 1347.04 636.737 1348.06 635.44 1349.39 633.657 1351.01 635.873 1353.76 637.453 1356.43 638.399 1359.01 639.344 1361.59 639.817 1364.45 639.817 1367.58 639.817 1370.85 639.257 1373.7 638.135 1376.13 637.014 1378.57 635.427 1380.42 633.373 1381.71 631.32 1382.99 628.902 1383.63 626.119 1383.63 623.904 1383.63 621.897 1383.22 620.101 1382.4 618.304 1381.57 616.555 1380.25 614.852 1378.42 613.15 1376.6 611.394 1374.12 609.584 1370.99 606.99 1372.96 604.633 1374.36 602.512 1375.2 600.391 1376.04 598.223 1376.46 596.007 1376.46 593.495 1376.46 591.272 1375.81 589.341 1374.51 587.409 1373.22 585.902 1371.37 584.822 1368.98 583.741 1366.59 583.201 1363.94 583.201 1361.02Z" fill="#525252" fill-rule="evenodd"/><text fill="#000000" fill-opacity="0" font-family="Arial,Arial_MSFontService,sans-serif" font-size="53.2529" x="583.201" y="1376.98">&amp;</text><path d="M583.849 1301.34 583.849 1273.17 596.291 1276.54 596.291 1280.31C594.13 1280.39 592.556 1280.52 591.57 1280.69 590.583 1280.87 589.908 1281.1 589.543 1281.4 589.178 1281.7 588.935 1282.05 588.814 1282.45 588.692 1282.86 588.631 1283.58 588.631 1284.6L588.631 1296.76 608.53 1301.06 608.449 1281.4 611.935 1282.21 613.92 1287.2 613.718 1302.19 624.984 1304.62C626.903 1305.03 628.625 1305.54 630.152 1306.16 631.678 1306.78 633.036 1307.57 634.225 1308.51 635.413 1309.46 636.481 1310.71 637.426 1312.26 638.372 1313.82 639.007 1315.24 639.331 1316.54 639.655 1317.84 639.817 1319.21 639.817 1320.67 639.817 1322.73 639.243 1324.56 638.095 1326.18 636.947 1327.8 635.197 1329.25 632.847 1330.52L629.685 1325.01C631.928 1323.87 633.583 1322.78 634.65 1321.73 635.717 1320.67 636.251 1319.51 636.251 1318.24 636.251 1317.59 636.123 1316.94 635.866 1316.3 635.609 1315.65 635.103 1315.06 634.346 1314.53 633.59 1314.01 632.522 1313.55 631.144 1313.15 629.767 1312.76 627.538 1312.24 624.457 1311.59L599.331 1306.41C594.954 1305.51 591.522 1304.15 589.037 1302.31L588.631 1302.39C588.631 1306.88 588.834 1310.28 589.239 1312.59 589.644 1314.9 590.333 1316.56 591.306 1317.57 592.279 1318.58 593.684 1319.09 595.521 1319.09 596.899 1319.09 598.574 1318.62 600.546 1317.67L602.978 1323.91C602.005 1324.51 601.093 1324.93 600.242 1325.19 599.391 1325.45 598.452 1325.58 597.426 1325.58 596.291 1325.58 595.143 1325.24 593.981 1324.56 592.576 1323.78 591.151 1322.48 589.705 1320.67 588.26 1318.86 587.071 1317.01 586.139 1315.12 585.207 1313.23 584.579 1311.16 584.254 1308.92 583.984 1307.16 583.849 1304.64 583.849 1301.34Z" fill="#525252" fill-rule="evenodd"/><text fill="#000000" fill-opacity="0" font-family="Arial,Arial_MSFontService,sans-serif" font-size="57.3462" x="583.849" y="1323.35">â„±</text><path d="M617.041 1127.4C618.662 1131.48 619.81 1134.12 620.486 1135.31 621.675 1137.44 622.917 1138.97 624.214 1139.89 625.511 1140.8 626.93 1141.26 628.47 1141.26 630.415 1141.26 632.029 1140.68 633.313 1139.52 634.596 1138.36 635.238 1137.02 635.238 1135.51 635.238 1133.46 633.887 1130.75 631.185 1127.4ZM603.789 1170.08C603.789 1172.32 604.66 1174.33 606.403 1176.1 608.145 1177.87 610.57 1178.9 613.677 1179.2L613.677 1162.01C611.3 1162.15 609.624 1162.43 608.652 1162.86 607.139 1163.54 605.95 1164.55 605.085 1165.88 604.221 1167.22 603.789 1168.62 603.789 1170.08ZM600.952 1102.36 600.952 1100.62 608.814 1100.62C603.572 1096.27 600.952 1092.12 600.952 1088.17 600.952 1086.15 601.458 1084.41 602.471 1082.95 603.485 1081.49 605.153 1080.33 607.477 1079.46 609.098 1078.87 611.583 1078.57 614.934 1078.57L630.78 1078.57C633.13 1078.57 634.724 1078.38 635.562 1078 636.237 1077.7 636.764 1077.23 637.143 1076.56 637.521 1075.9 637.71 1074.68 637.71 1072.9L639.169 1072.9 639.169 1091.25 637.71 1091.25 637.71 1090.48C637.71 1088.76 637.446 1087.55 636.92 1086.86 636.393 1086.17 635.616 1085.69 634.589 1085.42 634.184 1085.31 632.914 1085.26 630.78 1085.26L615.582 1085.26C612.205 1085.26 609.753 1085.7 608.226 1086.57 606.7 1087.45 605.936 1088.93 605.936 1091.01 605.936 1094.23 607.693 1097.43 611.205 1100.62L630.78 1100.62C633.292 1100.62 634.846 1100.47 635.44 1100.17 636.224 1099.79 636.798 1099.27 637.163 1098.61 637.528 1097.95 637.71 1096.6 637.71 1094.58L639.169 1094.58 639.169 1112.94 637.71 1112.94 637.71 1112.13C637.71 1110.23 637.23 1108.96 636.271 1108.3 635.312 1107.63 633.482 1107.3 630.78 1107.3L617 1107.3C612.542 1107.3 609.827 1107.4 608.854 1107.61 607.882 1107.81 607.22 1108.12 606.869 1108.54 606.517 1108.96 606.342 1109.52 606.342 1110.22 606.342 1110.98 606.544 1111.88 606.95 1112.94L605.491 1113.54ZM600.952 1133.08C600.952 1129.78 601.505 1127.08 602.613 1124.97 603.451 1123.38 604.761 1122.2 606.544 1121.45 607.706 1120.96 610.084 1120.72 613.677 1120.72L626.281 1120.72C629.821 1120.72 631.989 1120.65 632.786 1120.51 633.583 1120.38 634.116 1120.16 634.387 1119.84 634.657 1119.53 634.792 1119.18 634.792 1118.77 634.792 1118.34 634.697 1117.96 634.508 1117.64 634.157 1117.07 633.171 1115.97 631.55 1114.35L633.819 1114.35C637.872 1117.38 639.898 1120.27 639.898 1123.03 639.898 1124.35 639.439 1125.4 638.52 1126.19 637.602 1126.97 636.035 1127.38 633.819 1127.4 636.764 1131.21 638.466 1133.6 638.926 1134.58 639.601 1136.04 639.939 1137.59 639.939 1139.24 639.939 1141.8 639.061 1143.92 637.305 1145.58 635.548 1147.24 633.238 1148.07 630.374 1148.07 628.564 1148.07 626.997 1147.67 625.673 1146.86 623.836 1145.75 622.107 1143.82 620.486 1141.08 618.865 1138.34 616.892 1133.78 614.569 1127.4L613.11 1127.4C609.408 1127.4 606.869 1127.99 605.491 1129.17 604.113 1130.34 603.424 1132.05 603.424 1134.29 603.424 1136 603.883 1137.35 604.802 1138.35 605.72 1139.37 606.774 1139.89 607.963 1139.89L610.313 1139.8C611.556 1139.8 612.515 1140.12 613.191 1140.76 613.866 1141.39 614.204 1142.22 614.204 1143.25 614.204 1144.25 613.853 1145.07 613.15 1145.7 612.448 1146.34 611.489 1146.65 610.273 1146.65 607.949 1146.65 605.815 1145.46 603.87 1143.09 601.924 1140.71 600.952 1137.37 600.952 1133.08ZM600.952 1240.16 600.952 1238.41 608.854 1238.41C606.153 1235.71 604.599 1234.12 604.194 1233.63 603.167 1232.42 602.37 1231.11 601.803 1229.7 601.235 1228.3 600.952 1226.9 600.952 1225.53 600.952 1223.2 601.627 1221.2 602.978 1219.53 604.329 1217.85 606.288 1216.73 608.854 1216.16 605.612 1213.38 603.485 1211.03 602.471 1209.11 601.458 1207.19 600.952 1205.22 600.952 1203.2 600.952 1201.22 601.458 1199.47 602.471 1197.95 603.485 1196.42 605.139 1195.21 607.436 1194.32 609.003 1193.73 611.462 1193.43 614.812 1193.43L630.78 1193.43C633.103 1193.43 634.697 1193.25 635.562 1192.9 636.156 1192.63 636.663 1192.13 637.082 1191.4 637.5 1190.67 637.71 1189.48 637.71 1187.84L639.169 1187.84 639.169 1206.15 637.71 1206.15 637.71 1205.38C637.71 1203.79 637.399 1202.55 636.778 1201.66 636.345 1201.03 635.656 1200.59 634.711 1200.32 634.252 1200.21 632.941 1200.16 630.78 1200.16L614.812 1200.16C611.786 1200.16 609.651 1200.52 608.409 1201.25 606.679 1202.3 605.815 1203.99 605.815 1206.32 605.815 1207.75 606.173 1209.19 606.889 1210.63 607.605 1212.08 608.935 1213.83 610.881 1215.88L611.327 1215.96 613.069 1215.88 630.78 1215.88C633.319 1215.88 634.9 1215.74 635.521 1215.45 636.143 1215.17 636.663 1214.64 637.082 1213.85 637.5 1213.07 637.71 1211.73 637.71 1209.84L639.169 1209.84 639.169 1228.61 637.71 1228.61C637.71 1226.55 637.467 1225.14 636.98 1224.37 636.494 1223.6 635.765 1223.07 634.792 1222.77 634.333 1222.63 632.995 1222.57 630.78 1222.57L614.812 1222.57C611.786 1222.57 609.611 1223.01 608.287 1223.9 606.558 1225.09 605.693 1226.76 605.693 1228.89 605.693 1230.35 606.085 1231.79 606.869 1233.23 608.057 1235.47 609.395 1237.2 610.881 1238.41L630.78 1238.41C633.211 1238.41 634.792 1238.24 635.521 1237.91 636.251 1237.57 636.798 1237.07 637.163 1236.41 637.528 1235.75 637.71 1234.4 637.71 1232.38L639.169 1232.38 639.169 1250.73 637.71 1250.73C637.71 1249.03 637.528 1247.84 637.163 1247.17 636.798 1246.49 636.217 1245.98 635.42 1245.63 634.623 1245.28 633.076 1245.1 630.78 1245.1L616.595 1245.1C612.515 1245.1 609.881 1245.22 608.692 1245.47 607.801 1245.65 607.186 1245.95 606.848 1246.36 606.511 1246.76 606.342 1247.32 606.342 1248.02 606.342 1248.78 606.544 1249.68 606.95 1250.73L605.491 1251.34ZM600.911 1167.81C600.911 1163.65 602.282 1160.23 605.025 1157.55 607.767 1154.88 611.435 1153.54 616.028 1153.54L616.028 1179.2C621.539 1179.22 625.862 1177.89 628.997 1175.18 632.131 1172.48 633.698 1169.31 633.698 1165.66 633.698 1163.23 633.029 1161.11 631.692 1159.32 630.354 1157.52 628.064 1156.01 624.822 1154.8L625.633 1153.54C629.334 1154.11 632.705 1155.76 635.744 1158.49 638.784 1161.22 640.304 1164.63 640.304 1168.74 640.304 1173.2 638.568 1177.01 635.096 1180.19 631.624 1183.36 626.957 1184.95 621.094 1184.95 614.744 1184.95 609.793 1183.32 606.24 1180.07 602.688 1176.81 600.911 1172.72 600.911 1167.81Z" fill="#525252" fill-rule="evenodd"/><text fill="#000000" fill-opacity="0" font-family="Arial,Arial_MSFontService,sans-serif" font-size="178.446" x="600.911" y="1229.04">mean</text><path d="M894.5 1852.5 3815.82 1852.5" stroke="#BDD7EE" stroke-width="6.875" stroke-miterlimit="8" stroke-dasharray="27.5 20.625" fill="none" fill-rule="evenodd"/><path d="M0 0 2921.32 7.93097" stroke="#BDD7EE" stroke-width="6.875" stroke-miterlimit="8" stroke-dasharray="27.5 20.625" fill="none" fill-rule="evenodd" transform="matrix(1 0 0 -1 894.5 1523.43)"/><path d="M894.5 1211.5 3815.82 1211.5" stroke="#BDD7EE" stroke-width="6.875" stroke-miterlimit="8" stroke-dasharray="27.5 20.625" fill="none" fill-rule="evenodd"/><path d="M0 0 2921.32 8.46617" stroke="#BDD7EE" stroke-width="6.875" stroke-miterlimit="8" stroke-dasharray="27.5 20.625" fill="none" fill-rule="evenodd" transform="matrix(1 0 0 -1 894.5 913.966)"/><path d="M0 0 2927.3 17.3358" stroke="#BDD7EE" stroke-width="6.875" stroke-miterlimit="8" stroke-dasharray="27.5 20.625" fill="none" fill-rule="evenodd" transform="matrix(1 0 0 -1 888.5 610.836)"/><path d="M1126.5 477.5 1126.5 2164.98" stroke="#BDD7EE" stroke-width="6.875" stroke-miterlimit="8" stroke-dasharray="27.5 20.625" fill="none" fill-rule="evenodd"/><path d="M1448.5 477.5 1448.5 2164.98" stroke="#BDD7EE" stroke-width="6.875" stroke-miterlimit="8" stroke-dasharray="27.5 20.625" fill="none" fill-rule="evenodd"/><path d="M1797.5 477.5 1797.5 2164.98" stroke="#BDD7EE" stroke-width="6.875" stroke-miterlimit="8" stroke-dasharray="27.5 20.625" fill="none" fill-rule="evenodd"/><path d="M2141.5 477.5 2141.5 2164.98" stroke="#BDD7EE" stroke-width="6.875" stroke-miterlimit="8" stroke-dasharray="27.5 20.625" fill="none" fill-rule="evenodd"/><path d="M2482.5 477.5 2482.5 2164.98" stroke="#BDD7EE" stroke-width="6.875" stroke-miterlimit="8" stroke-dasharray="27.5 20.625" fill="none" fill-rule="evenodd"/><path d="M2827.5 477.5 2827.5 2164.98" stroke="#BDD7EE" stroke-width="6.875" stroke-miterlimit="8" stroke-dasharray="27.5 20.625" fill="none" fill-rule="evenodd"/><path d="M3205.5 477.5 3205.5 2164.98" stroke="#BDD7EE" stroke-width="6.875" stroke-miterlimit="8" stroke-dasharray="27.5 20.625" fill="none" fill-rule="evenodd"/><path d="M1558.24 378.15C1556.73 378.15 1555.43 378.386 1554.33 378.859 1553.24 379.332 1552.15 380.095 1551.07 381.149 1549.99 382.202 1549.22 383.222 1548.78 384.208 1548.33 385.195 1548.11 386.255 1548.11 387.39L1548.11 398.089C1548.11 400.683 1548.27 402.682 1548.6 404.087 1548.92 405.492 1549.49 406.633 1550.32 407.512 1551.14 408.39 1552.12 409.045 1553.24 409.477 1554.36 409.909 1555.84 410.126 1557.67 410.126 1560.94 410.126 1563.4 408.768 1565.05 406.053 1566.7 403.337 1567.52 399.332 1567.52 394.036 1567.52 383.445 1564.43 378.15 1558.24 378.15ZM1685.09 376.447C1682.34 376.447 1679.86 377.562 1677.68 379.791 1675.49 382.02 1673.77 385.026 1672.51 388.808 1671.25 392.591 1670.62 396.36 1670.62 400.115 1670.62 402.925 1671.01 405.026 1671.78 406.417 1672.55 407.809 1673.84 408.504 1675.65 408.504 1676.49 408.504 1677.34 408.322 1678.2 407.957 1679.07 407.593 1679.97 407.005 1680.9 406.194 1681.83 405.384 1682.75 404.398 1683.65 403.236 1684.56 402.074 1685.39 400.906 1686.15 399.73 1686.9 398.555 1687.61 397.164 1688.25 395.556 1688.9 393.948 1689.46 392.01 1689.92 389.74L1690.28 387.998C1690.69 386.052 1690.89 384.215 1690.89 382.486 1690.89 380.379 1690.44 378.845 1689.55 377.886 1688.66 376.927 1687.17 376.447 1685.09 376.447ZM1645.25 376.447C1642.53 376.447 1639.9 377.825 1637.37 380.581 1634.85 383.337 1632.91 387.066 1631.56 391.767 1635.37 391.74 1638.64 391.395 1641.36 390.733 1644.09 390.071 1646.19 389.018 1647.65 387.572 1649.1 386.127 1649.83 384.175 1649.83 381.716 1649.83 380.068 1649.45 378.778 1648.68 377.846 1647.91 376.913 1646.77 376.447 1645.25 376.447ZM1600.59 376.447C1597.81 376.447 1595.59 377.562 1593.93 379.791 1592.27 382.02 1591.29 385.201 1590.99 389.335L1608.7 389.335C1608.54 386.417 1608.17 384.033 1607.61 382.182 1607.04 380.331 1606.19 378.913 1605.05 377.927 1603.92 376.94 1602.43 376.447 1600.59 376.447ZM1561.28 373.286C1565.74 373.286 1569.16 374.955 1571.55 378.291 1573.95 381.628 1575.14 386.512 1575.14 392.942 1575.14 397.4 1574.47 401.149 1573.12 404.188 1571.76 407.228 1569.8 409.511 1567.22 411.037 1564.64 412.564 1561.56 413.327 1558 413.327 1556 413.327 1554.19 413.158 1552.57 412.821 1550.95 412.483 1549.46 412.03 1548.11 411.463L1548.11 420.014C1548.11 421.77 1548.17 423.081 1548.29 423.945 1548.41 424.81 1548.63 425.492 1548.94 425.992 1549.25 426.492 1549.7 426.904 1550.28 427.228 1550.86 427.552 1551.8 427.85 1553.09 428.12L1553.09 430.106 1536.56 430.106 1536.56 428.12C1537.53 427.85 1538.32 427.573 1538.93 427.289 1539.54 427.005 1540 426.586 1540.33 426.033 1540.65 425.479 1540.87 424.729 1540.98 423.783 1541.09 422.838 1541.14 421.581 1541.14 420.014L1541.14 385.242C1541.14 383.296 1541.11 381.912 1541.06 381.088 1541 380.264 1540.9 379.581 1540.73 379.041 1540.57 378.501 1540.34 378.055 1540.02 377.704 1539.71 377.352 1539.3 377.055 1538.77 376.812 1538.24 376.569 1537.37 376.326 1536.15 376.083L1536.15 373.935 1545.68 373.57 1548.15 373.57 1547.62 380.176 1548.23 380.338C1549.91 378.636 1551.23 377.4 1552.2 376.63 1553.18 375.86 1554.18 375.218 1555.22 374.705 1556.26 374.191 1557.26 373.827 1558.22 373.61 1559.18 373.394 1560.2 373.286 1561.28 373.286ZM1646.71 373.246C1649.98 373.246 1652.43 373.908 1654.07 375.232 1655.7 376.555 1656.52 378.622 1656.52 381.432 1656.52 386.025 1654.37 389.47 1650.06 391.767 1645.75 394.063 1639.35 395.212 1630.87 395.212 1630.54 396.833 1630.38 398.589 1630.38 400.48 1630.38 403.317 1630.94 405.377 1632.04 406.66 1633.15 407.944 1634.96 408.586 1637.47 408.586 1639.96 408.586 1642.21 408.045 1644.22 406.964 1646.23 405.884 1648.36 404.222 1650.6 401.98L1653.12 404.614C1650.5 407.505 1647.84 409.68 1645.15 411.139 1642.47 412.598 1639.34 413.327 1635.77 413.327 1631.85 413.327 1628.82 412.132 1626.67 409.741 1624.53 407.349 1623.45 404.019 1623.45 399.751 1623.45 396.86 1623.97 393.759 1625.01 390.45 1626.05 387.14 1627.63 384.168 1629.73 381.534 1631.84 378.899 1634.37 376.859 1637.31 375.414 1640.26 373.968 1643.39 373.246 1646.71 373.246ZM1601 373.246C1603.73 373.246 1606.05 373.678 1607.97 374.543 1609.89 375.407 1611.42 376.589 1612.57 378.089 1613.72 379.588 1614.61 381.479 1615.24 383.763 1615.88 386.046 1616.24 389.024 1616.32 392.699L1590.79 392.699 1590.79 393.428C1590.79 396.616 1591.14 399.298 1591.86 401.473 1592.58 403.648 1593.75 405.35 1595.39 406.579 1597.02 407.809 1599.15 408.423 1601.77 408.423 1603.98 408.423 1605.98 408.011 1607.75 407.187 1609.52 406.363 1611.28 405.019 1613.04 403.155L1615.51 405.789C1613.78 407.599 1612.19 409.018 1610.75 410.045 1609.3 411.071 1607.71 411.875 1605.98 412.456 1604.26 413.037 1602.35 413.327 1600.27 413.327 1594.7 413.327 1590.5 411.659 1587.67 408.322 1584.83 404.985 1583.41 400.061 1583.41 393.55 1583.41 389.524 1584.13 385.971 1585.58 382.891 1587.02 379.811 1589.08 377.434 1591.76 375.758 1594.43 374.083 1597.51 373.246 1601 373.246ZM1515.01 356.711C1517.07 356.711 1519.07 356.819 1521.03 357.035 1522.99 357.251 1525.44 357.737 1528.39 358.494L1528.39 369.436 1524.37 369.436C1523.75 367.059 1522.97 365.208 1522.02 363.884 1521.08 362.56 1519.97 361.635 1518.7 361.108 1517.43 360.581 1515.78 360.317 1513.76 360.317 1512 360.317 1510.43 360.642 1509.03 361.29 1507.64 361.939 1506.54 362.918 1505.73 364.228 1504.92 365.539 1504.52 367.099 1504.52 368.909 1504.52 370.828 1504.86 372.449 1505.55 373.773 1506.24 375.096 1507.31 376.326 1508.77 377.461 1510.23 378.595 1512.39 379.865 1515.26 381.27 1518.71 382.999 1521.4 384.607 1523.3 386.093 1525.21 387.579 1526.69 389.274 1527.76 391.179 1528.83 393.084 1529.36 395.306 1529.36 397.846 1529.36 400.683 1528.91 403.081 1528.02 405.039 1527.13 406.998 1525.89 408.592 1524.31 409.822 1522.73 411.051 1520.84 411.943 1518.64 412.496 1516.44 413.05 1514.03 413.327 1511.41 413.327 1507.16 413.327 1502.27 412.611 1496.73 411.179L1496.73 400.075 1500.79 400.075C1501.33 402.452 1502.06 404.33 1502.98 405.708 1503.89 407.086 1505.08 408.106 1506.54 408.768 1508 409.43 1509.88 409.761 1512.18 409.761 1515.34 409.761 1517.76 408.937 1519.45 407.289 1521.14 405.641 1521.98 403.236 1521.98 400.075 1521.98 398.048 1521.63 396.346 1520.93 394.968 1520.23 393.59 1519.08 392.294 1517.48 391.078 1515.89 389.862 1513.46 388.443 1510.19 386.822 1507.03 385.255 1504.53 383.722 1502.69 382.223 1500.86 380.723 1499.48 379.095 1498.58 377.339 1497.67 375.583 1497.22 373.664 1497.22 371.584 1497.22 368.558 1497.93 365.931 1499.35 363.702 1500.77 361.473 1502.85 359.75 1505.59 358.534 1508.33 357.318 1511.47 356.711 1515.01 356.711ZM1702.07 354.725 1704.46 354.725 1694.37 399.588C1693.78 402.236 1693.48 404.236 1693.48 405.587 1693.48 406.667 1693.66 407.451 1694.01 407.937 1694.36 408.423 1694.91 408.667 1695.67 408.667 1696.48 408.667 1697.35 408.336 1698.26 407.674 1699.18 407.012 1700.48 405.749 1702.15 403.884L1704.46 406.154C1701.98 408.775 1699.89 410.625 1698.18 411.706 1696.48 412.787 1694.64 413.327 1692.67 413.327 1691 413.327 1689.66 412.773 1688.66 411.666 1687.66 410.558 1687.16 409.085 1687.16 407.248 1687.16 405.762 1687.47 404.182 1688.09 402.506L1687.56 402.344C1684.97 406.127 1682.51 408.896 1680.19 410.652 1677.87 412.409 1675.41 413.287 1672.81 413.287 1669.84 413.287 1667.54 412.165 1665.9 409.923 1664.27 407.68 1663.45 404.533 1663.45 400.48 1663.45 395.833 1664.36 391.368 1666.19 387.086 1668.01 382.803 1670.52 379.426 1673.7 376.954 1676.89 374.482 1680.45 373.246 1684.36 373.246 1686.01 373.246 1687.53 373.415 1688.92 373.752 1690.31 374.09 1691.74 374.678 1693.2 375.515L1695.31 366.153C1695.52 365.262 1695.71 364.276 1695.87 363.195 1696.04 362.114 1696.12 361.169 1696.12 360.358 1696.12 359.547 1695.97 358.933 1695.67 358.514 1695.37 358.095 1694.95 357.791 1694.39 357.602 1693.84 357.413 1692.85 357.278 1691.42 357.197L1691.9 355.089Z" fill="#525252" fill-rule="evenodd"/><text fill="#000000" fill-opacity="0" font-family="Arial,Arial_MSFontService,sans-serif" font-size="75.3809" x="1496.73" y="420.683">Speğ‘’ğ‘‘</text><path d="M1795.6 373.286C1798.11 373.286 1800.4 373.435 1802.47 373.732 1804.54 374.029 1806.6 374.543 1808.65 375.272L1806.83 383.783 1803.54 383.783C1803.25 381.378 1802.46 379.554 1801.17 378.312 1799.89 377.069 1797.87 376.447 1795.11 376.447 1792.98 376.447 1791.25 376.994 1789.93 378.089 1788.6 379.183 1787.94 380.622 1787.94 382.405 1787.94 383.378 1788.11 384.235 1788.45 384.978 1788.78 385.721 1789.47 386.539 1790.49 387.43 1791.52 388.322 1793.11 389.416 1795.28 390.713 1796.98 391.74 1798.34 392.679 1799.37 393.53 1800.4 394.381 1801.21 395.225 1801.8 396.063 1802.39 396.9 1802.83 397.785 1803.1 398.717 1803.37 399.649 1803.5 400.777 1803.5 402.101 1803.5 404.506 1802.86 406.566 1801.58 408.282 1800.29 409.997 1798.55 411.274 1796.35 412.111 1794.15 412.949 1791.64 413.368 1788.83 413.368 1786.59 413.368 1784.39 413.199 1782.23 412.861 1780.06 412.523 1777.66 411.949 1775.01 411.139L1776.96 402.304 1780.12 402.304C1780.23 404.898 1780.96 406.856 1782.31 408.18 1783.66 409.504 1785.81 410.166 1788.75 410.166 1791.32 410.166 1793.32 409.592 1794.77 408.444 1796.21 407.295 1796.94 405.668 1796.94 403.56 1796.94 402.344 1796.73 401.297 1796.33 400.419 1795.92 399.541 1795.26 398.697 1794.34 397.886 1793.42 397.076 1791.97 396.063 1789.97 394.847 1787.86 393.577 1786.22 392.429 1785.04 391.402 1783.87 390.375 1782.98 389.261 1782.39 388.058 1781.79 386.856 1781.5 385.471 1781.5 383.904 1781.5 381.77 1782.07 379.899 1783.22 378.291 1784.37 376.684 1786.01 375.448 1788.14 374.583 1790.28 373.719 1792.76 373.286 1795.6 373.286ZM1766.36 373.084C1768.31 373.084 1769.71 373.59 1770.58 374.603 1771.44 375.617 1771.88 376.974 1771.88 378.676 1771.88 379.973 1771.65 381.459 1771.19 383.134 1770.73 384.81 1770.08 386.579 1769.24 388.443 1768.4 390.308 1767.4 392.219 1766.24 394.178 1765.08 396.137 1763.8 398.042 1762.39 399.892 1760.99 401.743 1759.49 403.486 1757.89 405.12 1756.3 406.755 1754.65 408.18 1752.93 409.396 1751.21 410.612 1749.47 411.578 1747.7 412.294 1745.93 413.01 1744.17 413.368 1742.41 413.368 1741.63 413.368 1740.97 413.172 1740.45 412.78 1739.92 412.388 1739.5 411.834 1739.17 411.118 1738.85 410.403 1738.62 409.558 1738.48 408.586 1738.35 407.613 1738.28 406.546 1738.28 405.384 1738.28 403.844 1738.37 402.196 1738.56 400.44 1738.75 398.683 1739 396.914 1739.29 395.13L1740.99 383.904C1741.1 383.256 1741.19 382.641 1741.26 382.06 1741.33 381.479 1741.36 381.054 1741.36 380.784 1741.36 379.946 1741.22 379.257 1740.95 378.717 1740.68 378.177 1740.22 377.906 1739.58 377.906 1739.06 377.906 1738.51 378.062 1737.91 378.372 1737.32 378.683 1736.72 379.082 1736.11 379.568 1735.5 380.054 1734.92 380.574 1734.35 381.128 1733.78 381.682 1733.25 382.202 1732.77 382.689L1730.82 380.419C1731.66 379.554 1732.55 378.697 1733.5 377.846 1734.44 376.994 1735.44 376.224 1736.5 375.535 1737.55 374.847 1738.66 374.293 1739.82 373.874 1740.98 373.455 1742.17 373.246 1743.39 373.246 1744.41 373.246 1745.25 373.415 1745.9 373.752 1746.55 374.09 1747.05 374.536 1747.42 375.09 1747.78 375.644 1748.03 376.251 1748.17 376.913 1748.3 377.575 1748.37 378.231 1748.37 378.879 1748.37 379.257 1748.36 379.622 1748.33 379.973 1748.3 380.324 1748.26 380.649 1748.21 380.946L1745.94 395.617C1745.7 397.157 1745.49 398.663 1745.33 400.136 1745.17 401.608 1745.09 402.912 1745.09 404.046 1745.09 405.181 1745.16 406.1 1745.29 406.802 1745.43 407.505 1745.68 407.856 1746.06 407.856 1746.95 407.856 1748.07 407.498 1749.42 406.782 1750.78 406.066 1752.19 405.08 1753.68 403.824 1755.17 402.567 1756.65 401.081 1758.14 399.366 1759.62 397.65 1760.96 395.792 1762.15 393.793 1763.34 391.794 1764.3 389.686 1765.05 387.471 1765.79 385.255 1766.16 383.026 1766.16 380.784 1766.16 379.811 1765.95 379.061 1765.53 378.535 1765.12 378.008 1764.46 377.744 1763.57 377.744 1762.43 377.744 1761.39 378.183 1760.43 379.061 1759.47 379.939 1758.48 381.094 1757.45 382.526L1755.14 380.46C1755.79 379.487 1756.55 378.555 1757.43 377.663 1758.31 376.772 1759.24 375.988 1760.22 375.313 1761.21 374.637 1762.23 374.097 1763.28 373.691 1764.34 373.286 1765.37 373.084 1766.36 373.084Z" fill="#525252" fill-rule="evenodd"/><text fill="#000000" fill-opacity="0" font-family="Arial,Arial_MSFontService,sans-serif" font-size="40.2842" x="1730.82" y="408.332">ğ‘£ğ‘ </text><path d="M1872.22 357.359 1878.46 357.359 1879.56 359.75C1879.23 360.399 1878.89 361.27 1878.52 362.364 1878.16 363.458 1877.73 365.194 1877.25 367.572L1869.63 403.236C1868.76 407.343 1867.56 410.76 1866.02 413.489 1864.81 415.705 1863.25 417.637 1861.36 419.285 1859.28 421.122 1857.27 422.446 1855.32 423.256 1852.78 424.31 1849.93 424.837 1846.77 424.837 1843.77 424.837 1841.1 424.27 1838.75 423.135 1836.4 422 1834.6 420.514 1833.36 418.677 1832.11 416.84 1831.49 414.854 1831.49 412.719 1831.49 411.233 1831.69 409.835 1832.08 408.525 1832.47 407.214 1833.13 405.87 1834.07 404.492 1835 403.114 1836.21 401.743 1837.71 400.379 1839.21 399.014 1841.64 397.157 1844.99 394.806L1847.01 397.562C1843.8 400.129 1841.57 402.405 1840.33 404.391 1839.08 406.377 1838.46 408.599 1838.46 411.058 1838.46 413.192 1838.96 415.023 1839.94 416.549 1840.93 418.076 1842.15 419.197 1843.61 419.913 1845.07 420.629 1846.58 420.987 1848.15 420.987 1850.5 420.987 1852.52 420.521 1854.21 419.589 1855.9 418.657 1857.37 417.083 1858.63 414.867 1859.88 412.652 1860.92 409.626 1861.73 405.789L1868.66 373.529C1869.2 371.017 1869.78 368.882 1870.42 367.126 1871.05 365.37 1871.87 363.843 1872.87 362.546L1872.79 362.141C1868.33 362.141 1864.92 362.263 1862.56 362.506 1860.19 362.749 1858.4 363.114 1857.17 363.6 1855.94 364.087 1855.05 364.748 1854.49 365.586 1853.94 366.424 1853.66 367.572 1853.66 369.031 1853.66 370.409 1854.13 372.084 1855.08 374.056L1848.84 376.488C1848.24 375.515 1847.82 374.603 1847.56 373.752 1847.31 372.901 1847.18 371.962 1847.18 370.936 1847.18 369.99 1847.43 368.99 1847.93 367.937 1848.43 366.883 1849.28 365.775 1850.5 364.613 1851.93 363.235 1853.65 361.952 1855.65 360.763 1857.43 359.683 1859.24 358.872 1861.08 358.332 1862.59 357.899 1864.35 357.616 1866.35 357.481 1867.59 357.4 1869.55 357.359 1872.22 357.359Z" fill="#525252" fill-rule="evenodd"/><text fill="#000000" fill-opacity="0" font-family="Arial,Arial_MSFontService,sans-serif" font-size="67.478" x="1831.49" y="416.402">ğ’¥</text><path d="M1903.17 386.012C1900.52 387.741 1898.59 389.558 1897.37 391.463 1896.16 393.368 1895.55 395.536 1895.55 397.967 1895.55 400.21 1896.01 402.148 1896.93 403.783 1897.85 405.418 1899.1 406.64 1900.7 407.451 1902.29 408.261 1904.09 408.667 1906.09 408.667 1908.44 408.667 1910.56 408.356 1912.45 407.734 1914.34 407.113 1916.35 406.019 1918.49 404.452 1917.62 403.479 1916.38 402.047 1914.76 400.156L1908.07 392.172C1906.97 390.821 1905.98 389.605 1905.12 388.525ZM1910.42 360.155C1908.83 360.155 1907.42 360.5 1906.19 361.189 1904.96 361.878 1904 362.877 1903.31 364.188 1902.62 365.498 1902.28 367.045 1902.28 368.828 1902.28 370.476 1902.62 372.165 1903.31 373.894 1904 375.623 1905.22 377.69 1906.98 380.095 1910.44 378.258 1913.05 376.285 1914.82 374.178 1916.59 372.07 1917.48 369.868 1917.48 367.572 1917.48 366.032 1917.19 364.701 1916.6 363.58 1916.02 362.459 1915.19 361.608 1914.11 361.027 1913.03 360.446 1911.8 360.155 1910.42 360.155ZM1910.91 356.711C1912.72 356.711 1914.42 356.893 1916 357.258 1917.58 357.622 1918.96 358.21 1920.13 359.021 1921.31 359.831 1922.23 360.885 1922.91 362.182 1923.58 363.479 1923.92 365.059 1923.92 366.923 1923.92 367.815 1923.83 368.673 1923.64 369.497 1923.45 370.321 1923.16 371.104 1922.79 371.848 1922.41 372.591 1921.91 373.354 1921.31 374.137 1920.7 374.921 1919.86 375.772 1918.79 376.691 1917.73 377.609 1916.37 378.582 1914.72 379.608 1913.07 380.635 1911.25 381.716 1909.25 382.851 1910.6 384.661 1912.63 387.174 1915.33 390.389 1918.03 393.604 1920.75 396.711 1923.47 399.71 1925.28 397.846 1926.63 395.982 1927.51 394.117 1928.38 392.253 1928.82 390.335 1928.82 388.362 1928.82 386.957 1928.5 385.904 1927.85 385.201 1927.2 384.499 1926.16 384.066 1924.73 383.904L1924.73 381.919 1936.28 381.919 1936.28 383.904C1936.28 384.283 1936.15 385.08 1935.88 386.296 1935.71 387.079 1935.51 387.863 1935.27 388.646 1935.02 389.403 1934.74 390.159 1934.42 390.916 1934.09 391.672 1933.73 392.415 1933.32 393.145 1932.92 393.928 1932.46 394.698 1931.94 395.455 1931.43 396.211 1930.88 396.968 1930.28 397.724 1929.66 398.508 1928.97 399.291 1928.22 400.075 1927.49 400.858 1926.7 401.642 1925.87 402.425 1927.19 403.965 1928.34 405.168 1929.33 406.032 1930.32 406.897 1931.19 407.512 1931.96 407.876 1932.73 408.241 1933.54 408.423 1934.38 408.423 1935.19 408.423 1935.96 408.234 1936.71 407.856 1937.45 407.478 1938.44 406.762 1939.69 405.708L1941.55 408.018C1939.93 409.693 1938.23 410.997 1936.46 411.929 1934.69 412.861 1933 413.327 1931.38 413.327 1930.05 413.327 1928.9 413.152 1927.91 412.8 1926.93 412.449 1925.92 411.868 1924.89 411.058 1923.87 410.247 1922.54 408.95 1920.92 407.167 1918.17 409.383 1915.5 410.963 1912.92 411.909 1910.34 412.854 1907.48 413.327 1904.35 413.327 1901.08 413.327 1898.23 412.767 1895.79 411.645 1893.36 410.524 1891.5 408.937 1890.22 406.883 1888.94 404.83 1888.3 402.412 1888.3 399.629 1888.3 397.414 1888.71 395.407 1889.53 393.611 1890.36 391.814 1891.68 390.065 1893.5 388.362 1895.33 386.66 1897.81 384.904 1900.94 383.094 1898.97 380.5 1897.56 378.143 1896.73 376.022 1895.89 373.901 1895.47 371.733 1895.47 369.517 1895.47 367.004 1896.12 364.782 1897.42 362.85 1898.71 360.919 1900.56 359.412 1902.95 358.332 1905.34 357.251 1907.99 356.711 1910.91 356.711Z" fill="#525252" fill-rule="evenodd"/><text fill="#000000" fill-opacity="0" font-family="Arial,Arial_MSFontService,sans-serif" font-size="56.6167" x="1888.3" y="406.25">&amp;</text><path d="M1970.59 357.359 1998.75 357.359 1995.39 369.801 1991.62 369.801C1991.54 367.639 1991.41 366.066 1991.24 365.079 1991.06 364.093 1990.82 363.418 1990.53 363.053 1990.23 362.688 1989.88 362.445 1989.47 362.324 1989.07 362.202 1988.35 362.141 1987.33 362.141L1975.17 362.141 1970.87 382.04 1990.53 381.959 1989.72 385.444 1984.73 387.43 1969.74 387.228 1967.31 398.494C1966.9 400.413 1966.39 402.135 1965.77 403.661 1965.14 405.188 1964.36 406.546 1963.41 407.734 1962.47 408.923 1961.22 409.99 1959.67 410.936 1958.11 411.882 1956.69 412.517 1955.39 412.841 1954.09 413.165 1952.72 413.327 1951.26 413.327 1949.2 413.327 1947.37 412.753 1945.74 411.605 1944.12 410.457 1942.68 408.707 1941.41 406.357L1946.92 403.195C1948.05 405.438 1949.15 407.093 1950.2 408.16 1951.26 409.227 1952.42 409.761 1953.69 409.761 1954.34 409.761 1954.98 409.633 1955.63 409.376 1956.28 409.119 1956.87 408.613 1957.4 407.856 1957.92 407.1 1958.38 406.032 1958.77 404.654 1959.17 403.276 1959.69 401.047 1960.33 397.967L1965.52 372.84C1966.41 368.463 1967.78 365.032 1969.62 362.546L1969.53 362.141C1965.05 362.141 1961.65 362.344 1959.34 362.749 1957.03 363.154 1955.37 363.843 1954.36 364.816 1953.34 365.789 1952.84 367.194 1952.84 369.031 1952.84 370.409 1953.31 372.084 1954.26 374.056L1948.01 376.488C1947.42 375.515 1946.99 374.603 1946.74 373.752 1946.48 372.901 1946.35 371.962 1946.35 370.936 1946.35 369.801 1946.69 368.653 1947.37 367.491 1948.15 366.086 1949.45 364.661 1951.26 363.215 1953.07 361.77 1954.92 360.581 1956.81 359.649 1958.7 358.717 1960.77 358.088 1963.01 357.764 1964.77 357.494 1967.29 357.359 1970.59 357.359Z" fill="#525252" fill-rule="evenodd"/><text fill="#000000" fill-opacity="0" font-family="Arial,Arial_MSFontService,sans-serif" font-size="55.9683" x="1941.41" y="406.331">â„±</text><path d="M2144.53 390.551C2140.45 392.172 2137.81 393.32 2136.62 393.996 2134.49 395.185 2132.96 396.427 2132.04 397.724 2131.12 399.021 2130.66 400.44 2130.66 401.98 2130.66 403.925 2131.25 405.539 2132.41 406.823 2133.57 408.106 2134.91 408.748 2136.42 408.748 2138.47 408.748 2141.18 407.397 2144.53 404.695ZM2101.85 377.298C2099.61 377.298 2097.6 378.17 2095.83 379.912 2094.06 381.655 2093.03 384.08 2092.73 387.187L2109.92 387.187C2109.78 384.81 2109.5 383.134 2109.07 382.162 2108.39 380.649 2107.38 379.46 2106.05 378.595 2104.71 377.731 2103.31 377.298 2101.85 377.298ZM2169.57 374.462 2171.31 374.462 2171.31 382.324C2175.66 377.082 2179.81 374.462 2183.75 374.462 2185.78 374.462 2187.52 374.968 2188.98 375.981 2190.44 376.994 2191.6 378.663 2192.47 380.986 2193.06 382.608 2193.36 385.093 2193.36 388.443L2193.36 404.29C2193.36 406.64 2193.55 408.234 2193.93 409.072 2194.22 409.747 2194.7 410.274 2195.37 410.652 2196.03 411.031 2197.25 411.22 2199.03 411.22L2199.03 412.679 2180.67 412.679 2180.67 411.22 2181.44 411.22C2183.17 411.22 2184.38 410.956 2185.07 410.43 2185.76 409.903 2186.24 409.126 2186.51 408.099 2186.62 407.694 2186.67 406.424 2186.67 404.29L2186.67 389.092C2186.67 385.715 2186.23 383.263 2185.35 381.736 2184.48 380.21 2183 379.446 2180.92 379.446 2177.7 379.446 2174.5 381.203 2171.31 384.715L2171.31 404.29C2171.31 406.802 2171.46 408.356 2171.76 408.95 2172.14 409.734 2172.66 410.308 2173.32 410.673 2173.98 411.037 2175.32 411.22 2177.35 411.22L2177.35 412.679 2158.99 412.679 2158.99 411.22 2159.8 411.22C2161.69 411.22 2162.97 410.74 2163.63 409.781 2164.29 408.822 2164.63 406.991 2164.63 404.29L2164.63 390.51C2164.63 386.052 2164.52 383.337 2164.32 382.364 2164.12 381.392 2163.81 380.73 2163.39 380.379 2162.97 380.027 2162.41 379.852 2161.71 379.852 2160.95 379.852 2160.05 380.054 2158.99 380.46L2158.38 379.001ZM2138.85 374.462C2142.15 374.462 2144.85 375.015 2146.96 376.123 2148.55 376.961 2149.73 378.271 2150.48 380.054 2150.97 381.216 2151.21 383.594 2151.21 387.187L2151.21 399.791C2151.21 403.331 2151.28 405.499 2151.41 406.296 2151.55 407.093 2151.77 407.626 2152.08 407.897 2152.39 408.167 2152.75 408.302 2153.16 408.302 2153.59 408.302 2153.97 408.207 2154.29 408.018 2154.86 407.667 2155.95 406.681 2157.57 405.06L2157.57 407.329C2154.55 411.382 2151.66 413.408 2148.9 413.408 2147.58 413.408 2146.52 412.949 2145.74 412.03 2144.96 411.112 2144.55 409.545 2144.53 407.329 2140.72 410.274 2138.32 411.976 2137.35 412.436 2135.89 413.111 2134.34 413.449 2132.69 413.449 2130.12 413.449 2128.01 412.571 2126.35 410.815 2124.69 409.058 2123.86 406.748 2123.86 403.884 2123.86 402.074 2124.26 400.507 2125.07 399.183 2126.18 397.346 2128.1 395.617 2130.85 393.996 2133.59 392.375 2138.15 390.402 2144.53 388.079L2144.53 386.62C2144.53 382.918 2143.94 380.379 2142.76 379.001 2141.59 377.623 2139.88 376.934 2137.64 376.934 2135.93 376.934 2134.58 377.393 2133.58 378.312 2132.56 379.23 2132.04 380.284 2132.04 381.473L2132.12 383.823C2132.12 385.066 2131.81 386.025 2131.17 386.701 2130.54 387.376 2129.71 387.714 2128.68 387.714 2127.68 387.714 2126.86 387.363 2126.23 386.66 2125.59 385.958 2125.27 384.999 2125.27 383.783 2125.27 381.459 2126.46 379.325 2128.84 377.379 2131.22 375.434 2134.56 374.462 2138.85 374.462ZM2031.77 374.462 2033.52 374.462 2033.52 382.364C2036.22 379.663 2037.81 378.109 2038.3 377.704 2039.51 376.677 2040.82 375.88 2042.23 375.313 2043.63 374.745 2045.02 374.462 2046.4 374.462 2048.73 374.462 2050.73 375.137 2052.4 376.488 2054.08 377.839 2055.2 379.798 2055.76 382.364 2058.55 379.122 2060.9 376.994 2062.82 375.981 2064.73 374.968 2066.71 374.462 2068.73 374.462 2070.71 374.462 2072.46 374.968 2073.98 375.981 2075.51 376.994 2076.72 378.649 2077.61 380.946 2078.2 382.513 2078.5 384.972 2078.5 388.322L2078.5 404.29C2078.5 406.613 2078.68 408.207 2079.03 409.072 2079.3 409.666 2079.8 410.173 2080.53 410.592 2081.26 411.01 2082.45 411.22 2084.09 411.22L2084.09 412.679 2065.77 412.679 2065.77 411.22 2066.54 411.22C2068.14 411.22 2069.38 410.909 2070.27 410.288 2070.89 409.855 2071.34 409.166 2071.61 408.221 2071.72 407.761 2071.77 406.451 2071.77 404.29L2071.77 388.322C2071.77 385.296 2071.41 383.161 2070.68 381.919 2069.62 380.189 2067.94 379.325 2065.61 379.325 2064.18 379.325 2062.74 379.683 2061.3 380.399 2059.85 381.115 2058.1 382.445 2056.05 384.391L2055.97 384.837 2056.05 386.579 2056.05 404.29C2056.05 406.829 2056.19 408.41 2056.47 409.031 2056.76 409.653 2057.29 410.173 2058.07 410.592 2058.86 411.01 2060.2 411.22 2062.09 411.22L2062.09 412.679 2043.32 412.679 2043.32 411.22C2045.38 411.22 2046.79 410.977 2047.56 410.49 2048.33 410.004 2048.86 409.275 2049.16 408.302 2049.29 407.843 2049.36 406.505 2049.36 404.29L2049.36 388.322C2049.36 385.296 2048.92 383.121 2048.02 381.797 2046.83 380.068 2045.17 379.203 2043.04 379.203 2041.58 379.203 2040.13 379.595 2038.7 380.379 2036.46 381.567 2034.73 382.905 2033.52 384.391L2033.52 404.29C2033.52 406.721 2033.68 408.302 2034.02 409.031 2034.36 409.761 2034.86 410.308 2035.52 410.673 2036.18 411.037 2037.53 411.22 2039.55 411.22L2039.55 412.679 2021.19 412.679 2021.19 411.22C2022.9 411.22 2024.09 411.037 2024.76 410.673 2025.44 410.308 2025.95 409.727 2026.3 408.93 2026.65 408.133 2026.83 406.586 2026.83 404.29L2026.83 390.105C2026.83 386.025 2026.71 383.391 2026.46 382.202 2026.27 381.311 2025.98 380.696 2025.57 380.358 2025.17 380.021 2024.61 379.852 2023.91 379.852 2023.15 379.852 2022.25 380.054 2021.19 380.46L2020.59 379.001ZM2104.12 374.421C2108.28 374.421 2111.7 375.792 2114.37 378.535 2117.05 381.277 2118.39 384.945 2118.39 389.538L2092.73 389.538C2092.71 395.049 2094.04 399.372 2096.74 402.506 2099.45 405.641 2102.62 407.208 2106.27 407.208 2108.7 407.208 2110.81 406.539 2112.61 405.202 2114.41 403.864 2115.91 401.574 2117.13 398.332L2118.39 399.143C2117.82 402.844 2116.17 406.215 2113.44 409.254 2110.71 412.294 2107.3 413.814 2103.19 413.814 2098.73 413.814 2094.91 412.078 2091.74 408.606 2088.57 405.134 2086.98 400.467 2086.98 394.604 2086.98 388.254 2088.61 383.303 2091.86 379.75 2095.12 376.197 2099.2 374.421 2104.12 374.421Z" fill="#525252" fill-rule="evenodd"/><text fill="#000000" fill-opacity="0" font-family="Arial,Arial_MSFontService,sans-serif" font-size="39.3926" x="2020.59" y="408.889">mean</text><path d="M2259.39 377.096C2257.96 377.096 2256.52 377.521 2255.08 378.372 2253.63 379.223 2252.46 380.716 2251.57 382.851 2250.68 384.985 2250.23 387.727 2250.23 391.078 2250.23 396.481 2251.31 401.142 2253.45 405.06 2255.6 408.977 2258.43 410.936 2261.94 410.936 2264.57 410.936 2266.73 409.855 2268.43 407.694 2270.13 405.532 2270.98 401.817 2270.98 396.549 2270.98 389.956 2269.56 384.769 2266.73 380.986 2264.81 378.393 2262.36 377.096 2259.39 377.096ZM2292.57 374.462 2294.31 374.462 2294.31 382.324C2298.66 377.082 2302.81 374.462 2306.75 374.462 2308.78 374.462 2310.52 374.968 2311.98 375.981 2313.44 376.994 2314.6 378.663 2315.47 380.986 2316.06 382.608 2316.36 385.093 2316.36 388.443L2316.36 404.29C2316.36 406.64 2316.55 408.234 2316.93 409.072 2317.22 409.747 2317.7 410.274 2318.37 410.652 2319.03 411.031 2320.25 411.22 2322.03 411.22L2322.03 412.679 2303.67 412.679 2303.67 411.22 2304.44 411.22C2306.17 411.22 2307.38 410.956 2308.07 410.43 2308.76 409.903 2309.24 409.126 2309.51 408.099 2309.62 407.694 2309.67 406.424 2309.67 404.29L2309.67 389.092C2309.67 385.715 2309.23 383.263 2308.35 381.736 2307.48 380.21 2306 379.446 2303.92 379.446 2300.7 379.446 2297.5 381.203 2294.31 384.715L2294.31 404.29C2294.31 406.802 2294.46 408.356 2294.76 408.95 2295.14 409.734 2295.66 410.308 2296.32 410.673 2296.98 411.037 2298.32 411.22 2300.35 411.22L2300.35 412.679 2281.99 412.679 2281.99 411.22 2282.8 411.22C2284.69 411.22 2285.97 410.74 2286.63 409.781 2287.29 408.822 2287.63 406.991 2287.63 404.29L2287.63 390.51C2287.63 386.052 2287.52 383.337 2287.32 382.364 2287.12 381.392 2286.81 380.73 2286.39 380.379 2285.97 380.027 2285.41 379.852 2284.71 379.852 2283.95 379.852 2283.05 380.054 2281.99 380.46L2281.38 379.001ZM2260.65 374.462C2266.27 374.462 2270.78 376.596 2274.18 380.865 2277.07 384.512 2278.52 388.7 2278.52 393.428 2278.52 396.752 2277.72 400.115 2276.13 403.52 2274.54 406.924 2272.34 409.491 2269.54 411.22 2266.75 412.949 2263.63 413.814 2260.2 413.814 2254.61 413.814 2250.16 411.585 2246.87 407.127 2244.09 403.371 2242.69 399.156 2242.69 394.482 2242.69 391.078 2243.54 387.694 2245.23 384.33 2246.92 380.966 2249.14 378.48 2251.89 376.873 2254.65 375.265 2257.57 374.462 2260.65 374.462Z" fill="#525252" fill-rule="evenodd"/><text fill="#000000" fill-opacity="0" font-family="Arial,Arial_MSFontService,sans-serif" font-size="39.3521" x="2242.69" y="408.895">on</text><path d="M2871.65 390.551C2867.57 392.172 2864.94 393.32 2863.75 393.996 2861.61 395.185 2860.09 396.427 2859.17 397.724 2858.25 399.021 2857.79 400.44 2857.79 401.98 2857.79 403.925 2858.37 405.539 2859.53 406.823 2860.69 408.106 2862.03 408.748 2863.54 408.748 2865.6 408.748 2868.3 407.397 2871.65 404.695ZM2761.52 383.418 2805.21 383.418 2805.21 386.741 2761.52 386.741ZM2806.71 375.556 2824.18 375.556 2824.18 377.055 2823.04 377.055C2821.99 377.055 2821.19 377.312 2820.63 377.825 2820.08 378.339 2819.8 379.028 2819.8 379.892 2819.8 380.838 2820.09 381.959 2820.65 383.256L2829.29 403.763 2837.96 382.486C2838.58 380.973 2838.89 379.825 2838.89 379.041 2838.89 378.663 2838.78 378.352 2838.57 378.109 2838.27 377.704 2837.89 377.427 2837.43 377.278 2836.97 377.13 2836.04 377.055 2834.64 377.055L2834.64 375.556 2846.75 375.556 2846.75 377.055C2845.35 377.163 2844.38 377.447 2843.83 377.906 2842.89 378.717 2842.04 380.068 2841.28 381.959L2828.11 413.814 2826.45 413.814 2813.2 382.486C2812.6 381.027 2812.03 379.98 2811.49 379.345 2810.95 378.71 2810.26 378.177 2809.43 377.744 2808.97 377.501 2808.06 377.271 2806.71 377.055ZM2865.98 374.462C2869.27 374.462 2871.97 375.015 2874.08 376.123 2875.68 376.961 2876.85 378.271 2877.61 380.054 2878.09 381.216 2878.34 383.594 2878.34 387.187L2878.34 399.791C2878.34 403.331 2878.4 405.499 2878.54 406.296 2878.67 407.093 2878.9 407.626 2879.21 407.897 2879.52 408.167 2879.88 408.302 2880.28 408.302 2880.71 408.302 2881.09 408.207 2881.42 408.018 2881.98 407.667 2883.08 406.681 2884.7 405.06L2884.7 407.329C2881.67 411.382 2878.78 413.408 2876.03 413.408 2874.7 413.408 2873.65 412.949 2872.87 412.03 2872.08 411.112 2871.68 409.545 2871.65 407.329 2867.84 410.274 2865.45 411.976 2864.48 412.436 2863.02 413.111 2861.46 413.449 2859.82 413.449 2857.25 413.449 2855.14 412.571 2853.47 410.815 2851.81 409.058 2850.98 406.748 2850.98 403.884 2850.98 402.074 2851.39 400.507 2852.2 399.183 2853.3 397.346 2855.23 395.617 2857.97 393.996 2860.71 392.375 2865.27 390.402 2871.65 388.079L2871.65 386.62C2871.65 382.918 2871.06 380.379 2869.89 379.001 2868.71 377.623 2867 376.934 2864.76 376.934 2863.06 376.934 2861.71 377.393 2860.71 378.312 2859.68 379.23 2859.17 380.284 2859.17 381.473L2859.25 383.823C2859.25 385.066 2858.93 386.025 2858.3 386.701 2857.66 387.376 2856.83 387.714 2855.8 387.714 2854.8 387.714 2853.99 387.363 2853.35 386.66 2852.72 385.958 2852.4 384.999 2852.4 383.783 2852.4 381.459 2853.59 379.325 2855.97 377.379 2858.34 375.434 2861.68 374.462 2865.98 374.462ZM2430.54 369.071 2420.98 391.28 2439.86 391.28ZM2368.43 360.804C2366 360.804 2363.23 361.196 2360.13 361.979L2360.13 408.707C2363.56 409.464 2366.43 409.842 2368.76 409.842 2375.03 409.842 2380.23 407.64 2384.36 403.236 2388.49 398.832 2390.56 392.861 2390.56 385.323 2390.56 377.731 2388.49 371.746 2384.36 367.369 2380.23 362.992 2374.92 360.804 2368.43 360.804ZM2656.89 359.264C2655.06 359.264 2653.42 360.088 2651.99 361.736 2650.05 363.978 2648.72 367.504 2648.02 372.314 2647.32 377.123 2646.97 381.865 2646.97 386.539 2646.97 394.104 2647.9 400.277 2649.76 405.06 2651.3 409.085 2653.6 411.098 2656.65 411.098 2658.11 411.098 2659.62 410.443 2661.19 409.133 2662.76 407.822 2663.95 405.627 2664.76 402.547 2666 397.9 2666.62 391.348 2666.62 382.891 2666.62 376.623 2665.97 371.395 2664.68 367.207 2663.7 364.1 2662.45 361.898 2660.91 360.601 2659.8 359.71 2658.46 359.264 2656.89 359.264ZM2727.37 357.724 2756.83 357.724 2756.83 359.264 2738.52 413.814 2733.98 413.814 2750.39 364.33 2735.27 364.33C2732.22 364.33 2730.05 364.694 2728.75 365.424 2726.48 366.667 2724.66 368.585 2723.28 371.179L2722.1 370.733ZM2524.09 357.724 2547.64 357.724 2547.64 359.223 2545.65 359.223C2543.41 359.223 2541.77 359.885 2540.75 361.209 2540.07 362.074 2539.73 364.154 2539.73 367.45L2539.73 402.952C2539.73 405.735 2539.91 407.572 2540.26 408.464 2540.53 409.139 2541.1 409.72 2541.96 410.207 2543.12 410.855 2544.35 411.179 2545.65 411.179L2547.64 411.179 2547.64 412.679 2524.09 412.679 2524.09 411.179 2526.03 411.179C2528.3 411.179 2529.95 410.517 2530.98 409.193 2531.63 408.329 2531.95 406.248 2531.95 402.952L2531.95 367.45C2531.95 364.667 2531.78 362.83 2531.43 361.939 2531.15 361.263 2530.6 360.682 2529.76 360.196 2528.57 359.547 2527.33 359.223 2526.03 359.223L2524.09 359.223ZM2462.75 357.724 2485.2 357.724 2485.2 359.223C2482.66 359.466 2481.02 359.899 2480.26 360.52 2479.5 361.142 2479.13 361.939 2479.13 362.911 2479.13 364.262 2479.75 366.37 2480.99 369.233L2494.97 401.453 2507.94 369.639C2509.21 366.505 2509.84 364.33 2509.84 363.114 2509.84 362.33 2509.45 361.581 2508.67 360.865 2507.89 360.149 2506.56 359.642 2504.7 359.345 2504.56 359.318 2504.33 359.277 2504.01 359.223L2504.01 357.724 2520.95 357.724 2520.95 359.223C2519 359.574 2517.53 360.196 2516.53 361.087 2515.1 362.411 2513.83 364.438 2512.72 367.167L2493.55 413.935 2492.05 413.935 2471.47 366.559C2470.41 364.127 2469.67 362.641 2469.24 362.101 2468.56 361.263 2467.73 360.608 2466.74 360.135 2465.76 359.662 2464.43 359.358 2462.75 359.223ZM2344.44 357.724 2366.81 357.724C2375.03 357.724 2381.27 358.656 2385.56 360.52 2389.84 362.384 2393.28 365.491 2395.89 369.841 2398.5 374.191 2399.8 379.217 2399.8 384.918 2399.8 392.564 2397.48 398.954 2392.83 404.087 2387.62 409.815 2379.67 412.679 2369 412.679L2344.44 412.679 2344.44 411.179 2346.51 411.179C2348.83 411.179 2350.48 410.436 2351.45 408.95 2352.05 408.059 2352.34 406.059 2352.34 402.952L2352.34 367.45C2352.34 364.019 2351.97 361.871 2351.21 361.006 2350.16 359.818 2348.59 359.223 2346.51 359.223L2344.44 359.223ZM2701.12 356.589 2702.46 356.589 2702.46 402.993C2702.46 406.073 2702.59 407.991 2702.85 408.748 2703.1 409.504 2703.64 410.085 2704.45 410.49 2705.26 410.896 2706.91 411.125 2709.39 411.179L2709.39 412.679 2688.72 412.679 2688.72 411.179C2691.32 411.125 2692.99 410.902 2693.75 410.511 2694.5 410.119 2695.03 409.592 2695.33 408.93 2695.62 408.268 2695.77 406.289 2695.77 402.993L2695.77 373.327C2695.77 369.328 2695.64 366.761 2695.37 365.627 2695.18 364.762 2694.83 364.127 2694.33 363.722 2693.83 363.316 2693.23 363.114 2692.53 363.114 2691.53 363.114 2690.14 363.533 2688.36 364.37L2687.75 363.114ZM2656.93 356.589C2661.15 356.589 2664.93 358.737 2668.28 363.033 2672.47 368.355 2674.56 375.569 2674.56 384.674 2674.56 391.051 2673.65 396.468 2671.81 400.926 2669.97 405.384 2667.63 408.619 2664.78 410.632 2661.93 412.645 2659.18 413.651 2656.53 413.651 2651.29 413.651 2646.92 410.558 2643.44 404.371 2640.49 399.156 2639.02 392.874 2639.02 385.525 2639.02 379.257 2639.97 373.86 2641.86 369.335 2643.75 364.809 2646.26 361.439 2649.4 359.223 2651.83 357.467 2654.34 356.589 2656.93 356.589ZM2614.07 356.589C2618.53 356.589 2622.25 358.021 2625.24 360.885 2628.22 363.749 2629.71 367.126 2629.71 371.017 2629.71 373.8 2629.07 376.582 2627.77 379.365 2625.77 383.742 2622.53 388.376 2618.04 393.266 2611.31 400.615 2607.11 405.046 2605.44 406.559L2619.78 406.559C2622.7 406.559 2624.75 406.451 2625.92 406.235 2627.1 406.019 2628.16 405.58 2629.11 404.918 2630.05 404.256 2630.88 403.317 2631.58 402.101L2633.08 402.101 2629.23 412.679 2596.81 412.679 2596.81 411.179C2606.34 402.479 2613.06 395.374 2616.95 389.862 2620.84 384.35 2622.78 379.311 2622.78 374.745 2622.78 371.26 2621.72 368.396 2619.58 366.153 2617.45 363.911 2614.89 362.79 2611.92 362.79 2609.22 362.79 2606.8 363.58 2604.65 365.16 2602.5 366.741 2600.91 369.058 2599.89 372.111L2598.39 372.111C2599.06 367.113 2600.8 363.276 2603.59 360.601 2606.39 357.926 2609.88 356.589 2614.07 356.589ZM2570.3 356.467C2573.22 356.467 2576.31 357.183 2579.58 358.615 2581.09 359.291 2582.16 359.629 2582.78 359.629 2583.48 359.629 2584.06 359.419 2584.5 359 2584.95 358.582 2585.31 357.737 2585.58 356.467L2587.08 356.467 2587.08 375.475 2585.58 375.475C2585.09 371.827 2584.22 368.923 2582.96 366.761 2581.71 364.6 2579.92 362.884 2577.59 361.614 2575.27 360.344 2572.87 359.71 2570.38 359.71 2567.57 359.71 2565.25 360.567 2563.41 362.283 2561.57 363.999 2560.65 365.951 2560.65 368.139 2560.65 369.814 2561.23 371.341 2562.4 372.719 2564.07 374.745 2568.06 377.447 2574.35 380.824 2579.49 383.58 2582.99 385.694 2584.87 387.167 2586.75 388.639 2588.19 390.375 2589.21 392.375 2590.22 394.374 2590.73 396.468 2590.73 398.656 2590.73 402.817 2589.11 406.404 2585.88 409.416 2582.65 412.429 2578.5 413.935 2573.42 413.935 2571.83 413.935 2570.33 413.814 2568.92 413.57 2568.08 413.435 2566.35 412.942 2563.71 412.091 2561.08 411.24 2559.41 410.815 2558.71 410.815 2558.03 410.815 2557.5 411.017 2557.11 411.422 2556.72 411.828 2556.43 412.665 2556.24 413.935L2554.74 413.935 2554.74 395.09 2556.24 395.09C2556.94 399.035 2557.88 401.986 2559.07 403.945 2560.26 405.904 2562.08 407.532 2564.52 408.829 2566.97 410.126 2569.65 410.774 2572.57 410.774 2575.95 410.774 2578.61 409.882 2580.57 408.099 2582.53 406.316 2583.51 404.209 2583.51 401.777 2583.51 400.426 2583.14 399.062 2582.4 397.684 2581.65 396.306 2580.5 395.022 2578.93 393.834 2577.88 393.023 2575 391.301 2570.3 388.666 2565.6 386.032 2562.25 383.931 2560.27 382.364 2558.28 380.797 2556.78 379.068 2555.75 377.177 2554.72 375.286 2554.21 373.205 2554.21 370.936 2554.21 366.991 2555.72 363.593 2558.75 360.743 2561.78 357.893 2565.63 356.467 2570.3 356.467ZM2432.04 356.467 2433.46 356.467 2452.59 402.182C2454.13 405.857 2455.53 408.241 2456.78 409.335 2458.04 410.43 2459.79 411.044 2462.03 411.179L2462.03 412.679 2440.35 412.679 2440.35 411.179C2442.54 411.071 2444.02 410.706 2444.79 410.085 2445.56 409.464 2445.94 408.707 2445.94 407.816 2445.94 406.627 2445.4 404.749 2444.32 402.182L2441 394.279 2419.72 394.279 2415.99 402.952C2415.07 405.087 2414.61 406.681 2414.61 407.734 2414.61 408.572 2415.01 409.308 2415.81 409.943 2416.61 410.578 2418.33 410.99 2420.98 411.179L2420.98 412.679 2403.67 412.679 2403.67 411.179C2405.97 410.774 2407.45 410.247 2408.13 409.599 2409.51 408.302 2411.03 405.668 2412.71 401.696ZM2897.56 355.049 2899.38 355.049 2899.38 404.29C2899.38 406.613 2899.55 408.153 2899.89 408.91 2900.23 409.666 2900.75 410.24 2901.45 410.632 2902.15 411.024 2903.46 411.22 2905.38 411.22L2905.38 412.679 2887.18 412.679 2887.18 411.22C2888.89 411.22 2890.05 411.044 2890.67 410.693 2891.29 410.342 2891.78 409.761 2892.13 408.95 2892.48 408.14 2892.66 406.586 2892.66 404.29L2892.66 370.571C2892.66 366.383 2892.56 363.81 2892.37 362.85 2892.18 361.891 2891.88 361.236 2891.46 360.885 2891.04 360.534 2890.51 360.358 2889.86 360.358 2889.16 360.358 2888.26 360.574 2887.18 361.006L2886.49 359.588Z" fill="#525252" fill-rule="evenodd"/><text fill="#000000" fill-opacity="0" font-family="Arial,Arial_MSFontService,sans-serif" font-size="58.8862" x="2344.44" y="406.574">DAVIS2017âˆ’val</text><text font-family="Arial,Arial_MSFontService,sans-serif" font-weight="400" font-size="73" transform="matrix(1 0 0 1 2781.87 997)">STM<tspan font-size="73" x="278.614" y="182">AOT</tspan><tspan font-size="73" x="586.614" y="-115">De</tspan><tspan font-size="73" x="680" y="-115">-</tspan><tspan font-size="73" x="704.635" y="-115">AOT</tspan><tspan font-size="73" x="-1778.98" y="94">PReMVOS</tspan><tspan font-size="73" x="-1099.97" y="774">OSVOS</tspan><tspan font-size="73" x="-839.293" y="774">-</tspan><tspan font-size="73" x="-814.657" y="774">S</tspan><tspan font-size="73" x="707.613" y="732">RANet</tspan><tspan font-size="73" x="-720.87" y="308">OSMN</tspan><tspan font-size="73" x="-563.456" y="557">FEELVOS</tspan><tspan font-family="DengXian,DengXian_MSFontService,sans-serif" font-size="73" x="-2024.07" y="1184">60</tspan><tspan font-family="DengXian,DengXian_MSFontService,sans-serif" font-size="73" x="-2024.07" y="874">6</tspan><tspan font-family="DengXian,DengXian_MSFontService,sans-serif" font-size="73" x="-1985.69" y="874">5</tspan><tspan font-family="DengXian,DengXian_MSFontService,sans-serif" font-size="73" x="-2024.6" y="561">7</tspan><tspan font-family="DengXian,DengXian_MSFontService,sans-serif" font-size="73" x="-1986.22" y="561">0</tspan><tspan font-family="DengXian,DengXian_MSFontService,sans-serif" font-size="73" x="-2024.07" y="242">75</tspan><tspan font-family="DengXian,DengXian_MSFontService,sans-serif" font-size="73" x="-2019.59" y="-49">8</tspan><tspan font-family="DengXian,DengXian_MSFontService,sans-serif" font-size="73" x="-1981.21" y="-49">0</tspan><tspan font-family="DengXian,DengXian_MSFontService,sans-serif" font-size="73" x="-2019.59" y="-364">85</tspan></text><path d="M3300 471 3300 2158.48" stroke="#548235" stroke-width="13.75" stroke-miterlimit="8" stroke-dasharray="55 41.25" fill="none" fill-rule="evenodd"/><path d="M1471.06 2255.1C1469.42 2255.1 1468.05 2255.59 1466.94 2256.56 1465.84 2257.54 1464.94 2258.94 1464.27 2260.77 1463.59 2262.6 1463.11 2264.83 1462.82 2267.45 1462.54 2270.08 1462.4 2273.04 1462.4 2276.34 1462.4 2284.09 1463.11 2289.78 1464.55 2293.4 1465.99 2297.02 1468.22 2298.84 1471.24 2298.84 1474.11 2298.84 1476.24 2297.13 1477.63 2293.72 1479.02 2290.31 1479.72 2285.03 1479.72 2277.88 1479.72 2272.41 1479.36 2267.99 1478.65 2264.6 1477.94 2261.21 1476.94 2258.78 1475.67 2257.31 1474.4 2255.84 1472.86 2255.1 1471.06 2255.1ZM1471.24 2252.07C1476.44 2252.07 1480.31 2254.08 1482.86 2258.09 1485.4 2262.11 1486.67 2268.18 1486.67 2276.31 1486.67 2284.72 1485.31 2291.08 1482.59 2295.4 1479.87 2299.71 1475.89 2301.87 1470.67 2301.87 1465.53 2301.87 1461.71 2299.85 1459.21 2295.81 1456.7 2291.77 1455.44 2285.64 1455.44 2277.41 1455.44 2273.04 1455.83 2269.26 1456.6 2266.08 1457.38 2262.89 1458.46 2260.26 1459.85 2258.18 1461.24 2256.1 1462.91 2254.57 1464.86 2253.57 1466.8 2252.57 1468.93 2252.07 1471.24 2252.07ZM1432.87 2252.07 1434.83 2252.07C1434.69 2254.35 1434.62 2257.51 1434.62 2261.55L1434.62 2291.99C1434.62 2293.37 1434.7 2294.41 1434.85 2295.11 1435.01 2295.81 1435.28 2296.38 1435.67 2296.82 1436.06 2297.26 1436.63 2297.61 1437.36 2297.86 1438.1 2298.11 1439.03 2298.3 1440.14 2298.43 1441.26 2298.56 1442.73 2298.65 1444.56 2298.69L1444.56 2301.3 1418.22 2301.3 1418.22 2298.69C1420.86 2298.57 1422.74 2298.41 1423.87 2298.21 1425 2298.01 1425.86 2297.71 1426.46 2297.3 1427.05 2296.9 1427.48 2296.33 1427.76 2295.59 1428.03 2294.86 1428.17 2293.66 1428.17 2291.99L1428.17 2263.08C1428.17 2262.13 1428 2261.44 1427.67 2261 1427.34 2260.56 1426.85 2260.34 1426.21 2260.34 1425.45 2260.34 1424.37 2260.73 1422.96 2261.52 1421.56 2262.3 1419.83 2263.38 1417.76 2264.76L1416.19 2262.02Z" fill-rule="evenodd"/><text fill="#000000" fill-opacity="0" font-family="Arial,Arial_MSFontService,sans-serif" font-size="49.7954" x="1416.19" y="2295.64">10</text><path d="M1495.57 2257.31 1525.39 2257.31 1525.39 2261.26 1495.57 2261.26Z" fill-rule="evenodd"/><text fill="#000000" fill-opacity="0" font-family="Arial,Arial_MSFontService,sans-serif" font-size="3.95947" x="1495.57" y="2260.77">âˆ’</text><path d="M1547.63 2241.11 1549.21 2241.11C1549.17 2242.05 1549.15 2242.9 1549.13 2243.65 1549.11 2244.4 1549.1 2245.13 1549.09 2245.84 1549.08 2246.55 1549.08 2247.25 1549.08 2247.94L1549.08 2267.61C1549.08 2268.14 1549.09 2268.6 1549.13 2268.99 1549.16 2269.38 1549.22 2269.71 1549.3 2269.97 1549.37 2270.24 1549.48 2270.47 1549.61 2270.66 1549.74 2270.85 1549.89 2271.01 1550.06 2271.15 1550.27 2271.36 1550.54 2271.52 1550.89 2271.63 1551.23 2271.74 1551.67 2271.84 1552.21 2271.91 1552.74 2271.99 1553.39 2272.05 1554.14 2272.1 1554.89 2272.14 1555.79 2272.17 1556.84 2272.19L1556.84 2274.44 1536.32 2274.44 1536.32 2272.19C1537.34 2272.15 1538.2 2272.11 1538.91 2272.07 1539.61 2272.03 1540.22 2271.97 1540.72 2271.89 1541.22 2271.81 1541.62 2271.72 1541.92 2271.63 1542.22 2271.53 1542.49 2271.42 1542.71 2271.28 1542.95 2271.12 1543.16 2270.96 1543.33 2270.78 1543.5 2270.59 1543.64 2270.37 1543.75 2270.09 1543.85 2269.81 1543.93 2269.48 1543.99 2269.08 1544.05 2268.68 1544.08 2268.19 1544.08 2267.61L1544.08 2249.05C1544.08 2248.38 1543.95 2247.9 1543.69 2247.63 1543.44 2247.35 1543.06 2247.21 1542.58 2247.21 1542.05 2247.21 1541.25 2247.49 1540.2 2248.04 1539.15 2248.59 1537.78 2249.41 1536.11 2250.5 1535.89 2250.1 1535.68 2249.71 1535.49 2249.31 1535.3 2248.91 1535.1 2248.51 1534.9 2248.09 1537.03 2246.92 1539.15 2245.75 1541.25 2244.59 1543.34 2243.42 1545.47 2242.26 1547.63 2241.11Z" fill-rule="evenodd"/><text fill="#000000" fill-opacity="0" font-family="Arial,Arial_MSFontService,sans-serif" font-size="33.332" x="1534.9" y="2270.27">1</text><path d="M2144.74 2266.35C2143.1 2266.35 2141.73 2266.84 2140.62 2267.81 2139.52 2268.79 2138.63 2270.19 2137.95 2272.02 2137.27 2273.85 2136.79 2276.08 2136.51 2278.7 2136.22 2281.33 2136.08 2284.29 2136.08 2287.6 2136.08 2295.34 2136.8 2301.03 2138.24 2304.65 2139.67 2308.28 2141.9 2310.09 2144.92 2310.09 2147.79 2310.09 2149.93 2308.38 2151.32 2304.97 2152.71 2301.56 2153.4 2296.28 2153.4 2289.13 2153.4 2283.66 2153.05 2279.24 2152.33 2275.85 2151.62 2272.47 2150.63 2270.04 2149.36 2268.56 2148.09 2267.09 2146.55 2266.35 2144.74 2266.35ZM2144.92 2263.32C2150.12 2263.32 2154 2265.33 2156.54 2269.35 2159.08 2273.36 2160.35 2279.43 2160.35 2287.56 2160.35 2295.97 2158.99 2302.34 2156.27 2306.65 2153.55 2310.96 2149.58 2313.12 2144.35 2313.12 2139.22 2313.12 2135.4 2311.1 2132.89 2307.06 2130.38 2303.02 2129.13 2296.89 2129.13 2288.67 2129.13 2284.29 2129.52 2280.52 2130.29 2277.33 2131.06 2274.15 2132.14 2271.52 2133.53 2269.44 2134.92 2267.36 2136.59 2265.82 2138.54 2264.82 2140.49 2263.82 2142.61 2263.32 2144.92 2263.32ZM2106.56 2263.32 2108.52 2263.32C2108.38 2265.6 2108.3 2268.76 2108.3 2272.8L2108.3 2303.24C2108.3 2304.62 2108.38 2305.66 2108.54 2306.36 2108.69 2307.06 2108.96 2307.64 2109.36 2308.07 2109.75 2308.51 2110.31 2308.86 2111.05 2309.11 2111.78 2309.36 2112.71 2309.55 2113.83 2309.68 2114.95 2309.81 2116.42 2309.9 2118.25 2309.95L2118.25 2312.55 2091.91 2312.55 2091.91 2309.95C2094.54 2309.83 2096.43 2309.67 2097.56 2309.46 2098.69 2309.26 2099.55 2308.96 2100.14 2308.56 2100.74 2308.15 2101.17 2307.58 2101.44 2306.84 2101.72 2306.11 2101.85 2304.91 2101.85 2303.24L2101.85 2274.34C2101.85 2273.39 2101.69 2272.69 2101.35 2272.25 2101.02 2271.81 2100.53 2271.59 2099.89 2271.59 2099.13 2271.59 2098.05 2271.98 2096.65 2272.77 2095.25 2273.55 2093.51 2274.63 2091.44 2276.01L2089.88 2273.27Z" fill-rule="evenodd"/><text fill="#000000" fill-opacity="0" font-family="Arial,Arial_MSFontService,sans-serif" font-size="49.7954" x="2089.88" y="2306.89">10</text><path d="M2180.23 2254.69C2179.02 2254.69 2178.01 2255 2177.2 2255.63 2176.39 2256.26 2175.75 2257.18 2175.28 2258.4 2174.8 2259.62 2174.46 2261.1 2174.27 2262.85 2174.07 2264.6 2173.97 2266.59 2173.97 2268.82 2173.97 2271.39 2174.09 2273.61 2174.34 2275.48 2174.59 2277.35 2174.98 2278.89 2175.51 2280.1 2176.03 2281.31 2176.69 2282.2 2177.49 2282.77 2178.28 2283.33 2179.23 2283.62 2180.33 2283.62 2181.37 2283.62 2182.28 2283.35 2183.05 2282.82 2183.83 2282.28 2184.47 2281.45 2184.98 2280.32 2185.49 2279.19 2185.87 2277.76 2186.13 2276.02 2186.39 2274.29 2186.52 2272.24 2186.52 2269.88 2186.52 2267.22 2186.38 2264.93 2186.09 2263.02 2185.81 2261.1 2185.41 2259.53 2184.89 2258.3 2184.37 2257.06 2183.72 2256.15 2182.94 2255.57 2182.15 2254.98 2181.25 2254.69 2180.23 2254.69ZM2180.33 2252.18C2182.39 2252.18 2184.14 2252.56 2185.6 2253.33 2187.06 2254.1 2188.25 2255.19 2189.17 2256.61 2190.1 2258.04 2190.77 2259.78 2191.2 2261.83 2191.64 2263.88 2191.85 2266.2 2191.85 2268.79 2191.85 2274.54 2190.83 2278.88 2188.8 2281.82 2186.76 2284.76 2183.81 2286.23 2179.95 2286.23 2176.12 2286.23 2173.27 2284.84 2171.41 2282.07 2169.54 2279.29 2168.61 2275.08 2168.61 2269.44 2168.61 2266.49 2168.9 2263.93 2169.48 2261.78 2170.06 2259.62 2170.87 2257.83 2171.91 2256.41 2172.95 2254.98 2174.19 2253.92 2175.62 2253.22 2177.06 2252.53 2178.63 2252.18 2180.33 2252.18Z" fill-rule="evenodd"/><text fill="#000000" fill-opacity="0" font-family="Arial,Arial_MSFontService,sans-serif" font-size="34.0566" x="2168.61" y="2281.98">0</text><path d="M2831.19 2259.07C2829.55 2259.07 2828.18 2259.56 2827.07 2260.54 2825.97 2261.51 2825.07 2262.91 2824.4 2264.74 2823.72 2266.57 2823.24 2268.8 2822.95 2271.42 2822.67 2274.05 2822.53 2277.01 2822.53 2280.32 2822.53 2288.06 2823.24 2293.75 2824.68 2297.37 2826.12 2301 2828.35 2302.81 2831.37 2302.81 2834.24 2302.81 2836.37 2301.1 2837.76 2297.69 2839.15 2294.28 2839.85 2289 2839.85 2281.85 2839.85 2276.39 2839.49 2271.96 2838.78 2268.57 2838.07 2265.19 2837.07 2262.76 2835.8 2261.28 2834.53 2259.81 2832.99 2259.07 2831.19 2259.07ZM2831.37 2256.04C2836.57 2256.04 2840.44 2258.05 2842.99 2262.07 2845.53 2266.08 2846.8 2272.16 2846.8 2280.28 2846.8 2288.69 2845.44 2295.06 2842.72 2299.37 2840 2303.68 2836.02 2305.84 2830.79 2305.84 2825.66 2305.84 2821.84 2303.82 2819.34 2299.78 2816.83 2295.74 2815.57 2289.61 2815.57 2281.39 2815.57 2277.01 2815.96 2273.24 2816.73 2270.05 2817.51 2266.87 2818.59 2264.24 2819.98 2262.16 2821.37 2260.08 2823.04 2258.54 2824.98 2257.54 2826.93 2256.54 2829.06 2256.04 2831.37 2256.04ZM2793 2256.04 2794.96 2256.04C2794.82 2258.33 2794.75 2261.49 2794.75 2265.53L2794.75 2295.97C2794.75 2297.34 2794.83 2298.38 2794.98 2299.08 2795.14 2299.79 2795.41 2300.36 2795.8 2300.8 2796.19 2301.24 2796.76 2301.58 2797.49 2301.83 2798.23 2302.08 2799.16 2302.27 2800.27 2302.4 2801.39 2302.53 2802.86 2302.62 2804.69 2302.67L2804.69 2305.27 2778.35 2305.27 2778.35 2302.67C2780.99 2302.55 2782.87 2302.39 2784 2302.19 2785.13 2301.98 2785.99 2301.68 2786.59 2301.28 2787.18 2300.87 2787.61 2300.3 2787.89 2299.57 2788.16 2298.83 2788.3 2297.63 2788.3 2295.97L2788.3 2267.06C2788.3 2266.11 2788.13 2265.41 2787.8 2264.97 2787.47 2264.53 2786.98 2264.31 2786.34 2264.31 2785.58 2264.31 2784.5 2264.71 2783.09 2265.49 2781.69 2266.27 2779.96 2267.36 2777.89 2268.73L2776.32 2265.99Z" fill-rule="evenodd"/><text fill="#000000" fill-opacity="0" font-family="Arial,Arial_MSFontService,sans-serif" font-size="49.7954" x="2776.32" y="2299.61">10</text><path d="M2867.24 2245.08 2868.82 2245.08C2868.78 2246.03 2868.76 2246.88 2868.74 2247.63 2868.72 2248.38 2868.71 2249.11 2868.7 2249.81 2868.69 2250.52 2868.69 2251.22 2868.69 2251.91L2868.69 2271.58C2868.69 2272.11 2868.71 2272.57 2868.74 2272.96 2868.78 2273.35 2868.83 2273.68 2868.91 2273.95 2868.99 2274.21 2869.09 2274.44 2869.22 2274.63 2869.35 2274.82 2869.5 2274.99 2869.67 2275.12 2869.88 2275.33 2870.16 2275.49 2870.5 2275.6 2870.85 2275.71 2871.29 2275.81 2871.82 2275.89 2872.36 2275.97 2873 2276.03 2873.75 2276.07 2874.5 2276.11 2875.4 2276.14 2876.45 2276.16L2876.45 2278.41 2855.93 2278.41 2855.93 2276.16C2856.95 2276.12 2857.81 2276.09 2858.52 2276.04 2859.23 2276 2859.83 2275.94 2860.33 2275.86 2860.83 2275.78 2861.23 2275.7 2861.53 2275.6 2861.84 2275.51 2862.1 2275.39 2862.32 2275.25 2862.56 2275.1 2862.77 2274.93 2862.94 2274.75 2863.12 2274.57 2863.26 2274.34 2863.36 2274.06 2863.46 2273.79 2863.54 2273.45 2863.6 2273.05 2863.66 2272.66 2863.7 2272.17 2863.7 2271.58L2863.7 2253.02C2863.7 2252.35 2863.57 2251.88 2863.31 2251.6 2863.05 2251.32 2862.68 2251.19 2862.19 2251.19 2861.66 2251.19 2860.87 2251.46 2859.81 2252.01 2858.76 2252.57 2857.4 2253.39 2855.72 2254.47 2855.5 2254.08 2855.29 2253.68 2855.1 2253.28 2854.91 2252.89 2854.72 2252.48 2854.51 2252.07 2856.65 2250.89 2858.77 2249.72 2860.86 2248.56 2862.96 2247.39 2865.08 2246.23 2867.24 2245.08Z" fill-rule="evenodd"/><text fill="#000000" fill-opacity="0" font-family="Arial,Arial_MSFontService,sans-serif" font-size="33.332" x="2854.51" y="2274.24">1</text><path d="M1092.5 1192.5 1126 1121.5 1159.5 1192.5Z" stroke="#2F528F" stroke-width="4.58333" stroke-miterlimit="8" fill="#ADB9CA" fill-rule="evenodd"/><text font-family="Arial,Arial_MSFontService,sans-serif" font-weight="400" font-size="69" transform="matrix(1 0 0 1 3323.18 1369)">STD<tspan font-size="69" x="137.5" y="0">-</tspan><tspan font-size="69" x="160.417" y="0">VOST</tspan></text><path d="M3441.5 1435.5C3441.5 1414.51 3458.74 1397.5 3480 1397.5 3501.26 1397.5 3518.5 1414.51 3518.5 1435.5 3518.5 1456.49 3501.26 1473.5 3480 1473.5 3458.74 1473.5 3441.5 1456.49 3441.5 1435.5Z" stroke="#2F528F" stroke-width="4.58333" stroke-miterlimit="8" fill="#BF9000" fill-rule="evenodd"/><path d="M3084.5 1215.53 3116.2 1215.53 3126 1186.5 3135.8 1215.53 3167.5 1215.53 3141.85 1233.47 3151.65 1262.5 3126 1244.56 3100.35 1262.5 3110.15 1233.47Z" stroke="#2F528F" stroke-width="4.58333" stroke-miterlimit="8" fill="#767171" fill-rule="evenodd"/><path d="M2123.5 1335.91 2160 1306.5 2196.5 1335.91 2182.56 1383.5 2137.44 1383.5Z" stroke="#2F528F" stroke-width="4.58333" stroke-miterlimit="8" fill="#FFD966" fill-rule="evenodd"/><path d="M1784.5 1838 1822.5 1795.5 1860.5 1838 1822.5 1880.5Z" stroke="#2F528F" stroke-width="4.58333" stroke-miterlimit="8" fill="#4472C4" fill-rule="evenodd"/><path d="M2820.5 1025.5C2826.02 1025.5 2830.5 1021.02 2830.5 1015.5L2872.5 1015.5C2872.5 1021.02 2876.98 1025.5 2882.5 1025.5L2882.5 1065.5C2876.98 1065.5 2872.5 1069.98 2872.5 1075.5L2830.5 1075.5C2830.5 1069.98 2826.02 1065.5 2820.5 1065.5Z" stroke="#2F528F" stroke-width="4.58333" stroke-miterlimit="8" fill="#FBE5D6" fill-rule="evenodd"/><path d="M2308.5 1570.5C2308.5 1575.47 2324.62 1579.5 2344.5 1579.5 2364.38 1579.5 2380.5 1575.47 2380.5 1570.5L2380.5 1631.5C2380.5 1636.47 2364.38 1640.5 2344.5 1640.5 2324.62 1640.5 2308.5 1636.47 2308.5 1631.5Z" fill="#385723" fill-rule="evenodd"/><path d="M2308.5 1570.5C2308.5 1565.53 2324.62 1561.5 2344.5 1561.5 2364.38 1561.5 2380.5 1565.53 2380.5 1570.5 2380.5 1575.47 2364.38 1579.5 2344.5 1579.5 2324.62 1579.5 2308.5 1575.47 2308.5 1570.5Z" fill="#889A7B" fill-rule="evenodd"/><path d="M2380.5 1570.5C2380.5 1575.47 2364.38 1579.5 2344.5 1579.5 2324.62 1579.5 2308.5 1575.47 2308.5 1570.5 2308.5 1565.53 2324.62 1561.5 2344.5 1561.5 2364.38 1561.5 2380.5 1565.53 2380.5 1570.5L2380.5 1631.5C2380.5 1636.47 2364.38 1640.5 2344.5 1640.5 2324.62 1640.5 2308.5 1636.47 2308.5 1631.5L2308.5 1570.5" stroke="#2F528F" stroke-width="4.58333" stroke-miterlimit="8" fill="none" fill-rule="evenodd"/><path d="M3486 942.157 3501.34 914.5 3499.82 939.892 3517.23 935.753 3510.32 949.382 3528.43 953.301 3514.05 964.45 3530.5 977.874 3510.88 976.214 3516.26 1000.79 3499.27 983.438 3496.08 1008.62 3484.9 985.718 3476.46 1017.5 3473.29 989.018 3461.12 998.507 3464.85 980.959 3442.06 984.058 3456.84 970.649 3441.5 955.581 3460.57 950.822 3443.02 925.444 3471.63 944.637 3475.91 925.444Z" stroke="#2F528F" stroke-width="4.58333" stroke-miterlimit="8" fill="#4472C4" fill-rule="evenodd"/><text font-family="Arial,Arial_MSFontService,sans-serif" font-weight="400" font-size="73" transform="matrix(1 0 0 1 1311.53 1483)">BMVOS</text><path d="M3815.5 470.5 3815.5 2157.98" stroke="#BDD7EE" stroke-width="12.6042" stroke-miterlimit="8" fill="none" fill-rule="evenodd"/><path d="M0 0 2927.3 9.10459" stroke="#BDD7EE" stroke-width="12.6042" stroke-miterlimit="8" fill="none" fill-rule="evenodd" transform="matrix(-1 0 0 1 3815.8 467.5)"/></g></svg>