<svg width="2191" height="2092" xmlns="http://www.w3.org/2000/svg" xmlns:xlink="http://www.w3.org/1999/xlink" overflow="hidden"><defs><filter id="fx0" x="-10%" y="-10%" width="120%" height="120%" filterUnits="userSpaceOnUse" primitiveUnits="userSpaceOnUse"><feComponentTransfer color-interpolation-filters="sRGB"><feFuncR type="discrete" tableValues="0.282353 0.282353"/><feFuncG type="discrete" tableValues="0.454902 0.454902"/><feFuncB type="discrete" tableValues="0.796078 0.796078"/><feFuncA type="linear" slope="0.6" intercept="0"/></feComponentTransfer><feGaussianBlur stdDeviation="6.11111 6.11716"/></filter><filter id="fx1" x="-10%" y="-10%" width="120%" height="120%" filterUnits="userSpaceOnUse" primitiveUnits="userSpaceOnUse"><feComponentTransfer color-interpolation-filters="sRGB"><feFuncR type="discrete" tableValues="0.282353 0.282353"/><feFuncG type="discrete" tableValues="0.454902 0.454902"/><feFuncB type="discrete" tableValues="0.796078 0.796078"/><feFuncA type="linear" slope="0.6" intercept="0"/></feComponentTransfer><feGaussianBlur stdDeviation="6.12556 6.11111"/></filter><filter id="fx2" x="-10%" y="-10%" width="120%" height="120%" filterUnits="userSpaceOnUse" primitiveUnits="userSpaceOnUse"><feComponentTransfer color-interpolation-filters="sRGB"><feFuncR type="discrete" tableValues="0.282353 0.282353"/><feFuncG type="discrete" tableValues="0.454902 0.454902"/><feFuncB type="discrete" tableValues="0.796078 0.796078"/><feFuncA type="linear" slope="0.6" intercept="0"/></feComponentTransfer><feGaussianBlur stdDeviation="6.11111 6.1155"/></filter><filter id="fx3" x="-10%" y="-10%" width="120%" height="120%" filterUnits="userSpaceOnUse" primitiveUnits="userSpaceOnUse"><feComponentTransfer color-interpolation-filters="sRGB"><feFuncR type="discrete" tableValues="0.282353 0.282353"/><feFuncG type="discrete" tableValues="0.454902 0.454902"/><feFuncB type="discrete" tableValues="0.796078 0.796078"/><feFuncA type="linear" slope="0.6" intercept="0"/></feComponentTransfer><feGaussianBlur stdDeviation="6.12556 6.11111"/></filter><clipPath id="clip4"><rect x="1108" y="142" width="2191" height="2092"/></clipPath><clipPath id="clip5"><path d="M1240.67 832.5C1190.32 832.5 1149.5 873.317 1149.5 923.668L1149.5 1667.33C1149.5 1717.68 1190.32 1758.5 1240.67 1758.5L1605.33 1758.5C1655.68 1758.5 1696.5 1717.68 1696.5 1667.33L1696.5 923.668C1696.5 873.317 1655.68 832.5 1605.33 832.5ZM1108 142 3299 142 3299 2234 1108 2234Z" fill-rule="evenodd" clip-rule="evenodd"/></clipPath><clipPath id="clip6"><rect x="-16.5" y="-16.5163" width="128" height="183.181"/></clipPath><clipPath id="clip7"><rect x="0" y="0" width="316" height="506"/></clipPath><clipPath id="clip8"><rect x="-9.52246" y="-13.5" width="83.1962" height="60"/></clipPath><clipPath id="clip9"><rect x="0" y="0" width="212" height="125"/></clipPath><clipPath id="clip10"><path d="M2720.34 449C2669.89 449 2629 489.892 2629 540.335L2629 1666.66C2629 1717.11 2669.89 1758 2720.34 1758L3085.66 1758C3136.11 1758 3177 1717.11 3177 1666.66L3177 540.335C3177 489.892 3136.11 449 3085.66 449ZM1108 142 3299 142 3299 2234 1108 2234Z" fill-rule="evenodd" clip-rule="evenodd"/></clipPath><clipPath id="clip11"><rect x="-16.5" y="-16.5118" width="128" height="238.171"/></clipPath><clipPath id="clip12"><rect x="0" y="0" width="316" height="697"/></clipPath><clipPath id="clip13"><rect x="-9.52246" y="-13.5" width="83.1962" height="60"/></clipPath><clipPath id="clip14"><rect x="0" y="0" width="212" height="125"/></clipPath></defs><g clip-path="url(#clip4)" transform="translate(-1108 -142)"><text fill="#767171" font-family="Calibri,Calibri_MSFontService,sans-serif" font-weight="400" font-size="92" transform="matrix(1 0 0 1 2751.68 2045)">Outputs<tspan font-family="Microsoft YaHei,Microsoft YaHei_MSFontService,sans-serif" font-size="92" x="-150.677" y="110">（</tspan><tspan font-size="92" x="-59.0105" y="110">Shifted right</tspan><tspan font-family="Microsoft YaHei,Microsoft YaHei_MSFontService,sans-serif" font-size="92" x="399.781" y="110">）</tspan><tspan font-size="92" x="-1455.54" y="-17">Inputs</tspan></text><path d="M4.58333-7.96765e-06 4.58365 184.684-4.58301 184.684-4.58333 7.96765e-06ZM13.7503 180.101 0.000360892 207.601-13.7497 180.101Z" fill="#4874CB" transform="matrix(1 0 0 -1 1423.5 1966.1)"/><path d="M4.58333-7.96765e-06 4.58365 184.684-4.58301 184.684-4.58333 7.96765e-06ZM13.7503 180.101 0.000360892 207.601-13.7497 180.101Z" fill="#4874CB" transform="matrix(1 0 0 -1 2903.5 1966.1)"/><g clip-path="url(#clip5)"><g clip-path="url(#clip6)" filter="url(#fx0)" transform="matrix(2 0 0 1.99802 1107 808)"><g clip-path="url(#clip7)" transform="matrix(1 0 0 1 0 5.68434e-14)"><path d="M21.25 67.067C21.25 41.8667 41.6587 21.4379 66.8341 21.4379L249.166 21.4379C274.341 21.4379 294.75 41.8667 294.75 67.067L294.75 439.267C294.75 464.467 274.341 484.896 249.166 484.896L66.8341 484.896C41.6587 484.896 21.25 464.467 21.25 439.267Z" stroke="#2E54A1" stroke-width="5" stroke-miterlimit="8" fill="#4874CB" fill-rule="evenodd"/></g></g><g clip-path="url(#clip8)" filter="url(#fx1)" transform="matrix(1.99528 0 0 2 1211 1200)"><g clip-path="url(#clip9)" transform="translate(-1.13687e-13 0)"><path d="M40.7705 10.3345 35.583 10.3345 35.583-32.8677 78.4609-32.8677 78.4609 2.9585C78.4609 7.65967 76.3535 10.0103 72.1387 10.0103 69.1667 10.1183 66.8161 10.1724 65.0869 10.1724 64.8708 8.65934 64.5871 7.25439 64.2358 5.95752L60.4668 5.95752 60.4668-10.4155 53.0908-10.4155 53.0908 6.28174 48.1465 6.28174 48.1465-10.4155 40.7705-10.4155ZM0.972656-4.57959C7.5651-5.47119 15.3464-6.60596 24.3164-7.98389 26.4779-15.1437 27.5586-23.9787 27.5586-34.4888L27.5586-60.7505 50.3755-60.7505C49.1056-63.02 47.9033-65.0194 46.7686-66.7485L52.9287-69.5854C54.4687-67.1268 56.1979-64.1818 58.1162-60.7505L77.2451-60.7505 77.2451-38.5415 71.7334-38.5415 71.7334-41.1353 33.0703-41.1353 33.0703-34.4077C33.0703-13.5496 29.0986 1.52653 21.1553 10.8208 20.0205 9.14567 18.6966 7.47054 17.1836 5.79541 19.1829 3.44482 20.8851 0.661946 22.29-2.55322 13.9954-0.878092 7.37598 0.499837 2.43164 1.58057ZM10.5371-21.1958C13.0768-21.3039 17.751-21.6821 24.5596-22.3306 24.2894-20.061 24.0732-18.3048 23.9111-17.062 13.32-16.1434 6.59245-15.4679 3.72852-15.0356L2.59375-20.1421C5.34961-22.8979 8.94303-28.4232 13.374-36.7178 9.24023-36.3936 5.64681-36.0828 2.59375-35.7856L1.05371-40.8921C6.24121-49.1597 10.8073-58.4539 14.752-68.7749L21.0742-66.5054C16.5352-56.8328 12.1582-48.4572 7.94336-41.3784 9.69954-41.3784 12.3338-41.4189 15.8462-41.5 17.2782-44.2829 18.7777-47.3224 20.3447-50.6186L26.1807-48.0249C19.264-35.5425 14.0495-26.5994 10.5371-21.1958ZM71.7334-55.563 33.0703-55.563 33.0703-46.3228 71.7334-46.3228ZM69.8691 4.90381C71.9765 4.90381 73.0303 3.74202 73.0303 1.41846L73.0303-10.4155 65.4111-10.4155 65.4111 4.78223C66.7891 4.86328 68.2751 4.90381 69.8691 4.90381ZM73.0303-27.6802 65.4111-27.6802 65.4111-15.3599 73.0303-15.3599ZM53.0908-15.3599 60.4668-15.3599 60.4668-27.6802 53.0908-27.6802ZM40.7705-15.3599 48.1465-15.3599 48.1465-27.6802 40.7705-27.6802ZM83.4726-24.0327C90.0651-33.1649 94.8338-43.5939 97.7788-55.3198L85.8232-55.3198 85.8232-61.3179 116.138-61.3179 116.138-55.3198 104.02-55.3198C102.318-48.5382 100.156-42.216 97.5356-36.353L113.22-36.353 113.22 7.57861 107.465 7.57861 107.465 1.98584 97.333 1.98584 97.333 8.63232 91.5781 8.63232 91.5781-25.127C90.1461-22.8304 88.6331-20.6284 87.0391-18.521 86.2285-20.034 85.0397-21.8713 83.4726-24.0327ZM129.512-55.3198 127.404-31.5708 146.493-31.5708 149.208-58.2378 119.299-58.2378 119.299-64.0737 156.017-64.0737 152.612-31.5708 161.204-31.5708C160.772-20.6014 160.34-11.091 159.907-3.03955 159.421 5.01188 155.584 9.0376 148.397 9.0376 144.777 9.0376 140.724 8.95654 136.239 8.79443 135.915 6.79508 135.537 4.55257 135.104 2.06689 139.481 2.55322 143.426 2.79639 146.938 2.79639 151.099 2.79639 153.342 0.499837 153.666-4.09326 154.098-10.0913 154.423-17.3052 154.639-25.7349L120.839-25.7349 123.352-55.3198ZM107.465-30.8413 97.333-30.8413 97.333-3.36377 107.465-3.36377ZM116.462-14.7925 150.667-14.7925 150.667-8.95654 116.462-8.95654ZM168.891-34.894 201.637-34.894C202.474-36.9204 203.015-39.271 203.258-41.9458L209.094-41.1353C208.77-38.8657 208.297-36.7853 207.675-34.894L225.345-34.894C223.184-36.4611 220.901-38.0011 218.496-39.5142L221.819-43.1616C225.386-41.0542 228.601-38.9468 231.465-36.8394L229.641-34.894 244.758-34.894 244.758-29.5444 213.471-29.5444C219.712-23.4383 230.789-20.5474 246.703-20.8716 245.406-18.6561 244.298-16.5757 243.38-14.6304 241.948-14.7384 240.57-14.86 239.246-14.9951L239.246 9.76709 233.572 9.76709 233.572 5.30908 216.227 5.30908 216.227 9.68603 210.553 9.68603 210.553-15.3599 236.369-15.3599C220.914-17.4403 211.039-22.1685 206.743-29.5444L205.284-29.5444C202.258-23.1141 192.451-18.3859 175.861-15.3599L201.799-15.3599 201.799 9.68603 196.125 9.68603 196.125 5.30908 179.022 5.30908 179.022 9.76709 173.349 9.76709 173.349-14.8735C171.917-14.6034 170.431-14.3332 168.891-14.063 168.08-15.6841 167.026-17.6024 165.729-19.8179 183.778-22.1414 194.612-25.3836 198.232-29.5444L168.891-29.5444ZM210.472-64.3979 239.165-64.3979 239.165-40.4868 233.491-40.4868 233.491-43.3237 216.145-43.3237 216.145-40.811 210.472-40.811ZM173.268-64.3979 201.718-64.3979 201.718-40.811 196.044-40.811 196.044-43.3237 178.941-43.3237 178.941-40.0005 173.268-40.0005ZM233.491-59.3726 216.145-59.3726 216.145-48.3491 233.491-48.3491ZM196.044-59.3726 178.941-59.3726 178.941-48.3491 196.044-48.3491ZM233.572-10.3345 216.227-10.3345 216.227 0.283691 233.572 0.283691ZM196.125-10.3345 179.022-10.3345 179.022 0.283691 196.125 0.283691Z" fill="#FFFFFF" transform="matrix(0.501182 0 0 0.5 44.0621 71)"/></g></g></g><path d="M1149.5 923.668C1149.5 873.317 1190.32 832.5 1240.67 832.5L1605.33 832.5C1655.68 832.5 1696.5 873.317 1696.5 923.668L1696.5 1667.33C1696.5 1717.68 1655.68 1758.5 1605.33 1758.5L1240.67 1758.5C1190.32 1758.5 1149.5 1717.68 1149.5 1667.33Z" stroke="#2E54A1" stroke-width="9.16667" stroke-miterlimit="8" fill="#4874CB" fill-rule="evenodd"/><text fill="#FFFFFF" font-family="Microsoft YaHei,Microsoft YaHei_MSFontService,sans-serif" font-weight="400" font-size="83" transform="matrix(1 0 0 1 1298.92 1324)">编码器</text><g clip-path="url(#clip10)"><g clip-path="url(#clip11)" filter="url(#fx2)" transform="matrix(2 0 0 1.99857 2587 425)"><g clip-path="url(#clip12)"><path d="M21 66.8822C21 41.6426 41.4461 21.1818 66.6676 21.1818L249.332 21.1818C274.554 21.1818 295 41.6426 295 66.8822L295 630.451C295 655.691 274.554 676.152 249.332 676.152L66.6676 676.152C41.4461 676.152 21 655.691 21 630.451Z" stroke="#2E54A1" stroke-width="4" stroke-miterlimit="8" fill="#91ACE0" fill-rule="evenodd"/></g></g><g clip-path="url(#clip13)" filter="url(#fx3)" transform="matrix(1.99528 0 0 2 2692 959)"><g clip-path="url(#clip14)" transform="translate(-2.27374e-13 0)"><path d="M0.972656-46.1606C6.86263-52.6991 11.6719-60.3182 15.4004-69.0181L21.0742-67.478C19.9665-65.2085 18.8452-63.02 17.7104-60.9126L32.9893-60.9126 32.9893-55.8872 27.0317-47.2144 37.3662-47.2144 37.3662 1.66162C37.3662 7.06527 34.6914 9.79411 29.3418 9.84814 27.0182 9.90218 24.6136 9.84814 22.1279 9.68603 21.9658 8.33512 21.6686 6.5249 21.2363 4.25537 23.8301 4.52555 26.1536 4.66064 28.207 4.66064 30.8008 4.66064 32.0977 3.39079 32.0977 0.851074L32.0977-12.3608 24.8027-12.3608 24.8027 2.63428 19.5342 2.63428 19.5342-12.3608 12.3203-12.3608C11.861-2.17497 9.64551 5.60628 5.67383 10.9829 4.43099 9.57796 2.91797 8.20003 1.13477 6.84912 5.13346 0.959147 7.13281-6.95719 7.13281-16.8999L7.13281-44.4585C6.3763-43.5129 5.61979-42.5942 4.86328-41.7026 3.94466-42.9455 2.64779-44.4315 0.972656-46.1606ZM39.8789-11.6313 59.0078-11.6313 59.0078-23.3032 49.2002-23.3032C48.0384-20.1961 46.8226-17.2782 45.5527-14.5493 43.9857-15.4679 42.2295-16.2785 40.2842-16.981 43.3102-23.4653 45.7148-30.0308 47.498-36.6772L53.0908-35.1372C52.4424-32.9487 51.7804-30.8413 51.105-28.8149L59.0078-28.8149 59.0078-37.5688 65.0059-37.5688 65.0059-28.8149 79.5146-28.8149 79.5146-23.3032 65.0059-23.3032 65.0059-11.6313 81.46-11.6313 81.46-6.11963 65.0059-6.11963 65.0059 10.9019 59.0078 10.9019 59.0078-6.11963 39.8789-6.11963ZM40.6894-64.8032 77.1641-64.8032C77.0019-59.5076 76.7318-54.5363 76.3535-49.8892 75.9753-43.2967 72.4899-40.0005 65.8975-40.0005 63.6279-40.0005 60.845-40.0815 57.5488-40.2436 57.2246-42.5132 56.8463-44.6746 56.4141-46.728 60.3047-46.2417 63.3577-45.9985 65.5732-45.9985 68.4912-45.9985 70.0853-47.5656 70.3555-50.6997 70.6256-53.1313 70.8148-55.9953 70.9228-59.2915L55.563-59.2915C55.3739-53.9149 54.4147-49.646 52.6855-46.4849 50.7943-42.8104 47.1468-39.244 41.7432-35.7856 40.8786-37.1366 39.5817-38.8657 37.8525-40.9731 42.3376-43.4048 45.4447-46.0796 47.1738-48.9976 48.6328-51.3481 49.4569-54.7795 49.646-59.2915L40.6894-59.2915ZM9.19971-47.2144 20.5068-47.2144 26.4238-55.9683 14.9141-55.9683C13.0498-52.8071 11.145-49.8892 9.19971-47.2144ZM24.8027-17.1431 32.0977-17.1431 32.0977-27.437 24.8027-27.437ZM32.0977-42.4321 24.8027-42.4321 24.8027-32.2192 32.0977-32.2192ZM12.4014-17.1431 19.5342-17.1431 19.5342-27.437 12.4014-27.437ZM12.4014-32.2192 19.5342-32.2192 19.5342-42.4321 12.4014-42.4321ZM83.4726-24.0327C90.0651-33.1649 94.8338-43.5939 97.7788-55.3198L85.8232-55.3198 85.8232-61.3179 116.138-61.3179 116.138-55.3198 104.02-55.3198C102.318-48.5382 100.156-42.216 97.5356-36.353L113.22-36.353 113.22 7.57861 107.465 7.57861 107.465 1.98584 97.333 1.98584 97.333 8.63232 91.5781 8.63232 91.5781-25.127C90.1461-22.8304 88.6331-20.6284 87.0391-18.521 86.2285-20.034 85.0397-21.8713 83.4726-24.0327ZM129.512-55.3198 127.404-31.5708 146.493-31.5708 149.208-58.2378 119.299-58.2378 119.299-64.0737 156.017-64.0737 152.612-31.5708 161.204-31.5708C160.772-20.6014 160.34-11.091 159.907-3.03955 159.421 5.01188 155.584 9.0376 148.397 9.0376 144.777 9.0376 140.724 8.95654 136.239 8.79443 135.915 6.79508 135.537 4.55257 135.104 2.06689 139.481 2.55322 143.426 2.79639 146.938 2.79639 151.099 2.79639 153.342 0.499837 153.666-4.09326 154.098-10.0913 154.423-17.3052 154.639-25.7349L120.839-25.7349 123.352-55.3198ZM107.465-30.8413 97.333-30.8413 97.333-3.36377 107.465-3.36377ZM116.462-14.7925 150.667-14.7925 150.667-8.95654 116.462-8.95654ZM168.891-34.894 201.637-34.894C202.474-36.9204 203.015-39.271 203.258-41.9458L209.094-41.1353C208.77-38.8657 208.297-36.7853 207.675-34.894L225.345-34.894C223.184-36.4611 220.901-38.0011 218.496-39.5142L221.819-43.1616C225.386-41.0542 228.601-38.9468 231.465-36.8394L229.641-34.894 244.758-34.894 244.758-29.5444 213.471-29.5444C219.712-23.4383 230.789-20.5474 246.703-20.8716 245.406-18.6561 244.298-16.5757 243.38-14.6304 241.948-14.7384 240.57-14.86 239.246-14.9951L239.246 9.76709 233.572 9.76709 233.572 5.30908 216.227 5.30908 216.227 9.68603 210.553 9.68603 210.553-15.3599 236.369-15.3599C220.914-17.4403 211.039-22.1685 206.743-29.5444L205.284-29.5444C202.258-23.1141 192.451-18.3859 175.861-15.3599L201.799-15.3599 201.799 9.68603 196.125 9.68603 196.125 5.30908 179.022 5.30908 179.022 9.76709 173.349 9.76709 173.349-14.8735C171.917-14.6034 170.431-14.3332 168.891-14.063 168.08-15.6841 167.026-17.6024 165.729-19.8179 183.778-22.1414 194.612-25.3836 198.232-29.5444L168.891-29.5444ZM210.472-64.3979 239.165-64.3979 239.165-40.4868 233.491-40.4868 233.491-43.3237 216.145-43.3237 216.145-40.811 210.472-40.811ZM173.268-64.3979 201.718-64.3979 201.718-40.811 196.044-40.811 196.044-43.3237 178.941-43.3237 178.941-40.0005 173.268-40.0005ZM233.491-59.3726 216.145-59.3726 216.145-48.3491 233.491-48.3491ZM196.044-59.3726 178.941-59.3726 178.941-48.3491 196.044-48.3491ZM233.572-10.3345 216.227-10.3345 216.227 0.283691 233.572 0.283691ZM196.125-10.3345 179.022-10.3345 179.022 0.283691 196.125 0.283691Z" fill="#FFFFFF" transform="matrix(0.501182 0 0 0.5 43.8647 71)"/></g></g></g><path d="M2629 540.335C2629 489.892 2669.89 449 2720.34 449L3085.66 449C3136.11 449 3177 489.892 3177 540.335L3177 1666.66C3177 1717.11 3136.11 1758 3085.66 1758L2720.34 1758C2669.89 1758 2629 1717.11 2629 1666.66Z" stroke="#2E54A1" stroke-width="8.02083" stroke-miterlimit="8" fill="#91ACE0" fill-rule="evenodd"/><text fill="#FFFFFF" font-family="Microsoft YaHei,Microsoft YaHei_MSFontService,sans-serif" font-weight="400" font-size="83" transform="matrix(1 0 0 1 2779.52 1083)">解码器</text><path d="M0 0C-151.835 0-303.668 185.075-303.668 370.148-303.668 555.223-139.108 740.298 25.4527 740.298 190.014 740.298 354.575 973.537 354.575 1206.78" stroke="#8497B0" stroke-width="9.16667" stroke-miterlimit="8" fill="none" fill-rule="evenodd" transform="matrix(1.83697e-16 1 1 -1.83697e-16 1423.5 832.5)"/><path d="M4.58333-9.63715e-06 4.58365 148.72-4.58302 148.72-4.58333 9.63715e-06ZM13.7503 144.137 0.000360892 171.637-13.7497 144.137Z" fill="#4874CB" transform="matrix(1 0 0 -1 2903.5 449.137)"/><text fill="#767171" font-family="Calibri,Calibri_MSFontService,sans-serif" font-weight="400" font-size="83" transform="matrix(1 0 0 1 2565.06 244)">Output probabilities</text></g></svg>