<svg width="3139" height="2212" xmlns="http://www.w3.org/2000/svg" xmlns:xlink="http://www.w3.org/1999/xlink" overflow="hidden"><defs><clipPath id="clip0"><rect x="684" y="161" width="3139" height="2212"/></clipPath></defs><g clip-path="url(#clip0)" transform="translate(-684 -161)"><path d="M894.5 167.5 894.5 2164.79" stroke="#D6DCE5" stroke-width="12.6042" stroke-miterlimit="8" fill="none" fill-rule="evenodd"/><path d="M0 0 2921.32 6.78947" stroke="#D6DCE5" stroke-width="12.6042" stroke-miterlimit="8" fill="none" fill-rule="evenodd" transform="matrix(-1 0 0 1 3815.82 2157.5)"/><path d="M0 0 2921.32 6.78947" stroke="#D6DCE5" stroke-width="12.6042" stroke-miterlimit="8" fill="none" fill-rule="evenodd" transform="matrix(-1 0 0 1 3815.82 1906.5)"/><path d="M0 0 2921.32 6.78947" stroke="#D6DCE5" stroke-width="12.6042" stroke-miterlimit="8" fill="none" fill-rule="evenodd" transform="matrix(-1 0 0 1 3815.82 1651.5)"/><path d="M0 0 2921.32 6.78947" stroke="#D6DCE5" stroke-width="12.6042" stroke-miterlimit="8" fill="none" fill-rule="evenodd" transform="matrix(-1 0 0 1 3815.82 1406.5)"/><path d="M0 0 2921.32 6.78947" stroke="#D6DCE5" stroke-width="12.6042" stroke-miterlimit="8" fill="none" fill-rule="evenodd" transform="matrix(-1 0 0 1 3815.82 1145.5)"/><path d="M0 0 2921.32 6.78947" stroke="#D6DCE5" stroke-width="12.6042" stroke-miterlimit="8" fill="none" fill-rule="evenodd" transform="matrix(-1 0 0 1 3815.82 893.5)"/><path d="M0 0 2921.32 6.78947" stroke="#D6DCE5" stroke-width="12.6042" stroke-miterlimit="8" fill="none" fill-rule="evenodd" transform="matrix(-1 0 0 1 3815.82 167.5)"/><path d="M3815.5 174.5 3815.5 2165.12" stroke="#D6DCE5" stroke-width="12.6042" stroke-miterlimit="8" fill="none" fill-rule="evenodd"/><text fill="#2F5597" font-family="Times New Roman,Times New Roman_MSFontService,sans-serif" font-weight="700" font-size="83" transform="matrix(1 0 0 1 733.996 2180)">2<tspan font-size="83" x="41.25" y="0">5</tspan><tspan font-size="83" x="0" y="-238">26</tspan></text><path d="M0 0 2921.32 6.78947" stroke="#D6DCE5" stroke-width="12.6042" stroke-miterlimit="8" fill="none" fill-rule="evenodd" transform="matrix(-1 0 0 1 3815.82 643.5)"/><path d="M0 0 2921.32 6.78947" stroke="#D6DCE5" stroke-width="12.6042" stroke-miterlimit="8" fill="none" fill-rule="evenodd" transform="matrix(-1 0 0 1 3815.82 411.5)"/><text fill="#2F5597" font-family="Times New Roman,Times New Roman_MSFontService,sans-serif" font-weight="700" font-size="83" transform="matrix(1 0 0 1 733.994 1681)">27<tspan font-size="83" x="0" y="-239">28</tspan><tspan font-size="83" x="0" y="-502">29</tspan><tspan font-size="83" x="0" y="-740">3</tspan><tspan font-size="83" x="41.25" y="-740">0</tspan><tspan font-size="83" x="-0.00146484" y="-1002">3</tspan><tspan font-size="83" x="41.2485" y="-1002">1</tspan><tspan font-size="83" x="-0.00146484" y="-1240">3</tspan><tspan font-size="83" x="41.2485" y="-1240">2</tspan><tspan font-size="83" x="333.091" y="623">1</tspan></text><rect x="1308.5" y="2207.5" width="193" height="134" stroke="#A9D18E" stroke-width="3.4375" stroke-linejoin="round" stroke-miterlimit="10" fill="none"/><text fill="#2F5597" font-family="Times New Roman,Times New Roman_MSFontService,sans-serif" font-weight="700" font-size="83" transform="matrix(1 0 0 1 1340.85 2304)">2<tspan font-size="83" x="265.593" y="0">3</tspan><tspan font-size="83" x="539.357" y="0">4</tspan><tspan font-size="83" x="813.121" y="0">5</tspan><tspan font-size="83" x="1086.88" y="0">6</tspan><tspan font-size="83" x="1352.48" y="0">7</tspan><tspan font-size="83" x="1626.24" y="0">8</tspan><tspan font-size="83" x="1900.01" y="-2">9</tspan><tspan font-size="83" x="2173.77" y="-2">10</tspan></text><path d="M1036.5 1649C1036.5 1631.05 1051.05 1616.5 1069 1616.5 1086.95 1616.5 1101.5 1631.05 1101.5 1649 1101.5 1666.95 1086.95 1681.5 1069 1681.5 1051.05 1681.5 1036.5 1666.95 1036.5 1649Z" stroke="#2F528F" stroke-width="4.58333" stroke-miterlimit="8" fill="#4472C4" fill-rule="evenodd"/><path d="M1308.5 1228.5C1308.5 1210.83 1323.05 1196.5 1341 1196.5 1358.95 1196.5 1373.5 1210.83 1373.5 1228.5 1373.5 1246.17 1358.95 1260.5 1341 1260.5 1323.05 1260.5 1308.5 1246.17 1308.5 1228.5Z" stroke="#2F528F" stroke-width="4.58333" stroke-miterlimit="8" fill="#4472C4" fill-rule="evenodd"/><path d="M0 0 225.915 374.258" stroke="#4472C4" stroke-width="10.3125" stroke-miterlimit="8" fill="none" fill-rule="evenodd" transform="matrix(1 0 0 -1 1091 1625.26)"/><path d="M1573.5 822C1573.5 804.051 1588.05 789.5 1606 789.5 1623.95 789.5 1638.5 804.051 1638.5 822 1638.5 839.949 1623.95 854.5 1606 854.5 1588.05 854.5 1573.5 839.949 1573.5 822Z" stroke="#2F528F" stroke-width="4.58333" stroke-miterlimit="8" fill="#4472C4" fill-rule="evenodd"/><path d="M0 0 219.658 360.305" stroke="#4472C4" stroke-width="10.3125" stroke-miterlimit="8" fill="none" fill-rule="evenodd" transform="matrix(1 0 0 -1 1363 1205.3)"/><path d="M0 0 230.749 92.2048" stroke="#4472C4" stroke-width="10.3125" stroke-miterlimit="8" fill="none" fill-rule="evenodd" transform="matrix(1 0 0 -1 1638 822.205)"/><path d="M1869.5 730C1869.5 712.051 1884.05 697.5 1902 697.5 1919.95 697.5 1934.5 712.051 1934.5 730 1934.5 747.949 1919.95 762.5 1902 762.5 1884.05 762.5 1869.5 747.949 1869.5 730Z" stroke="#2F528F" stroke-width="4.58333" stroke-miterlimit="8" fill="#4472C4" fill-rule="evenodd"/><path d="M1934 730 2394.85 822.205" stroke="#4472C4" stroke-width="10.3125" stroke-miterlimit="8" fill="none" fill-rule="evenodd"/><path d="M2395.5 822C2395.5 804.051 2410.05 789.5 2428 789.5 2445.95 789.5 2460.5 804.051 2460.5 822 2460.5 839.949 2445.95 854.5 2428 854.5 2410.05 854.5 2395.5 839.949 2395.5 822Z" stroke="#2F528F" stroke-width="4.58333" stroke-miterlimit="8" fill="#4472C4" fill-rule="evenodd"/><path d="M0 0 449.27 61.5769" stroke="#4472C4" stroke-width="10.3125" stroke-miterlimit="8" fill="none" fill-rule="evenodd" transform="matrix(1 0 0 -1 2460 821.577)"/><path d="M2909.5 761C2909.5 743.051 2924.05 728.5 2942 728.5 2959.95 728.5 2974.5 743.051 2974.5 761 2974.5 778.949 2959.95 793.5 2942 793.5 2924.05 793.5 2909.5 778.949 2909.5 761Z" stroke="#2F528F" stroke-width="4.58333" stroke-miterlimit="8" fill="#4472C4" fill-rule="evenodd"/><path d="M3502.5 968C3502.5 950.051 3517.05 935.5 3535 935.5 3552.95 935.5 3567.5 950.051 3567.5 968 3567.5 985.949 3552.95 1000.5 3535 1000.5 3517.05 1000.5 3502.5 985.949 3502.5 968Z" stroke="#2F528F" stroke-width="4.58333" stroke-miterlimit="8" fill="#4472C4" fill-rule="evenodd"/><path d="M2974 760 3511.28 944.605" stroke="#4472C4" stroke-width="10.3125" stroke-miterlimit="8" fill="none" fill-rule="evenodd"/><path d="M3266.5 1870C3266.5 1852.05 3281.05 1837.5 3299 1837.5 3316.95 1837.5 3331.5 1852.05 3331.5 1870 3331.5 1887.95 3316.95 1902.5 3299 1902.5 3281.05 1902.5 3266.5 1887.95 3266.5 1870Z" stroke="#2F528F" stroke-width="4.58333" stroke-miterlimit="8" fill="#4472C4" fill-rule="evenodd"/><path d="M3136 1869 3447.48 1869" stroke="#4472C4" stroke-width="10.3125" stroke-miterlimit="8" fill="none" fill-rule="evenodd"/><text fill="#2F5597" font-family="Times New Roman,Times New Roman_MSFontService,sans-serif" font-weight="700" font-size="73" transform="matrix(1 0 0 1 3473.38 1886)">OVIS</text></g></svg>