<svg width="3693" height="1843" xmlns="http://www.w3.org/2000/svg" xmlns:xlink="http://www.w3.org/1999/xlink" overflow="hidden"><defs><clipPath id="clip0"><rect x="234" y="521" width="3693" height="1843"/></clipPath></defs><g clip-path="url(#clip0)" transform="translate(-234 -521)"><path d="M1058.5 521.5 1058.5 1885.5" stroke="#2F5597" stroke-width="12.6042" stroke-miterlimit="8" fill="none" fill-rule="evenodd"/><path d="M0 0 2794 0.000360892" stroke="#2F5597" stroke-width="12.6042" stroke-miterlimit="8" fill="none" fill-rule="evenodd" transform="matrix(-1 0 0 1 3852.5 1786.5)"/><path d="M0 0 0.000360892 99" stroke="#2F5597" stroke-width="12.6042" stroke-miterlimit="8" fill="none" fill-rule="evenodd" transform="matrix(1 0 0 -1 1468.5 1885.5)"/><path d="M0 0 0.000360892 99" stroke="#2F5597" stroke-width="12.6042" stroke-miterlimit="8" fill="none" fill-rule="evenodd" transform="matrix(1 0 0 -1 2419.5 1885.5)"/><path d="M0 0 0.000360892 99" stroke="#2F5597" stroke-width="12.6042" stroke-miterlimit="8" fill="none" fill-rule="evenodd" transform="matrix(1 0 0 -1 1938.5 1885.5)"/><path d="M0 0 0.000360892 99" stroke="#2F5597" stroke-width="12.6042" stroke-miterlimit="8" fill="none" fill-rule="evenodd" transform="matrix(1 0 0 -1 2920.5 1885.5)"/><path d="M0 0 0.000360892 99" stroke="#2F5597" stroke-width="12.6042" stroke-miterlimit="8" fill="none" fill-rule="evenodd" transform="matrix(1 0 0 -1 3345.5 1885.5)"/><text fill="#2F5597" font-family="DengXian,DengXian_MSFontService,sans-serif" font-weight="700" font-size="83" transform="matrix(1 0 0 1 1041.33 2014)">0</text><path d="M948.5 1492.5 1058.69 1492.5" stroke="#2F5597" stroke-width="12.6042" stroke-miterlimit="8" fill="none" fill-rule="evenodd"/><path d="M948.5 1195.5 1058.69 1195.5" stroke="#2F5597" stroke-width="12.6042" stroke-miterlimit="8" fill="none" fill-rule="evenodd"/><path d="M946.5 883.5 1056.69 883.5" stroke="#2F5597" stroke-width="12.6042" stroke-miterlimit="8" fill="none" fill-rule="evenodd"/><text fill="#2F5597" font-family="Times New Roman,Times New Roman_MSFontService,sans-serif" font-weight="400" font-size="83" transform="matrix(1 0 0 1 283.838 1522)">Ours<tspan font-size="83" x="181.042" y="0">STD</tspan><tspan font-size="83" x="336.875" y="0">-</tspan>VOST<tspan font-size="83" x="141.329" y="-305">DCNv2</tspan><tspan font-size="83" x="159.276" y="-610">DCNv1</tspan><tspan font-size="110" x="1949.16" y="749">% out</tspan><tspan font-size="110" x="2208.69" y="749">-</tspan><tspan font-size="110" x="2245.36" y="749">of</tspan><tspan font-size="110" x="2337.03" y="749">-</tspan><tspan font-size="110" x="2373.69" y="749">bounds sampling locations</tspan></text><rect x="1057.5" y="1382.5" width="1397" height="245" stroke="#2F528F" stroke-width="4.58333" stroke-miterlimit="8" fill="#4472C4"/><rect x="1057.5" y="1072.5" width="1746" height="245" stroke="#2F528F" stroke-width="4.58333" stroke-miterlimit="8" fill="#BF9000"/><rect x="1059.5" y="765.5" width="1781" height="245" stroke="#2F528F" stroke-width="4.58333" stroke-miterlimit="8" fill="#FFD966"/><text font-family="Times New Roman,Times New Roman_MSFontService,sans-serif" font-weight="400" font-size="92" transform="matrix(1 0 0 1 2535.1 1569)">17.5<tspan font-size="92" x="336.745" y="-326">24.2</tspan><tspan font-size="92" x="392.15" y="-653">25.3</tspan><tspan fill="#2F5597" font-family="DengXian,DengXian_MSFontService,sans-serif" font-weight="700" font-size="83" x="-1089.67" y="445">5</tspan><tspan fill="#2F5597" font-family="DengXian,DengXian_MSFontService,sans-serif" font-weight="700" font-size="83" x="-637.608" y="445">1</tspan><tspan fill="#2F5597" font-family="DengXian,DengXian_MSFontService,sans-serif" font-weight="700" font-size="83" x="-591.775" y="445">0</tspan><tspan fill="#2F5597" font-family="DengXian,DengXian_MSFontService,sans-serif" font-weight="700" font-size="83" x="-156.26" y="445">1</tspan><tspan fill="#2F5597" font-family="DengXian,DengXian_MSFontService,sans-serif" font-weight="700" font-size="83" x="-110.427" y="445">5</tspan><tspan fill="#2F5597" font-family="DengXian,DengXian_MSFontService,sans-serif" font-weight="700" font-size="83" x="346.387" y="445">20</tspan><tspan fill="#2F5597" font-family="DengXian,DengXian_MSFontService,sans-serif" font-weight="700" font-size="83" x="759.347" y="445">2</tspan><tspan fill="#2F5597" font-family="DengXian,DengXian_MSFontService,sans-serif" font-weight="700" font-size="83" x="805.181" y="445">5</tspan></text></g></svg>