<svg width="3344" height="2248" xmlns="http://www.w3.org/2000/svg" xmlns:xlink="http://www.w3.org/1999/xlink" overflow="hidden"><defs><clipPath id="clip0"><rect x="265" y="119" width="3344" height="2248"/></clipPath></defs><g clip-path="url(#clip0)" transform="translate(-265 -119)"><path d="M0 0 0.000360892 1891.18" stroke="#2F5597" stroke-width="12.6042" stroke-miterlimit="8" fill="none" fill-rule="evenodd" transform="matrix(-1 0 0 1 681.501 134.5)"/><path d="M0 0 2921.32 6.78947" stroke="#2F5597" stroke-width="12.6042" stroke-miterlimit="8" fill="none" fill-rule="evenodd" transform="matrix(-1 0 0 1 3602.82 2018.5)"/><path d="M3602.5 125.5 3602.5 2019" stroke="#2F5597" stroke-width="12.6042" stroke-miterlimit="8" fill="none" fill-rule="evenodd"/><path d="M0 0 2927.3 9.10459" stroke="#2F5597" stroke-width="12.6042" stroke-miterlimit="8" fill="none" fill-rule="evenodd" transform="matrix(-1 0 0 1 3605.8 125.5)"/><text fill="#333F50" font-family="Times New Roman,Times New Roman_MSFontService,sans-serif" font-weight="700" font-size="83" transform="matrix(1 0 0 1 673.842 2177)">30<tspan font-size="83" x="602.219" y="-4">8</tspan>0<tspan font-size="83" x="1204.44" y="-4">1</tspan>30<tspan font-size="83" x="1806.66" y="-4">180</tspan><tspan font-size="83" x="2458.57" y="-4">230</tspan><tspan font-size="83" x="-193.08" y="-133">30</tspan><tspan font-size="83" x="-193.08" y="-512">35</tspan><tspan font-size="83" x="-193.08" y="-862">4</tspan><tspan font-size="83" x="-151.83" y="-862">0</tspan><tspan font-size="83" x="-193.08" y="-1241">45</tspan><tspan font-size="83" x="-193.08" y="-1553">50</tspan><tspan font-size="83" x="-193.08" y="-1860">55</tspan></text><path d="M913.5 1914C913.5 1896.05 928.051 1881.5 946 1881.5 963.949 1881.5 978.5 1896.05 978.5 1914 978.5 1931.95 963.949 1946.5 946 1946.5 928.051 1946.5 913.5 1931.95 913.5 1914Z" stroke="#2F528F" stroke-width="4.58333" stroke-miterlimit="8" fill="#4472C4" fill-rule="evenodd"/><path d="M1153.5 1660C1153.5 1642.05 1167.83 1627.5 1185.5 1627.5 1203.17 1627.5 1217.5 1642.05 1217.5 1660 1217.5 1677.95 1203.17 1692.5 1185.5 1692.5 1167.83 1692.5 1153.5 1677.95 1153.5 1660Z" stroke="#2F528F" stroke-width="4.58333" stroke-miterlimit="8" fill="#4472C4" fill-rule="evenodd"/><path d="M0 0 193.222 208.414" stroke="#4472C4" stroke-width="10.3125" stroke-miterlimit="8" fill="none" fill-rule="evenodd" transform="matrix(1 0 0 -1 969 1890.41)"/><path d="M1092.5 1951C1092.5 1933.05 1107.05 1918.5 1125 1918.5 1142.95 1918.5 1157.5 1933.05 1157.5 1951 1157.5 1968.95 1142.95 1983.5 1125 1983.5 1107.05 1983.5 1092.5 1968.95 1092.5 1951Z" stroke="#548235" stroke-width="4.58333" stroke-miterlimit="8" fill="#548235" fill-rule="evenodd"/><path d="M1340.5 1760C1340.5 1742.05 1355.05 1727.5 1373 1727.5 1390.95 1727.5 1405.5 1742.05 1405.5 1760 1405.5 1777.95 1390.95 1792.5 1373 1792.5 1355.05 1792.5 1340.5 1777.95 1340.5 1760Z" stroke="#548235" stroke-width="4.58333" stroke-miterlimit="8" fill="#548235" fill-rule="evenodd"/><path d="M0 0 198.193 168.402" stroke="#548235" stroke-width="10.3125" stroke-miterlimit="8" fill="none" fill-rule="evenodd" transform="matrix(1 0 0 -1 1147 1927.4)"/><path d="M0 0 556.186 202.745" stroke="#548235" stroke-width="10.3125" stroke-miterlimit="8" fill="none" fill-rule="evenodd" transform="matrix(1 0 0 -1 1395 1736.75)"/><path d="M1951.5 1534C1951.5 1516.05 1966.05 1501.5 1984 1501.5 2001.95 1501.5 2016.5 1516.05 2016.5 1534 2016.5 1551.95 2001.95 1566.5 1984 1566.5 1966.05 1566.5 1951.5 1551.95 1951.5 1534Z" stroke="#548235" stroke-width="4.58333" stroke-miterlimit="8" fill="#548235" fill-rule="evenodd"/><path d="M1075.5 1519C1075.5 1501.05 1090.05 1486.5 1108 1486.5 1125.95 1486.5 1140.5 1501.05 1140.5 1519 1140.5 1536.95 1125.95 1551.5 1108 1551.5 1090.05 1551.5 1075.5 1536.95 1075.5 1519Z" stroke="#8FAADC" stroke-width="4.58333" stroke-miterlimit="8" fill="#8FAADC" fill-rule="evenodd"/><path d="M1307.5 1255C1307.5 1237.05 1322.05 1222.5 1340 1222.5 1357.95 1222.5 1372.5 1237.05 1372.5 1255 1372.5 1272.95 1357.95 1287.5 1340 1287.5 1322.05 1287.5 1307.5 1272.95 1307.5 1255Z" stroke="#8FAADC" stroke-width="4.58333" stroke-miterlimit="8" fill="#8FAADC" fill-rule="evenodd"/><path d="M0 0 186.244 218.315" stroke="#8FAADC" stroke-width="10.3125" stroke-miterlimit="8" fill="none" fill-rule="evenodd" transform="matrix(1 0 0 -1 1130 1495.32)"/><path d="M1471.5 1289C1471.5 1271.05 1486.05 1256.5 1504 1256.5 1521.95 1256.5 1536.5 1271.05 1536.5 1289 1536.5 1306.95 1521.95 1321.5 1504 1321.5 1486.05 1321.5 1471.5 1306.95 1471.5 1289Z" stroke="#C9C9C9" stroke-width="4.58333" stroke-miterlimit="8" fill="#C9C9C9" fill-rule="evenodd"/><path d="M1720.5 1098C1720.5 1080.05 1735.05 1065.5 1753 1065.5 1770.95 1065.5 1785.5 1080.05 1785.5 1098 1785.5 1115.95 1770.95 1130.5 1753 1130.5 1735.05 1130.5 1720.5 1115.95 1720.5 1098Z" stroke="#C9C9C9" stroke-width="4.58333" stroke-miterlimit="8" fill="#C9C9C9" fill-rule="evenodd"/><path d="M0 0 192.598 167.724" stroke="#C9C9C9" stroke-width="10.3125" stroke-miterlimit="8" fill="none" fill-rule="evenodd" transform="matrix(1 0 0 -1 1527 1265.72)"/><path d="M0 0 556.186 202.745" stroke="#C9C9C9" stroke-width="10.3125" stroke-miterlimit="8" fill="none" fill-rule="evenodd" transform="matrix(1 0 0 -1 1775 1074.75)"/><path d="M2331.5 872C2331.5 854.051 2346.05 839.5 2364 839.5 2381.95 839.5 2396.5 854.051 2396.5 872 2396.5 889.949 2381.95 904.5 2364 904.5 2346.05 904.5 2331.5 889.949 2331.5 872Z" stroke="#C9C9C9" stroke-width="4.58333" stroke-miterlimit="8" fill="#C9C9C9" fill-rule="evenodd"/><text font-family="Times New Roman,Times New Roman_MSFontService,sans-serif" font-weight="700" font-size="73" transform="matrix(1 0 0 1 1940.25 1659)">Mask<tspan font-size="73" x="175.313" y="0">-</tspan><tspan font-size="73" x="199.948" y="0">Track</tspan><tspan font-size="73" x="-1201.75" y="104">STEm</tspan><tspan font-size="73" x="-1002.37" y="104">-</tspan>Seg<tspan font-size="73" x="-944.411" y="-255">VisTR</tspan><tspan font-size="73" x="-138.582" y="-516">Propose</tspan><tspan font-size="73" x="112.745" y="-516">-</tspan><tspan font-size="73" x="137.38" y="-516">Reduce</tspan><tspan font-size="64" x="-787.298" y="-116">R50</tspan><tspan font-size="64" x="-633.943" y="-305">R</tspan><tspan font-size="64" x="-587.537" y="-305">1</tspan><tspan font-size="64" x="-555.453" y="-305">0</tspan><tspan font-size="64" x="-523.37" y="-305">1</tspan></text><path d="M1036.5 888C1036.5 870.051 1051.05 855.5 1069 855.5 1086.95 855.5 1101.5 870.051 1101.5 888 1101.5 905.949 1086.95 920.5 1069 920.5 1051.05 920.5 1036.5 905.949 1036.5 888Z" stroke="#FFE699" stroke-width="4.58333" stroke-miterlimit="8" fill="#FFE699" fill-rule="evenodd"/><path d="M1275.5 638C1275.5 620.051 1290.05 605.5 1308 605.5 1325.95 605.5 1340.5 620.051 1340.5 638 1340.5 655.949 1325.95 670.5 1308 670.5 1290.05 670.5 1275.5 655.949 1275.5 638Z" stroke="#FFE699" stroke-width="4.58333" stroke-miterlimit="8" fill="#FFE699" fill-rule="evenodd"/><path d="M0 0 183.606 227.313" stroke="#FFE699" stroke-width="10.3125" stroke-miterlimit="8" fill="none" fill-rule="evenodd" transform="matrix(1 0 0 -1 1091 864.313)"/><path d="M0 0 1630.55 412.639" stroke="#FFE699" stroke-width="10.3125" stroke-miterlimit="8" fill="none" fill-rule="evenodd" transform="matrix(1 0 0 -1 1330 614.639)"/><path d="M2961.5 202C2961.5 184.051 2976.05 169.5 2994 169.5 3011.95 169.5 3026.5 184.051 3026.5 202 3026.5 219.949 3011.95 234.5 2994 234.5 2976.05 234.5 2961.5 219.949 2961.5 202Z" stroke="#FFE699" stroke-width="4.58333" stroke-miterlimit="8" fill="#FFE699" fill-rule="evenodd"/><text font-family="Times New Roman,Times New Roman_MSFontService,sans-serif" font-weight="700" font-size="73" transform="matrix(1 0 0 1 1320.21 468)">SeqFormer<tspan font-size="73" x="351.908" y="0">-</tspan><tspan font-size="73" x="376.544" y="0">Swin</tspan><tspan font-size="64" x="-389.874" y="379">R50</tspan><tspan font-size="64" x="275.722" y="357">R</tspan><tspan font-size="64" x="322.129" y="357">1</tspan><tspan font-size="64" x="354.212" y="357">0</tspan><tspan font-size="64" x="386.295" y="357">1</tspan></text><path d="M0 0 502.098 68.3606" stroke="#333F50" stroke-width="10.3125" stroke-miterlimit="8" fill="none" fill-rule="evenodd" transform="matrix(1 0 0 -1 1104 776.361)"/><path d="M0 0 512.593 162.619" stroke="#333F50" stroke-width="10.3125" stroke-miterlimit="8" fill="none" fill-rule="evenodd" transform="matrix(1 0 0 -1 1677 708.619)"/><text font-family="Times New Roman,Times New Roman_MSFontService,sans-serif" font-weight="700" font-size="73" transform="matrix(1 0 0 1 1900.41 691)">Ours</text><path d="M1033.5 777 1069 741.5 1104.5 777 1069 812.5Z" stroke="#2F528F" stroke-width="4.58333" stroke-miterlimit="8" fill="#333F50" fill-rule="evenodd"/><path d="M1606.5 709 1642 673.5 1677.5 709 1642 744.5Z" stroke="#2F528F" stroke-width="4.58333" stroke-miterlimit="8" fill="#333F50" fill-rule="evenodd"/><path d="M2189.5 546 2225 510.5 2260.5 546 2225 581.5Z" stroke="#2F528F" stroke-width="4.58333" stroke-miterlimit="8" fill="#333F50" fill-rule="evenodd"/><text fill="#333F50" font-family="Times New Roman,Times New Roman_MSFontService,sans-serif" font-weight="700" font-size="83" transform="matrix(1 0 0 1 1661.37 2298)">Params(Millions)</text><text fill="#333F50" font-family="Times New Roman,Times New Roman_MSFontService,sans-serif" font-weight="700" font-size="83" transform="matrix(-1.83697e-16 -1 1 -1.83697e-16 370.171 1483)">Youtube<tspan font-size="83" x="293" y="5.38232e-14">-</tspan><tspan font-size="83" x="321" y="5.89667e-14">VIS 2019 AP</tspan></text></g></svg>