<svg width="3411" height="725" xmlns="http://www.w3.org/2000/svg" xmlns:xlink="http://www.w3.org/1999/xlink" overflow="hidden"><defs><clipPath id="clip0"><rect x="355" y="755" width="3411" height="725"/></clipPath></defs><g clip-path="url(#clip0)" transform="translate(-355 -755)"><rect x="360" y="875.225" width="134.775" height="599.775" fill="#FFD966" fill-opacity="0.980392"/><path d="M494.775 875.225 610 760 610 1359.78 494.775 1475Z" fill="#CDAE52" fill-rule="evenodd" fill-opacity="0.980392"/><path d="M360 875.225 475.225 760 610 760 494.775 875.225Z" fill="#FFE084" fill-rule="evenodd" fill-opacity="0.980392"/><path d="M360 875.225 475.225 760 610 760 610 1359.78 494.775 1475 360 1475ZM360 875.225 494.775 875.225 610 760M494.775 875.225 494.775 1475" stroke="#2E75B6" stroke-width="10.3125" stroke-miterlimit="8" fill="none" fill-rule="evenodd"/><path d="M639.5 1112.77 874.019 1112.77 874.019 1124.23 639.5 1124.23ZM868.289 1101.31 902.664 1118.5 868.289 1135.69Z" fill="#4472C4"/><path d="M932.5 927.835C932.5 875.183 975.183 832.5 1027.83 832.5L1701.17 832.5C1753.82 832.5 1796.5 875.183 1796.5 927.835L1796.5 1309.17C1796.5 1361.82 1753.82 1404.5 1701.17 1404.5L1027.83 1404.5C975.183 1404.5 932.5 1361.82 932.5 1309.17Z" stroke="#2F528F" stroke-width="9.16667" stroke-miterlimit="8" fill="#F4B183" fill-rule="evenodd"/><text font-family="DengXian,DengXian_MSFontService,sans-serif" font-weight="700" font-size="83" transform="matrix(1 0 0 1 1228.94 1046)">3D<tspan font-size="83" x="104.844" y="0">卷积</tspan><tspan font-size="83" x="-197.083" y="99">（</tspan><tspan font-size="83" x="-114.583" y="99">kernel=4*4*4</tspan><tspan font-size="83" x="384.427" y="99">，</tspan><tspan font-size="83" x="-68.1771" y="198">Stride=4</tspan><tspan font-size="83" x="255.521" y="198">）</tspan></text><path d="M1867.17 1475.5C1844.16 1475.5 1825.5 1456.84 1825.5 1433.83L1825.5 802.167C1825.5 779.155 1844.16 760.5 1867.17 760.5L2033.83 760.5C2056.84 760.5 2075.5 779.155 2075.5 802.167L2075.5 1433.83C2075.5 1456.84 2056.84 1475.5 2033.83 1475.5Z" stroke="#2F528F" stroke-width="9.16667" stroke-miterlimit="8" fill="#FBE5D6" fill-rule="evenodd"/><text font-family="DengXian,DengXian_MSFontService,sans-serif" font-weight="700" font-size="92" transform="matrix(-1.83697e-16 -1 1 -1.83697e-16 1981.27 1379)">LayerNorm<tspan font-size="92" x="462" y="8.4868e-14">()</tspan></text><path d="M2104.5 927.836C2104.5 875.183 2147.18 832.5 2199.84 832.5L2874.16 832.5C2926.82 832.5 2969.5 875.183 2969.5 927.836L2969.5 1309.16C2969.5 1361.82 2926.82 1404.5 2874.16 1404.5L2199.84 1404.5C2147.18 1404.5 2104.5 1361.82 2104.5 1309.16Z" stroke="#2F528F" stroke-width="9.16667" stroke-miterlimit="8" fill="#F4B183" fill-rule="evenodd"/><text font-family="DengXian,DengXian_MSFontService,sans-serif" font-weight="700" font-size="83" transform="matrix(1 0 0 1 2401.74 1046)">3D<tspan font-size="83" x="104.844" y="0">卷积</tspan><tspan font-size="83" x="-197.083" y="99">（</tspan><tspan font-size="83" x="-114.583" y="99">kernel=4*4*4</tspan><tspan font-size="83" x="384.427" y="99">，</tspan><tspan font-size="83" x="-68.177" y="198">Stride=4</tspan><tspan font-size="83" x="255.521" y="198">）</tspan></text><path d="M3043.17 1475.5C3020.16 1475.5 3001.5 1456.84 3001.5 1433.83L3001.5 802.167C3001.5 779.155 3020.16 760.5 3043.17 760.5L3209.83 760.5C3232.84 760.5 3251.5 779.155 3251.5 802.167L3251.5 1433.83C3251.5 1456.84 3232.84 1475.5 3209.83 1475.5Z" stroke="#2F528F" stroke-width="9.16667" stroke-miterlimit="8" fill="#FBE5D6" fill-rule="evenodd"/><text font-family="DengXian,DengXian_MSFontService,sans-serif" font-weight="700" font-size="92" transform="matrix(-1.83697e-16 -1 1 -1.83697e-16 3157.25 1379)">LayerNorm<tspan font-size="92" x="462" y="8.4868e-14">()</tspan></text><path d="M3284.5 1111.77 3519.02 1111.77 3519.02 1123.23 3284.5 1123.23ZM3513.29 1100.31 3547.66 1117.5 3513.29 1134.69Z" fill="#4472C4"/><rect x="3580" y="992.423" width="97.5767" height="332.577" fill="#FFD966" fill-opacity="0.980392"/><path d="M3677.58 992.423 3761 909 3761 1241.58 3677.58 1325Z" fill="#CDAE52" fill-rule="evenodd" fill-opacity="0.980392"/><path d="M3580 992.423 3663.42 909 3761 909 3677.58 992.423Z" fill="#FFE084" fill-rule="evenodd" fill-opacity="0.980392"/><path d="M3580 992.423 3663.42 909 3761 909 3761 1241.58 3677.58 1325 3580 1325ZM3580 992.423 3677.58 992.423 3761 909M3677.58 992.423 3677.58 1325" stroke="#2E75B6" stroke-width="10.3125" stroke-miterlimit="8" fill="none" fill-rule="evenodd"/></g></svg>